/* XPM */
static char *result[] = {
/* columns rows colors chars-per-pixel */
"64 64 211 2 ",
"   c #1B1F06",
".  c #271A15",
"X  c #2A1C16",
"o  c #291B19",
"O  c #301F18",
"+  c #1B2606",
"@  c #1D2A07",
"#  c #1F2309",
"$  c #1E2D09",
"%  c #1F2C0F",
"&  c #22280B",
"*  c #212E0A",
"=  c #233409",
"-  c #263B0A",
";  c #283F0A",
":  c #303F0F",
">  c #2D2313",
",  c #232B13",
"<  c #292D13",
"1  c #2D2C19",
"2  c #302515",
"3  c #332A16",
"4  c #34231B",
"5  c #38251F",
"6  c #362A1B",
"7  c #392C1C",
"8  c #2B3215",
"9  c #243C14",
"0  c #293C14",
"q  c #333514",
"w  c #33341B",
"e  c #3E351D",
"r  c #3D3919",
"t  c #3A2720",
"y  c #3D2922",
"u  c #3C3A22",
"i  c #41351D",
"p  c #433A1E",
"a  c #432D25",
"s  c #472F29",
"d  c #482F2C",
"f  c #443522",
"g  c #453B22",
"h  c #493B24",
"j  c #453529",
"k  c #4A322B",
"l  c #4C3B2C",
"z  c #51362E",
"x  c #523B2D",
"c  c #4F3631",
"v  c #523731",
"b  c #543A32",
"n  c #5B3E36",
"m  c #5E3F38",
"M  c #2B430B",
"N  c #2E4A0C",
"B  c #314D0D",
"V  c #34530E",
"C  c #37590E",
"Z  c #3A5C0E",
"A  c #2A4214",
"S  c #2A4617",
"D  c #2D4C1A",
"F  c #394614",
"G  c #374B12",
"H  c #314D1A",
"J  c #365511",
"K  c #375910",
"L  c #395C10",
"P  c #35561C",
"I  c #36591E",
"U  c #3A5D1A",
"Y  c #3E640F",
"T  c #3C6110",
"R  c #3E641C",
"E  c #394A22",
"W  c #3D5325",
"Q  c #3A5D22",
"!  c #3D6422",
"~  c #3F6B25",
"^  c #41650D",
"/  c #426B0F",
"(  c #46710F",
")  c #49740E",
"_  c #4D7C0F",
"`  c #527C0F",
"'  c #416412",
"]  c #494B2C",
"[  c #52442A",
"{  c #56472A",
"}  c #445529",
"|  c #4E4532",
" . c #5D4337",
".. c #544C34",
"X. c #594936",
"o. c #5C4B34",
"O. c #5E4238",
"+. c #5A5436",
"@. c #63433C",
"#. c #67493C",
"$. c #635333",
"%. c #64533B",
"&. c #6A543E",
"*. c #6A5938",
"=. c #715F3B",
"-. c #426D26",
";. c #446A29",
":. c #4C692E",
">. c #457528",
",. c #47752B",
"<. c #48762C",
"1. c #4B7C2D",
"2. c #5B6137",
"3. c #527431",
"4. c #557A33",
"5. c #62643B",
"6. c #66693C",
"7. c #696C3E",
"8. c #74613D",
"9. c #5E5240",
"0. c #684740",
"q. c #6C4B42",
"w. c #724E46",
"e. c #734F48",
"r. c #665442",
"t. c #6C5542",
"y. c #6D5A44",
"u. c #6D5C49",
"i. c #755B44",
"p. c #795E46",
"a. c #755249",
"s. c #765448",
"d. c #7C554C",
"f. c #745C49",
"g. c #7F5850",
"h. c #6F6145",
"j. c #74624C",
"k. c #7A6349",
"l. c #7C6249",
"z. c #7C6552",
"x. c #7C6A54",
"c. c #81584F",
"v. c #825A52",
"b. c #8A5F56",
"n. c #82654B",
"m. c #866B4E",
"M. c #896D4F",
"N. c #8A704F",
"B. c #826B54",
"V. c #856B56",
"C. c #8B6E51",
"Z. c #8C6159",
"A. c #866E5A",
"S. c #91655D",
"D. c #8D7154",
"F. c #87705A",
"G. c #8D745D",
"H. c #937455",
"J. c #96785A",
"K. c #9C7B5A",
"L. c #A07F5B",
"P. c #9A6B64",
"I. c #8D7661",
"U. c #957B64",
"Y. c #A27169",
"T. c #52820F",
"R. c #598B0F",
"E. c #5F900F",
"W. c #598C10",
"Q. c #5C9110",
"!. c #619610",
"~. c #659B10",
"^. c #689F10",
"/. c #67A011",
"(. c #6AA311",
"). c #6FA912",
"_. c #72AE12",
"`. c #73B012",
"'. c #4E822F",
"]. c #50852F",
"[. c #51882F",
"{. c #518730",
"}. c #528A30",
"|. c #A5835E",
" X c #A8865F",
".X c #9F8263",
"XX c #9D826A",
"oX c #A58463",
"OX c #A98661",
"+X c #AD8A64",
"@X c #A2866D",
"#X c #A7896D",
"$X c #AD8C68",
"%X c #B18E6A",
"&X c #B4916E",
"*X c #A68971",
"=X c #AB8D73",
"-X c #AD9178",
";X c #B59473",
":X c #B89776",
">X c #B99877",
",X c #B4957B",
"<X c #B5997E",
"1X c #BC9B7B",
"2X c #BE9D81",
"3X c #BCAF83",
"4X c #C09F83",
"5X c #C2A285",
"6X c #C5A689",
"7X c #C7A98C",
"8X c #C8A98C",
/* pixels */
"1.1.'.'.{.{.'.1.}.{.{.{.{.{.}.{.{.{.{.}.{.}.{.1.{.{.{.{.].1.].{.1.1.].].].].].1.{.{.{.}.{.{.}.{.1.{.{.}.{.}.'.'.{.].{.{.].{.}.{.",
"{.1.1.'.'.<.<.<.'.{.'.'.1.'.1.<.<.1.1.1.1.<.<.1.{.{.{.,.U T ' R -.,.1.'.1.<.<.1.'.{.{.1.1.1.1.<.1.1.1.1.1.<.<.1.{.}.}.1.1.1.{.}.",
"}.{.].{.<.<.<.<.'.'.{.{.'.'.<.<.1.}.{.1.1.{.{.{.}.[.;.Z E._.).~.` ' ;.].1.<.<.1.'.1.{.{.{.{.<.,.1.}.{.1.1.{.{.{.{.}.{.1.<.1.].].",
"'.'.'.}.}.{.}.'.1.{.}.}.{.{.{.'.}.}.}.}.}.}.{.{.>.U ` )._._._._._.(.` L -.{.{.'.1.}.}.}.}.{.{.'.}.}.}.}.}.}.{.{.'.'.1.].].].].{.",
"{.1.1.'.}.{.'.'.'.{.}.{.'.{.}.}.}.}.}.}.}.}.'.! ^ !._.(.).(.W.^._._.`.^.) ' 1.{.1.{.}.{.'.{.}.[.}.}.}.}.}.}.}.1.<.1.<.'.}.{.1.{.",
"1.<.'.1.1.1.1.<.<.<.<.1.{.{.'.1.1.1.{.{.[.>.R _ (.).^.!.^.( N ) !.E.^.(.).^ 0 <.<.1.1.1.}.].].'.1.1.1.'.}.}.}.}.1.1.<.1.}.}.<.<.",
"1.<.{.1.<.<.,.,.<.<.<.,.1.'.}.}.{.<.1.<.P ( ~._.^.E.E.E.T.C N _ T.( _ _ R.E.L I ! ,.,.<.1.'.}.}.{.1.1.1.}.}.}.}.}.}.'.}.}.'.<.1.",
"{.<.1.1.<.<.<.<.<.<.1.1.'.}.}.}.}.{.{.' Z ^.)./.T.V B ^ / Y ^ _ T./ ^ V B !.^.E.^ P ;.1.'.}.}.}.}.}.{.{.}.}.}.}.{.{.<.1.}.{.'.}.",
"'.<.{.}.{.1.1.'.'.'.{.{.}.}.'.}.'.>.R ( ~.!.~.(.T.N ; N Y / Y Z Y Z N = B ( Q.!.W./ B ! [.}.].}.{.}.'.}.}.}.1.'.}.'.<.<.'.'.'.}.",
"}.1.'.}.}.'.<.'.}.{.'.{.}.}.[.1.R / T._ _ ) R./.T.Y Z K C C Y Y Y Y Y C T _ ) ( T._ / V L >.}.}.{.{.{.}.}.}.{.}.}.}.1.1.{.{.'.{.",
"1.'.1.}.}.}.'.1.'.{.{.{.'.}.1.- ( T.Y C Z Y ( W.T.Y Y L K T ( / T T Y Y / _ ' K Y Y C / ) ^ U <.}.}.}.'.}.}.}.}.}.}.}.}.}.{.'.{.",
"'.{.}.}.}.}.}.'.{.{.{.{.[.<.J V Y Y T M = N Y _ ) T T K Y Y M B N V T Y / Y L K V ; M Z / ( / A >.}.}.<.}.}.}.}.}.{.'.'.{.'.}.}.",
"{.{.{.'.}.}.[.}.}.'.{.>.I V Y Y C K K B - N T ( Y T T Y / C - = - C Y ( T L B - = = B K T ( ) Y P -.1.1.'.{.1.1.}.}.{.{.}.}.}.}.",
"}.{.<.1.[.].}.'.1.,.I N C Z Z Y C T T B B V V T T L K T Y C V C L Y ( T K K V - M N V K L / / _ ) V P ,.'.1.'.{.}.}.}.}.}.{.}.}.",
"{.{.<.1.1.1.1.1.<.H = C K K V C T T K K V N M K K K K L C Z / / Y L L K V V K V N V B B V K K / ) / C V R }.}.}.'.}.'.{.1.<.{.}.",
"{.{.{.{.'.1.1.1.1.D = N K L L T T Y Y K V K K L L T Y T Y Y V p J K K T V V T ^ C V B N B K L T C C Y B D {.{.1.{.}.1.'.'.1.1.}.",
"{.{.}.}.}.}.{.'.P ; M N J C L L K L Y L K V N L ^ ^ Z L / Y G i r r G T T K T ( Y T Y T Z Y Y C V B B M - P '.}.}.}.}.}.}.}.{.{.",
"{.{.}.'.}.}.}.! = M M M V B N V J V N V K V N K C Z C K K K G x [ g G K K B B K Y Y Y T Y Y T V M - N M - = ; ! ].{.].1.}.}.}.}.",
"{.{.[.}.{.{.U = = M M M V V N V N M = N V B K J F C V C K K F @.l G K K V N V V C K K V C V B - = M M M - = = = H ,.<.1.1.].{.{.",
"{.{.'.{.'.,.= * = - - M N N N M V N N N N V K G i F V V V J r i G C V K K V V K V N M C V N M M M M M ; - = = = * = I 1.}.].].].",
"[.'.[.1.<.Q $ = = @ = - M M ; = M N V V V B K J p p V B V B q : C K V B C B N V M $ M C N N M M M M M - - = = = = @ 9 '.}.1.}.}.",
"{.}.{.1.! $ = = = = = - ; ; M - ; M N N N M N C F q : M M M M N V V ; N B N M N M M M M M M M M M ; - - * = = = = $ @ G 1.}.}.}.",
"{.{.}.1.- $ = = - = = = - M M M M M M M M M M N B M M M M M M M N M = M N M M M M M M M M M M M M - - = + = = - = = * + 0 1.}.{.",
"'.'.{.Q + = = = = = = = = ; M ; M ; = = M M M M M M M M N M M M M M M M M M M M M M M M M M M M - = + + * = = = = = * + + Q {.1.",
"{.}.'.- + $ = = = = = = = - - - = ; * @ - - M N M N N M M M M M M M M M M M M M N M - M M - - = = = $ * = = - = @ @ @ + = ~ {.{.",
"}.}.~ $ + $ @ = = = = + @ = = - = = = = - - - M - = = M M M M - ; M M - M M - M - - - - = = = - = = = = = = * @ + + + = Q {.}.}.",
"'.{.<.S @ + @ + @ = = $ + = = = - = = = = = = = @ + $ - - - M - - - - M M M - = = $ + @ = = = = - = * = $ @ + + @ $ S ! ,.{.}.}.",
"{.1.1.>.P % @ @ @ @ = $ $ = = = = = = = = - = = = $ = = = - = - * = - - = = = @ + + * = = = = = = = = = @ + $ $ = I ,.1.'.}.{.'.",
"'.<.<.1.<.P 9 $ + + + + + @ @ * = = = - = = - = = = = = = - = = @ $ = = = = = - = = = = = = $ $ @ @ + + + @ * 0 ! '.}.{.'.}.{.<.",
"{.1.<.<.1.<.~ P S 8 8 $ + + + + @ + @ @ @ = = = = = = $ $ = = - = - = = = = = = = = = = = = @ + + + & = w | o.:.{.{.1.{.{.}.{.{.",
"}.1.1.{.{.'.<.<.~ +.x.h.] w & @ @ + + + @ @ @ $ $ $ $ = = = = = = = = = = = = = = @ $ @ + + + + < u | r.x.K.B.3.{.'.<.'.'.'.1.{.",
"'.{.{.}.{.{.{.'.{.7. X&X.XG.j.| u & 8 8 * + @ + + @ @ @ @ @ @ $ = @ @ * $ $ @ + + + + + + * u | r.j.V.XX-X%XN.3.}.{.'.{.'.'.'.{.",
"1.1.'.'.{.'.{.1.{.7.OX:X1X>X,X@Xr.x.u.I.x.+.u w 8 , * & @ @ @ + + + w g + # # % , 8 u | ..u.A.U.*X2X*X2X1X&XN.<.].].{.{.].{.}.].",
"}.1.1.'.1.<.<.<.1.6.OX;X1X1X4XG.h.3XB.*X-XXXG.p.u.%.l e > & & & #   ..k.6 E | 9.u.x.I.U.@X2X2X2X3X6X2X2X>X&XM.3.}.}.{.1.<.1.{.}.",
"{.{.{.}.1.<.<.1.1.6. X;X1X1X4X$X%.%.*.f j h h h h h h i h p h h i 7 i j u.A.I.@X-X,X2X2X2X6X8X6X2X2X2X2X1X;XC.3.{.}.].'.<.1.{.].",
"{.'.'.}.}.}.}.'.1.6.OX;X1X1X1X1X-XA.7 { *.h.8.*.$.$.$.$.$.$.o.$.$.[ 7 B.-X2X2X6X5X2X2X2X2X2X7X7X2X2X2X2X1X&XM.3.'.1.1.].{.].].{.",
"{.<.<.{.}.}.{.'.4.5.OX;X1X1X1X4X7XXXe { [ [ [ p p g p p g [ p g g i w XX6X7X8X6X2X5X2X2X5X6X5X5X6X2X2X2X2X&XM.:.<.<.,.1.}.}.1.1.",
"1.<.'.1.<.<.<.<.,.5.oX>X>X1X2X4X6XF.3 e p p r r e i e i i e r i e e 6 *X7X2X8X6X2X6X5X5X6X6X4X2X2X6X2X2X2X&XM.3.'.'.1.'.}.}.<.1.",
"{.<.{.<.<.<.,.<.,.5.oX;X1X1X2X4X5X*X6 > 3 3 3 > > > > X > > 2 > > > t I.2X2X6X6X7X6X2X2X,X*X;X2X2X6X2X2X,X&XC.4.}.}.'.{.}.'.<.1.",
"'.<.1.1.<.,.,.<.,.5.L.&X1X>X2X2X5X*Xo.2 . . X 6 y y 7 a k b b n  .y l u.9.@X6X6X7X6XI.a.a.a.w.B.2X2X2X2X1X&Xm.3.{.'.<.1.{.{.}.}.",
"{.<.}.}.}.1.1.{.].5.L.%X1X1X1X2X#Xj.j.b q.@.n n m 0.0.m m m 0.q.q.b 6 X.r.,X6X8X5XU.q.a.q.w.q.@.F.5X2X2X1X&XM.3.}.'.<.<.'.'.1.}.",
"{.1.1.}.}.{.,.{.}.6.L.+X:X1X5X5X@XX.l v t.a.w.e.S.P.P.b.b.S.P.P.Z.@.X u.-X6X6X4X<Xq.@.e.c.c.c.b b :X2X1X>X$XM.4.}.}.1.'.}.}.'.{.",
"1.'.1.}.}.}.1.<.1.5.L.+X:X1X4X6X2Xz.k v.c.#.b k d d d d d k v d.Y.g.s U.8X7X5X5XoXa c.d.s s w.q.7 XX5X1X>X$Xm.4.}.}.}.}.}.'.'.{.",
"{.{.}.}.}.{.}.{.].6.K.+X:X1X1X5X6XI.e.b.s 4 . . o o . . o o o a b.P.b G.8X6X4X5XU.k Z.j . . k v.y D.5X1X>X+Xm.4.}.{.'.'.}.{.}.}.",
"].{.{.'.}.}.}.}.{.5.K.OX:X1X1X2X8XI.v.v.s y . o o o o . o o o a b P.O.x.8X6X4X4XXXb d.O o . 4 v.s F.6X1X>X+XM.<.}.}.{.}.}.}.}.}.",
"}.{.<.<.{.{.{.{.<.5.K.OX;X1X1X2X4XV.b.a.@.y o . . o o o o o o a s d.a.f.5X6X6X6X@Xn a.O o . 4 d.k I.4X1X;X$XM.3.}.}.}.}.{.'.}.}.",
"].].1.1.1.1.1.1.1.5.H.OX&X>X1X2X4XV.b.@.@.y o o o . o o o o o d z w.e.#.4X4X6X8X@Xn d.2 o o 5 d.z @X2X>X;X$Xm.4.{.{.1.'.<.<.{.}.",
"{.{.{.{.{.1.1.1.,.5.K.OX&X>X1X>X2Xg.c.n v y O o o o o o o o o a n #.a.O.2X2X4X5X,Xb g.a o o s e.k $X1X1X;X$Xn.3.{.}.{.'.{.'.1.}.",
"}.].}.}.}.}.{.].1.5.H. X+X:X>X1X1Xf.d.n v 5 O o o o o o o o o d m @.d.| <X2X5X6X2XO.@.q.z k q.@.O.>X1X>X&XOXl.4.[.[.}.}.}.}.{.}.",
"].}.}.{.{.}.}.}.}.+.n. X+X;X1X>X1Xs.d.@.b 5 o o o o o o o o o y @.@.d.z ,X5X5X6X5XA.s @.w.q.#.k B.1X1X;X+XL.y.3.'.'.1.1.}.}.}.}.",
"}.{.].{.[.].].}.}.5.k.K.$X%X:X>X1Xp.w.m n 5 X o . . o o o o o y m b d.z =X6X6X5X2X2Xf.j v v s  .&X1X>X&X XN.&.3.<.1.1.1.].{.{.{.",
"{.{.{.].].1.1.1.'.2.m.m. XOX&X>X1Xp.#.m @.y . o o o o o o o o d m b d.b =X5X5X4X2X2X2XI.#. .u.@X>X1X;XOX|.l.l.:.<.>.>.1.}.1.{.{.",
"].].}.1.1.1.].}.'.2.C.C.H.OX%X;X>Xk.@.n 0.a O o . o o o o o o y n n d.k *X5X2X4X1X2X1X1X;X#X;X>X>X;XOX XM.m.k.:.1.1.1.].{.'.}.}.",
"}.}.}.1.<.<.].}.[.+.n.J.D.H. X$X&Xl.n m @.s o o o . . o o o o y b m d.k #X1X1X1X1X1X1X1X1X1X:X;X%XOX XD.n.C.&.:.].].{.].1.}.}.}.",
"].].{.}.}.}.}.].'.:.=.D.U.J.D.K.OXp.b m @.d o o o o . o o o o t b @.w.k $X>X>X>X:X:X>X;X&X+X+X+X X|.m.n.H.n.+.].}.}.}.}.].].{.].",
"].].].{.1.}.}.].1.,.+.n.H.|..XD.H.p.k n v s o o . o o . . o o t b #.#.k |.+X$X+X$X$X+X+XOXOX|.K.D.D.H.H.m.t.} {.}.}.}.1.{.1.].1.",
"{.}.}.].1.'.}.{.<.<.} t.n.H.K.oX.Xp.k n k k O o o o o . o o o y n @.w.k H. X|. X|. X|.|.L.H.C.D.U.K.C.n.p.o.;.}.1.{.}.{.}.].].}.",
"{.{.}.{.].'.'.{.<.'.>.] t.l.m.H.K.m.k b k c o o o o o o o o o t m z @.s C.J.J.J.H.D.M.m.m.H.K.L.H.n.i.i.%.E >.}.1.}.}.{.1.}.}.}.",
"].'.].'.{.}.}.}.'.1.'.-.] *.p.n.C.p.a v v b X O o o o o o o o t @.k m k J.+X#XoX|.L.K.K.H.H.H.m.m.p.i.o.E Q [.}.].}.}.].<.{.}.}.",
"'.1.1.{.}.}.}.}.}.}.'.'.;.] %.t.k.p.a c s v 4 5 t t t t t t O t #.k v a m.H.J.J.H.H.M.m.n.n.p.p.p.&.| H Q >.}.}.].}.{.].{.}.{.1.",
"].1.<.1.'.'.}.}.'.'.'.}.'.-.W ] +.r.a d t t c n v b n v b v c d k s c y =.n.l.p.p.p.p.i.i.i.i.%.o.} S ! 1.1.1.1.1.}.}.].{.}.{.1.",
"].1.<.<.1.'.{.}.'.'.1.}.].1.~ ! Q W w 4 o c g.g.v.v.g.g.a.@.m n j o a 4  .&.&.&.&.&.&.%.+...] W ! -.>.'.}.}.].'.}.{.1.{.}.}.{.{.",
"{.1.1.{.].'.1.'.'.'.'.'.'.[.'.'.<.~ ! D 9 8 1 w u 1 1 1 , , % , , , , 8 E W } } W Q } ! -.-.,.<.1.{.}.}.{.}.}.'.{.].1.'.'.1.<.{.",
"'.}.'.}.{.'.].'.{.].].[.}.}.'.}.'.'.'.1.~ Q D S 9 9 9 9 9 9 9 S D D D P ! ! ! ! >.>.>.1.'.[.{.}.{.{.{.}.{.{.}.].].}.1.{.'.'.'.{."
};
