/* XPM */
static char *result[] = {
/* columns rows colors chars-per-pixel */
"64 64 192 2 ",
"   c #191513",
".  c #1C1B14",
"X  c #201A17",
"o  c #231D19",
"O  c #1E2614",
"+  c #222417",
"@  c #212A15",
"#  c #23231A",
"$  c #2A231E",
"%  c #27291D",
"&  c #292A1D",
"*  c #243316",
"=  c #253A15",
"-  c #29321B",
";  c #283D1A",
":  c #212122",
">  c #2C2521",
",  c #2C2A22",
"<  c #302722",
"1  c #3D2222",
"2  c #332A25",
"3  c #352D29",
"4  c #382E29",
"5  c #313D21",
"6  c #35322A",
"7  c #3B322C",
"8  c #363E2C",
"9  c #3B3D2F",
"0  c #3E3531",
"q  c #3E3935",
"w  c #443C2B",
"e  c #413632",
"r  c #443B35",
"t  c #443E39",
"y  c #4C3A38",
"u  c #493E39",
"i  c #2B441A",
"p  c #2C4B19",
"a  c #314C1E",
"s  c #34551E",
"d  c #355B1E",
"f  c #385F1F",
"g  c #39611F",
"h  c #334324",
"j  c #344D23",
"k  c #374529",
"l  c #3C452C",
"z  c #3D4C2B",
"x  c #365522",
"c  c #3A5425",
"v  c #365A20",
"b  c #3A5C22",
"n  c #3D5A2C",
"m  c #3F4233",
"M  c #3C6422",
"N  c #3E6A23",
"B  c #474936",
"V  c #46413B",
"C  c #4D423D",
"Z  c #474938",
"A  c #584B33",
"S  c #50443F",
"D  c #445333",
"F  c #4A5537",
"G  c #445B35",
"H  c #4D543D",
"J  c #475C3A",
"K  c #4D5C3D",
"L  c #505B3E",
"P  c #695B37",
"I  c #416D25",
"U  c #44642A",
"Y  c #43642C",
"T  c #446B29",
"R  c #447127",
"E  c #477927",
"W  c #487927",
"Q  c #457628",
"!  c #49712E",
"~  c #477929",
"^  c #4A7D2A",
"/  c #496830",
"(  c #4A633A",
")  c #546E3E",
"_  c #4E7434",
"`  c #4B4642",
"'  c #524641",
"]  c #554C44",
"[  c #594D47",
"{  c #564F4A",
"}  c #5B4F4A",
"|  c #565044",
" . c #56514B",
".. c #5D534C",
"X. c #4F4F50",
"o. c #5C5652",
"O. c #5D5D51",
"+. c #60554E",
"@. c #635D4F",
"#. c #724E55",
"$. c #635651",
"%. c #655B53",
"&. c #6A5F56",
"*. c #665E59",
"=. c #705556",
"-. c #4F6341",
";. c #4F6940",
":. c #5D6254",
">. c #5C6F52",
",. c #646254",
"<. c #696254",
"1. c #6A6B57",
"2. c #66625B",
"3. c #6D625B",
"4. c #636E58",
"5. c #6E6A5C",
"6. c #72665E",
"7. c #726B5C",
"8. c #68745B",
"9. c #676360",
"0. c #6E6864",
"q. c #6E6D6C",
"w. c #746760",
"e. c #756962",
"r. c #796C65",
"t. c #6A7465",
"y. c #6B706A",
"u. c #7B7465",
"i. c #767863",
"p. c #75706C",
"a. c #7D7369",
"s. c #7B7B6B",
"d. c #777873",
"f. c #9F3F62",
"g. c #855264",
"h. c #81756C",
"j. c #877D69",
"k. c #837C6C",
"l. c #857A71",
"z. c #8A7E75",
"x. c #4E832A",
"c. c #4F882C",
"v. c #50872B",
"b. c #528C2D",
"n. c #7B836E",
"m. c #88806E",
"M. c #818372",
"N. c #8B8374",
"B. c #8D8279",
"V. c #8D8C7E",
"C. c #91857C",
"Z. c #92897C",
"A. c #8D907F",
"S. c #808380",
"D. c #888786",
"F. c #8A8C8A",
"G. c #968681",
"H. c #978B81",
"J. c #9A8C84",
"K. c #8E928F",
"L. c #969081",
"P. c #9B9485",
"I. c #9B9389",
"U. c #9F9A8D",
"Y. c #969996",
"T. c #989992",
"R. c #A0938A",
"E. c #A39B8B",
"W. c #A49D91",
"Q. c #A99D93",
"!. c #A5A193",
"~. c #ABA495",
"^. c #AEA897",
"/. c #ADAA9D",
"(. c #B3AD9C",
"). c #ACADAA",
"_. c #B3AEA1",
"`. c #B6B1A6",
"'. c #BAB4A4",
"]. c #BDB7AC",
"[. c #BDB9AD",
"{. c #C3BCAF",
"}. c #C7C2B4",
"|. c #C9C3B5",
" X c #CDC8BA",
".X c #D2CCBE",
"XX c #D2CEC0",
"oX c #D6D0C2",
"OX c #D9D4C6",
"+X c #DCD7C9",
"@X c #DED9CB",
"#X c #E0DBCD",
/* pixels */
"R x.b.b.x.b.b.Q b.x.b.b.b.v.b.b.v.b.b.b.x.b.b.~ v.c.b.x.^ b.b.Q Q ^ b.b.^ b.b.Q b.x.b.b.c.v.b.b.v.b.b.b.x.b.b.^ c.c.b.c.^ b.b.Q ",
"b.R ^ x.x.Q Q ~ ~ b.^ ^ ^ v.~ Q ~ x.~ x.Q Q Q W b.b.b.^ x.^ b.b.b.Q ^ ^ v.W W W ^ b.x.^ ^ x.^ Q ~ x.~ x.Q Q Q ~ b.b.b.^ v.^ b.b.",
"b.b.x.c.Q Q Q Q v.Q v.b.v.v.W Q Q b.x.Q Q x.b.b.b.b.b.x.I ^ b.Q b.b.^ v.Q Q Q Q c.~ c.b.c.v.Q Q ~ b.x.Q Q x.b.b.b.b.b.^ Q ^ v.Q ",
"x.x.x.b.b.b.b.x.Q b.b.b.b.v.b.x.b.b.b.b.b.b.v.x.x.x.^ b.x.c.^ b.^ v.v.b.b.b.b.x.T b.b.b.b.c.b.x.b.b.b.b.b.b.v.x.^ x.^ b.^ v.^ b.",
"v.Q Q v.b.b.x.x.x.v.b.b.W b.b.b.b.b.b.b.b.b.b.~ Q Q Q c.b.b.Q b.c.Q ~ x.b.b.c.x.x.v.b.b.Q b.b.b.b.b.b.b.b.b.b.~ ~ Q Q v.b.b.~ b.",
"^ Q ~ x.~ ^ ~ ~ Q ~ Q v.b.^ x.Q ^ ~ v.v.b.b.b.~ ^ ^ R ~ b.b.Q R ^ Q ~ v.~ ^ ~ Q Q ~ Q x.b.x.x.Q x.~ x.v.b.b.b.~ ^ ^ T ~ b.b.Q Q ",
"^ R b.Q W Q Q Q Q Q Q Q ~ Q b.b.b.Q W ~ b.b.b.b.b.b.x.b.b.c.Q ^ x.Q b.Q Q Q Q Q Q Q Q Q ~ ~ b.b.v.Q Q Q b.b.b.b.b.b.^ b.b.v.Q ~ ",
"b.Q ^ Q Q Q Q Q Q Q Q Q ^ b.b.b.b.b.b.b.b.b.b.b.^ x.Q Q b.b.c.b.b.Q ~ ~ Q Q Q Q Q Q Q Q ^ b.c.b.b.b.b.b.b.b.b.b.~ c.Q Q b.b.v.b.",
"c.Q b.b.b.~ Q c.x.c.b.b.c.b.~ b.b.b.^ b.b.b.~ ^ b.x.Q Q x.v.v.b.v.Q b.c.b.~ ~ c.c.c.b.b.b.b.Q b.b.b.x.b.b.b.~ ^ c.c.Q Q x.c.x.b.",
"b.Q b.b.b.x.Q b.b.b.~ b.b.b.b.b.v.b.^ b.b.b.v.b.b.b.Q ^ b.b.v.x.b.Q b.b.b.x.Q b.b.b.Q b.b.b.b.b.v.b.^ b.b.b.v.b.b.b.Q ~ b.b.c.x.",
"Q x.~ b.b.b.^ Q Q b.^ b.T b.b.v.b.b.b.b.b.b.b.b.b.b.b.b.b.b.x.x.! c.~ b.b.b.^ Q Q b.x.b.R b.b.c.b.b.b.b.b.b.b.b.b.b.b.b.b.b.^ x.",
"c.b.b.b.b.Q b.^ v.v.x.x.b.b.Q Q v.b.b.I b.b.b.b.b.^ v.R b.x.b.b.c.v.c.b.b.Q b.^ x.c.^ x.b.b.Q Q x.b.b.Q v.b.b.b.b.^ b.R b.x.b.b.",
"c.b.b.^ b.b.b.b.b.b.b.x.b.b.x.Q ~ Q v.v.b.b.b.~ b.b.v.c.b.b.b.b.v.b.b.^ b.b.b.b.b.b.b.c.b.b.^ Q ~ Q x.^ b.b.b.~ b.b.v.v.b.b.b.b.",
"b.b.Q Q b.b.b.b.Q Q ^ b.b.b.Q Q Q ~ ^ ^ ~ ~ ^ v.b.b.b.b.b.b.b.b.b.b.Q Q b.b.b.b.Q Q ^ b.b.b.Q ~ Q ~ x.^ ~ ~ ^ b.b.b.b.b.b.b.b.b.",
"~ b.Q ~ ~ Q ~ ~ Q x.Q x.b.b.b.b.b.b.b.b.b.b.b.b.x.b.^ b.Q Q b.b.~ b.Q W ^ Q ^ ~ Q x.Q ^ b.b.b.b.b.b.b.b.b.b.b.b.x.b.^ b.Q Q b.b.",
"b.v.b.v.~ x.^ ^ ~ x.Q c.b.b.b.b.x.b.b.b.b.b.x.Q x.b.R b.^ v.W b.b.v.b.v.~ x.~ ~ ^ x.Q ^ b.b.b.b.^ b.b.b.b.b.x.Q x.b.Q b.^ v.Q b.",
"b.Q b.b.b.b.b.W Q Q Q b.b.x.b.b.b.b.v.v.v.^ b.b.b.b.b.b.b.b.^ b.b.Q b.b.b.b.b.~ Q Q Q b.b.x.b.b.b.b.b.x.v.x.b.b.b.b.b.b.b.b.x.b.",
"b.v.b.^ b.b.b.b.b.b.b.b.b.^ Q b.x.Q b.b.x.x.^ ^ x.x.x.^ b.b.b.b.b.v.b.v.v.b.b.b.b.b.b.b.b.^ M Y ~ ^ v.b.x.x.^ ~ x.x.x.x.b.b.b.b.",
"x.b.~ b.b.b.x.b.b.b.b.x.b.c.x.Q c B T W M ^ M ^ Q f W ~ x.b.c.b.^ b.Q v.b.b.v.b.b.b.b.x.b.v.I s.8.a c ^ R x.^ ^ x.^ ~ ~ ^ b.v.b.",
"b.v.x.x.x.~ x.^ x.c.b.b.x.Q x.^ L %.8 h l a 6 x h , M s b.v.b.^ b.v.^ v.v.~ ^ ^ x.x.b.b.x.T M 4.|.:.0.h j W ~ Q Q Q Q ~ b.c.b.x.",
"^ x.b.^ ~ ^ b.v.^ Q b.W b.b.b.W 1.*.7 e 3.t $.6 ` 2 & - Q b b.c.U b x.x.~ ^ b.b.^ Q b.~ b.x.J ,.|.[._.O.F N Q Q Q Q Q v.b.I b.b.",
"b.b.b.Q Q Q b.b.b.b.b.x.b.b.b.R m ` w.e.h.r.e.%.&.e 6 + # p T D C 7 M Q Q Q b.b.b.b.b.x.b.b.) `.oX@X X!.i.v Q Q ^ x.^ v.^ b.b.b.",
"b.b.b.b.b.v.b.~ x.^ x.b.b.c.c.h r e.z.C.z.h.a.e.3.] 4 $ X & ..+.M.S I b.b.v.b.~ x.~ x.b.b.c.Q ~.@XOX}.'.s.- I b.b.b.b.b.^ b.b.b.",
"^ v.x.b.b.b.b.v.b.x.b.b.b.c.c 9 $.B.Z.z.z.h.h.r.6.&.' 0 3 3 | u.W.B R b.b.b.b.x.b.x.b.b.b.b.R V.@XoX{.(.u...Y b.b.b.b.W b.v.b.I ",
"^ b.b.^ T b.b.b.Q Q x.b.x.Q D } a.J.G.C.z.h.h.r.6.6...e < : r Z.k.h b.x.I b.b.b.Q Q x.b.v.Q Q n.{. X(.~.N.u.Y b.Q b.b.v.b.x.~ v.",
"b.v.b.b.b.^ b.b.Q b.^ Q x.Q k p.Q.I.G.C.z.z.h.r.6.6.+.u 0 > u a.V - x.b.b.x.b.b.Q v.^ Q x.b.x.,.Q._.E.E.N.7.U b.T b.~ b.b.b.b.b.",
"^ b.^ x.c.b.x.b.~ ~ b.b.b.x { [.XXQ.J.C.N.z.Z.Z.l.6.+.y 0 3 > , ' 1.k a Q b.x.b.^ W b.b.b.^ W 2.C.C.P.N.N.H d b.~ b.b.b.Q Q b.b.",
"b.^ x.x.b.b.b.b.b.v.Q b.M m  .!.N.~.J.C.J.~.!.(.~.N.[ r e 7 > X 3 q , - M Q b.b.b.v.W b.~ b.Y r.z.h.h.k.N.[ j c.v.b.^ v.~ b.b.x.",
"v.Q ^ ^ b.v.b.b.b.v.b.b.x.z V 1.w N.R.G.(.U.a.7.^.R...r e 7 2 X q ..q 0 $ a W x.b.v.b.b.b.W H j.h.6.6.h.m.k.U x.^ b.b.v.~ b.b.Q ",
"v.x.Q Q ~ ^ b.b.^ x.Q b.x.h  ...A R.I.I._.<.V A ~.P.[ u e 7 $ X V u.| t r 6 + a x f s R Q B e.r.6.+.C S u.K N E b.b.x.v.b.b.b.v.",
"c.Q ^ v.~ T W b.v.x.v.v.^ h t ` V a.G.J.'.k.P j.^.N.S u e 4 $ > ..H ' [ ' r e r e 6 2 $ % ] %.+.y e 4 | F W b.c.b.v.v.b.v.b.Q b.",
"^ b.^ ^ v.~ b.~ v.v.v.^ ! M.o.X.: V L.B.B.U.~.~.Z.@.' C e 4 o < 7.k.] [ [ C y C e y C e > $ y e 2 $ - f ^ ^ b.~ ^ b.R b.~ c.Q b.",
"R v.b.b.^ b.b.R b.x.b.b.;. XT.q q V.{.(.Z.6.6.7.%.[ S u 7 o # <.%...V ' C r y C r e y e 3 X > $ o . I b.x.b.b.^ b.v.b.v.^ b.b.R ",
"b.I ^ ^ v.Q ~ ~ ^ b.x.~ ! U.[.5.!.oX|.'.E.u.S 3.$.+.S e < $ V u.M.] ' ' ' ' r 7 u S e 7 $   + ; a b R v.Q Q Q ~ v.b.b.x.v.^ b.b.",
"b.b.x.v.Q Q Q Q x.~ v.b.x./ :.5 #.G.P.N.7.V S %.[ y 6 4 $ 7 i.u.k.5.` ' u u e e e e e 7 2 . ; W ~ b.^ Q Q ^ b.b.b.b.b.^ I ^ v.~ ",
"x.v.x.b.b.b.b.x.Q b.b.b.b.v.T 0 f.g.y 1 %.w C V r V @.<.@.1.k.r.7 r C C y r ] ..+.] r e 3 o * ^ b.b.b.b.b.b.v.x.x.x.^ b.v.v.x.b.",
"v.Q ~ v.b.b.c.c.x.v.b.b.~ b.W :.=.e.e.G.i.+.,.7.u.N.N.Z.m.N.1.u.2 > r e 3 [ 3.6.6.6.[ y 4 $ @ ^ b.b.b.b.b.b.b.~ ~ ~ R c.b.b.W b.",
"^ Q ~ x.~ ^ ~ ~ Q ~ Q c.b.x.^ ( n.A.n.d.U.{.^.'.E.^.E.~.E.H.r 3 o $ e 4 2 o.6.r.h.r.3.S e o O M x.^ x.v.b.b.b.^ ^ ~ R ~ b.b.Q T ",
"^ R b.Q Q Q Q Q Q Q Q Q ~ Q b.b.~ N Y /. X.X.X.X}.}.(.~.s.L.C $ . 3 3 , > ..u.h.z.h.r.+.r o = v.c.Q Q R b.b.b.b.b.b.^ b.b.c.Q ^ ",
"b.Q ^ Q Q Q Q Q Q Q Q Q ^ b.b.b.b.b._ i.8..X#X#X.X].].~.$...e > @ # 3 y 3 u a.z.C.C.h.$.S $ M b.b.b.b.b.b.b.b.b.~ c.Q Q b.b.c.b.",
"x.Q b.b.b.~ ~ b.x.x.b.b.b.b.~ b.b.b.Q E G [.I.`.+X*.q.I.w.$.u > x M z &.r.} } h.C.B.h.$.S $ s b.b.b.v.b.b.b.~ ^ b.x.Q Q x.v.x.b.",
"b.Q b.b.b.^ W b.b.b.Q b.b.b.b.b.c.b.^ x.Z a.p.l._.0 t w.a.3.' , N N F h.z.w.e r &.r.w.$.S $ M b.c.b.^ b.b.b.v.b.b.b.Q ~ b.b.v.x.",
"Q x.Q b.b.b.W Q ~ b.^ b.I b.b.c.b.b.b.I *.l.B.2.} , *.J.B.3.] > i p ..h.h.$.` 3 +.h.h.+.C $ I c.b.b.b.b.b.b.b.b.b.b.b.b.b.b.^ x.",
"v.b.v.b.b.Q b.Q x.c.x.c.b.b.~ Q c.b.c.k 6.l.h.%.u > r.J.B.3.' > p 5 &.e.w.] e 3 r.l.r.} r % N Q x.b.b.T b.b.b.b.b.x.v.Q b.x.b.b.",
"b.b.b.x.b.b.b.b.b.b.b.c.b.c.x.Q Q Q v q 6.r.2.] e 3 h.z.h.%.C # i V $.*...t 2 u h.h.<.' 4 * I Q ~ Q c.^ b.b.v.^ b.b.v.v.b.v.b.b.",
"b.b.Q Q b.b.b.b.Q Q ^ b.b.c.Q ~ Q M J d.*...$.r > t h.l.r...r O 8.D.p.o.0.3 > o.e.6...y < = d I Q Q ^ ^ W ~ ^ v.b.b.b.b.b.b.b.b.",
"^ b.Q ~ ~ Q ^ ~ Q x.Q x.b.b.b.b.c.N ;.t.K.q.Y., O { w.e.$.S 3 * -.>.Y.d.)., m o.%.o.y e o p M x.b.b.b.b.b.b.b.b.x.b.x.b.Q Q b.b.",
"v.v.b.c.~ x.^ ^ ~ c.Q c.b.b.b.b.x.~ M v n G -.i t.q.9.$...4 o p M s x n G K F.q.$.p.q o @ f R b.^ b.b.b.b.b.v.Q ^ b.Q b.^ x.~ b.",
"b.Q b.b.b.b.v.~ Q Q Q b.b.x.b.b.b.b.~ M g f g g >.t.S.F.y.O = g g s g g g n J d.:.K.8 = g R b.b.b.b.v.x.c.^ b.b.b.b.b.b.b.b.^ b.",
"b.v.b.x.b.b.b.b.b.b.b.b.b.^ Q b.b.^ b.b.W R M d d x j K c d g g g f g d g g M d d Y R x.b.^ R b.b.x.b.b.x.x.x.~ x.v.v.^ b.b.b.b.",
"x.b.Q v.b.b.v.b.b.b.b.x.b.v.v.Q Q Q c.b.E x.W ^ ~ W I M N I N I N N d I Q E R c.c.c.b.x.b.v.v.Q Q Q v.b.~ x.~ x.^ x.~ ~ v.b.v.b.",
"b.v.^ v.v.~ ^ ^ c.x.b.b.x.W ^ x.c.b.b.b.Q Q ^ Q Q Q Q ~ b.c.b.x.b.c.^ c.c.E x.^ c.x.b.b.x.Q x.^ x.b.b.b.Q Q ^ Q Q Q Q ~ b.b.b.^ ",
"x.v.b.^ ^ ^ v.v.^ Q b.^ b.b.b.b.b.b.b.b.~ Q Q Q Q Q Q v.b.T b.b.x.c.b.^ ~ ^ v.v.^ Q b.^ b.b.b.b.b.b.c.b.Q Q Q Q Q Q Q v.b.T b.b.",
"b.b.v.Q Q Q b.b.b.b.b.^ b.b.b.b.b.b.v.b.b.Q Q Q ^ x.v.v.^ b.b.b.b.b.c.Q Q Q b.b.b.b.b.^ b.b.b.b.b.b.b.b.b.Q Q Q ^ x.x.x.^ b.b.b.",
"b.b.b.b.b.v.b.Q x.x.x.b.b.c.b.b.b.Q b.b.b.b.b.b.b.b.b.b.^ b.v.b.b.b.b.b.b.x.b.Q x.^ x.b.b.v.b.b.b.Q b.b.b.b.b.b.b.b.b.b.^ b.b.b.",
"x.^ v.b.b.b.b.v.b.x.b.b.b.b.x.Q b.^ b.Q b.b.b.b.b.b.b.^ b.c.b.I x.x.x.b.b.b.b.c.b.c.b.c.b.b.v.Q b.~ b.~ b.b.b.b.b.b.b.W c.b.b.T ",
"~ b.b.^ Q b.b.b.Q Q v.b.v.Q x.v.b.b.b.x.b.b.b.b.Q b.b.v.b.x.~ x.W b.b.x.I v.b.b.Q R c.b.v.Q x.v.b.b.b.^ b.b.b.b.R b.b.x.b.^ ^ x.",
"b.b.b.b.b.^ b.b.Q v.^ Q ^ b.b.b.v.I Q b.b.b.b.b.T b.^ b.b.b.b.b.b.c.b.b.b.v.b.b.Q b.^ Q x.b.b.b.c.Q Q b.b.b.b.b.Q b.^ b.b.b.b.b.",
"v.v.^ x.^ b.x.b.~ ~ b.b.b.^ v.Q ^ b.b.^ ^ b.b.b.~ b.b.b.Q ^ b.b.x.b.W x.^ b.v.b.~ ^ b.v.b.^ b.Q ^ b.b.x.^ b.b.b.Q b.b.b.Q ~ b.b.",
"v.^ x.^ b.b.b.b.b.c.Q b.~ b.b.b.b.b.Q ~ x.^ b.b.c.b.^ ^ W b.b.v.c.^ x.^ b.b.b.b.b.c.Q b.~ b.b.v.v.b.Q Q x.^ b.b.x.b.^ v.Q b.b.x.",
"b.W ^ v.b.b.b.b.b.c.b.b.b.b.b.v.b.b.T b.^ x.^ x.~ b.b.b.~ b.b.Q b.~ ^ x.b.v.b.b.b.b.b.b.b.b.b.x.b.b.T b.x.x.x.x.~ b.b.b.^ b.b.Q ",
"v.^ Q Q ~ x.b.b.^ ^ W b.b.x.W ~ b.~ ^ b.b.b.Q Q b.b.x.b.v.b.b.v.v.^ Q W ~ v.b.b.W x.Q v.b.x.~ ~ b.~ ^ b.v.b.R E b.b.c.v.b.b.b.c.",
"v.Q ^ ^ ~ T ~ b.c.x.v.v.x.x.v.v.b.x.b.b.b.b.v.v.b.c.x.b.b.b.W b.v.Q ^ ^ ~ I Q b.c.^ v.v.x.x.v.v.b.c.b.b.b.b.v.v.b.v.c.b.b.b.Q b.",
"^ v.v.^ x.Q b.~ c.v.v.^ b.b.^ b.v.b.v.b.x.x.b.~ ~ b.Q v.Q v.Q b.^ v.v.^ v.Q b.^ c.v.x.x.b.b.^ b.c.b.c.b.v.^ b.~ ^ b.T v.Q x.Q b."
};
