/* XPM */
static char *result[] = {
/* columns rows colors chars-per-pixel */
"64 64 193 2 ",
"   c #1A1513",
".  c #1D1B14",
"X  c #201915",
"o  c #241E1A",
"O  c #192412",
"+  c #212317",
"@  c #212915",
"#  c #25221B",
"$  c #29231D",
"%  c #25291A",
"&  c #2A2E1F",
"*  c #243415",
"=  c #253618",
"-  c #2A341B",
";  c #2C3A1C",
":  c #272626",
">  c #2C2521",
",  c #2D2B22",
"<  c #312722",
"1  c #342A25",
"2  c #352D29",
"3  c #382E29",
"4  c #2E3125",
"5  c #333326",
"6  c #36312B",
"7  c #3B322C",
"8  c #353B29",
"9  c #3B3C2D",
"0  c #323130",
"q  c #3E3531",
"w  c #3E3833",
"e  c #4D3F1E",
"r  c #4A292B",
"t  c #413632",
"y  c #443A35",
"u  c #4A3F37",
"i  c #493E38",
"p  c #274116",
"a  c #294517",
"s  c #2E4B1B",
"d  c #324D1E",
"f  c #2F511B",
"g  c #32541D",
"h  c #365B1E",
"j  c #385F1F",
"k  c #39621F",
"l  c #334523",
"z  c #354B24",
"x  c #384E23",
"c  c #37412A",
"v  c #3C452B",
"b  c #3B4E29",
"n  c #365323",
"m  c #395325",
"M  c #375A20",
"N  c #3A5C23",
"B  c #3E5E28",
"V  c #3C6421",
"C  c #3E6A22",
"Z  c #425C2D",
"A  c #434236",
"S  c #46423A",
"D  c #4D423D",
"F  c #454B3A",
"G  c #4C4A3C",
"H  c #50443F",
"J  c #455433",
"K  c #445B32",
"L  c #495D32",
"P  c #4B513C",
"I  c #655632",
"U  c #416D24",
"Y  c #43642C",
"T  c #47682E",
"R  c #447127",
"E  c #477A27",
"W  c #457628",
"Q  c #49702E",
"!  c #477929",
"~  c #4A7D2A",
"^  c #496434",
"/  c #4B6934",
"(  c #4D633E",
")  c #4F6C3B",
"_  c #51643F",
"`  c #4D7731",
"'  c #517B35",
"]  c #527238",
"[  c #603541",
"{  c #793E4E",
"}  c #4E4642",
"|  c #4E4941",
" . c #514641",
".. c #544B44",
"X. c #5A4E47",
"o. c #5B4F49",
"O. c #4B5841",
"+. c #545144",
"@. c #56514B",
"#. c #5C524B",
"$. c #585748",
"%. c #5B4E50",
"&. c #555554",
"*. c #5B5552",
"=. c #5D5E52",
"-. c #61554E",
";. c #635C4C",
":. c #685F4E",
">. c #655551",
",. c #645B52",
"<. c #6A5E56",
"1. c #635E5B",
"2. c #566448",
"3. c #5C7148",
"4. c #5F695D",
"5. c #64614E",
"6. c #646553",
"7. c #6A6355",
"8. c #64615C",
"9. c #6D635A",
"0. c #636E5A",
"q. c #6B695C",
"w. c #766B54",
"e. c #72665E",
"r. c #746B5D",
"t. c #637355",
"y. c #667E50",
"u. c #6C765B",
"i. c #666461",
"p. c #6F6B64",
"a. c #746761",
"s. c #756B63",
"d. c #796C64",
"f. c #6E7863",
"g. c #6D736C",
"h. c #767163",
"j. c #7B7265",
"k. c #747068",
"l. c #7D7369",
"z. c #757C71",
"x. c #7D7B7A",
"c. c #A64B6C",
"v. c #81756C",
"b. c #83796D",
"n. c #857B72",
"m. c #897D75",
"M. c #4E832A",
"N. c #4F882C",
"B. c #50872B",
"V. c #528C2D",
"C. c #758760",
"Z. c #7E8377",
"A. c #87806D",
"S. c #88806E",
"D. c #868477",
"F. c #898372",
"G. c #8E8279",
"H. c #90847B",
"J. c #93897D",
"K. c #8A8A88",
"L. c #978783",
"P. c #9B8E85",
"I. c #8D908E",
"U. c #9B9284",
"Y. c #979789",
"T. c #9B958A",
"R. c #9E9A8B",
"E. c #9A9C9A",
"W. c #A4978E",
"Q. c #A49D8E",
"!. c #A49D91",
"~. c #A89D93",
"^. c #A6A394",
"/. c #ABA494",
"(. c #AAA59A",
"). c #AEA99B",
"_. c #B2AC9C",
"`. c #B4AFA1",
"'. c #B8AFA3",
"]. c #B7B0A2",
"[. c #BAB3A5",
"{. c #BDB6A9",
"}. c #BFB9AC",
"|. c #C2BCAE",
" X c #C7C2B3",
".X c #C9C1B4",
"XX c #CCC7BA",
"oX c #CFC9BB",
"OX c #D1CBBE",
"+X c #D4CFC1",
"@X c #D8D3C5",
"#X c #DCD6C8",
"$X c #DFDACB",
/* pixels */
"R M.V.V.~ V.V.R V.M.V.V.B.B.V.V.B.V.V.V.~ V.V.~ B.N.V.M.~ V.V.W R M.V.V.~ V.V.R V.M.V.V.M.V.V.V.B.V.V.V.M.V.V.~ M.N.V.M.M.V.V.W ",
"V.R ~ M.N.W ! ! ~ V.B.! ! B.~ W ! M.! B.W W W E V.V.V.~ M.~ V.V.V.R ~ ~ B.W W ~ ~ V.M.~ ~ M.~ W ! M.! M.W W W ! V.V.V.~ M.~ V.V.",
"V.V.M.N.W W W W B.! B.V.N.B.W W E V.M.W W B.V.V.V.V.V.M.R ~ V.! V.V.M.B.W W W ! M.! N.V.M.B.W W ! V.M.W ! M.V.V.V.V.V.~ R M.M.! ",
"M.M.M.V.V.V.V.M.R V.V.V.V.B.V.B.V.V.V.V.V.V.B.~ M.M.~ V.~ N.~ V.M.M.M.V.V.V.V.B.R V.V.V.V.V.V.M.V.V.V.V.V.V.M.M.M.M.~ V.~ M.M.V.",
"B.W W B.V.V.M.M.M.B.V.V.W V.V.V.V.V.V.V.V.V.V.W W W W B.V.V.W V.V.W W M.V.V.N.M.M.M.V.V.W V.V.V.V.V.V.V.V.V.V.! ! ! W M.V.V.! V.",
"~ W ! M.~ ~ ! ! W ! R B.V.M.~ W ~ ! B.B.V.V.V.! ~ ! R ! V.V.W W ~ W ! N.! ~ ! W W ! W M.V.M.M.! ~ ~ M.M.V.V.V.~ ~ ! R ! V.V.! R ",
"~ R V.W W W W W W W W W ! W V.V.V.W ! ! V.V.V.V.V.V.M.V.V.B.W ~ M.R V.W W W W W W W W W ! ! V.V.V.W W W V.V.V.V.V.V.~ V.V.V.! ! ",
"V.W ~ W W W W W W W W W M.V.V.V.V.V.V.V.V.V.V.V.~ M.W W V.V.B.V.V.R ~ W W W W W W W W ! ~ V.N.V.V.V.V.V.V.V.V.V.~ M.W W V.V.M.V.",
"B.W V.V.V.! W V.M.N.V.V.V.V.W V.V.V.M.V.V.V.! ~ V.M.W W M.B.B.V.B.W V.V.V.! W V.M.B.V.V.N.V.! V.V.V.M.V.V.V.! ~ N.M.W W ~ N.M.V.",
"V.W V.V.V.~ W V.V.V.W V.V.V.V.V.B.V.~ V.V.V.B.V.V.V.W ~ V.V.B.M.V.W V.V.V.N.W V.V.V.W V.V.V.V.V.N.V.~ V.V.V.N.V.V.V.! ! V.V.M.M.",
"W M.! V.V.V.~ W ! V.M.V.R V.V.B.V.V.V.V.V.V.V.V.V.V.V.V.V.V.B.M.W M.! V.V.V.~ W W V.M.V.R V.V.M.V.V.V.V.V.V.V.V.V.V.V.V.V.V.M.M.",
"M.V.V.V.V.! V.! B.M.~ B.V.V.W W B.V.V.R V.V.V.V.V.~ B.W V.~ V.V.B.N.V.V.V.W V.! M.M.M.M.V.V.W W M.V.V.R B.V.V.V.V.M.N.W V.M.V.V.",
"V.V.V.M.V.V.V.V.V.V.V.M.V.V.~ W ! W B.~ V.V.V.! V.V.B.N.V.V.V.V.B.V.V.M.V.V.V.V.V.V.V.M.V.V.~ W ! ! ~ ~ V.V.V.! V.V.B.M.V.V.V.V.",
"V.V.W W V.V.V.V.W W ~ V.V.V.W W W ~ ~ ~ ! ! ~ B.V.V.V.V.V.V.V.V.V.V.W W V.V.V.V.W W M.V.V.V.! ! ! ! M.~ ! ! ~ V.V.V.V.V.V.V.V.V.",
"! V.W ! ~ W ~ ! W M.W M.V.V.V.V.V.V.V.V.V.V.V.V.B.V.~ V.W W V.V.! V.W W ~ W ! ! W M.W ~ V.V.V.V.V.V.V.V.V.V.V.V.M.V.~ V.W ! V.V.",
"V.B.V.M.! M.! ! ! B.W B.V.V.V.V.~ V.V.V.V.V.B.W ~ V.R V.~ B.W V.V.B.V.B.! M.! ~ ~ M.W ~ V.V.V.V.~ V.V.V.V.V.M.! M.V.W V.~ M.! V.",
"V.W V.V.V.B.V.! W W W V.V.M.V.V.V.V.V.M.M.M.V.V.V.V.V.V.V.V.~ V.V.W V.V.V.V.V.! R ! W V.V.M.V.V.V.V.N.B.B.M.V.V.V.V.V.V.V.V.~ V.",
"V.B.V.M.V.V.V.V.V.V.V.V.V.~ R V.V.M.V.V.M.M.~ ! ~ B.B.~ V.V.V.V.V.B.V.M.V.V.V.V.V.V.V.V.V.M.R V.V.M.V.V.M.M.~ ! M.M.M.M.V.V.V.V.",
"M.V.! V.V.V.M.V.V.V.V.M.V.B.M.W W W B.V.! M.M.M.M.~ ! W M.V.B.V.B.V.W V.V.V.M.V.V.V.V.B.R V M.W ! W B.V.! M.~ M.M.M.W ! B.V.V.V.",
"V.B.M.M.B.! M.~ M.N.V.V.M.W M.M.M.V.V.V.W W ! W W W W E V.B.V.M.V.B.~ M.M.R M.W W ! V R G @.U ~ M.V.V.V.W W ! ! W W W ! V.B.V.~ ",
"M.M.V.~ ! ~ V.B.~ W V.! V.V.V.V.V.V.V.V.W W W W W W W V.V.R V.V.B.B.V.! M 4 E m 9 z A & w j./ V.V.V.M.V.! ! W W W R W B.V.R V.V.",
"V.V.V.W W W V.V.~ M.V.M.V.V.V.V.V.V.V.V.V.W W W M.B.M.M.E V.V.V.V.B.W ; s q 8 9 #.D a.w } <.J N.V.V.V.V.V.W W W M.B.~ B.! V.V.V.",
"V.V.V.V.V.B.V.W K K ~ N.V.N.V.V.V.W V.V.V.V.V.V.V.V.V.V.M.M.M.V.V.U V $ < y >.#.d.d.b.l.d.@.4 m V.W V.V.V.V.V.V.V.V.V.V.~ V.B.V.",
"M.~ M.V.V.V.V.~ u.J.B z ~ V.M.W V.! V.! V.V.V.V.V.V.V.E k 8 A b U = + o 7  .9.s.l.v.m.H.H.b.@.8 B W V.W V.V.V.V.V.V.V.! B.B.V.R ",
"! V.V.M.U B.M.k 0.XX=.k.Y W M.B.V.V.V.M.V.V.V.V.U V.V.N.V S 9.#.@.# o > t -.e.d.d.b.m.H.J.L.s...J V.V.M.V.V.V.V.R V.V.B.V.M.! N.",
"V.B.V.V.V.~ ! P ,.oX}.|.t.N.V.V.M.R W V.V.V.V.V.R V.~ V.R F !.h.#.6 1 t o.<.e.d.v.b.m.H.J.P.P.d.9 n R V.V.V.V.V.R V.~ V.B.V.V.V.",
"~ V.~ M.B.V.k O.(.OX$X$X^.Y B.W M.V.V.M.~ V.V.V.! V.V.V.W z n.U.G > > w ..9.e.d.l.b.m.H.L.P.'.XX9.v M.~ ~ V.V.V.! V.V.V.! ! V.V.",
"B.~ B.~ V.V.V A R.oX+X$XOXu.M.B.M.V.W W M.M.V.V.B.V.~ E M n w F.,.> 7 y o.9.s.b.G.H.m.H.J.W.'._.D.A z W M.~ V.V.B.V.~ M.! V.V.M.",
"V.W ~ B.V.B.~ 6.^.{. XOX.XJ.Y B.V.V.R V.~ B.M.M.~ V.M.U * w $.w , < 7 t D <.J./././.~.J.J.~.,.p.1.y n N.~ M.M.M.~ V.V.V.! V.B.! ",
"V.~ W R ! ~ V.B h./.].].[.W.9.N V.! ~ V.B.V.W W V.B.n & 8 w S > o > t t u e././.7.K.Q./.L.~.j.e ;.A n N.V.V.W W V.V.M.B.V.V.V.B.",
"B.W ~ B.! U W z G F.^.^.J.H.G.7.Z R V.V.M.W R R M - 5 7 i ....$ o 3 t t u 7./.U.e ..r.[.U.P.D.S @.w m V.V.V.V.M.V.B.B.V.V.V.W V.",
"~ V.~ ~ B.R V.Y 7.A.J.J.H.v.v.b.a.G b d - & 3 7 6 6 t H } @.r.6 X > 7 y i o.U./.w.I J.`.H.H.| : &.&.D.Q B.~ V.! ~ V.R B.! M.W V.",
"R B.V.V.M.V.V.R T 5.S.b.d.e.e.e.e.<.3 o 3 i t i i i i o.X...} } : > 3 t u  .s.W.)./.T.n.U._.9.: 0 D.+X3.~ V.V.~ M.V.V.B.~ V.V.R ",
"V.R ~ ~ B.W W ! ~ l 5.A.:.H H H i t o 1 t i t t i i i  ...H q.h.o o 1 t u  .X.<.l.s.7.U._. X|.!.q.{.).^ W W W ~ V.V.V.M.N.~ V.V.",
"V.V.M.B.W R W ! B.n q.b.#.7 < $ < o   > q t D i t i i  . . ...} ..1 . 2 t H o.-.<...;.U.).|.|.L.c 2.O.W W M.N.V.V.V.V.~ R ~ B.! ",
"~ B.M.V.V.V.V.~ R B.R ^ L x * X - $ . > 3 t y t t t H i  .X.o.o.G.=.6 $ 3 y H X.>.-.q $.=.-.9.c.[ z V.V.V.V.V.M.M.~ ~ V.M.B.M.V.",
"B.W W B.V.V.N.N.B.B.V.V.! V.W W ~ ; . 1 7 t D  . .i t i  . .X.} ,.+.;.6 t y 9 t S H y +.9.r %.{ >.O.V.V.V.V.V.! ! ! W M.V.V.W V.",
"M.W E M.! M.E ! R ! W B.V.M.M.W W @ o 3 i X.<.a.9.<.i 3 i i q > 3 A l.7.j.F.F.r.9.<.s.h.D.T.Y.Y.Z.T M.M.V.V.V.~ ~ ! R W V.V.W R ",
"~ R V.W W W W W W W W W ~ W V.V.W @ 1 D -.a.l.d.a.e...< 3 7 $ X 1 6 S H j.Q.Q./.[.|.oX+X`.z.f.) R W W ! V.V.V.V.V.V.~ V.V.V.W ~ ",
"V.R ~ W W W W W W W W W ~ V.B.~ ; 1 H -.d.b.b.b.d.a.i > 2 3 1 . < 7 y @.h.D.s.].|.OX#X#X@XC./ M.V.V.V.N.V.V.V.V.! N.W W V.V.B.V.",
"B.W V.V.V.! W B.B.M.V.V.B.V.W h $ H o.9.m.m.H.m.v.<.> > q 7 + O X 1 t ..o.a.a.).I.Y.$XR.(.C.! N.V.V.B.V.V.V.~ ~ V.M.W ! M.B.B.V.",
"V.W V.V.V.M.W V.V.V.W V.V.V.V.; 7 X.9.a.v.m.m.b.9.y t <.d.>.8 s * o 7  .<.b.n.l.S _ {.y.' ] V.V.M.V.~ V.V.V.B.V.V.V.W ! V.V.B.~ ",
"W M.W V.V.V.! W W V.~ V.R V.! # t o.d.b.9.G H A , 7 X.d.n.n...s g * $ i -.d.G.n.q.n 2.` W N.N.N.V.V.V.V.V.V.V.V.V.V.V.V.V.V.M.M.",
"B.V.B.V.V.W V.! M.B.M.M.V.V.M $ i -.v.n.7.; h j * < H -.d.b.s.c g j = 1  .<.m.L.F.+.a k C M.! ! B.V.V.R B.V.V.V.V.M.B.R V.~ V.V.",
"V.V.V.M.V.V.V.V.V.V.V.B.V.V.g $ y o.d.l.-.f k h f + 7  .<.s.s.@.- k h O w #.a.m.m.s.w a k k V C W W B.~ V.V.V.! V.V.B.M.V.V.V.V.",
"V.V.W ! V.V.V.V.W W B.V.V.V.d o t ..e.s.H a h h k * , y } ,.<.@.8.^ f O o  .>.d.v.d.*.F k k f V W W ~ ~ ! W ~ B.V.V.V.V.V.V.V.V.",
"~ V.W ! ~ W M.! W ~ W ~ V.V.W % 2 @.#.<.D s k k h f + 3 7 1.&.K.K.f.f p . 3  .o.>.>.i.I.) V k C V.V.V.V.V.V.V.V.B.V.B.V.W W V.V.",
"B.B.V.M.! M.! ~ ~ B.W B.V.V.V.U O.E.8.i.1.n h g h k * + # E.K.Z.( g V h p + 3 q x.g.I.O.M V V E ~ V.V.V.V.V.B.W ~ V.R V.~ B.W V.",
"V.W V.V.V.V.B.! W W W V.V.M.V.V.M.0.i.z.Z.^ V V k V k g f B O.h k g k k V p @ + 4.f.l h k k ~ V.V.V.V.M.M.M.V.V.V.V.V.V.V.V.~ V.",
"V.B.V.M.V.V.V.V.V.V.V.V.V.~ W V.M.~ M.! B N N N g h h h V V V k k h k h k V j h h h C R M.~ R V.V.~ V.V.M.M.M.! M.M.M.~ V.V.V.V.",
"~ V.W B.V.V.B.V.V.V.V.M.V.V.B.W ! W M.V.C M.C C C C h h V V V V h C g V C C C E ~ M.V.M.V.V.N.W W W M.V.! ~ ! M.M.M.! ! M.B.N.V.",
"V.N.M.B.B.! ~ ~ N.M.V.V.M.W ~ M.M.V.V.V.! ! M.! M.C C M.N.M.N.M.N.M.! M.N.! M.~ M.M.V.V.M.R M.~ M.V.V.V.W ! ~ ! ! W W ! V.B.V.B.",
"M.B.V.~ ~ ~ B.B.~ W V.~ V.V.V.V.V.V.V.V.! W W W C M.C V.V.C V.V.M.N.V.~ ! ~ V.B.M.! N.M.V.V.V.V.V.V.M.V.W W W W W W R B.V.R V.V.",
"V.V.B.W W W V.V.V.V.V.~ V.V.V.V.V.V.V.V.V.W W W M.N.M.N.N.V.V.V.N.V.N.W W ! V.V.N.V.N.~ V.V.V.V.V.V.V.V.V.W W W ~ M.M.B.~ V.V.V.",
"V.V.V.V.V.B.V.W M.M.M.V.V.B.V.V.V.W V.V.V.V.V.V.V.V.V.N.M.N.N.V.V.V.V.V.V.M.V.! M.M.M.V.V.V.V.V.V.W V.V.V.V.V.V.V.V.V.V.~ V.V.V.",
"M.~ B.V.V.V.V.B.V.M.V.V.V.V.M.W V.~ V.W V.V.V.V.V.V.V.M.N.N.V.C M.M.M.V.V.V.V.M.N.M.V.N.V.V.M.W V.~ V.! V.V.V.V.V.V.V.! B.B.V.R ",
"! V.V.M.R V.V.V.R W B.V.B.W M.B.V.V.V.M.V.V.V.V.R V.V.B.V.M.~ M.E V.V.M.U V.V.V.W W M.V.M.W M.M.V.V.V.~ V.V.V.V.R V.V.B.V.~ ! B.",
"V.B.V.V.V.M.V.V.W V.~ W M.V.V.V.B.R R V.V.V.V.V.R V.~ V.V.V.V.V.V.N.V.V.V.~ V.V.W N.M.W M.V.V.V.B.R W V.V.V.V.V.W V.~ V.N.V.V.V.",
"M.V.~ M.M.B.M.V.E ! V.B.V.~ B.W ~ V.V.~ ~ V.V.V.W V.V.V.R ~ V.V.M.V.E B.B.V.B.V.~ ~ V.M.V.M.B.W ~ V.V.M.~ V.V.V.W V.V.V.! W V.V.",
"B.~ ~ M.V.V.V.V.V.N.W V.! V.V.B.V.V.W W M.~ V.V.B.V.~ M.W V.B.N.B.~ M.~ V.V.V.V.V.M.W V.! V.V.V.V.V.W W M.~ V.V.B.V.~ B.! V.V.B.",
"V.! ~ B.V.B.V.V.V.B.V.V.V.V.V.B.V.V.U V.~ M.M.~ ~ V.V.V.~ V.B.! V.W ~ B.V.B.V.V.V.V.V.V.V.V.V.M.V.V.R V.~ M.M.M.~ V.V.B.W V.N.W ",
"B.~ W W ! M.V.V.~ M.W V.V.M.! ! V.~ ~ V.B.V.W W V.V.M.V.B.V.V.B.B.M.R W W ~ V.V.! M.W V.V.M.W ~ V.! ~ V.V.V.R E V.V.B.V.V.V.V.N.",
"B.W ~ ~ ! U E V.B.M.B.B.B.~ B.V.V.M.V.V.V.V.V.N.V.N.M.V.V.V.W V.B.W ~ ~ ! R ! V.M.M.B.B.M.M.B.B.V.M.V.V.V.V.B.B.V.B.' V.N.V.W V.",
"~ B.B.~ M.W V.! N.B.B.~ V.V.~ V.M.V.B.V.B.M.V.! ! V.W M.! B.W V.~ B.B.~ B.W V.~ V.M.M.M.V.V.~ V.B.V.B.V.B.~ V.E ~ V.R N.! B.W V."
};
