/* XPM */
static char *result[] = {
/* columns rows colors chars-per-pixel */
"64 64 188 2 ",
"   c #1A1513",
".  c #1D1B14",
"X  c #201915",
"o  c #231E1A",
"O  c #1D2015",
"+  c #1E2C13",
"@  c #212216",
"#  c #222C15",
"$  c #25231C",
"%  c #29221D",
"&  c #242C19",
"*  c #292C1C",
"=  c #233415",
"-  c #263E16",
";  c #29321B",
":  c #263818",
">  c #2A3A1B",
",  c #272626",
"<  c #2C2521",
"1  c #2D2B23",
"2  c #312722",
"3  c #342A25",
"4  c #352D29",
"5  c #382E29",
"6  c #2F3B20",
"7  c #323125",
"8  c #3F3421",
"9  c #353C26",
"0  c #36322B",
"q  c #3B322C",
"w  c #363E29",
"e  c #3B3D2D",
"r  c #323130",
"t  c #3E3531",
"y  c #3E3833",
"u  c #4D3F1E",
"i  c #4A292B",
"p  c #413632",
"a  c #443B35",
"s  c #4A3F37",
"d  c #493E38",
"f  c #2A441A",
"g  c #2D4B1A",
"h  c #324E1F",
"j  c #2F511B",
"k  c #32541C",
"l  c #365B1E",
"z  c #385E1F",
"x  c #39611F",
"c  c #314621",
"v  c #384127",
"b  c #354B24",
"n  c #3B442C",
"m  c #365322",
"M  c #3B5425",
"N  c #375B21",
"B  c #3A5C23",
"V  c #3E5429",
"C  c #3E5A2B",
"Z  c #3B6421",
"A  c #3F6A24",
"S  c #40572B",
"D  c #445E2D",
"F  c #434135",
"G  c #46423A",
"H  c #4D423D",
"J  c #444939",
"K  c #4D4B3C",
"L  c #50443F",
"P  c #455233",
"I  c #455D32",
"U  c #485D37",
"Y  c #655632",
"T  c #406526",
"R  c #416D24",
"E  c #426529",
"W  c #486D2E",
"Q  c #447127",
"!  c #457628",
"~  c #48762A",
"^  c #477929",
"/  c #4A7D2A",
"(  c #496434",
")  c #4D6A35",
"_  c #4E643E",
"`  c #4D7731",
"'  c #517B35",
"]  c #5F3541",
"[  c #793E4E",
"{  c #4E4642",
"}  c #4E4A41",
"|  c #514641",
" . c #544B44",
".. c #5A4E47",
"X. c #5B4F49",
"o. c #4D5D42",
"O. c #555145",
"+. c #56514B",
"@. c #5C524B",
"#. c #575848",
"$. c #5B4E50",
"%. c #555554",
"&. c #5B5552",
"*. c #5D5F52",
"=. c #61554E",
"-. c #635C4C",
";. c #685F4E",
":. c #655551",
">. c #645B52",
",. c #6A5E56",
"<. c #635E5B",
"1. c #596C46",
"2. c #62654F",
"3. c #666156",
"4. c #6A6355",
"5. c #64615C",
"6. c #6D635A",
"7. c #616C5D",
"8. c #6B695C",
"9. c #766B54",
"0. c #72665E",
"q. c #746B5D",
"w. c #647356",
"e. c #6C755C",
"r. c #666461",
"t. c #6C6462",
"y. c #6E6D63",
"u. c #746761",
"i. c #756B63",
"p. c #796C64",
"a. c #6E7C67",
"s. c #6F706E",
"d. c #767163",
"f. c #7B7265",
"g. c #747068",
"h. c #7D7369",
"j. c #757D71",
"k. c #7D7D75",
"l. c #A64B6C",
"z. c #81756C",
"x. c #83796D",
"c. c #857B72",
"v. c #897D75",
"b. c #4E832A",
"n. c #4F882C",
"m. c #50872B",
"M. c #528C2D",
"N. c #748460",
"B. c #7F867E",
"V. c #88806E",
"C. c #868477",
"Z. c #898372",
"A. c #8E8279",
"S. c #90847B",
"D. c #93897D",
"F. c #8A8A88",
"G. c #978783",
"H. c #958A81",
"J. c #9B8E85",
"K. c #8E918E",
"L. c #949485",
"P. c #9B9284",
"I. c #9B958A",
"U. c #9E9A8B",
"Y. c #9A9C9A",
"T. c #A4978E",
"R. c #A49D8E",
"E. c #A89D93",
"W. c #A6A394",
"Q. c #ABA494",
"!. c #AEA99B",
"~. c #B2AC9C",
"^. c #B4AFA1",
"/. c #B8AFA3",
"(. c #B7B0A2",
"). c #BAB3A5",
"_. c #BDB6A9",
"`. c #BFB9AC",
"'. c #C2BCAE",
"]. c #C7C2B3",
"[. c #C9C1B4",
"{. c #CCC7BA",
"}. c #CFC9BB",
"|. c #D1CBBE",
" X c #D4CFC1",
".X c #D8D3C5",
"XX c #DCD6C8",
"oX c #DFDACB",
/* pixels */
"Q b.M.M./ M.M.Q M.b.M.M.m.m.M.M.m.M.M.M.b.M.M.^ m.b.M.m./ M.M.! Q b.M.M./ M.M.Q M.b.M.M.M.m.M.M.m.M.M.M.b.M.M./ b.M.M.b.b.M.M.Q ",
"M.Q / b.b.! ^ / / M.b.^ ^ m./ ! ^ b.^ b.! ! ! ^ M.M.M./ b./ M.M.M.R / b.m.Q ! / / M.b./ ^ b./ ! ^ b.^ b.! Q ! ^ n.M.M./ b./ M.M.",
"M.M.b.n.! ! ! ! b.^ M.M.n.m.! ! ^ M.b.! ! b.M.M.M.M.M.b.R / M.^ M.M.b.m.! ! ! ! b.^ n.M.m.m.! ! ^ M.b.! ! b.M.M.M.M.M.b.Q b.M.! ",
"b.b.b.M.M.M.M.b.Q M.M.M.M.m.M.m.M.M.M.M.M.M.n.b.b.b./ M.b.n./ M.m.b.b.M.M.M.M.n.R M.M.M.M.M.M.b.M.M.M.M.M.M.M.b.b.b.^ M.b.b./ M.",
"m.! ! m.M.M.n.b.b.n.M.M.! M.M.M.M.M.M.M.M.M.M.! ! ! ^ n.M.M.! M.M.! ! b.M.M.n.b.b.n.M.M.! M.M.M.M.M.M.M.M.M.M.! ^ ^ ! b.M.M.! M.",
"/ ! ^ b.^ / ^ ^ ! ! ! m.M.b.b.! / ^ m.m.M.M.M.^ / / Q ^ M.M.! ! / ! ^ n.^ / ^ ^ ! ^ ! b.M.b.n.^ b.^ b.m.M.M.M./ / ^ Q ^ M.M.! Q ",
"/ Q M.! ~ ! ! ! ! ! ! ! ^ ! M.M.M.! ! ^ M.M.M.M.M.M.b.M.M.n.! / / Q M.! ! ! ! ! ! ! ! ! ^ ! M.M.m.! ! ! M.M.M.M.M.M./ M.M.M.! / ",
"M.! / ! ! ! ! ! ! ! ! ! b.M.m.M.M.M.M.M.M.M.M.M./ b.Q ! M.M.b.M.M.! / ! ! ! ! ! ! ! ! ! / M.n.M.M.M.M.M.M.M.M.M./ b.! ! M.M.b.M.",
"n.! M.M.M.^ ! M.b.n.M.M.m.M.~ M.M.M.b.M.M.M.^ b.M.b.! ! b.m.m.M.m.! M.M.M.^ ! M.b.n.M.M.n.M.^ M.M.M.b.M.M.M.^ / n.b.! ! b.b.b.M.",
"M.^ M.M.M.b.! M.M.M.~ M.M.M.M.M.b.M./ M.M.M.m.M.M.M.! / M.M.m.b.M.! M.M.M.n.! M.M.M.! M.M.M.M.M.b.M.b.M.M.M.m.M.M.M.! ^ M.M.n.b.",
"! n.^ M.M.M./ ! ^ M./ M.Q M.M.m.M.M.M.M.M.M.M.M.M.M.M.M.M.M.b.b.! b.^ M.M.M./ ! ! M.b.M.Q M.M.n.M.M.M.M.M.M.M.M.M.M.M.M.M.M.b.b.",
"n.n.n.M.M.! M.^ n.b.m.b.M.M.! ! n.M.M.Q M.M.M.M.M./ m.Q M.b.M.M.m.n.M.M.M.! M.^ b.n./ b.M.M.Q ^ b.M.M.Q m.M.M.M.M.b.n.! M.b.M.M.",
"m.M.M.b.M.M.M.M.M.M.M.b.M.M.b.! ^ ^ b.b.M.M.M./ M.M.m.n.M.M.M.M.m.M.M.b.M.M.M.M.M.M.M.b.M.M./ Q ^ ~ b.b.M.M.M.^ M.M.M.b.M.M.M.M.",
"M.M.! ! M.M.M.M.^ ! / M.M.M.! ! ! ^ / / ^ ^ / m.M.M.M.M.M.M.M.M.M.M.! ! M.M.M.M.! ! b.M.M.M.^ ^ ~ ^ b.^ ^ ^ / M.M.M.M.M.M.M.M.M.",
"^ M.! ! / ! ^ ^ ! b.! b.M.M.M.M.M.M.M.M.M.M.M.M.b.M./ M.! ! M.M.^ M.! ~ / ! ^ ^ ! b.! / M.M.M.M.M.M.M.M.M.M.M.M.b.M./ M.! ^ M.M.",
"M.m.M.n.^ b.^ / ^ b.! b.M.M.M.M./ M.M.M.M.M.b.~ b.M.Q M./ m.! M.M.m.M.m.^ b.^ / / b.! / M.M.M.M.b.n.M.M.M.M.b.! b.M.! M./ b.! M.",
"M.! M.M.M.M.m.^ ! ! ! M.M.b.M.M.M.M.m.b.M./ M.M.M.M.M.M.M.M.b.M.M.^ M.M.M.m.M./ ! ! ! M.M./ M.M.M.M.n.b.n.b.M.M.M.M.M.M.M.M.b.M.",
"M.m.M.b.M.M.M.M.M.M.M.M.M./ ! M.m.m.M.M./ m./ ^ / b.b.b.M.M.M.M.M.b.M.b.M.M.M.M.M.M.M.M.M.b.Q M.n.b.M.M.b.b./ ^ b.b./ b.M.M.M.M.",
"b.M.! m.M.M.b.M.M.M.M.m.M.m.b.! ! Q T ~ ! b.b.b.b.b.! ^ b.M.n.M.b.M.! M.M.M./ M.M.M.M.b.M.m.m.Q ^ ^ b.M.! b.b.b.b.b.^ ^ / M.n.M.",
"M.m.b.n.m.^ b./ m.b.M.M.b.! b./ b.~ O.K B m Q R A ! Q ^ M.m.M./ M.m./ b.m.^ b./ b.b.M.M.b.~ m./ b.M.M.M.! ! ^ ! ! ! ! ^ M.n.M.b.",
"/ m.M./ ^ / M.m./ ~ M.^ M.M.M.M.M.( f.y ; a b 9 b Z 6 A M.Q M.M.b.b.M./ ^ / M.M.b.! M.^ M.M.M.M.M.M.n.M.^ ! ! ! ! ! ! m.M.Q M.M.",
"M.M.M.! ! ! M.M.M.M.M.b.M.M.M.M.M.P 5.| y u.{ +.e e r b f ! M.M.M.M.M.! ! ! M.M.M.M.M.b.M.M.M.M.M.M.M.M.M.! A A b.b./ m./ M.M.M.",
"M.M.M.M.M.m.M.^ b./ m.M.M.m.M.M.N 1 ..p.z.c.p.p.@.:.a 1 < Z A M.M.M.b.M.M.m.M.~ b./ / M.M.M.M.M.M.^ M.M.b.M.U I M.M.M.M./ M.M.M.",
"/ m./ M.M.M.M.m.M./ M.M.M.M./ m w +.c.S.v.v.z.h.i.6.| t . . : N V n 8 Z M.M.M.b.M.b.M.M.M.M.b.Q M.^ M.A b Z L.y.b.M.M.! M.m.M.R ",
"/ M.M./ R M.M.M.~ ! b.M.n.! / P  .i.G.G.S.v.z.z.i.q.=.p < o < @.@.8.H N R m.M.M.! Q n.M.n.Q m.m.M.M.M.E s.*.{.e.h b.M.m.M.b.^ b.",
"M.m.M.M.M./ M.M.! M./ ! b.M.T v g.J.J.D.S.v.x.h.i.q.,...p 4 0 @.q.E.J ! M.m.M.M.! M./ ! b.M.M.M.b.Q R w.'.'.{.1.J ^ ^ M.M.M.M.M.",
"/ M./ b.n.M.b.M./ ^ M.m.M.! n 8.{./.J.G.S.v.z.h.p.u.,...t < , } P.x.c / / M.m.M./ ^ M.M.M./ M.Q b.M.W W.oXoX|.Q.o.Z M.M.~ ^ M.M.",
"M./ b.b.M.M.M.M.M.m.! M.^ V F k.~./.T.D.S.v.A.A.z.i.6.X.a 5 < >.Z.y m Z m.M.M.M.M.m.! M.^ M.M.M.n.b.8. XXX.X}.R.a Z / b.^ M.M.b.",
"m.~ / b.M.m.M.M.M.m.M.M.M.T F <.y.;.E.D.G.E.W.!.Q.D.,.L p 5 3 2 y @.F # Q ~ M.M.M.m.M.M.M.M.M.b.M.D H.[.|.]._.R.2./ M.m.^ M.M.! ",
"m.b.! ! ^ / M.M./ b.! M.M.b G -.u f.E.G.Q.R.H.>.Q.Q.8.d p p < o < G t 9 * k m.M.^ / ! M.M./ ^ ^ E 8.I._.(.(.Q.d.C M.b.M.M.M.M.b.",
"m.! ^ b.^ R ^ M.m.b.m.m.b.b y +.s C.J.J.).q.O.u P.Q.4.s p p 4 o $  . .H q 7 * l Q R ! / n./ ! S 4.Z.S.G.R.W.Z.K b n.b.M.M.M.^ M.",
"/ M.b./ m.Q M./ m.m.n./ W C.&.%., { A.A.^.D.Y 9.Q.P.@.s p p < X 0 q.+.H H p q q e 5 * * h V K u.c.z.z.S.P.D.V.4.Z M.Q M.^ b.! M.",
"Q b.M.M.b.M.M.Q M.b.M.M.1. XF.r $ 3.(.P.c.I.Q.Q.T.q.| H p 5 % < } } ......] G H d a d 5 o q :.0.q.q.0.i.x.Z.2.D m.m.M.m./ M.M.Q ",
"M.R / b.b.! ^ ^ / M.n./ ) !.).8.U.].].~.D.6.p.f.,.X.| d p 4 @ % i.8.|  .d d d G p a d p 3 o p L d L H ,.V.2.f ~ m.M.M.m.m./ M.M.",
"M.M.b.b.! ! ! ^ b.^ n.n.b._ #.v G.`.'.!.P.2...,.=.X.{ p 4 X 7 } }  .{ | { H a t d d a 5 2   o 2 % 2 q =.z.4.B M.M.M.M./ Q / m.~ ",
"b.n.b.M.M.M.M.b.Q M.M.M.n.b.b ] l.t.:.@.#.t =.>...H a 5 % 5 @.A.+.@. .L H H p t p a p 5 <   $ * X : V I ( W m.b.b./ / M.b.m.b.M.",
"n.! ^ m.M.M.n.n.n.n.M.M.^ n.o.$.[ $.i 6.O.a H H p q a p 7 >.O.*.H  . .L s p s | | L p p 3 X : b.! ^ M.M.M.M.M.^ ^ ^ ! m.M.M.~ M.",
"/ ! ^ b.^ b.^ ^ Q ^ ! n.M.b.W B.U.I.I.C.d.d.3.8.q.Z.Z.f.3.f.a q < p H a q d >.6.0.6...a 5 o # Q / ^ b.m.M.M.M.^ / ^ Q ^ M.M.~ Q ",
"/ ! M.! ! Q ! ! ! ! ! ! ^ ^ M.^ ) y.j.^.|.|.`.(.Q.R.R.f.{ H q 3 o o p 5 <  .0.u.p.p.q.=.H 3 * ^ m.! ! ! M.M.M.M.M.M./ M.M.m.! / ",
"M.Q / ! ! ! ! ! ! ! ! ! b.M.n.M.b.) a.XXXXXX}.].(.d.C.d.X.p q 2 X 3 5 3 % H u.p.z.c.z.q.=.L 3 ; b.M.M.M.M.M.M.M./ b.! ^ M.m.m.M.",
"b.! M.M.M.^ ! M.M.n.M.M.M.M.^ M.M.M.N.Q.U.XXL.L.~.i.t.X. .p 3 X . $ q t < 1 ,.h.v.S.S.v.6.$.d < l M.m.M.M.M./ / m.b.! ! b.m.b.M.",
"M.! M.M.M./ ~ M.M.M.^ M.M.M.M.M.b.M.) ` N.)._ J h.c.c.,.| q $ # k 6 :.p.,.t a 6.z.v.v.z.p.,.X.p ; n./ M.M.M.n.M.M.M.! / m.M.m.b.",
"! b.^ M.M.M.^ ! A M.b.M.A M.M.n.M.M.m.M.` 1.m 8.v.v.p.=.s % = l f  .x.c.i.X.q * F K  .,.c.p.X.a * ! M.M.M.M.M.M.M.M.M.M.M.M.b.b.",
"m.M.n.M.M.! M.~ b.b.b.n.M.M.^ ^ n.M.b.l Z g  .v.G.v.,. .3 = z l v i.z.h.:.L 3 + k k > ,.c.h.=.d % R M.R n.M.M.M.M.b.m.! M.b.m.M.",
"M.M.M.b.M.M.M.M.M.M.M.b.M.M.b.b.A Z x l g n p.v.v.u.@.p O j x > +.p.i.,.| p @ k x x g @.z.p.X.p % k m./ M.M.M.b.M.M.m.b.M.m.M.M.",
"M.M.! ^ M.M.M.M.b.A b.M.M.M.A A Z k k k n &.p.z.i.:.| o + Z ( 5...,.>. .p < = x k k g } p.0. .q o h / ^ ^ ^ / b.M.M.M.M.M.M.M.M.",
"/ M.! ^ / ! b.^ A n.A b.M.M.M.M.A Z Z o.K.r.:.>.X.| 7 . - j a.F.K.@.5.q 3 o g k k l - H ,.@.+.4 & ^ M.M.M.M.M.M.b.M.b.m.! ^ M.M.",
"m.b.M.b.^ b.^ / ^ n.b.n.M.M.M.M.A x Z M o.K.s.k.t 5 @ g k l g _ j.F.Y.$ @ - k k k x g <.r.5.Y.o.T M.M.M.M.M.b.! b.M.! M./ m.^ M.",
"M.^ M.M.M.M.M.^ ! ! ^ M.M.b.M.M.M./ x l l c a.7.@ & f x x x z x l U E k l z x k j k C B.j.7.w.' M.M.M.b.m./ M.M.M.M.M.M.M.M./ M.",
"M.b.M.b.m.M.M.M.M.M.M.M.M./ ! M.M.b.M.b.R x k k k k l l x x x x x l x l x x x x Z Z Z T Q ! Q M.m./ M.M.b.b.b.^ b.m./ b.M.M.M.M.",
"b.M.^ m.M.M.b.M.M.M.M.b.M.m.b.^ ! Q M.M./ / ! ! Q x z z z x x x z Z k x x Q R Q ^ b.n.b.M.M.b.! ! ! m.M.^ b.^ b./ b.^ ^ b.M.m.M.",
"M.b.b.m.m.! b.b.b.b.M.M.b.! b.b.b.M.M.M.! ! / ! ^ ! ! ^ M.b.M./ M./ / b.b.^ b./ b.b.M.M.b.Q b.b.b.M.M.M.! ! / ^ ! ! ! ^ M.m.M.m.",
"b.b.M.b.^ / m.m.b.! M./ M.M.M.m.M.M.M.M.! ! ! ! ! ! ! m.M.R M.M.b.b.M./ ^ / M.m./ ! M./ M.M.M.m.M.M.m.M.! ! ! ! ! ! ~ m.M.R M.M.",
"M.M.m.! ! ! M.M.n.M.M.b.M.M.M.M.M.M.m.M.M.! ! ^ b.b.b.m./ M.M.M.M.M.M.! ! ! M.M.M.M.M./ M.M.M.M.M.M.M.M.M.! ! ! b.b.b.m./ M.M.M.",
"M.M.M.M.m.m.M.^ b.b.b.M.M.m.M.M.M.^ M.M.M.M.M.M.M.M.M.M.b.M.m.M.M.M.M.M.M.b.M.! b./ b.M.M.M.M.M.M.~ M.M.M.M.M.M.M.M.M.M./ M.M.M.",
"b.b.b.M.M.M.M.m.n.b.M.n.M.M.b.^ M.^ M.^ M.M.M.M.M.M.M./ m.n.M.R b./ b.M.M.M.M.n.M.b.M.n.M.M.b.! M.^ M.! M.M.M.M.M.M.M.~ m.m.M.Q ",
"/ M.M./ Q M.M.M.Q ^ b.M.b.^ b.b.M.M.M.b.M.M.M.M.Q M.M.m.M./ / b.^ M.M.m.R m.M.M.! ! b.M.b.^ b.m.M.M.M.b.M.M.M.M.R M.M.m.M./ / b.",
"M.m.M.M.M.b.M.M.^ n./ ^ b.M.M.M.m.Q ! M.M.M.M.M.Q M./ M.M.M.M.M.M.m.M.M.M.m.M.M.! n.b.! b.M.M.M.M.Q Q M.M.M.M.M.Q M./ M.M.M.M.M.",
"b.n./ b.b.m.b.M.^ / M.m.M.b.m.^ ~ M.M./ / M.M.M.! M.M.M.! / M.M.b.M.^ / / M.m.M./ / M.m.M./ M.! / M.M./ / M.M.M.^ M.M.M.! ^ M.M.",
"n.b.b.b.M.M.M.M.M.m.! M.^ M.M.m.M.M.^ ~ b./ M.M.n.M./ b.~ M.M.m.M./ m./ M.M.M.M.M.b.! M.^ M.M.m.M.M.! ^ / b.M.M.m.M./ b.! M.M.b.",
"n.^ / b.M.b.M.M.M.b.M.M.M.M.M.b.M.M.R M./ b./ b.^ M.M.M.^ M.m.! M.^ / m.M.m.M.M.M.M.M.M.M.M.M.b.M.M.W M.b./ b.b./ M.M.m.^ M.M.! ",
"b.b.! ! ^ b.M.M.b.b.^ M.M.b.^ / M.^ / M.M.M.! ^ M.M.n.M.M.M.M.m.m./ ! Q ^ m.M.M.^ b.~ m.M.b.^ ^ M.^ / M.m.M.! ^ M.M.m.m.M.M.M.m.",
"m.! / b.^ Q ^ M.b.b.m.m.b.b.b.n.M.n.M.M.M.M.m.m.M.m.b.M.M.M.! M.m.! ~ m.^ R ~ M.n./ m.M.b./ n.n.M.b.M.M.M.M.M.m.M.m.m.M.M.M.! M.",
"/ m.b./ b.! M.^ n.m.b./ M.M.b.M.b.M.m.M.m./ M.^ ^ M.Q m.^ m.! M./ m.m./ m.! M./ n.m.b.b.M.M./ M.n.M.n.M.b./ M.^ / M.R m.! n.! M."
};
