/* XPM */
static char *result[] = {
/* columns rows colors chars-per-pixel */
"64 64 189 2 ",
"   c #1A1713",
".  c #1D1A15",
"X  c #211C17",
"o  c #231E1A",
"O  c #3F181C",
"+  c #1C2613",
"@  c #212216",
"#  c #222915",
"$  c #25221B",
"%  c #2A231D",
"&  c #252A1A",
"*  c #2B2D1F",
"=  c #223215",
"-  c #263D16",
";  c #25311A",
":  c #2A341D",
">  c #263A18",
",  c #2A3D1B",
"<  c #2B2521",
"1  c #2C2A22",
"2  c #2B2928",
"3  c #332A25",
"4  c #352D29",
"5  c #382E29",
"6  c #333426",
"7  c #323B24",
"8  c #37332B",
"9  c #3A332D",
"0  c #363C2D",
"q  c #3D3B35",
"w  c #4D3E1C",
"e  c #40352E",
"r  c #413632",
"t  c #453B35",
"y  c #483D37",
"u  c #443F3C",
"i  c #493E39",
"p  c #274116",
"a  c #2C441B",
"s  c #2E4D1A",
"d  c #324D1E",
"f  c #2F511A",
"g  c #32551D",
"h  c #355B1E",
"j  c #385E1F",
"k  c #39611F",
"l  c #2F4321",
"z  c #324124",
"x  c #3C452C",
"c  c #354929",
"v  c #3A4B2C",
"b  c #365523",
"n  c #3B5727",
"m  c #375921",
"M  c #3B5B24",
"N  c #3E5629",
"B  c #3E592B",
"V  c #3E5630",
"C  c #3B6422",
"Z  c #3E6A22",
"A  c #3E6028",
"S  c #564A2D",
"D  c #41552E",
"F  c #425D2B",
"G  c #444236",
"H  c #45423B",
"J  c #4D423C",
"K  c #4E4A3D",
"L  c #574B35",
"P  c #50443F",
"I  c #455134",
"U  c #465A33",
"Y  c #4C563B",
"T  c #4B5939",
"R  c #615438",
"E  c #416D25",
"W  c #43652A",
"Q  c #437127",
"!  c #467826",
"~  c #487B27",
"^  c #457628",
"/  c #48712C",
"(  c #477929",
")  c #4A7D29",
"_  c #466832",
"`  c #4D7032",
"'  c #603341",
"]  c #4F4741",
"[  c #4F4943",
"{  c #524641",
"}  c #534B44",
"|  c #594D46",
" . c #5B4F4A",
".. c #4D5544",
"X. c #555246",
"o. c #57524B",
"O. c #5C524B",
"+. c #5E584C",
"@. c #555351",
"#. c #5C5551",
"$. c #70474F",
"%. c #61554E",
"&. c #635D4F",
"*. c #625751",
"=. c #645C53",
"-. c #695D55",
";. c #665358",
":. c #566F40",
">. c #5D6349",
",. c #5A6649",
"<. c #5B704D",
"1. c #5B6855",
"2. c #5D7352",
"3. c #60674D",
"4. c #6C6455",
"5. c #626758",
"6. c #6C625A",
"7. c #6C695D",
"8. c #71665E",
"9. c #736C5C",
"0. c #647657",
"q. c #7A725F",
"w. c #696764",
"e. c #6E6A65",
"r. c #736660",
"t. c #756A62",
"y. c #796D65",
"u. c #776E6B",
"i. c #6C7164",
"p. c #7B7266",
"a. c #73746A",
"s. c #7D7369",
"d. c #7D7B6B",
"f. c #747270",
"g. c #7F7F71",
"h. c #7B7C79",
"j. c #AB476C",
"k. c #817A67",
"l. c #82766D",
"z. c #827B6B",
"x. c #847B72",
"c. c #8A7D75",
"v. c #967D7D",
"b. c #4E832A",
"n. c #4F882C",
"m. c #50872B",
"M. c #528C2D",
"N. c #87816E",
"B. c #868273",
"V. c #8B8374",
"C. c #86827A",
"Z. c #8E8279",
"A. c #838979",
"S. c #8B8E7C",
"D. c #92857D",
"F. c #948B7B",
"G. c #818280",
"H. c #948C82",
"J. c #9A8C84",
"K. c #9B9485",
"L. c #9D948A",
"P. c #8F9190",
"I. c #9F9B90",
"U. c #9A9D9B",
"Y. c #A0958B",
"T. c #A39C8C",
"R. c #A49C92",
"E. c #A89D92",
"W. c #A6A08E",
"Q. c #A7A296",
"!. c #ABA495",
"~. c #AFA897",
"^. c #ABA799",
"/. c #AEA99B",
"(. c #B3AD9D",
"). c #B8AFA3",
"_. c #BAB4A4",
"`. c #BAB4A6",
"'. c #C2BDAF",
"]. c #C5BFB1",
"[. c #C6C0B1",
"{. c #C9C3B5",
"}. c #CEC9BB",
"|. c #D2CCBE",
" X c #D4CFC1",
".X c #D7D1C3",
"XX c #D9D3C5",
"oX c #DCD7C9",
"OX c #DED9CB",
/* pixels */
"Q b.M.M.) M.M.Q M.b.M.M.b.m.M.M.n.m.M.M.b.M.M.( n.n.M.n.) M.M.^ / b.M.M.) M.M.^ M.b.M.M.n.m.M.M.n.M.M.M.b.M.M.) n.n.M.n.) M.M.Q ",
"M.Q ) b.b.^ ( ) ) M.b.) ) n.) ^ ( b.) b.^ ^ ( ( m.M.M.b.b.) M.M.M.Q ) b.b.! ( ( ) M.b.) ) b.) ^ ( b.( b.^ ^ ^ ( n.M.M.) m.) M.M.",
"M.M.b.m.( ^ ^ ^ b.( m.M.n.m.^ ^ ( M.b.^ ^ b.n.m.M.M.m.b.Q ) m.( M.M.b.m.! ^ ^ ^ n.^ n.M.m.m.^ ^ ( M.m./ ^ b.n.M.M.m.M.b.Q ) n.^ ",
"b.b.b.M.M.M.M.b.Q M.M.M.M.m.m.n.M.M.M.M.M.M.n.b.b.b.) M.) n.b.M.b.b.b.m.M.M.M.b.Q M.M.M.M.n.m.n.M.M.M.M.M.M.n.b.b.b.) M.) n.b.M.",
"m.^ ^ m.M.M.b.b.b.n.M.m.( m.M.M.M.M.M.M.M.M.M.^ ( ^ ^ b.M.M.^ M.n.^ ^ b.M.M.b.b.b.n.M.m.( m.M.M.M.M.M.M.M.M.M.( ( ( ! b.M.M.( M.",
") ^ ( b.) ) ( ( ^ ( ^ n.M.b.b.( b.( b.n.M.M.M.( b.( Q ( M.M.^ ^ ) ^ ( n.( b.( ( ^ ( ^ b.M.b.n.( b.( b.n.M.M.M.) ) ( Q ( M.M.( / ",
") Q M.^ ^ ^ ^ ^ ^ ^ ^ ^ ( ( M.M.m.( ( ( M.M.M.M.M.M.) M.M.n.( ) b./ M.( ^ ^ ^ ^ ^ ^ ^ ^ ( ( M.M.m.^ ^ ( M.M.M.M.M.M.) M.M.n.^ ( ",
"M.^ ) ^ ^ ^ ^ ^ ^ ^ ^ ^ b.M.m.M.M.M.M.M.M.M.M.M.) b.^ ^ M.M.n.M.n.^ ( ^ ^ ^ ^ ^ ^ ^ ^ ( ) M.m.M.M.M.M.m.M.M.M.M.( n.^ ^ M.M.n.M.",
"n.^ M.M.M.( ^ M.b.n.m.M.M.M.( M.M.M.b.M.M.M.) b.m.b.^ ^ b.m.b.M.b.! M.M.M.( ( n.n.n.m.M.m.M.^ M.M.M.b.M.M.M.( b.m.n.^ ^ b.m.n.M.",
"M.( M.M.M.b.^ M.M.m.( M.M.M.M.M.n.M.) M.M.M.m.M.M.M.^ ) M.M.m.b.M.( M.M.M.b.^ M.M.M.( M.M.M.M.M.n.M.b.M.M.M.n.M.M.m.^ ( M.m.n.b.",
"^ n.( M.M.M.) ^ ( M.b.m./ M.M.m.m.M.M.M.M.M.M.M.M.M.M.M.M.M.b.b.^ n.( M.M.M.) ^ ( M.b.M.Q M.M.n.M.M.M.M.M.M.M.M.M.M.M.M.M.m.b.b.",
"n.n.m.M.M.^ M.( m.n.) m.M.M.^ ^ n.M.M.Q m.M.M.M.M.b.n.^ M.b.M.M.n.n.n.M.M.( M.( b.b.b.b.M.M.^ ^ b.M.M.Q n.M.m.M.M.b.m.^ M.b.M.m.",
"m.M.M.b.M.M.M.M.M.M.M.n.M.M.b.^ ( ^ b.b.M.M.m.) M.M.n.n.M.m.M.M.n.M.M.b.M.M.M.M.M.M.M.b.M.M.) ^ ^ ^ b.) M.M.m.) M.M.n.n.M.M.M.M.",
"m.M.^ ^ M.M.M.M.( ^ ) n.M.M.^ ^ ^ ( ) ) ( ( b.m.M.M.M.M.M.M.M.M.m.M.^ ( M.M.M.M.^ ^ ) M.M.M.( ( ^ ( b.) ( ( b.m.M.M.m.M.M.M.M.M.",
"( M.^ ( ( ^ ( ( ^ b.^ b.M.M.M.M.M.M.M.M.M.M.m.M.b.M.) M.^ ^ M.M.) M.! ( ) ^ ) ( ^ n.^ ) M.M.M.M.M.M.M.M.M.M.M.M.b.M.b.m.^ ^ M.M.",
"m.n.M.m.( b.) ( ( n.^ b.M.M.M.M.b.M.M.M.M.M.b.( b.M.^ m.b.b.( M.m.m.M.b.( b.( ( ( b.^ ) M.M.M.M.) M.M.M.M.m.n.^ n.M.^ M.) n.( M.",
"M.( M.M.M.m.M.) ^ ^ ^ M.M.b.M.M.M.M.n.n.n.) M.M.M.M.M.M.M.M.b.M.M.( M.M.M.m.m.) ^ ^ ( M.M.) M.M.M.M.M.b.b.b.M.M.M.M.m.M.M.M.b.M.",
"M.m.m.b.M.M.M.M.M.M.M.M.M.) ^ M.m.m.n.b.) n.) ( ) b.b.b.M.M.M.M.M.m.M.b.M.M.M.M.M.M.M.M.M.) ^ M.n.b.M.M.b.b.) ) b.b.b.b.M.M.M.M.",
"b.M.( m.M.m.b.M.M.M.M.b.M.m.m.Q E Z D a M A ) b.b.b.( ( b.M.n.m.b.M.! m.M.M.) M.M.M.M.m.M.m.m.^ ^ ^ n.M.^ b.) b.b.b.^ ( b.M.n.M.",
"M.m.b.n.n.( b.b.b.m.M.M.b.! ( b a >.7.=.e.z W W E ^ ^ ) M.b.M.b.M.m.b.b.b.( b.^ Q ) M.M.) ( ) m.b.M.M.M.^ ^ ) ( ^ ^ ^ ( M.b.M.b.",
"b.n.M.) ( ) m.m.) ! M.( M.M.W X.G K.^.[.I.I./.i.b ! ^ m.M.Q m.^ Q b.M.) ( C E M : E M g ) E ) F V b.b.M.( ( ^ ^ ^ ^ ^ n.M.Q M.M.",
"M.M.m.^ ^ ^ M.M.M.M.M.b.M.! 3.d.N./.'. XOX[.e.B ) b.b.b.~ M.) 7 G N ! C d a % : i 7 G e x q 7 K #.^ n.M.M.^ ^ ^ b.) b.n.) M.M.M.",
"M.M.M.M.m.n.M.( m.) m.M.b.M 9.N.I._.{.XXOX`.7.M n.M.M.M.b.n.^ t t.o.Y d o @ 3 9 +.| =.*.-.O.4 ] d.M M.M.M.M.M.M.M.M.M.M.b.m.m.M.",
"b.b.n.M.M.M.M.m.m.b.M.m.d 6 k.F.!.(.}.oX.XA.` n.M.M.M.) m.b.~ G R.4.*.3 o % 3 P -.8.y.l.x.u.r.] X.C M.( M.M.M.M.M.M.M.( m.m.M.Q ",
"( M.M.) / m.M.M.( ^ b.b.T +.V.Z.T.~.{.].A.Q M.M.Q M.M.m.M.b.( x H.N.H 3 4 r { -.8.y.s.l.c.c.v.8.8 b n.b.n.M.M.M./ M.M.n.M.b.) n.",
"M.m.M.M.m.) M.M.( M.) Z 4.V.V.z.F.K.E.x./ M.M.M.Q M.) M.m.M.M.g 7.V.8 < 4 t *.6.r.y.l.l.c.D.D.c.o.7 C n.M.M.M.M.Q M.( M.m.M.M.m.",
"b.m.) b.b.M.n.M.) ( n.) 3.k.l.y.l.V.Z.T ~ m.M.M.( M.M.M./ E v x 9 H 3 4 r { -.8.9.s.l.x.c.D.F.J.-.[ N b.b.m.M.M.! M.M.M.^ ( M.M.",
"m.) b.b.M.M.M.M.M.n.( n.T 4.P -.y.x.s.N b.b.M.M.m.M.) ) g z 3.O.1 o 1 9 r J -.r.l.l.l.c.D.D.J.Y.H.[ b ^ b.b.M.M.n.M.) b.( M.M.b.",
"m.( ) b.M.n.M.M.M.n.M.M.W +.t } r.l.r.W ) m.b.b.) M.b.E ; 4 G 8 o % 4 r r i 8.K.!.~.T.Z.D.D.J._. Xf.x ( b.b.b.b.b.M.M.M.( M.m.( ",
"m.b.^ ^ ( ) M.M.) b.( M.b., 4 t %.p.8.F m.m.^ ^ M.m.g * 6 t p.+.o o 4 r t J c.~.T.k.T.Q.D.F.E.T.^.c.0 / m.M.^ ^ M.M.b.m.M.M.M.n.",
"m.( ) b.( Q ^ M.b.b.m.b.b.C & 3 i *.t.I ) ~ Q Q h & 7 9 u } 7.&.1 < 5 r t K Z.~.4.J H.E.Y.J.R.y g.*.K n M.M.M.b.M.b.b.M.m.M.^ M.",
") m.b.) b.^ m.) m.m.b.b.M.( + X 4 i | 9 & * 5 8 9 8 t P | { =.7.< o 3 t i { z.~.p.w L /.E.J.R.R S K 7 ) b.b.M.( ) M.Q M.( b.( M.",
"Q b.M.M.b.M.M.^ M.b.M.M.b.n.d $ o e < o 5 i t y J y J  .{ 5.N.9.i o 3 e i { -.K.~.F.T.(.D.F.g.] [ @.x ( b.M.M.) n.m.M.b.b.M.M.Q ",
"M.Q ) b.b.^ ^ ( b.M.b.( b.b.( m * o o 3 t y r r i y y J i ] } p.4.o o 9 i |  .-.V.H.z.x.H.L.q 2 @.u I ( ^ ^ ^ ( m.M.m.b.b.b.M.M.",
"M.M.b.b.^ ^ ( ( b.( m.M.n.b.^ ^ ! a X 3 9 t J y t t J { { { d.N.9.K % 3 y { %.*.-.{ z.T.`.].e.< q C.Q.A ( b.m.M.M.M.M.b.E ) n.( ",
"b.b.b.M.M.n.M.b.Q M.M.M.M.b.m.b.M.d   < 5 r t r r r J J J o.9.6.z.4.8 8 5 e { %.-.G k.E.`.}.|.g.C.XX^./ M.M.m.b.b.b.) M.b.n.b.M.",
"n.^ ! b.M.M.b.b.b.n.M.M.( m.M.M.M.a X 5 r r J | | { t t i P P p.N.k.q.9.9.} e J | t G &.z.H.v.K 1.A.:.b.M.M.M.( ( ( ! b.M.M.( M.",
"b.^ ( b.( b.( ( ! ( ( b.M.b.b.( ) ; o 5 r { -.r.8.-.} 5 y i i =.%.S.N.F.V.V.p.&.] t 5.&.O ;.j.' c _ ) n.M.M.M.) ) ( Q ( M.M.^ / ",
") Q M.( ^ ^ ^ ^ ^ ^ ^ ^ ( ^ M.M.m.> o 5 y %.y.s.p.y.;.3 5 e e o X.T.T.!.K.W.T.~.T.L.s.F.C.u.$.;.n ^ ^ ( M.M.M.M.M.M.) M.M.n.^ ) ",
"M.^ ) ^ ^ ^ ^ ^ ^ ^ ^ ^ b.M.n.M.m.> . 5 i =.l.l.x.l.8.4 3 4 < o 4.z.N.).`.[.[.|.[.XX[.w.7.S.S.0.) M.M.m.M.M.M.M.) n.^ ^ M.M.b.M.",
"b.^ M.M.M.( ( m.n.n.n.M.n.M.( M.M.E X % i -.l.c.D.c.6.% < o < y ] *.x.'.`.}.OXOXOXI.I.g.X.C Z n.M.M.b.M.M.M.) ) m.b.^ ^ b.m.b.M.",
"M.^ M.M.M.b.( M.M.M.^ n.M.M.M.M.) m.> X y  .l.c.D.l.i = , $ y %.t.s.B.S.,.`.{.U. Xa.t.y.c.T b.m.b.M.b.M.M.M.m.M.M.M.^ ( m.M.m.b.",
"( n.( M.M.M.( ^ ^ n.b.M.^ M.M.n.M.M.Z   5 } *.8.y.-.6 M d * | 6.c.Z.o.b m ^.d.* a.*.s.D.D.8.N ( M.M.M.M.M.M.M.M.M.M.M.M.M.m.b.b.",
"b.m.b.M.M.^ M.( b.n.n.b.M.M.( ^ m.m.j . o y  .8.l.p.O., s % } 6.Z.J.6.s h T A = < { -.l.x.l.+.7 ( M.M./ m.M.m.M.M.b.n.^ M.b.M.M.",
"m.M.M.b.M.M.M.M.M.M.M.n.M.M.b.( Z m g : i 4 { ;.s.x.l.K - * J -.x.D.s.7 C j C h $ r | -.y.y.%.f.0.^ n.b.M.M.m.) M.M.n.b.M.m.M.M.",
"M.M.^ ^ M.M.M.M.^ ^ b.n.M.M.Z Z h g m B P.3 e { -.s.l.6.8 . r  .r.l.s.K p C k k - % t P O.o.h.h.2.! b.( ( ( ) n.M.M.M.M.M.M.M.M.",
") M.^ ( ( ^ b.( ^ b.^ b.M.M.M.b.C k k j U 0 3 r { -.t.r.+.4 4 J %.8.-.#...f g g f = $ 3 o.U.1.<.n.M.n.n.M.M.M.M.b.M.b.M.^ ( M.M.",
"m.m.M.n.( b.) ( ( n.^ n.M.M.M.n.C k k k C b # 3 t J O.o.#.G.o.3 [ w.f.h.G.M h g g h = # l 1.B ( b.n.M.M.M.M.n.^ b.M.^ m.) n.( M.",
"M.( M.M.M.m.m.( ( ( ^ M.M.b.M.M.n.^ k j j h f @ 3 5 f.5.P.1.x + x U.1.0.b j j g g g f k k k ) M.n.M.n.b.b.b.M.M.M.M.M.M.M.M.) M.",
"M.m.M.b.M.M.M.M.M.M.M.M.M.) ^ M.n.b.b.) k k j p + # i.f.B A C j b U b g j k k k k k Z ^ b.) ^ M.n.b.M.M.b.b.b.( b.b.) b.M.M.M.M.",
"b.m.( m.m.M.b.M.M.M.M.b.M.m.n.^ ( ^ n.M.( ) Q Q Z C g b k k C C A C g k Z Z Z ^ b.b.m.b.M.m.n.^ ^ ^ n.M.( b.( b.b.b.^ ( b.M.m.M.",
"M.m.b.m.m.( b.b.n.b.M.M.b.^ b.b.n.M.M.M.! ( ) ^ ^ ^ ^ ( n.b.b.) n.b.) b.n.( b.b.b.b.M.M.b.^ b.b.b.M.M.M.^ ^ ) ( ^ ^ ^ ( M.m.M.b.",
"b.b.M.) ) ) m.m.b.^ M.) m.M.M.m.M.M.m.M.( ^ ^ ^ ^ ^ ^ n.m.Q M.M.b.n.M.b.( b.m.m.b.! M.b.M.M.M.m.M.M.n.M.( ^ ^ ^ ^ ^ ^ m.M.Q M.M.",
"M.M.m.^ ^ ^ M.M.M.M.M.) M.M.M.M.M.M.m.M.M.^ ^ ! ) b.b.n.) M.M.M.n.n.n.! ^ ^ M.M.n.n.M.( M.M.M.M.M.M.n.M.M.^ ^ ( b.) b.m.) M.M.M.",
"M.M.M.M.m.m.M.( b.) n.M.M.n.M.M.M.( M.M.M.M.M.M.M.M.M.M.b.n.m.M.M.n.n.M.M.b.M.( b.b.b.M.M.m.M.M.M.( M.M.M.M.M.M.M.M.M.M.b.M.m.M.",
"b.b.b.M.M.M.M.m.m.b.M.M.m.M.n.( M.( M.^ M.M.M.M.M.M.M.) n.n.M.Q b.b.n.M.M.M.M.b.n.b.M.n.M.M.m.^ M.( M.( M.M.m.M.M.M.M.( n.m.m.^ ",
"( M.M.b.Q m.M.M.^ ( b.M.n.^ b.b.M.M.M.b.M.M.M.M.Q M.M.b.M.b.b.b.( M.M.b.Q m.M.M.^ ^ b.M.b.^ b.b.M.M.M.) M.M.M.M./ M.M.b.M.b.( n.",
"M.n.M.m.M.b.M.M.^ m.b.^ b.m.M.M.b.Q ^ M.M.M.M.M.Q M.b.M.m.M.M.M.M.n.M.M.m.b.M.M.( n.b.^ b.M.M.M.n.Q ^ M.M.M.M.M.Q M.) M.m.M.M.M.",
"b.m.) b.b.n.b.M.( ) M.m.M.b.m.( ) M.M.b.) n.M.M.^ M.M.M.^ ) M.M.b.m.) b.b.M.b.M.) ) M.m.M.b.n.^ ) M.M.b.) m.M.M.^ M.M.M.^ ( M.M.",
"n.b.b.b.M.M.M.M.M.n.^ M.( M.M.m.n.M.^ ( b.b.M.M.n.M.) b.( M.M.b.n.) b.b.M.M.M.M.M.b.( M.( M.M.m.m.M.^ ( b.b.M.M.b.M.b.b.( M.m.n.",
"m.( ) b.M.n.M.M.M.m.M.M.M.M.M.n.M.m./ M.) b.b.b.( M.M.m.) M.n.( m.^ b.b.M.m.M.M.M.m.M.M.M.M.M.b.M.M.Q M.b.b.b.b.) M.M.m.( M.M.( ",
"m.b.^ ^ ! b.M.M.) b.( m.M.b.( ( M.) ) n.m.m.^ ( M.M.n.M.M.M.M.b.n.b.^ ^ ( b.M.M.( b.^ m.M.b.( ) M.( ) M.m.M.^ ^ M.M.n.M.m.M.M.n.",
"b.^ ) b.( / ( M.n.b.m.m.b.b.n.m.M.b.M.M.M.M.n.n.m.n.b.m.m.M.^ M.b.( ( ) ( Q ( M.n.b.m.b.b.b.b.b.M.b.M.M.M.M.m.m.M.n.b.n.m.M.^ M.",
"b.m.b.) b.( m.( n.m.n.b.m.M.) M.b.M.n.M.n.b.M.( ) M.^ m.( b.^ M.b.m.b.b.b.( m.b.n.b.n.b.M.M.b.M.n.M.n.M.b.b.M.! ) M./ m.( b.^ M."
};
