/* XPM */
static char *result[] = {
/* columns rows colors chars-per-pixel */
"64 64 192 2 ",
"   c #1A1713",
".  c #1D1B15",
"X  c #211C17",
"o  c #231E1A",
"O  c #3F181C",
"+  c #1D2713",
"@  c #212216",
"#  c #222A16",
"$  c #24211B",
"%  c #2A231D",
"&  c #252B1A",
"*  c #243315",
"=  c #263C15",
"-  c #263519",
";  c #29321C",
":  c #273B19",
">  c #2C3C1E",
",  c #2B2521",
"<  c #2D2922",
"1  c #2B2928",
"2  c #332A25",
"3  c #352D29",
"4  c #382E29",
"5  c #2C3123",
"6  c #2F3821",
"7  c #323326",
"8  c #323C23",
"9  c #36322B",
"0  c #3B332C",
"q  c #353C2B",
"w  c #3D3630",
"e  c #3D3B35",
"r  c #4D3E1C",
"t  c #40352E",
"y  c #413632",
"u  c #453B35",
"i  c #483D37",
"p  c #443F3C",
"a  c #493E39",
"s  c #284217",
"d  c #2C431B",
"f  c #2E4C1A",
"g  c #324C1E",
"h  c #33551D",
"j  c #365B1E",
"k  c #385F1F",
"l  c #39621F",
"z  c #354425",
"x  c #334C23",
"c  c #364728",
"v  c #3B442D",
"b  c #355422",
"n  c #385324",
"m  c #375B20",
"M  c #3B5D24",
"N  c #3D532B",
"B  c #3E5A2A",
"V  c #3B6421",
"C  c #3E6A23",
"Z  c #3F612A",
"A  c #564A2D",
"S  c #425C2B",
"D  c #454337",
"F  c #4A4130",
"G  c #434B32",
"H  c #45423B",
"J  c #4D423C",
"K  c #4E4C3C",
"L  c #574B35",
"P  c #50443F",
"I  c #435733",
"U  c #495637",
"Y  c #4D553B",
"T  c #4D5C3B",
"R  c #615438",
"E  c #416C25",
"W  c #43662A",
"Q  c #446A2C",
"!  c #486E2D",
"~  c #447127",
"^  c #477827",
"/  c #457628",
"(  c #48712C",
")  c #477929",
"_  c #4A7D29",
"`  c #436030",
"'  c #4A6B32",
"]  c #603341",
"[  c #4F4741",
"{  c #4F4A42",
"}  c #524641",
"|  c #534B44",
" . c #594D46",
".. c #5B4F4A",
"X. c #4F5844",
"o. c #555246",
"O. c #57524B",
"+. c #5C524B",
"@. c #5E584C",
"#. c #555351",
"$. c #5C5551",
"%. c #70474F",
"&. c #61554E",
"*. c #635D4F",
"=. c #625751",
"-. c #645C53",
";. c #695D55",
":. c #665358",
">. c #5D634A",
",. c #5B684A",
"<. c #5B704D",
"1. c #5B6855",
"2. c #5D7352",
"3. c #6C6455",
"4. c #636758",
"5. c #6C625A",
"6. c #6C685D",
"7. c #71665E",
"8. c #736C5C",
"9. c #657559",
"0. c #7A725F",
"q. c #696764",
"w. c #6E6A65",
"e. c #736660",
"r. c #756A62",
"t. c #796D65",
"y. c #776E6B",
"u. c #697266",
"i. c #747263",
"p. c #7B7266",
"a. c #76766C",
"s. c #7D7369",
"d. c #7A7971",
"f. c #7B7C79",
"g. c #AB476C",
"h. c #817A67",
"j. c #82766D",
"k. c #827B6B",
"l. c #807770",
"z. c #847B72",
"x. c #8A7D75",
"c. c #967D7D",
"v. c #4E832A",
"b. c #4F882C",
"n. c #50872B",
"m. c #528C2D",
"M. c #7D816D",
"N. c #87816E",
"B. c #868273",
"V. c #8B8374",
"C. c #828972",
"Z. c #86827A",
"A. c #8E8279",
"S. c #8B8E7C",
"D. c #92857D",
"F. c #948B7B",
"G. c #838680",
"H. c #948C82",
"J. c #9A8C84",
"K. c #9B9485",
"L. c #9D948A",
"P. c #98988F",
"I. c #8F9190",
"U. c #9F9B90",
"Y. c #9A9D9B",
"T. c #A0958B",
"R. c #A39C8C",
"E. c #A49C92",
"W. c #A89D92",
"Q. c #A6A08E",
"!. c #A7A296",
"~. c #ABA495",
"^. c #AFA897",
"/. c #ABA799",
"(. c #AEA99B",
"). c #B3AD9D",
"_. c #B8AFA3",
"`. c #B8B3A5",
"'. c #BAB4A4",
"]. c #BFBAAC",
"[. c #C3BDAE",
"{. c #C5BFB1",
"}. c #C6C0B1",
"|. c #C9C3B5",
" X c #CDC7B9",
".X c #CEC9BB",
"XX c #D2CCBE",
"oX c #D4CFC1",
"OX c #D7D1C3",
"+X c #D9D3C5",
"@X c #DCD7C9",
"#X c #DED9CB",
/* pixels */
"~ v.m.m.v.m.m.~ m.v.m.m.v.m.m.m.v.m.m.m.v.m.m.) b.b.m.b.v.m.m.~ ~ v.m.m._ m.m./ m.v.m.m.v.b.m.m.b.m.m.m.v.m.m._ v.b.m.v.v.m.m.~ ",
"m.~ _ v.v./ ) ) _ m.v._ _ v._ / ) v._ v./ / ^ ) b.m.m._ v._ m.m.m.~ _ _ v./ / _ _ m.v._ ) v._ / ) v._ v./ / / ) b.m.m._ v._ m.m.",
"m.m.v.b./ / / / v.) b.m.v.m./ / ) m.v.) / v.b.m.m.m.m.v.~ _ v.) m.m.v.m.) / / / v./ b.m.b.b.) / ) m.v./ / v.m.m.m.m.m.v.~ _ b.) ",
"v.v.v.m.m.m.m.v.~ m.m.m.m.v.m.v.m.m.m.m.m.m.b.v.v.v._ m.v.v.v.m.v.v.v.b.m.m.m.v.! m.m.m.m.b.m.v.m.m.m.m.m.m.b.v.v.v._ m.v.v.v.m.",
"n./ ^ v.m.m.v.v.v.v.m.m.) m.m.m.b.m.m.m.m.m.m.) ^ ^ / v.m.m./ m.b./ ) v.m.m.v.v.v.b.m.m./ m.m.m.m.m.m.m.m.m.m.) ) ) ) v.m.m./ m.",
"_ / ) v._ _ ) / / ) / v.m.v.v./ v.) v.b.m.m.m.) _ ) ~ ) m.m.^ ~ v./ ) v.) _ _ ) / ) / v.m.v.v.) v.) v.v.m.m.m._ _ ) ~ ) m.m./ ( ",
"_ ~ m.^ ^ / / / / / / / ) / m.m.m./ / ) m.m.m.m.m.m._ m.m.b.) v.v.~ m./ / / / / / / / ) ) ) m.m.v.) / / m.m.m.m.m.m._ m.m.b./ _ ",
"m.~ _ ^ ^ / / / / / / / v.m.m.m.m.m.m.m.m.m.m.m._ v.^ / m.m.v.m.m.~ ) ) / / / / / / / ) ) m.m.m.m.m.m.m.m.m.m.m._ v./ ) m.b.b.m.",
"v./ m.m.m.) / b.v.v.m.m.m.m./ m.m.m.v.m.m.m.) v.v.v./ ^ v.n.v.m.v./ m.m.m._ / b.v.v.m.m.m.m.) m.m.m.v.m.m.m.) _ b.v./ / v.b.v.m.",
"m.) m.m.m.v./ m.m.m.) m.m.m.m.m.v.m.v.m.m.m.b.m.m.m./ _ m.m.m.v.m.) m.m.m.v./ m.m.m.) m.m.m.m.m.v.m._ m.m.m.b.m.m.m./ ) m.m.v.v.",
") v.) m.m.m._ / _ m.v.m.( m.m.b.m.m.m.m.m.m.m.m.m.m.m.m.m.m.v.v.) v.) m.m.m._ / / m.v.m.C m.m.v.m.m.m.m.m.m.m.m.m.m.m.m.m.b.v.v.",
"b.b.b.m.m./ m._ v.v.v.v.m.m./ / v.m.m.! b.m.m.m.m.v.n.^ m._ m.m.b.b.b.m.m./ m.) v.v.v.v.m.m.) / v.m.m.~ m.m.b.m.m.v.b.~ m.v.m.m.",
"b.m.m.v.m.m.m.m.m.m.m.v.m.m._ ) ) / v.v.m.m.b._ m.m.v.v.m.n.m.m.b.m.m._ m.m.m.m.m.m.m.v.m.m.v./ _ / v.v.m.m.m._ m.m.b.v.m.m.m.m.",
"m.m./ / m.m.m.m.) / _ m.m.m./ / / _ _ _ / _ _ b.m.m.m.m.m.m.m.m.m.m./ / m.m.m.m./ / v.m.m.m./ / / ) _ _ ) _ _ b.m.m.m.m.m.m.m.m.",
"_ m./ ) ) / ) ) / v./ v.m.m.m.m.m.m.m.m.m.m.m.m.v.m.v.m.^ ^ m.m._ m./ _ _ / ) ) / v./ ) m.m.m.m.m.m.m.m.m.m.m.m.v.m._ m./ / m.m.",
"b.b.m.v.) v._ _ ) v./ v.m.m.m.m._ m.m.m.m.m.v./ v.m./ m._ n.) m.m.v.m.v._ v._ ) v.v./ _ m.m.m.m.v.m.m.m.m.m.v./ v.m./ m._ b.) m.",
"m.) m.m.m.m.m.) ^ ^ / m.m.v.m.m.m.m.m.v.m.v.m.m.m.m.m.m.m.m._ m.m./ m.m.m.b.b._ / / / m.b.v.m.m.m.m.b.v.v.v.m.m.m.m.m.m.m.m._ m.",
"m.v.m._ m.m.m.m.m.m.m.m.m._ / m.m.v.m.m._ v._ _ v.v.v._ m.m.m.m.m.b.m.v.m.m.m.m.m.m.m.m.v.v./ b.v.v.m.m.v.v._ _ v.v.v.v.m.m.m.m.",
"v.m.) m.m.m.v.m.m.m.m.v.m.v.v./ / / v.m.) v._ v._ v.) ) v.m.n.m.v.m./ b.m.m.v.b.m.m.E M s N ~ ~ / / b.m./ v._ _ v.v./ ) v.m.b.m.",
"m.m.v.v.v.) v._ v.v.m.m.v./ v._ v.m.m.m./ / _ Z C ^ ^ ) m.n.m.v.m.n.v.v.b.) v.) ! Q x w.4.6.>.d n b.m.m./ ^ _ / / / / ) m.v.m.v.",
"v.v.m._ ) _ m.n._ ^ m.) m.m.b.N S _ Z _ b x C ; x m m m.m.E b.^ E v.m._ ) v.v.Z i.(.U.U.}.^.K.D O.W n.m.^ ^ / / ^ ^ ^ b.m.~ m.m.",
"m.m.m./ ^ ^ m.m.m.m.m.v.m.m.^ @.| 8 v v v e 6 u ; % d m V v.B D 7 _ m./ / ) m.b.Q w.}.#XXX[.).N.p.@./ m.m.^ / ^ _ v._ v._ m.m.m.",
"m.m.m.m.m.m.m./ v._ v.m.m.v.~ s.| 2 ..;.=.-. .+.0 2 @ @ d Y O.t.u ^ m.m.b.b.m./ n 6.`.#X+X|.'.T.V.6.V v.m.m.m.m.m.m.m.m._ m.m.m.",
"v.v._ m.m.m.m.v.m.v.m.m.m.m.C o.| r.s.z.s.t.r.;.} 3 % $ < =.3.E.G ~ v.m.m.m.m.v.v.' S.oX@X X).~.F.N.8 d b.m.m.m.m.m.m.^ m.b.m.Q ",
"_ m.m._ E m.m.m.) ^ v.b.v.~ g w e.x.x.x.j.j.r.7.;.} y 4 1 H N.H.z m.m.v.~ m.m.m./ / W C.{.|.~.W.F.V.+.Y v.m.m.m.~ m.m.b.m.v.) v.",
"m.v.m.m.m.v.m.m.^ b._ ) v./ 8 O.x.H.D.x.l.h.t.e.7.&.u 3 , 0 V.5.n v.m.m.m._ m.m./ m.v.Z k.W.T.F.k.V.V.9.) m.m.m.~ m._ m.m.m.m.m.",
"_ m._ v.v.b.b.m._ _ m.b.m.N [ -.J.H.D.x.z.j.t.r.7.;.} y 2 2 H w v c E _ v.m.n.m.) ) m.b.T A.x.j.r.h.s.>.~ m.m.m.) m.m.m./ ) m.m.",
"m._ v.v.m.m.m.m.m.v.) m._ Z { H.J.J.H.x.x.j.j.h.r.;.a y w , o , O.-.z j n.m.m.m.m.n./ m.S s.z.t.5.} 3.U _ v.m.m.v.m._ v.) m.m.v.",
"n./ _ v.m.v.m.m.m.v.m.m.) G a.oX_.J.H.c.A.T.^.~.K.7.J y t 4 , o 9 a 3 - ~ _ m.m.m.n.m.m.W 7.j.7.| y +.W _ v.v.v._ m.m.n.) m.m./ ",
"b.v.~ ^ ) v.m.m._ v.^ m.^ q Z.(.W.W.H.D./.T.h.R.^.z.J u y 4 o o @.i.u 7 & h n.n.^ v.^ m.S 7.j.&.y 3 > v.n.m.^ ^ m.m.v.m.m.m.m.v.",
"b.( _ v._ Q ) b.v.v.m.v.n { @.z.F R.J.T.!.H.J 3.^.A.P u y 4 % < 4.5.| u 0 7 & m ~ E ^ ^ G 7.&.i 2 & ~ m.m.m.m.n.m.m.v.m.m.m.) m.",
"_ m._ v._ ^ m._ m.v.v.v._ 8 { A R W.J.W.^.L r p.^.j.P J y 3 o < 5.*.|  .P y 0 0 0 7 < & 0  .P 4 X + ~ m.n._ m.) ) m.~ m.) v./ m.",
"/ v.m.m.v.m.m./ m.v.m.m.) v #.o.[ l.F.F.).R.F.~.K.;.} a y 2 $ D 8.N.-.|  .J a J i u a 4 % , 4 % o g n.m._ m.m._ v.m.m.v._ m.m.~ ",
"m.~ _ v.v./ / ) v.m.v.) ( N p #.1 e L.H.B.B.F.A.5...| i 4 % $ 3.p.| | a J a u J y y a y 3 o % ; j _ ^ n.^ ^ ^ _ n.m.m.v.n._ m.m.",
"m.m.v.v./ / / / v./ b.b.Q /.Z.e , q.[.'.R.k.P ;.;...} i 2 o L 8.N.d.K P } } u y a P y t 2 X : E ) m.v./ ^ _ m.m.m.m.m._ ~ _ n._ ",
"v.v.v.m.m.m.m.v.C m.m.m.( /.+XZ.M..X.X'.Q.k.D ;.&.} 0 0 9 0 >.N.6.8.+.P a a y y y y y 0 %   d n.m.m.m.m.m.m.n.v.v.v._ m.v.v.v.m.",
"v./ / b.m.m.b.v.b.m.m.m.~ ,.M.<.K c.H.z.&.H u  .a t | 8.8.0.p.N.p.J a J i y }  . .P y y 2 o d m.m.m.m.m.m.m.m.) ) ) ) v.m.m._ m.",
"v./ / v./ v.) ) / ) / b.m.v.' c ] g.:.O *.4.u P *.j.V.N.F.B.F.@.-.a J u 0 | ;.e.7.;.} y 3 @ - / v.) _ n.m.m.m._ _ ) ~ ) m.m.^ ~ ",
"_ ~ m./ / / / / / / / / _ / m.Z -.%.y.Z.F.s.K.R.^.R.~.K.!.R.T.| @ 0 t 4 2 -.t.t.t.t.&.a 4 o d m.n./ / / m.m.m.m.m.m._ m.m.b.( ) ",
"m./ v./ / / / / / / / / _ m.b._ 9.S.S.q.6.|.OX}.XX}.}.'.`.B.k.3., , 4 2 3 e.j.z.j.j.;.a 3 X : b.m.m.m.m.m.m.m.m._ v.) ) m.b.v.m.",
"v./ m.m.m._ / b.v.v.m.m.b.m.) m.v.) n o.z.P.U.@X#X#X.X`.].f.=.| u , o , < 5.x.D.x.j.;.i < . m m.m.m.b.m.m.m._ _ m.v./ / v.b.v.m.",
"m./ m.m.m.v./ m.m.m./ m.m.m.m.m.v.v.U z.t.t.s.oXY.|.].>.S.B.s.t.+.a @ > - a j.D.x.j...u . s b.m.v.m._ m.m.m.v.m.m.m.) ) m.m.b.v.",
"/ v._ m.m.m.) / _ m.v.m./ m.m.b.v.N 7.D.c.j.$.a.5 M.!.m g O.A.A.7.| < f k 8 ;.t.r.:.} 4   V b.v.m.m.m.m.m.m.m.m.m.m.m.m.m.m._ v.",
"v.b.v.m.m./ m.) v.v.v.v.m.m./ C z &.h.x.j.;.} < s b T f h 5.J.A.5.| % f d  .j.j.7...a o   V / ) v.m.m.Q m.m.m.m.m.v.v./ m.v.m.m.",
"m.m.m.v.m.m.m.m.m.m.m.v.m.m.v.2.y.$.r.s.-. .y @ h l j l z s.c.z.;.} % = K j.z.j.=.P 3 p 6 j l C _ ) v.v.m.m.m._ m.m.v.v.m.n.m.m.",
"m.m./ ) m.m.m.m./ / _ m.m.m./ 2.f.f...+.} u $ d V V l s { s.j.r...y . 9 e.s.s.;.} t 2 I.` V h j C _ v.) ) ) _ v.m.m.m.m.m.m.m.m.",
"_ m./ / _ / v.) / v./ v.m.m.m.v.<.1.Y.#.2 % * k j V h X.$.3.5.+.a 3 3 ..7.e.;.} i , 0 N m l l l v.m.b.m.m.m.m.m.n.m.v.m.~ ^ m.m.",
"b.v.m.v._ v.) ) _ v./ v.m.m.m.m.E N <.d # = h h h V b G.f.y.q.#.2 $.G.$.O.+.} y 2 & g j V l l C ) b.m.m.m.m.v.^ v.m.~ m._ b.) m.",
"m.) m.m.m.b.m./ / / / m.m.v.m.m.m._ C j j j l l l l j b 9.1.Y.v + v 1.I.q.y.2 2 + s h l V m ^ m.m.m.b.v.v.v.m.m.m.m.m.m.m.m._ m.",
"m.v.m.v.m.m.m.m.m.m.m.m.m._ / m.v.v.b.v.C V j h j j j j j j I b m m M N a.u.# # f l C E ) ) ~ m.b.v.m.m.v.v.v.) v.v.v.v.m.m.m.m.",
"v.m.) b.m.m.v.m.m.m.m.v.m.m.b./ ) / b.m.) _ / / C C V j l l V C V V m V V V V ~ ^ v.b.v.m.m.v.^ ) ) v.m./ v._ v.v.v./ ) v.m.v.m.",
"m.b.v.v.n./ v._ n.v.m.m.v./ _ v.b.m.m.m.) / _ ^ ^ / / ) b.v.b._ v.v._ v.b.C v._ v.v.m.m.v.~ v._ v.m.m.m./ / _ / / / / ) m.b.m.v.",
"v.v.m._ _ _ m.b._ / m._ m.m.m.m.m.m.b.m./ / / ) / / ) b.m.~ m.m.v.b.m.v.) _ m.n._ ^ m._ m.m.m.m.m.m.b.m.) ^ / / ^ ^ ) v.m.~ m.m.",
"m.m.m./ / ^ m.m.m.m.m._ m.m.m.m.m.m.b.m.b./ / ) v.v.v.v._ m.m.m.b.b.b.C ^ ~ m.m.m.m.m._ m.m.m.m.m.m.b.m.m./ / ^ _ v.v.v._ m.m.m.",
"m.m.m.m.v.v.m./ v.v.v.m.m.n.m.m.b.) m.m.m.m.m.m.b.m.m.m._ m.m.m.m.m.m.m.m.v.m.^ v.) v.m.m.m.m.m.m.) m.m.m.m.m.m.m.m.m.m._ b.m.m.",
"v.v.v.m.m.m.m.m.m.v.m.m.m.m.v./ m._ m.) m.m.m.m.m.m.m._ v.b.m.E v.v.b.m.m.m.m.b.m.v.m.m.m.m.n./ m.) m./ m.m.b.m.m.m.m._ b.m.m.Q ",
") m.m._ ~ b.m.m.~ / v.m.n.^ _ n.m.m.m.v.b.m.m.m.~ m.m.v.m.v._ v.) m.m.b.~ m.m.m./ / v.m.v./ v.v.m.m.m.v.m.m.m.m.~ m.m.v.m.v._ v.",
"m.m.m.m.m.v.m.m./ m._ / v.m.m.m.v.( ) m.b.m.m.m.~ m.v.m.m.m.m.m.m.b.b.b.b.v.m.m.) b.v./ v.m.m.m.v.~ ~ m.m.m.m.m.~ m._ m.m.m.m.m.",
"v.m.) v.b.b.v.m._ _ m.n.m._ v.) _ m.m.v.v.b.m.m./ m.m.m.^ _ m.m.v.b._ v.v.m.v.m._ _ m.v.m.v.v./ v.m.m._ v.b.m.m.^ m.m.m./ ) m.m.",
"n._ v.v.m.m.m.m.m.v./ m._ m.m.m.v.m./ / v.v.m.m.v.m._ _ ^ m.m.v.b.v.v.v.m.m.m.m.m.v./ m.) m.m.m.b.m./ ^ v.v.m.m.v.m._ v./ m.m.v.",
"m.^ _ v.b.b.m.m.m.b.m.m.m.m.m.v.m.m.~ m._ _ v.v._ m.m.b.) m.n.) m.^ _ v.m.b.m.m.m.n.m.m.m.m.m.v.m.m.~ m.v._ v._ _ m.m.b._ m.b.) ",
"n._ ^ ^ _ v.m.m._ _ _ m.m.v./ _ m._ _ m.m.m./ ) m.m.v.m.m.m.m.n.v.v.^ ^ ) v.m.m.) v./ m.m.v.) _ m.) _ m.b.m.^ ^ m.m.b.b.b.m.m.v.",
"v.^ _ _ ) Q ) m.v.v.b.v.v.v.v.m.m.v.m.m.m.m.v.b.m.v.v.m.b.m.^ m.v.) _ _ ) E ) m.m.v.n.v.v.v.b.b.m.v.m.m.m.m.m.v.m.v.v.b.b.m.) m.",
"_ m.v._ v./ m._ v.m.v.v.m.m._ m.v.m.v.m.v.v.m._ _ m.~ m.) v./ m._ m.v._ b./ m._ v.b.v.v.m.m.v.m.v.m.v.m.v.v.m.) v.m.! m.) v.) m."
};
