/* XPM */
static char *result[] = {
/* columns rows colors chars-per-pixel */
"64 64 197 2 ",
"   c #191513",
".  c #1C1B14",
"X  c #201A17",
"o  c #231D19",
"O  c #1E2514",
"+  c #1E2C12",
"@  c #212317",
"#  c #222C15",
"$  c #24221A",
"%  c #2A231E",
"&  c #262B1B",
"*  c #292A1D",
"=  c #233515",
"-  c #253B14",
";  c #253419",
":  c #2A311C",
">  c #212122",
",  c #2C2521",
"<  c #2D2A23",
"1  c #302722",
"2  c #3D2222",
"3  c #332A25",
"4  c #352D29",
"5  c #382E29",
"6  c #2E3921",
"7  c #323D23",
"8  c #36322A",
"9  c #3B322C",
"0  c #36382A",
"q  c #3E3431",
"w  c #3E3934",
"e  c #443C2B",
"r  c #413632",
"t  c #443B35",
"y  c #443E39",
"u  c #4C3A38",
"i  c #493E39",
"p  c #294417",
"a  c #2D441B",
"s  c #2D4B19",
"d  c #304B1D",
"f  c #2F501B",
"g  c #32531D",
"h  c #355B1E",
"j  c #39611F",
"k  c #334224",
"l  c #364B25",
"z  c #36422D",
"x  c #3B442B",
"c  c #365323",
"v  c #3B5527",
"b  c #375822",
"n  c #3A5C22",
"m  c #3B532A",
"M  c #3F5D2B",
"N  c #3F4233",
"B  c #3B6422",
"V  c #3E6A23",
"C  c #3E6128",
"Z  c #435A2C",
"A  c #4B4335",
"S  c #424A34",
"D  c #46413B",
"F  c #4D423D",
"G  c #4A4D3A",
"H  c #584B33",
"J  c #50443F",
"K  c #445434",
"L  c #495436",
"P  c #4C553C",
"I  c #475C3C",
"U  c #695B37",
"Y  c #416D24",
"T  c #42632A",
"R  c #446B2A",
"E  c #48692F",
"W  c #447127",
"Q  c #477927",
"!  c #487A27",
"~  c #457628",
"^  c #49712E",
"/  c #477929",
"(  c #4A7D29",
")  c #466332",
"_  c #4C6937",
"`  c #4B623D",
"'  c #556F3E",
"]  c #4E7434",
"[  c #4B4642",
"{  c #4F4941",
"}  c #524641",
"|  c #554C44",
" . c #594D47",
".. c #564F4A",
"X. c #5B4F4A",
"o. c #545042",
"O. c #56514B",
"+. c #5D534C",
"@. c #4F4F50",
"#. c #5C5652",
"$. c #5C5C51",
"%. c #5E5B58",
"&. c #645A41",
"*. c #60554E",
"=. c #635D4F",
"-. c #724E55",
";. c #635651",
":. c #655B53",
">. c #6A5F56",
",. c #665E59",
"<. c #705556",
"1. c #4D6041",
"2. c #4F6940",
"3. c #5C6355",
"4. c #586950",
"5. c #646254",
"6. c #696254",
"7. c #6D625B",
"8. c #686759",
"9. c #626C58",
"0. c #6D695B",
"q. c #72665E",
"w. c #726B5C",
"e. c #67755A",
"r. c #6E725E",
"t. c #676360",
"y. c #6E6864",
"u. c #6E6D6C",
"i. c #746760",
"p. c #756962",
"a. c #796C65",
"s. c #6A7465",
"d. c #6B706A",
"f. c #777464",
"g. c #7B7465",
"h. c #737C62",
"j. c #75706C",
"k. c #7D7369",
"l. c #7C7A6D",
"z. c #777873",
"x. c #9F3F62",
"c. c #855264",
"v. c #81756C",
"b. c #877D69",
"n. c #837C6C",
"m. c #857A71",
"M. c #8A7E75",
"N. c #4E832A",
"B. c #4F882C",
"V. c #50872B",
"C. c #528C2D",
"Z. c #79816B",
"A. c #7C8274",
"S. c #88806E",
"D. c #8B8374",
"F. c #8D8279",
"G. c #91857C",
"H. c #92897C",
"J. c #8F927E",
"K. c #888786",
"L. c #8A8C8A",
"P. c #968681",
"I. c #978B81",
"U. c #9A8C84",
"Y. c #8E9288",
"T. c #969081",
"R. c #9B9485",
"E. c #9B9389",
"W. c #9F9A8D",
"Q. c #969996",
"!. c #A0938A",
"~. c #A39B8B",
"^. c #A49C90",
"/. c #A99D93",
"(. c #A5A193",
"). c #ABA495",
"_. c #AEA897",
"`. c #AFA69A",
"'. c #ADAA9D",
"]. c #B3AD9C",
"[. c #ACAEAB",
"{. c #B3AEA1",
"}. c #B6B1A6",
"|. c #BAB4A4",
" X c #BDB7AC",
".X c #BDB9AD",
"XX c #C3BCAF",
"oX c #C7C2B4",
"OX c #C9C3B5",
"+X c #CDC8BA",
"@X c #D2CCBE",
"#X c #D2CEC0",
"$X c #D6D0C2",
"%X c #D9D4C6",
"&X c #DCD7C9",
"*X c #DED9CB",
"=X c #E0DBCD",
/* pixels */
"W N.C.C.N.C.C.W C.N.C.C.V.C.C.C.V.C.C.C.N.C.C./ V.N.C.V.( C.C.~ W N.C.C./ C.C.W C.N.C.C.B.C.C.C.N.C.C.C.( C.C.( N.C.C.N.N.C.C.W ",
"C.W ( N.N.~ / / ( C.N./ / V./ ~ / N./ N.~ ~ ~ / C.C.C.N.N.( C.C.C.W ( N.V.~ / / ( C.N.( ( N.( ~ / N.( N.~ ~ ~ / B.C.C.( N.( C.C.",
"C.C.N.V.~ ~ ~ ~ N./ C.C.V.V.~ ~ / C.N.~ ~ N.C.C.C.C.C.N.W ( C./ C.C.N.V.~ ~ ~ / N./ B.C.N.C.~ ~ / C.N.~ / N.C.C.C.C.C.N.W N.N./ ",
"N.N.N.C.C.C.C.N.W C.C.C.C.V.C.V.C.C.C.C.C.C.V.N.N.( ( C.N.N.( C.N.N.N.C.C.C.C.V.R C.C.C.C.B.C.N.C.C.C.C.C.C.B.N.N.N.( C.N.N.N.C.",
"V.~ ~ V.C.C.N.N.N.V.C.V./ C.C.C.C.C.C.C.C.C.C./ / ~ ~ N.C.C.~ C.C.~ / N.C.C.N.V.( N.C.C./ C.C.C.C.C.C.C.C.C.C./ ~ ~ ~ N.C.C./ C.",
"( ~ / N.( ( / / ~ / ~ V.C.N.( ~ N./ N.V.C.C.C./ N./ W / C.C.~ W ( ~ / N./ ( / / ~ / / N.C.N.N./ N./ N.N.C.C.C.( N.( R / C.C.~ ~ ",
"( W C.~ ~ ~ ~ ~ ~ ~ ~ ~ / ~ C.C.C.~ ~ / C.C.C.C.C.C.( C.C.C.~ N.N.W C.~ ~ ~ ~ ~ ~ ~ ~ ~ / / C.C.V.~ ~ ~ C.C.C.C.B.C.( C.C.B.~ / ",
"C.~ ( ~ ~ ~ ~ ~ ~ ~ ~ ~ N.C.C.C.C.C.C.C.C.C.C.C.( N.~ ~ C.C.N.C.C.W ( ~ ~ ~ ~ ~ ~ ~ ~ / ( C.B.C.C.C.C.C.C.C.C.C./ N./ / C.C.N.C.",
"N./ C.C.C./ / B.N.V.C.C.V.C.~ C.C.C.N.C.C.C./ ( C.N.~ ~ N.V.N.C.N.~ C.C.C.( ~ B.N.C.C.C.B.C./ C.C.C.N.C.C.C.( ( B.B.~ ~ N.B.N.C.",
"C./ C.C.C.( W C.C.C.~ C.C.C.C.C.V.C.( C.C.C.V.C.C.C.~ ( C.C.C.N.C.~ C.C.C.N.~ C.C.C.~ C.C.C.C.C.B.C.( C.C.C.B.C.C.C.~ / C.B.B.N.",
"/ N./ C.C.C.( / / C.N.C.W C.C.V.C.C.C.C.C.C.C.C.C.C.C.C.C.C.N.N.~ C./ C.C.C.( ~ ~ C.N.C.W C.C.N.C.C.C.C.C.C.C.C.C.C.C.C.C.B.N.N.",
"C.N.C.C.C./ C./ V.N.N.N.C.C.~ ~ N.C.C.Y C.C.C.C.C.( V.~ C.( C.C.N.N.C.C.C.~ C./ N.N.N.N.C.C./ ~ N.C.C.~ B.C.B.C.C.N.B.~ C.N.C.C.",
"B.C.C.N.C.C.C.C.C.C.C.N.C.C.N./ / ~ V.V.C.C.C./ C.C.V.N.C.C.C.C.C.C.C.( C.C.C.C.C.C.C.N.C.C.( ~ / ~ ( ( C.C.C.( C.C.N.N.C.C.C.C.",
"C.C.W / C.C.C.C./ / ( C.C.C.W / ~ / ( ( / / ( V.C.C.C.C.C.C.C.C.C.C.~ ~ C.C.C.C.~ ~ N.C.C.C./ / / / N.( / / N.V.C.C.C.C.C.C.C.C.",
"( C.~ / ( ~ / / / ( / ( C.C.C.C.C.C.C.C.C.C.C.C.N.C.N.C.~ ~ C.C./ C.~ ~ ( ~ / / ~ N./ ( C.C.C.C.C.C.C.C.C.C.C.C.N.C.( C./ / C.C.",
"N.V.C.N./ N./ ( ( N./ N.C.C.C.C.N.C.C.C.C.C.N.~ N.C.W C.( V.Q C.C.V.C.V.( N./ ( / N.~ ( C.C.C.C.( C.C.C.C.C.N./ N.C.~ C.( N./ C.",
"C./ C.C.C.C.C.~ / / ~ C.C.N.C.C.C.C.B.N.C.N.C.C.C.C.C.C.C.C.( C.C.~ C.C.C.C.C./ ~ ~ ~ C.C.N.C.C.C.C.C.N.N.N.C.C.C.C.C.C.C.C.( C.",
"C.B.C.( C.C.C.C.C.C.C.C.C./ W ( T Y C.C.N.N.N./ N.N.N.N.C.C.C.C.C.V.C.N.C.C.C.C.C.C.C.C.C.( V C.C.( C.C.N.N.( ( N.N.N.N.C.C.C.C.",
"N.C.~ C.C.C.N.C.C.C.B.( N.c b s.l.B N.C./ N.( N.N.( / / N.C.V.C.N.C.! V.C.V.B N.C.Y V.Y / R G v / / V.C./ N.( N.N.N.~ / N.C.C.C.",
"C.C.N.N.N.( N.( N.N.C.n k 8.$.oXe.B N.C.~ ~ / ~ ~ ~ ~ / C.N.C.N.C.V.N.( n j : l n 0 b x 7 0 ;.1.( C.C.C.~ ~ / / ~ ~ ~ / C.N.C.N.",
"( N.C.( / ( C.V.N.~ N.P ;.{. XOX%.1.( C./ ~ ~ ~ ~ ~ ~ C.C.C C R ( ( ~ Y : * 3 F 8 *.D 7.r 9 ,.8.( C.B.C./ ~ ~ ~ ~ ~ ~ C.C.W C.C.",
"C.C.C.~ ~ ~ C.C.C.B.V f.(.OX=X$X}.' C.C.C.~ ~ ~ N.N.N.N.( Y 0 D L Y a @ @ 5 t :.:.a.a.v.p.i.[ N ~ C.B.C.C.~ ~ ~ N.( N.N./ C.C.C.",
"C.C.C.C.C.V.C.( N.B : g.|.oX%X=X'.M C.C.C.C.C.C.C.C.C.C.N.V { M.;.+.* o % 5 | 7.a.k.v.M.F.M.p.t k Y C.C.C.C.C.C.C.C.C.C.( C.C.C.",
"N.N.N.C.C.C.C.N.C.Z +.g.].XX@X=XJ.V C.~ C.C.C.C.C.C.C.Q C.~ S ^.f.| 4 5 r J :.q.a.k.v.M.G.P.M.;.w c B./ C.C.C.C.C.C.C.~ V.C.C.R ",
"( C.C.N.R C.C.C./ Z g.S.).].+XXXZ.V.C.V.C.C.C.C.W C.C.C.C.( - m.H.t , 1 t +.7.p.a.k.m.M.G.I.U.v.+.K C.N.C.C.C.C.W C.C.N.C.N./ N.",
"C.N.C.C.C.( C.C.~ T w.D.~.~.]./.3.j ~ C.C.C.C.C.Y C.( C.B.N.6 i g.D , 9 i ;.q.p.a.v.m.M.G.I.U./.j.7 n C.C.C.C.C.W C.( C.C.C.C.C.",
"( C.( N.N.C.N.C.( d P H.D.R.G.H.5.Q C.( ( C.C.C.~ C.C.N.a x 8.{ < , 3 q t *.q.v.G.H.M.F.G.P./.@X.X..M ( ( C.C.C./ C.C.C.~ / C.C.",
"C.( N.( C.C.C.C.C.l o.S.v.v.v.M.a.T ~ Q ( N.C.C.V.C.Y n ; < t 4 o , 9 w t  .F.).].(.).U.H.U.`.D.(.O.0 B N.N.C.C.V.C.( N./ C.C.N.",
"C.~ ( N.C.V.C.C.C.T n.b.g.7.q.v.n.P j C.( V.N.N.W ~ g , w r +.w o 1 q r u X.R._.w.k.W.`.I.!.D.e 0.D x N.( N.N.N.( C.C.V./ C.C.~ ",
"V.( ~ ~ ( ( C.C.( ~ P g.} F *.q.k.p.S ^ Y T c g d $ 8 r i o.g.S o % 9 r i  .R.).H A 6.].!.E.W.H &...k ( V.C.~ ~ C.C.N.C.C.C.C.V.",
"C.W ( V./ R / C.V.V.W L o.9 r J X.:.| * * 3 5 r t r i }  .} { +.% % 5 r i } D.).S.U b.|.I.H.j.w [ w l N.C.C.C.V.C.C.N.C.C.C.~ C.",
"( C.( ( ( / C.( V.V.V.! n : % 3 r t 1 o r A u t F i F |  .| S.y., o 5 r F } :.H.).).W.F.F.E.[ > @.%.A.^ V.( C./ ! C.W C./ N.~ C.",
"W N.C.C.( C.B.~ C.N.C.C.B.B . o % % o 4 r t t r i t i F { D +.=.6.$ $ 9 i } *.;.p.0.0.T.].XXK.w w E.+X' N.C.C.( N.C.C.V.( C.C.W ",
"C.W ( N.N./ / / ( C.N.( N.( B a a @   % 9 r F u r t } } } } | n.g.y % 1 r J X.;.7.F g.~.|.OX$X^.r.XXW.E ~ ~ ~ ( V.C.C.N.V.( C.C.",
"C.C.N.N./ ~ / / N./ C.B.N.N.W ~ / a X 1 9 r r r r r i u } F 0.l.f.g.9 % 5 8 i  .:.} D 0.D.R.P.-.k 3.) ~ ~ N.C.C.C.C.C.( W ( V.( ",
"N.N.N.C.C.C.B.N.W C.C.C.C.B.C.N.C.; o 3 r u  .*.*.| t t [ F i q f.b.0.=.6.=.i t A F t :.2 u c.x.0 R C.C.C.C.V.N.N.( ( C.N.N.N.C.",
"N.~ / N.C.C.N.N.N.N.C.C./ C.C.C.( # o 9 u  .q.p.q.>. .4 r t % 5 g.0.D.S.H.S.D.g.0.,.+.l.H.p.p.<.3./ C.C.C.C.C./ / ~ ~ N.C.C.( C.",
"N.~ / N.( ( ( / / / Q B.C.N.N.~ Y O o r } >.a.k.a.p.*.1 5 r % o 5 r J.~.(.!._.~.|._.|.~.l.A.Y.Z._ / N.V.C.C.C./ ( ( W / C.C.~ W ",
"( W C.Q ~ ~ ~ ~ ~ ~ ~ ~ / ~ C.C.N.# o u ;.j.m.m.v.k.+., 3 3 5 o % D J.n.).|.OXOX$X@X@X+X{.M ( N.N./ ~ ~ C.C.C.C.C.C.( C.C.N.~ ( ",
"C.~ ( ~ ~ ~ ~ ~ ~ ~ ~ ~ N.C.C.C.C.V % F ;.m.M.G.M.k.i 3 t 5 # & 1 r +.+.).|.XX%X&X*X#X9.h.] B.C.C.C.C.C.C.C.C.C.( N.~ / C.C.N.C.",
"N.~ C.C.C.( ~ B.N.N.C.C.B.C./ C.C.j , J ;.v.M.G.v.X...k.>.x W h , i ;.p.E.y.8.%X[.E..XK Q N.~ C.C.C.N.C.C.C.( ( C.N.~ ~ N.N.N.C.",
"C.~ C.C.C.N./ C.C.C./ C.C.C.C.C.N.B % J ;.i.v.>.t t q.m.v.G ! j * } >.v.i.y q {.M.j.j.G N.C.B.C.N.C.N.C.C.C.B.C.C.C./ / C.C.N.N.",
"/ N./ C.C.C./ ~ ( C.N.C.W C.C.N.C.Y * F *.v.v.X.3 J :.v.v.+.s s ,  .q.M.U.,., ..>.F.M.:.b C.B.B.C.C.C.C.C.C.C.C.C.C.C.C.C.C.N.N.",
"N.C.N.C.C.~ C./ N.N.N.N.C.C./ / N.( * r X.a.m.v.5 t } q.w.>.7 s , } >.G.U.a.1 F :.v.m.w.v B.~ ~ B.C.C.R C.C.C.C.C.N.N./ C.N.C.C.",
"C.C.C.N.C.C.C.C.C.C.C.N.C.C.( ~ ~ Y # 9 J >.v.v.D 3 y X.6.#.[ s $ F :.m.M.v.4 t | 7.a.y.r n Q ~ / ~ N.( C.C.V.( C.C.N.N.C.C.C.C.",
"C.C.~ / C.C.C.C.~ ~ ( C.C.C.Q ~ W h = 1 u X.q.i.#., 4 u.#.j.K.e.# t X.a.m.v.y , r ;.%.%.z.` B ( ~ / N./ / ( ( N.C.C.C.C.C.C.C.C.",
"/ C.~ / / ~ N./ ~ N.~ N.C.C.C.C.N.j s $ 9 i *.:.#.w < [.z.Q.9.2.+ 5 J :.p.i.... < Q.u.Q.d.2.V B.C.C.C.C.C.C.C.C.V.C.N.C.~ / C.C.",
"V.V.C.N.( N.( / ( N.~ N.C.C.C.C.( Y n # o w j.:.d.K.1.) m c s j p o 5 O.;.t.u.s.s 1.m m b j ( B.( C.C.C.C.C.N.~ N.C.W C.( N.~ C.",
"C./ C.C.C.C.V./ ~ ~ / C.C.N.C.C.C.B.~ h - z Q.$.A.I M B j B h j j - O u.L.A.s.4.f g g j Y / C.C.C.C.B.N.B.( C.C.C.C.C.C.C.C.N.C.",
"C.N.C.N.C.C.C.C.C.C.C.C.C.( ~ C.C.N.C.B.~ Y Z g g h h h j B j j j h h v 1.v n j j W Q N.C.( ~ C.C.N.C.C.N.N.N.( ( N.( ( C.C.C.C.",
"N.C./ V.C.C.N.C.C.C.C.N.C.V.V.~ ~ W C.C.Q N./ ( Q ~ B B V V V V B V n W ~ / ~ N.C.C.C.N.C.C.N./ / ~ B.C./ ( / N.N.( / / N.C.V.C.",
"C.N.N.V.V.~ N.( N.N.C.C.N.~ N.N.N.C.C.C.~ ~ ( ~ ~ / V ( C.C.B.N.C.N.( N.C./ N.( N.N.C.C.N.W ( N.( C.C.C./ / ( W / / / / C.V.C.N.",
"N.N.C.( ( ( C.V.( ~ C.( C.C.C.C.C.C.C.C.Q ~ ~ ~ ~ ~ ~ B.C.V C.C.N.B.B.N./ ( C.V.N.~ C.N.C.C.C.C.C.C.V.C./ / ~ ~ ~ ~ / V.C.R C.C.",
"C.C.V.~ ~ ~ C.C.C.C.C.N.C.C.C.C.C.C.V.C.C.~ ~ ~ N.N.N.N.N.C.C.C.C.C.B.~ ~ Q C.C.C.C.C.Q C.C.C.C.C.C.V.C.C.~ / / ( N.( N.( C.C.C.",
"C.C.C.C.C.N.C./ N.N.N.C.C.N.C.C.C./ C.C.C.C.C.C.B.C.C.C.N.B.B.C.C.C.C.C.C.N.C.Q N.N.N.B.C.V.C.C.C./ C.C.C.C.C.C.C.C.C.C.( C.C.C.",
"N.N.N.C.C.C.C.V.B.N.C.C.C.C.N.~ C./ C./ C.C.C.C.C.C.C.N.B.B.B.~ N.N.N.C.C.C.C.N.B.N.C.C.C.C.V.~ C./ C./ C.C.B.C.C.C.C.( N.C.C.W ",
"/ C.C.N.W C.C.C.~ ~ N.C.V.~ N.N.C.C.C.N.C.C.C.C.W C.C.V.C.N.( N.( B.C.N.W C.C.C.~ ~ N.C.N.~ N.N.C.C.C.( C.C.C.C.W C.C.V.C.( ( N.",
"C.V.C.C.C.N.C.C.~ C.( ~ N.C.C.C.V.R ~ C.C.C.C.C.Y C.( C.C.C.C.C.C.B.C.C.C.N.C.C.~ B.N.~ N.C.C.C.C.R ~ C.C.C.C.C.W C.( C.C.C.C.C.",
"N.C./ N.N.B.N.C./ ( C.C.C.( V.~ ( C.C.( ( C.C.C./ C.C.C.~ / C.C.N.C.( ( N.C.( C.( ( C.N.C.N.V.~ ( C.C.N.( C.C.C.( C.C.C./ ( C.C.",
"V.( N.N.C.C.C.C.C.N.~ C./ C.C.C.C.C.~ ~ N.( C.C.V.C.( V.~ C.C.N.B.( N.N.C.C.C.C.C.N.~ C./ C.C.C.C.C.~ ~ N.( C.C.N.C.( N.W C.C.N.",
"C./ ( V.C.N.C.C.C.V.C.C.C.C.C.V.C.C.W C.( N.( N./ C.C.C./ C.V./ C./ ( N.C.V.C.C.C.C.C.C.C.C.C.N.C.C.W C.( N.N.N.( C.C.V./ C.C./ ",
"V.( ~ ~ / N.C.C.( N.~ C.C.N./ / C./ ( C.C.C.~ / C.C.N.C.C.C.C.V.N.N.~ ! / N.C.C./ N.~ C.C.N.~ ( C./ ( C.C.C.~ ~ C.C.N.C.C.C.C.N.",
"V.~ ( ( / W / C.B.N.V.V.N.N.V.V.C.N.C.C.C.C.V.V.C.V.N.C.C.C.~ C.V.~ ( ( / W / C.B.N.N.V.N.N.B.B.C.N.C.C.C.C.C.N.C.V.N.C.B.C./ C.",
"( V.V.( N.~ C.( N.V.N.N.C.C.( C.V.C.V.C.V.( C./ / C.W C./ N.~ C.( C.N.( N.W C.N.N.C.N.N.C.C.N.C.N.C.N.C.N.N.C./ ( C.R B./ N./ C."
};
