/* XPM */
static char *result[] = {
/* columns rows colors chars-per-pixel */
"64 64 106 2 ",
"   c #46712B",
".  c #4F822E",
"X  c #538C31",
"o  c #528A30",
"O  c #4D7E2D",
"+  c #4E802E",
"@  c #50862F",
"#  c #518730",
"$  c #50842F",
"%  c #4A7B2D",
"&  c #50852F",
"*  c #4C7E2E",
"=  c #4B7C2D",
"-  c #518630",
";  c #4E822F",
":  c #4D7F2E",
">  c #45712B",
",  c #45702B",
"<  c #4C7D2D",
"1  c #47752C",
"2  c #48772C",
"3  c #497A2D",
"4  c #4B7C2E",
"5  c #538B30",
"6  c #4B7B2D",
"7  c #4B7B2E",
"8  c #4F842F",
"9  c #4A7A2D",
"0  c #4E812E",
"q  c #49792D",
"w  c #518830",
"e  c #4E812F",
"r  c #4D7E2E",
"t  c #4C7C2D",
"y  c #4F832F",
"u  c #4B7D2E",
"i  c #49782D",
"p  c #48762C",
"a  c #47762C",
"s  c #48782D",
"d  c #528930",
"f  c #51872F",
"g  c #48762D",
"h  c #52872F",
"j  c #51862F",
"k  c #48772D",
"l  c #4D802E",
"z  c #4D7D2E",
"x  c #4F822F",
"c  c #4F852F",
"v  c #4C7F2E",
"b  c #4C7D2E",
"n  c #528B30",
"m  c #4F812F",
"M  c #4E832F",
"N  c #4D802F",
"B  c #508730",
"V  c #46722B",
"C  c #48792D",
"Z  c #538B31",
"A  c #49772D",
"S  c #4A792D",
"D  c #49772C",
"F  c #46732C",
"G  c #518930",
"H  c #49762C",
"J  c #50832F",
"K  c #47742C",
"L  c #48752C",
"P  c #528830",
"I  c #508630",
"U  c #4E822E",
"Y  c #508530",
"T  c #538930",
"R  c #4D812F",
"E  c #46722C",
"W  c #51852F",
"Q  c #47752D",
"!  c #538C30",
"~  c #538A30",
"^  c #4D812E",
"/  c #47732C",
"(  c #4C7E2D",
")  c #46742C",
"_  c #48742C",
"`  c #4B7A2D",
"'  c #4C7B2D",
"]  c #4A7B2E",
"[  c #4E7F2E",
"{  c #49752C",
"}  c #528730",
"|  c #4E802F",
" . c #4A7C2D",
".. c #52882F",
"X. c #4C7C2E",
"o. c #4A7C2E",
"O. c #4B7D2D",
"+. c #4F812E",
"@. c #4F832E",
"#. c #4B7E2E",
"$. c #518A30",
"%. c #4A7D2E",
"&. c #4A782C",
"*. c #4D7D2D",
"=. c #4F8530",
"-. c white",
/* pixels */
"  . X o O X X   X + X X @ # X X $ X X X + X X % & @ X $ * X X     + X o = X X   X . X X @ # X X - X X X + X X % & # X ; : X X > ",
"X , < . ; 1 2 3 4 5 + 6 7 8 4 1 3 + 9 0 1 1 1 q w X X : e 4 X X X , r + 8 1 2 9 4 5 + t 7 y u 1 i + 6 + 1 1 1 q w X X r $ 4 X X ",
"X X + @ p 1 1 a y s # d & f 1 1 2 X 0 1 1 0 o 5 X X o e , r # g X X + h 2 1 1 a y s # d & j 1 1 k X 0 1 1 0 o 5 X X o l , z & g ",
"+ 0 0 X X o X x   X X X X j o y 5 X X X X 5 @ + + + u 5 + c v X + . 0 X X o X y , X X X X @ o y 5 X X X X 5 # + + + b n + c : X ",
"# 1 a & X X x m x & X d i o X X X X X X X X X 1 k a 1 & X X g X # 1 k y X X M m m $ X o p o X X X X X X X X X 1 k a 1 8 X X a X ",
"z 1 q 0 9 z q s 1 s 1 $ X N + 1 * 3 + B 5 X X s * 3 , 9 X X 1 V r 1 s y C z q s 1 k 1 M X e x 1 r q + @ Z X X s * 3 , A X X 1   ",
"z   X 1 1 1 1 1 1 1 1 1 S a X X h 1 1 1 X X X X X X : X X & 1 b +   X 1 1 1 1 1 1 1 1 1 q D X X # 1 1 1 X X X X X X t X X f 1 % ",
"X F 4 1 1 1 1 1 1 1 1 1 : X # X X X X o X X X X 4 l 1 1 X o & X X F % p 1 1 1 1 1 1 1 1 u X j X X X X d X X X X 9 ; 1 1 X n & X ",
"& 1 X 5 X q 1 G ; & o X w X H X X X 0 X X X i : d e 1 1 ; h J X $ 1 X 5 X 3 1 G y $ o X w X K X X X 0 X X X S u w y 1 1 l # 0 X ",
"X 1 X X X : K X X X L X X X X X x X * X X X j X X X 1 % Z 5 P + X 1 X X X e K X X X 1 X X X X X 8 X * X X X I X X X 1 q Z Z # + ",
"1 y q 5 X X 6 F i X + X , X X $ X X 5 X X X 5 X X X X X X o + U 1 Y s o X X t F k X 0 X , X X y X X 5 X X X Z X X X X X X o + 0 ",
"B w j X X 1 X k $ $ + x X X 1 1 M X X , @ 5 T X X u & K X + n X # @ B X X 1 X s x 8 + R X X 1 1 0 X X , & 5 w X X * j E X + n X ",
"w 5 X + X X X X X X X x X X u 1 s a + + X X P % X 5 W y X P X X # 5 X : X X X X X X X . X X 4 1 k 1 + : X X P % X 5 @ x X P X X ",
"5 5 1 Q X X X X 1 1 z X X X 1 1 1 i r * k q : j X X X X X X X X 5 5 1 a X X X X 1 1 r X X X 1 1 1 s : u k C r j X X X X X X X X ",
"9 ! 1 s 6 1 3 s 1 ; 1 : X X X X X X X X X 5 X X + X r ~ 1 1 X X 6 ! 1 A t 1 3 s 1 R 1 4 X X X X X X X X X 5 X X + X r 5 1 1 X X ",
"# & X $ q + 9 9 9 . 1 : X X X X < P X X X X + A ^ X / d b $ 1 X P & X $ q + 9 3 % . 1 < X X X X ( P X X X X y L R X K o b & 1 X ",
"X p X X X G d q 1 1 1 X o + X Z X X @ x w + X X X X X X X X : X X i X X X G d 3 1 1 1 X n + X 5 X X # x f 0 X X X X X X X X r X ",
"X @ 5 0 o Z X X X X X X X b K X # + X X + y u 3 + 0 + + X X X X X $ 5 0 d Z X X X X X X X : / X # + X X + x b 3 + 0 + + X X X X ",
"+ X 2 P X 5 0 X 5 X X 0 X & y 1 1 ) j X s + b + + + k i v o @ 5 + X L # 5 5 + X 5 X X 0 X & y 1 1 ) @ X k + u + + + s i + 5 & 5 ",
"X # + $ y q + r x y X X + p + + 8 X X X 1 1 6 a 1 1 1 % X & 5 + X j + . $ q + : e R X X + _ + + y X X X 1 1 6 a 1 1 1 q X & 5 + ",
"0 y X = 9 4 P # z 1 X 9 X X 5 P Z X - X 2 1 1 1 1 1 1 P X , X X x x X b S < P w r 1 X 9 X X 5 P X X & X 2 1 1 1 1 1 1 B X , X X ",
"X 5 P 1 1 1 X X X X X : X X X X X X d X X 1 1 1 + + + y 9 X X X X 5 w 1 1 1 X X X X X r X X X X X X w X X 1 1 1 + + + x ` X X X ",
"X X X X P @ X s + * . X X c X X 5 1 X X Z X 5 X X X X X r o w X X X X X d & X i + ' : X X # X X 5 1 X X Z X 5 X X X X X r d # X ",
"+ + + X X X X $ o + X o o X ; 1 X 3 X 1 X X o X X X X 9 h & o , + + + X X X X . 5 + X 5 5 X M 1 X 3 X 1 X X d X X X X i # @ o , ",
"] X X r , d X X 1 1 U X y 1 + & X X X x d X X X , X X I X l u $ % X X 0 , G X X 1 ) y X 8 1 + $ X X X e w X X X , X X & X R ] $ ",
"X & X X 5 t X X 1 o b 1 0 X X X 8 , K X o X X X , X 7 X # X X ~ X 8 X X 5 [ X X 1 d * 1 + X X X I , E X o X X X , X ] X j X X 5 ",
"+ G 6 + ; d + X 6 9 X # X = & { : X Z * z d X X i X X X 1 t X X 0 w 9 + 0 d + X 4 q X # X 4 # K l X X * z d X X i X X X 1 i X X ",
"P z + + X X X X X j 1 X 6 X ! d & 5 1 a + + X X Y X 4 + 2 X d x } b + + X X X X X - 1 X 7 X ! P f X 1 a + + X X Y X = + 2 X o | ",
"w a u e X $ X X X & X X X X X $ X d , X b + 0 0 % X X j  .X @ k d a * l X $ X X X & X X X X X ; X o , X v + 0 0 = X X ..3 X f 2 ",
"# l 1 1 q + X X = + p o X ( 2 9 X 6 6 d # 5 1 a X X x d o X Z # # x 1 1 i + X X 9 + 1 d X r 2 9 X S ( d @ Z 1 a X X y P o X X j ",
"# 1 6 | i , p 5 $ + # & 0 v # w X l X X X X w y 5 I $ o j 5 1 X # g ` | q , L 5 & + w j U * # w X l X X X X d . 5 @ $ o ..5 1 X ",
"X.o : ( + 1 o o.# j $ + X X z X y X & X @ ; 5 3 % X   P q & 1 X o.d [ : 0 1 o * # f y + X X * X & X 8 X & N 5 q = X   w q 8 1 X ",
"V . X 5 r X X V X + X X f w X X J X X X + X X O.j j X j t X X V V + X o = X X V X . X X h w X X j X X X + X X < j w X $ * X X   ",
"X , = 0 x 1 p q r 5 + % * 8 o.1 q + % m 1 1 1 9 f Z X e 0 : X X X , u + $ 1 a q b 5 + 6 * ; u 1 i + 6 m 1 1 1 9 f 5 X + y : X X ",
"X X + $ p 1 1 2 ; q j w y W 1 1 2 X : 1 1 : d 5 X X o l , r - i X X + @ 2 1 1 a x q @ # y $ 1 1 k X : 1 1 : d 5 X X o * , z $ i ",
"+ x 0 X X o X + V X X X X f d e 5 X X X X 5 j + + + b 5 + $ ^ X + x 0 X X d X +., X X X X f o + 5 X X X X 5 } + + + z 5 + $ 0 X ",
"@ 1 k & X X 8 y y @ X o i d X X X X X X X X X 1 s p 1 & X X k X @ 1 k y X X c y y @ X o p d X X X X X X X X X 1 s 2 1 y X X k X ",
"+ 1 s x 9 r 3 q 1 q 1 @ X ; + 1 * 3 + # 5 X X s 4 q , 9 X X 1 V + 1 k 8 q r 3 q 1 i 1 & X y x 1 r q + - Z X X s 4 q , A X X 1   ",
"t V X 1 1 1 1 1 1 1 1 1 9 L X X j 1 1 1 X X X X X X [ X X @ 1 u : V X 1 1 1 1 1 1 1 1 1 q p X X @ 1 1 1 X X X X X X < X X w 1 % ",
"X F 4 1 1 1 1 1 1 1 1 1 * X # X X X X P X X X X b e 1 1 X o @.X X F % p 1 1 1 1 1 1 1 1 u X # X X X X P X X X X = y 1 1 X o @.X ",
"x 1 X 5 X q 1 # + y o X f X H X X X M X X X 9 : d N 1 1 x j $ X x 1 X 5 X q 1 # 0 y o X P X K X X X y X X X 7 u d ; 1 1 + h y X ",
"X 1 X X X r H X X X D X X X X X + X u X X X y X X X 1 q 5 o j 0 X 1 X X X + K X X X 2 X X X X X ; X 4 X X X 8 X X X 1 q 5 5 & + ",
"a y i 5 X X S K q X O X , X X @ X X 5 X X X 5 X X X X X X o + 0 p Y k o X X ` F i X ( X , X X & X X 5 X X X Z X X X X X X 5 + 0 ",
"& w $ X X 1 X k M & 0 8 X X 1 1 8 X X , j Z o X X * & K X + o X & w & X X 1 X k R j + x X X 1 1 x X X , j 5 d X X l j E X + o X ",
"d 5 X U X X X X X X X ; X X u 1 s k . : X X # b X o & y X # X X w 5 X 0 X X X X X X X 0 X X t 1 k a . : X X # u X 5 @ x X # X X ",
"5 5 1 k X Z X X p 1 z X X X 1 1 1 s * 4 k s b @.X X X X X X X X Z 5 1 s X Z X X p 1 z X X X 1 1 1 A : % k s b @.X X X X X X X X ",
"t 5 1 s 6 1 4 k 1 : 1 : X X X X X X X X X Z X X x X + o 1 1 X X z 5 1 A t 1 % k 1 : 1 4 X X X X X X X X X Z X X x X + 5 1 1 X X ",
"- J X ; 3 + % % 6 8 1 v X X X X t # X X X X + A * X F d o.; 1 X # y X ; S + 6 % = $ 1 t X X X X b # X X X X y L r X / ~ = ; 1 X ",
"X p X X X w w s 1 1 1 X o + X Z X X @ 0 f + X X X X X X X X u X X i X X X w w q 1 1 1 5 o 0 X 5 X X # 0 @ + X X X X X X X X X.X ",
"X & 5 0 o Z X X X X X X X b K X w + X X + $ : 9 + ; + + X X X X X y 5 0 d Z X X X X X X X : / X w + X X + 8 : 9 + x + + X X X X ",
"+ X 2 j X 5 0 X 5 X X 0 X f c 1 1 F @ X s + 6 + + + s i + d & 5 + X L - 5 5 0 X 5 X X ; X f c 1 1 F & X k + ] + + + s A . o y 5 ",
"X & + I & s + r 8 y X X + p + + x X X X 1 1 4 g 1 1 1 7 X - o + X $ + 8 @ s + r x R X X + _ + + e X X X 1 1 4 g 1 1 1 q X # n + ",
"0 8 X #.6 < h I * 1 X t X X o w Z X # X a 1 1 1 1 1 1 B X , X X 0 y X v q z h - : 1 X = X X o f X X j X a 1 1 1 1 1 1 Y X , X X ",
"X 5 # 1 1 1 X X X X X u X X X X X X # X X 1 1 1 + + + y < X X X X 5 - 1 1 1 X X X X X 4 X X X X X X # X X 1 1 1 + + + x t X X X ",
"X X X X # J X i + [ ; X X & X X 5 1 X X 5 X 5 X X X X X b o d X X X X X P y X k + X.l X X # X X 5 1 X X 5 X 5 X X X X X b o w X ",
"+ + + X X 5 X W o + X $.o X M 1 X q X 1 X X d X X X X 7 & @ o , + + + X X 5 X & 5 + X o 5 X $ 1 X q X 1 X X w X X X X ` @ h o , ",
"9 X X : , d X X 1 a $ X $ 1 + & X X X l o X X X , X X $ X : u x 9 X X 0 , d X X 1 K & X & 1 + $ X X X : d X X X , X X y X l ] x ",
"X j X X 5 t X X 1 d * 1 + 5 X X 8 , / X o X X X , X u X P X X o X & X X 5 [ X X 1 w * 1 + 5 X X I , E X d X X X , X u X w X X 5 ",
"0 d 4 + 0 w + X 9 6 X j X z & g b X Z * u o X X p X X X 1 t X X 0 d = + 0 d + X 6 3 X & X r # L * X X * u d X X p X X X 1 i X X ",
"I r + + X X X X X $ 1 X S X ! w f 5 a k + + X X y X #.+ p X d $ - b + + X X X X X c 1 X S X ! # ..X a k + + X X y X b + p X o x ",
"w 2 * x X j X X X # X X X X X y X d , X z + + + % X X f 6 X @ s d 2 * ; X j X X X # X X X X X 0 X o , X : + 0 + = X X P 3 X w k ",
"j : 1 1 C + X X %.+ D d X l k 9 X 6 ` o w 5 1 2 X X 8 o d X Z @ @ l 1 1 i + X X 9 + L w X + A % X i t o # 5 1 2 X X & P d X 5 & ",
"@ 1 b r q , &.5 @ + j & 0 : & # X U X X X X - & o & x 5 w 5 1 X & g t r q , 2 5 @ + j h ; : & @ X . X X X X P $ 5 $ m o G 5 1 X ",
"r d + *.x 1 G o.I j 8 + X X r X x X I X y N Z 3 % X V # s $ 1 X u P e O y 1 d * I @ y + X X : X y X =.X y v 5 q = X , - q y 1 X "
};
