/* XPM */
static char *result[] = {
/* columns rows colors chars-per-pixel */
"64 64 67 1 ",
"  c #437127",
". c #457628",
"X c #477929",
"o c #4A7D2A",
"O c #557F32",
"+ c #4E832B",
"@ c #4F882C",
"# c #50872B",
"$ c #528C2D",
"% c #568433",
"& c #578D30",
"* c #5B8C33",
"= c #5F8A38",
"- c #579030",
"; c #5C9333",
": c #658D3B",
"> c #619636",
", c #69953C",
"< c #659839",
"1 c #6B9C3D",
"2 c #6D9340",
"3 c #739544",
"4 c #749D42",
"5 c #789C46",
"6 c #7E9C4A",
"7 c #76A243",
"8 c #7AA446",
"9 c #7EA549",
"0 c #7EA849",
"q c #809E4C",
"w c #81A24C",
"e c #83A94C",
"r c #89A651",
"t c #8AAD51",
"y c #95AC5A",
"u c #99AF5C",
"i c #8EB153",
"p c #91B355",
"a c #96B558",
"s c #9CB55C",
"d c #9BB85B",
"f c #A1BC5F",
"g c #9FB460",
"h c #A2B662",
"j c #A6BB63",
"k c #A9BE63",
"l c #B0BE60",
"z c #B6C35F",
"x c #BECC5F",
"c c #A7C063",
"v c #A9C164",
"b c #B4C561",
"n c #B5C862",
"m c #BACB61",
"M c #C2CC5E",
"N c #C8CF5C",
"B c #C5D05D",
"V c #CBD25C",
"C c #D2D65A",
"Z c #D4D95A",
"A c #DCDC59",
"S c #E5E257",
"D c #EBE555",
"F c #F0E754",
"G c #F4EA54",
"H c #FAEE52",
"J c #FFF151",
/* pixels */
" +$$+$$.$+$$##$$$$$$+$$++@$+o$$. +$$X$$.$+$$+@$$+$$$+$$o@@$++$$ ",
"$ o++..Xo$+Xo+o.X+.+....@$$++o$$$ +++..X+$+oo+o.X+o+....$$$o+o$$",
"$$+#....+X$$+$...$+..+$$$$$+ o$.$$++....+X@$@$..X$+..+$$$$@+ +@.",
"+++$$$$+ $$$$#$+$$$$$$++++o$+++$+++$$$$+ $$$$@$+$$$$$$@+++o$+++$",
"+..#$$++++$$.$$$$$$$$$$....@$$.$$..@$$++++$@X$$$$$$$$$$....+$$.$",
"+.X+ooXX.X.+$++.oX+@$$$o+X X$$. +..+o+X..X.+$++.oX++$$$X+X .$$. ",
"o $.........X.$$$..X$$$$$$+@$@.++ $.........X.$$$...$$-$$$o$$$.X",
"$.o.........+$$$$$$$$$$$o+..$$+$$ o.........+$@$$$$$$$$$o+..$$@$",
"+.$$$XX@++$$$$.$$$+$$$Xo$+..+$+@+.$$$X.$+#$$@$X$$$+$$$Xo@+..+@+$",
"$.$$$+.$$$.$$$$$+$+$$$$$$$.o$$$+$.$$$#.$$$.$$$$$+$+$$$$$$$..$$@+",
"X+X$$$o.X$+$ $$#$$$$$$$$$$$$$$++.@X$$$o..$+$ $$+$$$$$$$$$$$$$@++",
"@$@$$.$X$+++$$..+$$ @$$$$o+.$o$$@@@$$.$X++++$$..+$$ +$$$$+@.$+$$",
"@$$+$$$$$$$+$$o.X.++$$$o$$$+$$$$$$$o&$$$$$$+$$+...++$$$.$$$+$$$$",
"$$..$$$$..o$$$...ooo.Xo#$$$$$$$$$$..$$$$..+$$$...Xo+..+$$$$$$$$$",
"o$.Xo.XX.+.+$$$$$$$$$$$$+$o$X.$$X&X.o.XX.+.o$$$$$$$$$$$$+$o$..$$",
"$+$+X+oXo+X+$$$$o$$$$$+.+$.&=,,8111>#oXoo+.o$$$$+$$$$$+.+$ $+@.$",
"$.$$$$$....$$+$$$$++$+$$&<9agvcvvhcjp8;o...$@+$$@$@+@+$$$$$$$$+$",
"$+$+$$$$$$$$$+.$#+$$+++=9ghjvvvmnjcjvvde<-$$$+.$@+$$++oX++++$$$$",
"+$.$$$+$$$$+$++...$$.%5ajjhhcccBmvjkvvkca8-+$@+...@$.+++++.o+$+$",
"$$++#.+o++$$+.+++$$$OqfhhhhjvcvVVvjjjhjjjde;+.+++$$$..X.....$+$+",
"++$oXo$#o.$X$-#$$$$>rhhhhhhkvhvAZvvjjjkjjjcw;$$$$$@$.......$$ $$",
"$$$...$$$$$+$$$$$$;ekfhhjjjkhvbSAvkhhhvvvvvje;$$$$$$$...++o+o$$$",
"$$$$$$$.+o+$$@$$$oejvvkkvvvvjvmDSbvvvjvhjjjvg8&&$.$$$$$$$$$$o$$$",
"++o$$$$#$+$$$$+.$:dhvvkvcvvjvjmGDmjvvvvjkjvvva=.$o$.$$$$$$$.$+$ ",
"X$$+ $$$. +$#.o#-tcjcvvvhvvkkjBHHMvkhkvvhhjvjg9#$$$+$$$$ $$+$+X+",
"$#$$$o$$.$o.#$$$,yhvvvvvgkjckbAJHZvvkjvvhkjhjvd<@ .@$$$$ $o$$$$$",
"o$X++$#$oX$$$o#o9cvjjvvvhvkvhmDJJDbjjvjvjhvkvjj2+$$++#$$.$$$.X$$",
"#o++$$$$$#.$o$#*avhhjjvvkkjjjZJJJHVjvvvvvkhvjvcp-$ .++$$#$o+.$$+",
"$.o+$#$$$#$$$$$,hvhjjjjjjvvvBGJJJJFMvjvvkkvvvvks>$ $+++++$$#o$@.",
"#+. X+$$o+X$$+o,jjjvkvhhvvnAGHJJJJJFVbvvjjhvvjhf1oo$#$ .$$+$$$$$",
"#.X#. .$++#+++#8vjvvvvbnBADHJJJJJJJJHDZNbkvkjjvf7+$$$$$+$++$$$.$",
"o$+o+.$X$+++$$oevmxVZADGHHHHJJJJJJJJHJHHGDACBMzv7$+$++$Xo$ $.+.$",
" +$$o$$.$+$$$$$wkmVZADFHHJJJJJJJJJJJJJJHHDDACNmv4$$$+$$o#$$#o$$ ",
"$ o++..Xo$+Xo+o3jjjjhjlmVAGHJJJJJJJJHDAVmnkjjjhg2+o#...X+$$+++$$",
"$$++X.XX+X#$+#.2hkjhhjvvvbxAHJJJJJJGCzjhjhcckkhg:&o..+$@$$$o o#.",
"+++$$$$+.$$$$#$,jkvvvvjjjjjvVHJJJJGVvkvjhvvvvkvs<$$$$$@+++o$+#+$",
"+..$$$++++$$X$$;dvvvvvvhhjhjbAHJJHCkvkkkjcvvhvvp;$$$$$$X...+$$X$",
"+..+ooXX.X.$$++owhjvcvvhjhhjvmDJJDzkjjjhhhhjvjj3+X+#$$$X+o .$$. ",
"o $.........X.$$,uhhvvvvvvjkvbAJHCvhhhhhhhhhhhd<#...$$$$$$o$$$.o",
"$.o.........+$@$-icvvvvcjjhhvvVHHMjhhhhhhhhhjve-$$$$$$&$o+..$$+$",
"+.$$$..$++@$@$X$$7svvvhjcjhhjvMGFllbvhhkjjvvcd=$$$+$$$oo$+..+++$",
"$.$$$+X$$$X$$$$$+-8cvvkvvvhhvvbDSfvkvjhvvvhvj0-$+$+$$$+$$$.X$$++",
".+.$$$X.X$+$.$$@$->ivvvvvvvvvcvSAvhkvvjhhvjc6;$+$$$$$$$$$$$$$$++",
"$@#$$.$.++++$$XX+$$OavkvvjchvjbACvkvvhkhjkkt;$X.+$$ $$$$$+@.$+$$",
"$$$+$$-$@$$+$$o.XX++<ijjvvjjvvvVVvvjvvvvvjt*$$oXX.++$$$o$$++$$$$",
"$$.X$$$$..+$&$...Xoo.%9sccvvvvvBMvhhvvvva3%$$$XX.X+X.oo+$$$$$$$$",
"o$.Xo.o.X+.+$$$$$$$$$$-4tjjvhhvxbvhhjhdq=%.o$$$$$$$$$$$$+$+$..$$",
"$+$+.+ooX+.+$$$$o@$$$$+X+16dhkfbkkvjyw=oo+.o$$$$o@$$$$+.+$.$o+.$",
"$.$$$#$....$$+@$$$#+$+@$$$$;174ee37<;#$X...$$+$$$$@+++$$$$$$$$o$",
"$+$+$$$$$$$$$+.$@+$$+++X++++$$$-$##+#$$$$$$$$+.$$+$$+++X++o+$$$-",
"+$.#$$+$$$$+$##...@$.+X+++XX+#+$+$.$$$+$$$$+$++.X.+$X+X+++.X+$+$",
"$++$#.++#+$$+.+++$$$..+ ...+$#$+$#++#o+o++$$+.o++$$$..o....X$$$+",
"++$+Xo##+.$X$$$#$$$$X......@$ $$++$+Xo$#+.$o$$$$$$$$.......$$ $$",
"$$#...$$$$$+$$$$$$#$$...o+++o$$$$$#...$$$$$o$$$$$$@$$...++o+o$$$",
"$$$$#+$X+++$$#$$$.$$$$$$$$$$+@$$$$$$$+$.+o+$$$$$$X$$$$$$$$$$o$$$",
"+++$$$$##+@$$$@.@+$.$$$$$$$o+@$ +++$$$$+$+$$$$+.$X$.$$$$$$$o++$ ",
"X$$+ $$$..@$+ +@$$$+@$$$ $$+$+++X$$+ #$$..+$+.+#$$$+$$$$ $$+$+X+",
"$+$$$+$$ $+.+$$$+ .$$$$$ $+$#$$$$+$$#+$$.$+.+$$$+  $$$$$ $o$$$$$",
"+$X++@+$X+$#$+@.+$@++#@$X$$$.o$$+$X++$+$oo$+$+$.+$$+o$$$.$$$.X$$",
"++++$$$$$# $X$$##$..++$$+$o+.$$+$o+o$$$$$+.$.$$+$$..+o$$+$++.$$+",
"#.++$#$$$#$$$$$+$# $o+++o$$#o$+X$.++$+$$$$$$$$$+$$ $o+++o$$#o$@.",
"#+. X+$$++.$$+XX$+o$#$..$$+$$$$+++..o+$$X+.#$+.o$XX$$$..$$+$$$$+",
"@.++X .$++@+++##$+$$$$##$#+$$$.$+XooX X$@+$+++#@$+$$$$$#$#+$$$X$",
"+#+X+.$X@@++$$+$+$#$++$.o$.#X+.$o$+o+.$+@+++$$+$+$#$+o$Xo$ #X+.$"
};
