/* XPM */
static char *result[] = {
/* columns rows colors chars-per-pixel */
"64 64 241 2 ",
"   c #140D0D",
".  c #1B0B0B",
"X  c #17120E",
"o  c #160E12",
"O  c #1A0C14",
"+  c #1D0D19",
"@  c #1C1115",
"#  c #280607",
"$  c #340707",
"%  c #3B0202",
"&  c #28190B",
"*  c #39190C",
"=  c #250E15",
"-  c #261517",
";  c #371714",
":  c #1D2615",
">  c #1F3113",
",  c #24260F",
"<  c #3C240A",
"1  c #35300F",
"2  c #2C2213",
"3  c #272A16",
"4  c #362615",
"5  c #273616",
"6  c #373716",
"7  c #2A1621",
"8  c #381629",
"9  c #341133",
"0  c #392528",
"q  c #362B2C",
"w  c #450706",
"e  c #4D0102",
"r  c #540101",
"t  c #5B0001",
"y  c #59050C",
"u  c #471E0A",
"i  c #5B1A0A",
"p  c #4F0715",
"a  c #471A17",
"s  c #630101",
"d  c #6C0101",
"f  c #670A03",
"g  c #740101",
"h  c #7B0201",
"j  c #7C0C04",
"k  c #681606",
"l  c #751506",
"z  c #6F1218",
"x  c #44240C",
"c  c #4A2609",
"v  c #53250A",
"b  c #582809",
"n  c #51310C",
"m  c #59350A",
"M  c #452816",
"N  c #483616",
"B  c #563215",
"V  c #68280D",
"C  c #792306",
"Z  c #663A09",
"A  c #653A15",
"S  c #4E092F",
"D  c #441B24",
"F  c #661B26",
"G  c #463629",
"H  c #4B302D",
"J  c #2B4418",
"K  c #2E4D1A",
"L  c #3B441A",
"P  c #354C1C",
"I  c #3B4A1B",
"U  c #2F511B",
"Y  c #32531C",
"T  c #3C551D",
"R  c #355A1D",
"E  c #395D1F",
"W  c #39621F",
"Q  c #384A21",
"!  c #385B20",
"~  c #3B5C21",
"^  c #3C6421",
"/  c #3E6A23",
"(  c #484917",
")  c #594E17",
"_  c #55441A",
"`  c #43541D",
"'  c #67470A",
"]  c #734C09",
"[  c #7A530B",
"{  c #684A16",
"}  c #754516",
"|  c #6C531C",
" . c #78591B",
".. c #5D711D",
"X. c #7F641C",
"o. c #584528",
"O. c #485D24",
"+. c #575B23",
"@. c #575138",
"#. c #624D24",
"$. c #685928",
"%. c #775D26",
"&. c #624837",
"*. c #6B543B",
"=. c #466423",
"-. c #426D24",
";. c #566A28",
":. c #447227",
">. c #487727",
",. c #457628",
"<. c #477929",
"1. c #4A7D29",
"2. c #666524",
"3. c #786826",
"4. c #6D7131",
"5. c #380657",
"6. c #4F054E",
"7. c #7C0949",
"8. c #4F2F4A",
"9. c #733747",
"0. c #6E386D",
"q. c #4F4C4E",
"w. c #59565A",
"e. c #67544A",
"r. c #7B6449",
"t. c #6E6952",
"y. c #676667",
"u. c #757878",
"i. c #840101",
"p. c #8C0101",
"a. c #8B0903",
"s. c #930101",
"d. c #9B0201",
"f. c #821006",
"g. c #A20301",
"h. c #AC0100",
"j. c #B90100",
"k. c #882906",
"l. c #C30100",
"z. c #CD0100",
"x. c #D40100",
"c. c #855C09",
"v. c #845C0A",
"b. c #8B4C10",
"n. c #8F6D0D",
"m. c #89671B",
"M. c #946C1F",
"N. c #A47B17",
"B. c #895821",
"V. c #866724",
"C. c #987525",
"Z. c #91752E",
"A. c #856A3A",
"S. c #A37C23",
"D. c #A77D25",
"F. c #8C004C",
"G. c #A9064B",
"H. c #B5255F",
"J. c #855E49",
"K. c #967947",
"L. c #836B56",
"P. c #8E7150",
"I. c #887864",
"U. c #936A78",
"Y. c #4E832B",
"T. c #4F882C",
"R. c #50872B",
"E. c #528C2D",
"W. c #7E8776",
"Q. c #A78718",
"!. c #AE9712",
"~. c #B59719",
"^. c #928637",
"/. c #AA8527",
"(. c #B18523",
"). c #B78B26",
"_. c #B89726",
"`. c #AD8F34",
"'. c #CBAB1E",
"]. c #C49829",
"[. c #C69931",
"{. c #CDA329",
"}. c #D5A92E",
"|. c #D7AB35",
" X c #D3AD34",
".X c #E4B52D",
"XX c #E7B935",
"oX c #E9D619",
"OX c #FFF60E",
"+X c #F5EB11",
"@X c #F2C538",
"#X c #93844F",
"$X c #AD904C",
"%X c #B7A44D",
"&X c #8F846A",
"*X c #AA8D70",
"=X c #B5AB6C",
"-X c #CBAD47",
";X c #D6B547",
":X c #E5BA43",
">X c #CB9A74",
",X c #DAB374",
"<X c #E9C347",
"1X c #F2CA46",
"2X c #FBD349",
"3X c #F0CC5C",
"4X c #FBDA58",
"5X c #D6C167",
"6X c #F6DA67",
"7X c #EEDB73",
"8X c #FCE477",
"9X c #9F329A",
"0X c #8B5289",
"qX c #90738B",
"wX c #A77A94",
"eX c #7A8C87",
"rX c #8F948F",
"tX c #B2958B",
"yX c #A99895",
"uX c #9DB2AE",
"iX c #AEB2B0",
"pX c #CAAB92",
"aX c #D7B69A",
"sX c #EAA79D",
"dX c #DABBA3",
"fX c #B4C2BE",
"gX c #FBE88F",
"hX c #E9C6A9",
"jX c #F6C8A5",
"kX c #EFD1B2",
"lX c #FCD6B4",
"zX c #FCDBBD",
"xX c #FDEFA4",
"cX c #B9CAC7",
"vX c #BAD1CD",
"bX c #CAD8D5",
"nX c #FFDEC1",
"mX c #FFE1C3",
"MX c #FEE9D4",
"NX c #DBE3E2",
"BX c #EAE8E3",
/* pixels */
":.Y.E.E.1.E.E.:.E.Y.E.E.R.R.E.E.Y.E.E.E.Y.E.E.1.Y.T.E.T.1.E.E.:.:.Y.E.E.<.E.E.,.E.T.E.E.E.T.E.E.E.E.E.E.1.E.E.1.T.T.E.E.1.E.E.,.",
"E.:.1.Y.Y.,.<.<.1.E.R.<.<.R.1.,.<.Y.1.Y.,.,.,.<.T.E.E.Y.Y.1.E.E.E.:.1.Y.Y.,.<.<.<.E.1.1.1.1.1.,.<.1.1.1.,.<.<.<.E.E.E.1.E.1.E.E.",
"E.E.Y.Y.,.,.,.,.R.<.R.E.Y.R.,.,.<.E.Y.<.,.Y.E.E.E.E.E.Y.:.1.T.,.E.E.Y.R.,.,.,.,.T.,.T.T.T.T.,.<.<.E.T.<.<.1.E.E.E.E.E.1.,.1.1.1.",
"Y.Y.Y.E.E.E.E.Y.:.E.E.E.E.R.E.R.E.E.E.E.E.E.Y.Y.Y.Y.1.E.Y.Y.Y.E.Y.Y.Y.E.E.E.E.R.,.E.E.E.E.T.E.1.E.E.E.E.E.E.T.T.1.1.1.E.1.E.1.E.",
"R.,.,.R.E.E.Y.R.Y.Y.E.E.<.E.E.E.E.E.E.E.E.E.E.,.,.,.,.R.E.E.<.E.E.,.<.Y.E.E.Y.R.1.T.T.T.<.T.E.E.E.E.E.E.E.E.E.1.,.,.<.1.E.E.,.E.",
"1.,.<.Y.1.1.<.<.,.<.,.R.E.Y.Y.,.1.1.Y.Y.Y.1.,./ :.:.:.<.E.E.,.:.1.,.<.Y.<.1.<.<.,.<.<.T.T.T.T.<.1.<.1.1.E.E.E.1.1.1.:.1.E.E.,.,.",
"1.:.E.,.,.,.,.,.,.,.,.,.<.,.E.Y.-.I 6 x i l f.f.l V n =.Y.Y.,.Y.Y.:.E.,.,.,.,.,.,.,.<.<.<.<.E.E.E.<.<.<.E.E.E.E.E.E.1.E.E.E.,.1.",
"E.,.1.,.,.,.,.,.,.,.,./ ^ O.6 < w t d g i.d.j.z.x.z.j.d.B 1.Y.E.E.:.1.,.,.,.,.,.,.,.,.<.1.E.E.E.E.E.E.T.E.E.E.E.1.1.,.<.E.E.1.E.",
"T.,.E.E.E.<.,.E.Y.<.J * $ w e t f s d g g h i.d.j.z.x.x.j.B 1.E.T.,.E.E.E.Y./ E.T.T.T.E.E.E.<.E.E.E.1.E.E.E.1.1.E.1.,.,.1.E.1.E.",
"E.<.E.E.E.Y.,.E.E.q 6.p e e r t t s d g h h i.p.s.j.x.x.x.d.` Y.E.,.E.E.E.E.Y.E.E.E./ E.E.E.E.E.E.E.1.E.E.E.E.E.E.E.,.1.E.E.E.1.",
",.T.<.E.E.E.1.,.1.=.q H 8 D a w r r s d g h h i.s.s.j.x.z.x.l :.:.T.<.E.E.E.T./ / T.T.E./ E.E.E.E.E.E.E.E.E.E.E.E.E.E.E.E.E.1.1.",
"T.T.T.E.E.,.E.<.T.Y.Y.Y.T.1.~ ! ^ 6 # % w e d i.p.s.s.l.x.x.j.N T.T.T.E.E./ E.<.T.T.Y.T.E.E.Y./ 1.E.E.:.E.E.E.E.E.1.E.<.E.E.E.E.",
"T.E.E.1.E.E.E.E.E.E.E.Y.E.E.1.<.,.0 y t s g h i.p.s.s.h.x.x.x.j -.E.E.Y.E.E.E.E.E.E.E.Y.E.E.Y./ <.,.1.1.E.E.E.1.E.E.E.1.E.E.E.E.",
"E.E.,.<.E.E.E.E.,.,.1.E.E.E.<.<.E S d d g g i.i.p.s.s.d.x.x.x.h.N T.Y./ E.E.E.E./ 1.Y.E.E.E.Y./ <.<.1.1.1.1.1.1.E.E.E.E.E.E.E.E.",
"<.E.,.<.<.,.<.<.,.Y.<.1.E.E.T.T.L p r f d g h i.p.p.s.d.j.j.d.b.m./ / Y.Y.<.Y.<.Y.Y./ Y.E.E.E.E.E.E.E.E.E.E.E.E.1.E.1.E.,.1.E.E.",
"T.T.E.R.<.Y.1.1.<.Y.<.Y.E.E.E.:.' ] ' Z b i k k k l l C b.n.'.+X+X..E.E./ T./ Y.Y.Y./ E.E.E.E.E.1.E.E.E.E.E.1.<.E.E.,.E.1.1.1.E.",
"E.<.E.E.E.E.R.1.,.,.,.E.E.Y.T.O.b.] c.n.n.n.Q.Q.Q.~._.'.+XOXOXOXOX^.^ R.E.E.E.1.,.,.,.E.E.1.E.E.E.E.E.E.E.E.E.E.E.E.E.E.E.E.1.E.",
"E.T.E.1.E.E.E.E.T.Y.Y.<.:.! 6 < ] ] [ c.n.Q.Q.!.'.{.}.oXOXOX+XoX!.k.a.b ` <.E.E.E.E.E.E.E.1.,.E.E.1.E.E.1.1.1.1.1.1.1.1.E.E.E.E.",
"1.E.<.T.E.<.Q q D D 8 S S S e $ w v m ] [ n.N.Q.!.~._.~.!.Q.c.k.d.l.x.l.g.l N =.<.E.E.Y.E.R.R.<.,.,.E.E.<.1.1.1.1.1.1.<.1.E.E.E.",
"E.R.R.R.Y.6 # 6.S S p p p t t r w t s f i f k k k l l a.g.j.l.x.x.x.x.x.x.x.j.s.z 6 @.E.1.<.R.1.1.E.E.E.,.,.1.<.1.1.,.<.E.E.E.1.",
"Y.R.E.1.1.P # # % % w w r r t s s s d h h i.i.p.s.d.g.x.x.x.x.z.x.x.x.x.x.x.x.x.z.s.v :.E.E.E.E.E.E.1.E.1.<.,.,.,.<.,.T.E.<.E.E.",
"E.R.E.,.,./ , # $ % w e e r t s s d g g h i.p.p.p.s.h.j.l.z.z.z.x.x.x.x.x.x.x.x.h.h ( 1.E.E.E.E.E.E.E.E.E.<.,.,.1.1.1.T.1.E.E.E.",
"E.E.E.E.E.R.>., # $ w w r r t s d d g h h g d d h h h j j g i.s.h.l.z.x.x.x.z.d.h N <.E.E.E.E.E.E.<.E.E.E.E.E.E.E.E.E.E.1.E.E.E.",
"Y.Y.Y.E.E.E.E.>.L & # % % w e r r t t r r r i V B.C.D.(._.$XZ.B.V f p.d.g.d.h k ` <.E.E.E.E.1.<.E.1.E.<.E.E.E.E.E.E.E.,.T.T.E.;.",
"<.E.E.Y.-.E.E.E.,./ T 6 1 x n u v u b A A { `.B.]..X.X:X4X8X`.<X3.B.M.b.V } #X@.,.,.1.E.T.,.1.T.E.E.E.1.E.E.E.E.,.E.E.T.E.1.1.T.",
"E.R.E.E.E.1.E.E.,.E.Y.<./ X.S.S.(.).[.;X$.Z.-XN (..X<X6XxX5X+.;X3.m.@X2X;X^.xX&X/ E.1.<.1.E.E.E.R.:.1.E.E.E.E.E.,.E.1.E.E.E.E.E.",
"1.E.<.Y.Y.E.Y.E.1.<.T.T.Y.3.S.(.].].:X`.U.`.%XI.m.[.3XgXxX*XI.%Xr.V.XX2X7X2.=X=X=.<.E.R.E.1.E.,.1.E.E.1.1.E.E.E.<.E.E.E.<.1.E.E.",
"R.1.Y.Y.E.E.E.E.E.T.<.E.,.3.D.D.].}.<XK.dXK.Z.aX&XC.<X4X>X=X*XZ.*X3.XX2X6X2.E.$X<.R.<.E.1.E.E.E.E.E.<.1.1.1.E.E.T.E.1.1.<.E.E.1.",
"R.<.1.Y.E.R.E.E.E.T.E.E.Y.3.D./.].|.:XI.nXtXH P.K.%. X%X*XkXL.*.dXP..X4X7X;.4.4.E.R.E.E.E.E.E.1.E.E.:.E.1.1.R.1.1.E.E.R.<.E.T.<.",
"R.Y.,.,.<.1.E.E.1.Y.:.E.R.3.D.].:X3X:XK.zXI.D 8.H e.P.tXkXhXq.H e.4.@X8XkX=.( <.1.1.<.R.E.1.1.1.E.1.1.E.E.E.<.<.E.E.1.E.E.E.E.1.",
"R.<.1.Y.<.-.>.E.Y.1.E.R.-.C./.S.2XgX,X*XjXy.8.8.wXyXzXmXmXtX8.qXy.2.6XxXdXQ Q T.R.1.R.E.1.1.E.E.E.1.E.E.E.E.E.1.E.E.1.E.E.E.<.E.",
"1.R.1.Y.Y.>.E.1.E.R.Y.Y.=.).C.m.|.6X,X$XjXiX0.9 0XtXzXzXmXI.9 qXiX#X2XgX=X! E.<.E.E.1.R.E.E.1.E.E.E.1.E.R.1.E.1.1.E.:.E.<.T.<.E.",
":.Y.E.E.Y.E.E.,.E.Y.E.Y.) ).(. .D.:X-X>XlXBX0X6.6.tXnXnXnXqX6.0.iX).@X8XE.R.R.>.E.Y.E.E.E.R.E.E.R.E.E.E.1.E.E.1.R.E.E.R.1.E.E.:.",
"E.:.<.Y.Y.,.,.<.1.E.Y.W m.].).[ N.|.;XK.jXMXwX9X9XdXnXnXnXwX9XwXtX|.2X5X2.>.,.,.,.E.Y.<.1.Y.1.,.<.Y.<.R.,.,.,.1.R.E.E.R.R.1.E.E.",
"E.E.Y.Y.,.,.,.<.Y.<.E.+.D.).).M.M.{.|.K.jXjXkXqXtXzXnXnXnXhXtXaX^.@X6X^.P :.,.! ! ,.R.R.R.R.,.,.<.E.1.,.,.Y.E.E.E.E.E.1.:.1.R.<.",
"Y.Y.Y.E.E.E.T.Y.:.E.;.M.(.(.(.S.} ].;X#.J.,XjXzXnXdX*XU.dXnXhXr.[.4X%X/.Z.+.4.+.Q E.E.E.E.R.E.1.E.E.E.E.E.E.R.Y.Y.1.1.E.1.R.R.E.",
"R.,.,.Y.E.E.Y.Y.1.;.Z.C.D.Q.S.N & M.|.G + q J.pXhXkXjXjXdXtXG V.1X`./.XXXX^.-XZ.:.R.E.E.,.E.E.E.E.E.E.E.E.E.E.<.<.<.:.R.E.E.<.E.",
"Y.,.<.Y.1.1.<.=.2./.C.m.D.C.{   . N {.$.+ + + 7 G t.U.t.H 8 _ `.4._ }.@X@X-X+.^ :.<.,.R.E.Y.R.,.Y.1.1.R.E.E.E.1.<.<.:.<.E.E.<.:.",
"1.:.E.,.,./ +.C.`.C.V.C.M. .&   @ y.K.| + + 7 7 2 H P.7 0 7 q q O N |.XXXX@X%X=.,.,.,.,.<.,.E.E.R.,.,.,.E.E.E.E.E.E.1.E.E.R.:.1.",
"E.,.1.,.:.Y o.%.|  .M.M. . .X   q iXiXG o + 7 M V.*.P.#.%.0 8.q + 4 {.XX_.}.<X^./ ,.,.<.1.E.E.E.E.E.E.E.E.E.E.E.1.T.,.,.E.E.R.E.",
"Y.,.E.E.E.,.-.^ %.M.M. . .{     q vXNXfXy.q 0 0 @.A.V.4.H 8.8.q.+ - _.XX|.`.@X;X;.Y.T.E.E.E.,.E.E.E.R.E.E.E.1.1.E.Y.:.<.1.R.T.E.",
"E.,.E.E.E.Y.,.O.M.V.m.{ m.N     q.vXbXNXNXeXw.q.y.W.yXuX8.w.y.q.+ + M._..X`.{.1X^.1.<.E.E.E.E.E.R.E.1.E.E.E.R.E.E.E.<.<.E.E.R.1.",
"<.Y.<.E.E.E.,.#.C.m. .{ m.1     w.vXvXbXfXu.eXuXfX#XfXbXbXyXw.+ + + $./.{.;X^.XX X>.Y.T.:.E.E.R.E.E.E.E.E.E.E.E.E.E.E.E.E.E.R.1.",
"R.E.Y.E.E.>.R.+.C.V.B  .X.- o   q.vXvXrX`.`.o.t.W.t.yXuXy.&Xq.o + + M S.).XX3.V.[.;.Y.Y.E.E.,.,.Y.E.E.:.T.E.E.E.E.Y.T.:.E.R.E.E.",
"E.E.E.Y.E.E.E.` M.B.1 V.| - O   q cXuX4.!.K.t.t.o.+.*.*.q.u.q + + + - V.Z.XX^.~ 2.` <.R.E.E.1.,.<.,.1.1.E.E.T.1.E.E.R.R.E.R.E.E.",
"E.E.,.<.E.E.E.>.%.m.6 V._ - O   o rX&Xn.A.jXyXy.a 0 eXeXy.0 o + + - + 6 _ _.`.:.,.~ :.E.E.E.,.,.,.<.Y.1.<.<.1.R.E.E.E.E.E.E.E.E.",
"1.R.,.<.1.:.1.>.` | 6 %.M 8 o     q.t.[ K.jXpXM i a ; F y p + + + + + + 5 2././ ,.1.,.1.E.E.E.E.E.E.E.E.E.E.E.E.1.E.1.E.,.,.E.E.",
"R.R.E.Y.<.R.1.<.:.I J 6 8 8 X X X - 4 ' x r.L.a p y $ f l $ = - + + + + @ / ( Q ~ T P -.R.<.R.E.1.<.-.O.Q ( I ~ 1.E.,.E.1.R.<.E.",
"E.>.E.E.E.T.E.<.,.^ 5 7 S o o o . $ # < n < c * $ w w $ y $ & * < * ; - @ 1 1 < c v c 2 1 N N E O.N M M 8 D M 4 I Y.E.E.E.E.1.E.",
"E.R.E.Y.E.E.E.E.:.> - 8 7 o   o G M # # < < u u # $ w # $ H L.; ; < n m m Z Z ' Z m < * v b c * < u a 9 5.6.S B m I 1.1.E.E.E.E.",
"Y.E.,.R.E.E.Y.E.Y.! 5 - X o X o P.>X&.$ $ # & = = # ; M J.aXhXq.o + + - < n ' m n x v Z m c * u c i 9 6.F.F.F.p ] ' ! ,.Y.E.R.E.",
"E.R.Y.R.Y.,.Y.Y.Y.Y.Y.,.R U R 5 J.jXjX*X&.& . + = O 0 >XjXaXL.e.q : 3 5 3 5 K , u Z Z m < c v m c a 7 6.G.G.G.S ' v.( :.E.R.E.R.",
"Y.Y.E.1.1.1.E.Y.Y.<.T.:.<./ Y 1 G L.aXzXpX5 > : : : : @.r.&.G G P ,.Y.1.,.1.R.Y.Y 1 < c m Z Z n n A H S 7.sXH.F [ v.' :.E.:.E.E.",
"E.E.E.,.,.,.E.T.<./ W Y W Y , 2 o.H &.I.@.U U U ! Y R 5 1 N 4 4 3 / :./ ,.,.E.E.E.<.L N m m ' < A } A A D 9.F A v.[ ' -.1.E.E.E.",
"E.E.E.E.R.R.Y.E R R R W W 5 & , 2 2 *.e.K ^ W W ^ W ^ Y , & 4 4 3 R W W -.Y.T.,.Y.1.Y.Y.>.-.:.L ] c.b.{ A A A [ v.c.' ,.1.E.T.E.",
"Y.1.Y.E.E.Y.W E W R W W K & & < 4 2 > 5 R ^ W W W W W Y J & 4 2 2 J E W W :.E.R.T.Y.T.T.R.E.R.T ' c.[ v.[ [ v.c.c.[ ( :.R.R.E.:.",
"1.E.T.Y.:.1.W W U U W W J & & 2 2 3 R R W W W W K W W R R , 2 2 , K W E K W E.E.,.,.R.E.R.,.Y.>.N [ v.v.v.c.c.c.[ ( <.Y.T.Y.1.Y.",
"E.T.E.T.T.1./ W U W R U K > 2 3 5 J U W W W W W K W R W W K , 5 U E W W W :.E.E.,.T.1.,.Y.E.E.E.=.N { ] [ ] ' ( P Y.Y.E.T.E.E.T.",
"Y.T.1.Y.R.R.Y.>.R R W W W Y K J Y W W R R W W W Y W W W Y R W W E W Y W ,.E.Y.E.<.1.E.E.E.1.E.,.Y.>.` ( ( I =.<.,.E.E.T.<.1.E.E.",
"Y.Y.Y.R.E.T.E.E.T.,.E W R W W W W W Y Y R R W W R W R R Y W W E ^ / ,.Y.E.E.E.E.E.R.,.E.<.E.E.R.R.E.,.,.1.1.E.E.Y.T.Y.Y.<.E.T.T.",
"T.<.1.Y.T.T.E.E.E.T.T.R.R.<.:.W / W R W R W W R R W :.W W <.<.:.Y.,.Y.Y.E.E.E.E.E.E.E.E.E.E.E.Y.E.E.:.E.1.Y.Y.Y.1.E.E.R.<.E.T.<.",
"E.1.,.,.<.Y.E.E.1.Y.<.T.E.Y.<.Y.T.1.<.T.Y.Y.:.:.T.E.R.E.E.E.E.R.E.Y.,.,.<.Y.E.E.<.Y.,.Y.E.Y.,.<.E.<.1.R.E.E.,.,.E.E.Y.E.T.E.E.T.",
"R.,.1.Y.<.:.1.T.T.Y.R.R.Y.Y.R.T.E.T.E.E.T.E.T.R.E.R.R.E.R.E.,.E.Y.,.1.1.<.:.,.E.R.Y.R.R.Y.Y.R.R.E.R.E.E.E.E.E.R.E.R.Y.E.T.E.,.E.",
"1.E.Y.1.Y.,.T.1.Y.R.R.Y.T.E.Y.E.Y.E.T.E.Y.Y.T.1.1.E.:.T.<.R.,.E.1.E.Y.1.Y.,.E.1.Y.R.Y.Y.E.E.Y.E.Y.E.E.E.Y.1.E.<.1.E.:.T.<.Y.<.E."
};
