/* XPM */
static char *result[] = {
/* columns rows colors chars-per-pixel */
"64 64 243 2 ",
"   c #160C0D",
".  c #18110E",
"X  c #1A0E12",
"o  c #1E0E1A",
"O  c #1D1615",
"+  c #290807",
"@  c #330404",
"#  c #3C0304",
"$  c #360D0B",
"%  c #29190B",
"&  c #37170B",
"*  c #250B16",
"=  c #251819",
"-  c #3C1A14",
";  c #1D2A13",
":  c #29280F",
">  c #392208",
",  c #272715",
"<  c #352614",
"1  c #2A3618",
"2  c #383618",
"3  c #2D1622",
"4  c #351528",
"5  c #360833",
"6  c #3A1536",
"7  c #382725",
"8  c #32252D",
"9  c #383726",
"0  c #4D0101",
"q  c #460808",
"w  c #540102",
"e  c #5C0101",
"r  c #56050C",
"t  c #550D0F",
"y  c #441908",
"u  c #481A17",
"i  c #630101",
"p  c #6A0101",
"a  c #680A09",
"s  c #740101",
"d  c #7C0201",
"f  c #770B07",
"g  c #6C1908",
"h  c #771206",
"j  c #770C14",
"k  c #651015",
"l  c #47260A",
"z  c #56250A",
"x  c #542A0B",
"c  c #4F300E",
"v  c #58350A",
"b  c #4A2815",
"n  c #473814",
"m  c #563812",
"M  c #69270A",
"N  c #65390A",
"B  c #7A320C",
"V  c #643715",
"C  c #4D0B2F",
"Z  c #63012E",
"A  c #462725",
"S  c #43342A",
"D  c #46283B",
"F  c #4F3530",
"G  c #602724",
"H  c #2B4217",
"J  c #2E4C1A",
"K  c #394719",
"L  c #344B1B",
"P  c #2F511A",
"I  c #32531D",
"U  c #3A531D",
"Y  c #365B1E",
"T  c #3A5C1E",
"R  c #39621F",
"E  c #394724",
"W  c #375621",
"Q  c #3C5C21",
"!  c #3E413C",
"~  c #3C6421",
"^  c #3E6B24",
"/  c #474918",
"(  c #5A4717",
")  c #544814",
"_  c #44571E",
"`  c #684809",
"'  c #754B0B",
"]  c #79530A",
"[  c #664817",
"{  c #784915",
"}  c #6C551B",
"|  c #75571A",
" . c #7D5E1B",
".. c #57711E",
"X. c #7D7817",
"o. c #554527",
"O. c #555822",
"+. c #494E32",
"@. c #594738",
"#. c #6E542A",
"$. c #436522",
"%. c #4C6626",
"&. c #426C24",
"*. c #5B6528",
"=. c #447226",
"-. c #477A26",
";. c #457628",
":. c #477929",
">. c #4A7D29",
",. c #6F672F",
"<. c #360948",
"1. c #520C50",
"2. c #51334B",
"3. c #781C61",
"4. c #4A4747",
"5. c #545353",
"6. c #6D584C",
"7. c #756E4F",
"8. c #5F5565",
"9. c #636164",
"0. c #6C6B6B",
"q. c #6F7872",
"w. c #840101",
"e. c #8C0101",
"r. c #850B04",
"t. c #930101",
"y. c #9B0301",
"u. c #8A110D",
"i. c #A70101",
"p. c #B80100",
"a. c #863B0B",
"s. c #C30100",
"d. c #CB0100",
"f. c #D30100",
"g. c #825A09",
"h. c #845C0A",
"j. c #834C13",
"k. c #885C18",
"l. c #906B0A",
"z. c #87661C",
"x. c #926B1B",
"c. c #98741A",
"v. c #846722",
"b. c #936D22",
"n. c #936729",
"m. c #897229",
"M. c #9A7322",
"N. c #977827",
"B. c #85693A",
"V. c #897238",
"C. c #A57B21",
"Z. c #930D51",
"A. c #AE044A",
"S. c #81217C",
"D. c #96724D",
"F. c #856954",
"G. c #8B7755",
"H. c #987958",
"J. c #91756C",
"K. c #4E832B",
"L. c #4F882C",
"P. c #50872B",
"I. c #528C2D",
"U. c #7E8339",
"Y. c #7F816E",
"T. c #A88816",
"R. c #B79218",
"E. c #948939",
"W. c #AA8526",
"Q. c #B78924",
"!. c #B99728",
"~. c #A78C38",
"^. c #AF933A",
"/. c #B49537",
"(. c #C2A616",
"). c #C5962A",
"_. c #CFA925",
"`. c #D6AB2B",
"'. c #CBA539",
"]. c #D7A933",
"[. c #DCB43A",
"{. c #E4B837",
"}. c #DACE11",
"|. c #F8EF10",
" X c #E9C529",
".X c #F6C738",
"XX c #938852",
"oX c #B0954C",
"OX c #B9A550",
"+X c #95876F",
"@X c #AC8C6F",
"#X c #C7B04B",
"$X c #D9B542",
"%X c #E5BC42",
"&X c #C49D7B",
"*X c #C4AE6E",
"=X c #D5C35C",
"-X c #ECC74D",
";X c #F7CF49",
":X c #F7D658",
">X c #FFE05D",
",X c #D8C268",
"<X c #F2D565",
"1X c #FEE364",
"2X c #FAE579",
"3X c #9C3A99",
"4X c #96418C",
"5X c #966D93",
"6X c #7D8783",
"7X c #868786",
"8X c #85948F",
"9X c #939094",
"0X c #969898",
"qX c #B29489",
"wX c #99A396",
"eX c #B7AA8A",
"rX c #B29AB0",
"tX c #92A7A3",
"yX c #AFB3B2",
"uX c #C7A588",
"iX c #C5A996",
"pX c #D8A09B",
"aX c #D1B298",
"sX c #D4B49A",
"dX c #D6B9AB",
"fX c #B1C1BE",
"gX c #D6CC9F",
"hX c #F1CD91",
"jX c #FEE98D",
"kX c #DDC2AD",
"lX c #E5C4A8",
"zX c #F6CBA8",
"xX c #EECEB4",
"cX c #F9D7B9",
"vX c #FFF2B4",
"bX c #B3CBC6",
"nX c #CCD2D0",
"mX c #FFDEC0",
"MX c #D7E0DF",
"NX c #FFE1C2",
"BX c #FFEFDA",
"VX c #D9E4E2",
"CX c #E7E9E9",
/* pixels */
"=.K.I.I.>.I.I.;.I.K.I.I.I.P.I.I.P.I.I.I.>.I.I.>.P.P.I.P.>.I.I.;.&.P.I.I.>.I.I.=.I.K.I.I.L.P.I.I.P.I.I.I.K.I.I.>.L.L.I.L.>.I.I.;.",
"I.=.>.K.K.;.:.:.:.I.>.>.>.P.>.;.:.P.:.P.;.;.;.:.P.I.I.>.P.>.I.I.I.&.>.>.P.:.:.>.>.I.K.>.:.L.>.;.>.>.>.K.;.;.;.:.L.I.I.>.P.>.I.I.",
"I.I.K.L.;.;.;.;.P.;.P.I.P.P.;.;.:.I.>.;.;.P.I.I.I.I.I.K.;.>.P.:.I.I.>.I.:.;.;.;.K.;.I.L.P.P.;.;.:.I.K.;.;.K.I.I.I.I.I.K.;.>.L.;.",
">.K.K.I.I.I.I.P.;.I.I.I.I.P.I.K.I.I.I.I.I.I.P.>.K.K.>.I.>.P.>.I.K.K.K.I.I.I.I.K.=.I.I.I.I.P.I.K.I.I.I.I.I.I.P.K.K.>.>.I.>.P.>.I.",
"P.;.;.P.I.I.K.K.L.P.I.P.:.I.I.I.I.I.I.P.K.K.K.;.;.;.;.P.I.I.;.I.P.;.:.K.I.I.P.K.K.L.I.I.;.L.I.I.I.I.I.I.I.I.I.:.;.;.;.K.I.I.:.I.",
">.;.;.P.>.>.:.:.;.;.;.L.I.>.>.;.=.U / m M M g z n $.;.:.I.I.;.;.>.;.:.K.:.>.:.:.;.;.;.K.I.K.L.:.>.>.>.L.I.I.I.>.>.:.=.>.I.I.;.;.",
">.=.I.;.;.;.=.~ ~ ~ $.^ $.I / b t d i.p.d.f.f.d.p.h _ I.I.P.;.>.K.;.I.;.;.;.;.;.;.;.;.;.:.:.I.I.I.;.;.;.I.I.I.I.I.I.>.I.I.P.;.>.",
"I.;.>.:.;.;.2 6 $ $ & & q w e i s d w.t.i.s.f.f.f.d.h U I.I.P.I.I.;.:.:.;.;.;.;.;.;.;.;.K.I.L.I.I.I.I.I.I.I.I.I.>.L.;.;.I.I.K.I.",
"L.;.I.I.I.;.L 1.C 0 0 0 e i i p s s d w.e.t.i.d.f.f.d.g R P.K.I.K.;.I.I.I.>.:.I.L.L.I.I.L.I.:.I.I.I.K.I.I.I.>.>.L.K.;.;.K.L.K.I.",
"I.;.I.I.I.K.;.;.9 u r r r e i p s s d w.w.e.t.i.d.f.f.s.z K.I.K.I.:.I.I.I.K.^ I.I.I.:.I.I.I.I.I.L.I.>.I.I.I.L.I.I.I.;.:.I.I.I.>.",
";.L.>.I.I.I.>.;.:.>.W 9 u q 0 w i i i i d e.t.t.i.d.f.f.p./ K.K.;.P.:.I.I.I.K.^ :.I.K.I.=.I.I.K.I.I.I.I.I.I.I.I.I.I.I.I.I.I.>.K.",
"L.L.P.I.I.;.I.:.L.L.>.>.K.=.W % @ # 0 p w.e.e.t.y.p.f.f.f.f R I.P.P.P.I.I.:.I.K.K.K.K.K.I.I.;.;.K.I.I.=.L.I.L.I.I.K.P.;.I.K.I.I.",
"L.I.I.K.I.I.I.I.I.I.I.K.L.I.^ C i p d d w.w.e.t.t.i.f.d.y.l.U.-.P.I.I.K.I.I.I.I.I.I.I.K.I.I.>.;.:.;.>.>.I.I.I.>.I.I.P.K.I.I.I.I.",
"I.I.;.;.I.I.I.I.;.;.>.I.L.I.9 Z i s s d w.e.e.y.e.t.y.a.(.|.}...I.I.;.:.I.I.I.I.;.;.>.I.I.I.:.>.;.>.K.>.;.>.>.L.I.I.I.I.I.I.I.I.",
">.I.;.;.>.;.:.:.;.L.;.K.I.K.2 q w t e i p p a M ' l.(.|.|.|.|.X.n / W _ ^ ^ ^ ^ ^ K.;.>.I.I.I.I.I.I.I.I.I.I.I.I.K.I.>.I.;.;.I.I.",
"P.K.I.P.:.P.:.-.-.K.;.K.I.=.` ' ` ` ] ] z.c.T.(.`. X|.|.|.|.T.u.p.p.i.t.r.f h t b &.;.>.I.I.I.I.>.I.I.I.I.I.L.:.K.I.;.I.>.L.;.I.",
"I.;.I.I.I.L.I.>.;.;.;.I.I.$.g.' g.l.l.T.T.R.(._.`. X|.}.T.a.i.f.f.f.f.f.f.d.f.p.a $.:.I.I.>.I.I.I.I.L.K.I.K.I.I.I.I.I.I.I.I.K.I.",
"I.P.I.K.I.I.I.I.I.I.I.I.>.9 ' ' g.h.l.c.T.T.T.T.c.k.a.r.i.s.f.f.f.f.f.f.f.f.d.t.z P.I.I.I.>.;.I.I.K.I.I.>.K.>.>.>.K.K.>.I.I.I.I.",
"K.I.>.P.I.I.K.I.I.I.I._ < @ q l v N ` N N M g f d y.s.f.f.f.f.f.f.f.f.f.f.f.y.a %.I.I.K.I.I.K.:.:.;.L.I.;.K.>.K.K.K.:.;.>.I.L.I.",
"I.P.K.K.K.;.K.K.>.~ 9 C r q q w i i p s w.w.t.y.y.s.f.f.f.d.f.f.f.f.f.f.s.y.a _ >.K.I.I.>.;.K.K.K.I.I.I.;.;.>.;.;.;.;.>.I.L.I.K.",
">.P.I.>.>.-.=.U 4 C Z r w e e e i s d d w.e.e.e.y.y.y.e.e.e.e.t.y.y.y.t.s y $.I.>.;.I.>.I.I.I.I.I.I.L.I.;.;.;.;.;.:.;.I.I.=.I.I.",
"I.I.I.;.^ 1 C 1.C 0 0 0 e e e p p s s w.w.s p s h h a.j.k.n.b.k.{ j.B { oXE.%.I.I.I.I.K.I.I.I.I.I.I.I.I.I.;.;.:.>.>.>.K.>.I.I.I.",
"I.I.I.I.K + C # # q 0 w w e i i p s s p i r M k.!.`.].{.:X<X{.#Xc. X{.W.[.2X7.&.K.>.>.I.I.L.I.I.I.;.I.I.I.I.I.I.I.I.I.I.>.I.I.I.",
">.P.>.I.T   + @ # q 0 0 w e i i p i w 0 y N.m.c.`.`.{.-X2XOXE.#X) `..X-XE.,XgX%.I.K.I.I.I.I.K.:.I.>.I.;.I.I.I.I.I.I.I.:.I.K.I.=.",
">.I.I.>.&.U % + @ # q 0 0 w w w 0 q [ #.F '.m.#.).{.-XjXjX+XV.OX@.!..X1XOX*.hX,.=.;.K.I.L.;.>.L.I.I.I.P.I.I.I.I.;.I.I.I.I.>.>.K.",
"I.P.I.I.I.>.&.L % + + @ @ # & x { W.$XD.@X~.XXH.x.].-XjXhX+X@X~.F.C..X>X=XU E.XX^ L.>.;.>.I.I.I.I.=.=.I.I.I.I.I.=.I.>.I.P.I.I.I.",
"P.I.>.P.P.I.P.I.;.R R U [ N.| Q.).{.'.@XxXD.,.pXH.c.%X<XOXuX@XF.eXN..X:X#X$.>.,.&.>.I.L.I.>.L.;.>.I.I.>.>.I.I.I.>.I.I.I.;.:.I.I.",
"P.>.>.>.I.I.I.I.I.P.;.-.N.).z.).).-X/.eXcX@X7 #.@XF.W.$XXX&X#.J.sXN.;XjXaX-.-.J L.L.;.I.>.I.I.I.I.I.:.:.>.P.I.I.P.I.>.>.:.I.I.P.",
"P.;.>.P.I.P.I.I.I.P.I.$.Q.!.k.[.%X<XoXsXuXD 1.2.@.iX@XG.sXF.2.2.7.~.1XBX*X^ I.K.I.P.I.I.I.I.I.K.I.I.%.I.>.>.>.>.>.I.I.P.:.I.I.;.",
"P.P.;.;.>.>.I.I.-.P.;.*.).W.[ ].:XjXoXsX+X8.1.9X9XcXmXcXdX2.5X9Xq./.1XjXU.^ I.I.>.K.;.I.I.>.;.>.I.:.>.I.I.I.:.:.I.I.K.I.I.I.I.P.",
"P.;.>.>.;.&.;.I.P.>.&.z.).Q.{ M.%XjXoXuXnX5X5 2.J.cXcXNXiX5 2.rXeX/.:X1X>.^ ^ I.P.>.I.L.L.>.I.L.I.K.I.I.I.I.I.>.I.I.K.I.I.I.;.I.",
">.I.>.>.P.;.I.:.P.P.O.C.Q.).c.k.).%XoX&XBXrX3.1.5XcXcXmXiXS.3.fX@X`.>X*X%.:.I.L.L.P.K.K.I.I.>.I.L.I.L.I.I.>.I.:.>.I.=.I.:.K.;.I.",
"=.K.I.P.>.I.I.%.I.%.b.Q.Q.Q.T.| Q.].].@XcXnX3X3XqXmXmXmXdX4X5XkXD.{.1XE.^ I.I.;.I.K.I.I.I.P.I.I.P.I.I.I.K.I.I.>.P.I.I.P.>.I.I.=.",
"I.=.>.K.P.;.:.;.%.m.C.C.W.Q.Q. .x.].[.D.zXmXiXqXxXcXkXcXcXdXdXG.v..X=X%.L.:.:.:.>.I.K.>.>.K.>.;.:.K.:.K.;.;.;.:.P.I.I.P.K.>.I.I.",
"I.I.K.L.;.&.$.*.W.b.C.C.C.Q.z.< c Q.{.B.D.pXcXvXmX@X@XqXcXlXG.z.!.:X,.Y ;.^ ^ :.K.:.K.I.K.K.;.;.:.I.K.;.;.K.I.I.I.I.I.>.&.>.P.:.",
">.L.K.$._ ,.V.Q.N.v.C.C.C.x.:   O | ].^.= m F.uXlXxXzXsX+XF 8 ( {.^.m.V.U.O.Q K.=.I.I.I.I.I.I.K.I.I.I.I.I.I.K.K.K.K.:.I.K.P.P.I.",
"P.;.;.;.O.n.N.v.v.M.b. .c.[ . 8 7X9.z.].o.o * = D 6.@.7 8 6 8  .m.N..X~.oX,.-.L.K.L.I.I.:.I.I.I.I.I.I.I.I.I.I.;.;.;.;.P.I.I.:.I.",
"K.;.;.P.=.Q / v.b.x.} x.c.: O 8XVXnX5.| v.3 3 F 7 J.@.7 7 6 4 < % ~..X[.O.^ >.-.;.:.;.P.I.K.K.;.K.:.>.P.I.P.&.U K W Q ;.I.I.;.;.",
">.=.I.;.;.Q v.b.x.}  .M.,.O 6XnXMXCXnX2.7 , 3 #.#.B.#.v.S D 2.4.O W._.;X^.^ -.=.;.;.;.;.:.;.I.I.P.;.;.;.&.n A u b x n T K.I.;.:.",
"I.;.>.;.;.) M.v. .( b.x.W 4.bXnXMXCXCX9X8.9 D 4.@Xv.7.F D D 7X9XO W.!.[.-X*.^ ;.;.;.;.:.>.I.K.I.I.I.P.U b u 6 <.C b ` ` _ P.P.I.",
"P.;.I.I.>.} b.v.[ | x.z.2 0XbXnXMXCXnX0.fXtXY.6XnX+X+X5.8.0.yX9XO W.'.!.;XE.^ I.K.K.I.I.P.I.=.&.$.&.K l C <.1.3.Z.C v h.` R P.I.",
"I.;.I.I.K.} b. .n v.v.[ 9 bXyXwXwXyX6X8 5.6XtXbXfXY.yXbXtX8XMXtXo m.[.W. X#XQ I.I.I.&.$.K U K l x % y z - <.Z.A.A.Z.G g.] ) -.K.",
";.K.:.I.I.O.b.[ m n.v.c 8.8X,.T.R.!.+.tXY.! +.,.7.7.+XJ.F tXVXtX3  .[.,.{.'.&.;.;.&.2 l l & y v l & z z - 5 Z Z.pXZ.N g.h.` $.K.",
"P.P.P.I.I.Q | / O.b.k.< ! *.z.D.oX#.% 4.6XtX6Xq./ / 7.0.Y.9.8X+X, } {.,.N./.=.R K > z N l l M v & z x b b A C G 3.G { g.l.' $.I.",
"I.I.L.K.I.I._ 2 O.M.} = % ` B.hXlXS q @ G F 9.0.A u 0.0.F } !.T., n /.O.2 [ 2 n v N ' c l v ` & z N v x V { V V v { ] h.h.) -.P.",
"I.L.:.:.I.I.:.~ _ b.m 4 > v @.zXJ.* q $ j a r k t # t k y ( m & & - l l l x v N ` ` l l v N l x N ` c c ] g.' ' ' g.h.h.` T I.I.",
">.I.:.:.:.;.K.:._ ) A = % c l o.= $ q @ j j 0 k t $ j j r & b F - % < 2 K K U T W ~ W K K : l c / / ^ n ] h.g.h.g.g.h.` K &.I.I.",
"I.K.I.K.:.K.:.>.;.1 6 . . > l > X * u + r j 0 q q q u.r q O q.+Xo O 2 ;.:.P.>.>.>.K.=.:.I.K.;.-.=.K.I.;.( ] g.h.g.{ v U -.K.;.I.",
"I.:.I.I.I.I.P.:.J 4 3   X . % % 3   $ $ + t q + * k r q * * 3 = o o 1 K.I.I.I.:.;.:.;.I.P.P.I.I.I.I.P.K.$.n m ( v / $.L.I.I.K.I.",
"I.K.I.L.P.I.I.Q O 3   . O ; = 4 C O X $ + + $ u $ + + * o o o o o * 3 ~ I.I.I.I.I.I.I.I.I.>.;.I.P.K.I.I.K.;.$.R &.>.K.L.I.I.I.I.",
">.I.;.P.I.I.>.~ L 1 L ~ >.:.;.E 8 3 3 #.F.D.@XaX6.7.= o o o o X o o 3 9 P.I.K.I.I.I.I.P.I.P.K.;.;.;.L.I.:.K.:.L.K.K.:.:.L.I.K.I.",
"I.L.K.L.P.:.K.>.L.K.I.I.K.;.K.K.:.~ , H.zXzXcXsX@XeX3 O O 1 1 1 ; 3 4 4 W ;.K.>.P.K.I.I.>.:.P.>.K.I.I.I.;.;.>.:.=.;.=.:.P.L.L.L.",
"K.L.I.>.>.>.P.P.>.-.I.;.K.>.^ ^ ^ ^ Y o.G.F.6.6.5.S ; J Y Y K.K.=.W E 1 W :.P.P.>.;.I.>.I.I.I.I.I.I.P.I.;.;.;.;.;.;.;.P.I.=.I.I.",
"I.P.P.;.;.;.I.I.L.K.=.Y R R R R R R Y 1 n o.b @.F 7 J Y Y R R R ^ :.>.;.;.:.I.I.I.I.I.>.I.I.I.I.I.I.P.I.I.;.;.;.K.>.K.P.>.I.I.I.",
"I.I.I.I.P.P.I.=.R Y Y R R R R R R P R 1 % < = : O J R R I R R R R R ~ ;.K.K.I.;.P.>.K.I.I.P.I.I.I.;.I.I.I.I.I.I.I.I.I.I.>.I.I.I.",
"K.K.K.I.I.I.L.R R Y R R R R R I R Y ~ L : % < < 1 Y R Y Y R R L Y Y Y ~ &.I.I.P.I.>.I.I.I.I.P.;.I.>.I.;.I.I.I.I.I.I.I.:.L.P.I.=.",
">.I.I.K.=.L.K.R P P Y R Y P Y R R R R Y 1 % % : : Y R Y R Y Y Y I R R Y I P.I.I.;.;.K.I.P.;.K.P.I.I.I.P.I.I.I.I.=.I.I.P.I.K.:.P.",
"I.K.I.P.I.>.L.=.P R Y P Y R R R Y J I R P % % : 1 R Y R R R R R R Y R R ;.K.I.I.;.I.>.;.K.I.I.I.P.&.;.I.I.I.I.I.;.I.>.I.I.I.I.I.",
"K.P.>.K.K.L.K.P.^ R R R R I Y I Y R R Y Y J H H J R R R I I R R Y R R ;.K.I.K.I.:.>.I.P.I.>.I.:.>.I.I.>.>.I.I.I.;.I.I.I.;.:.I.I.",
"L.K.K.K.I.I.I.I.L.K.^ =.Y ^ R R Y R P I Y Y Y R Y R Y Y I R R ^ =.;.K.K.I.I.I.I.I.P.;.I.:.I.I.P.I.I.;.:.>.K.I.I.P.I.>.>.;.I.I.K.",
"L.;.>.K.I.L.I.I.I.P.I.I.I.L.K.=.;.=.Y =.^ R R R ~ =.;.-.=.L.K.;.P.;.>.L.I.P.I.I.I.I.I.I.I.I.I.P.I.I.;.I.>.K.K.K.:.I.I.I.:.I.I.;.",
"L.K.;.;.>.K.I.I.K.K.;.P.I.K.;.>.I.-.>.P.P.I.;.;.L.L.L.L.P.I.P.L.P.K.;.;.-.K.I.I.:.>.:.P.I.>.:.:.I.:.>.I.P.I.;.;.I.I.P.P.I.I.I.P.",
"P.;.>.K.;.=.;.I.L.K.L.K.K.K.K.L.P.L.I.I.I.I.L.L.I.L.K.L.P.I.;.I.P.;.>.>.:.=.;.I.K.K.P.P.P.>.P.P.I.K.I.I.I.I.I.P.I.P.P.I.I.I.;.I.",
">.P.K.>.K.;.I.;.L.L.L.L.L.L.K.I.L.I.L.I.K.L.L.>.>.I.=.L.;.L.;.I.K.P.K.>.L.;.P.K.L.P.P.P.I.I.>.I.K.I.L.I.P.>.I.:.>.I.&.P.:.K.;.I."
};
