/* XPM */
static char *result[] = {
/* columns rows colors chars-per-pixel */
"64 64 239 2 ",
"   c #150C0E",
".  c #1A120C",
"X  c #1A0E13",
"o  c #1B0E15",
"O  c #1B1414",
"+  c #280808",
"@  c #360707",
"#  c #3A0202",
"$  c #27190B",
"%  c #391A09",
"&  c #320D13",
"*  c #251718",
"=  c #391817",
"-  c #28240C",
";  c #38250D",
":  c #292714",
">  c #332415",
",  c #362A18",
"<  c #293816",
"1  c #3A3B16",
"2  c #2B1521",
"3  c #381728",
"4  c #361330",
"5  c #372927",
"6  c #363525",
"7  c #3B2133",
"8  c #342F30",
"9  c #430101",
"0  c #4C0101",
"q  c #45090B",
"w  c #530101",
"e  c #5C0201",
"r  c #5C060C",
"t  c #481B0A",
"y  c #58190A",
"u  c #460716",
"i  c #4E0E14",
"p  c #630101",
"a  c #6B0001",
"s  c #740201",
"d  c #7C0201",
"f  c #760B03",
"g  c #681A08",
"h  c #70100F",
"j  c #43230B",
"k  c #472A0A",
"l  c #56280A",
"z  c #4A350D",
"x  c #59370A",
"c  c #492518",
"v  c #5E221E",
"b  c #483915",
"n  c #563A15",
"m  c #742C0B",
"M  c #66380A",
"N  c #653B17",
"B  c #4D0E2F",
"V  c #48132A",
"C  c #740732",
"Z  c #4D2B2B",
"A  c #453626",
"S  c #533A29",
"D  c #482B3A",
"F  c #483735",
"G  c #2C4819",
"H  c #3A4519",
"J  c #374A1A",
"K  c #2F501C",
"L  c #32541C",
"P  c #3C521D",
"I  c #365B1E",
"U  c #3A5D1F",
"Y  c #39621F",
"T  c #3B4A23",
"R  c #3B5B22",
"E  c #3F4236",
"W  c #3C6421",
"Q  c #3E6A23",
"!  c #474716",
"~  c #514E16",
"^  c #594719",
"/  c #68450A",
"(  c #764D0B",
")  c #795507",
"_  c #7C530C",
"`  c #664B18",
"'  c #704710",
"]  c #68551C",
"[  c #785718",
"{  c #7C5C1C",
"}  c #7B601C",
"|  c #5A4926",
" . c #455A22",
".. c #51572B",
"X. c #554235",
"o. c #6C5927",
"O. c #6F532D",
"+. c #695837",
"@. c #486623",
"#. c #426C24",
"$. c #447226",
"%. c #497826",
"&. c #457628",
"*. c #467929",
"=. c #4A7D29",
"-. c #5D6C32",
";. c #706C31",
":. c #4F044E",
">. c #522B4E",
",. c #622B5D",
"<. c #524D50",
"1. c #745A46",
"2. c #695650",
"3. c #54605C",
"4. c #77644D",
"5. c #6F7056",
"6. c #6A6668",
"7. c #73796E",
"8. c #787677",
"9. c #840101",
"0. c #8C0101",
"q. c #860B04",
"w. c #940101",
"e. c #990401",
"r. c #8D120E",
"t. c #A80201",
"y. c #B30100",
"u. c #BC0100",
"i. c #980C2B",
"p. c #C30100",
"a. c #CB0100",
"s. c #D40100",
"d. c #865709",
"f. c #855D09",
"g. c #8A5312",
"h. c #906C0C",
"j. c #84631D",
"k. c #8A691C",
"l. c #946A1D",
"z. c #9B7715",
"x. c #886924",
"c. c #926C21",
"v. c #8D772E",
"b. c #957425",
"n. c #9B7421",
"m. c #A77D23",
"M. c #991A60",
"N. c #C73F74",
"B. c #8D734D",
"V. c #977946",
"C. c #886C55",
"Z. c #8A7359",
"A. c #824C79",
"S. c #8D776C",
"D. c #AB6368",
"F. c #4E832A",
"G. c #4F892C",
"H. c #50872B",
"J. c #528C2D",
"K. c #7A8145",
"L. c #798274",
"P. c #929316",
"I. c #A78519",
"U. c #B09618",
"Y. c #B7A413",
"T. c #918335",
"R. c #AB8426",
"E. c #B38625",
"W. c #BB8C24",
"Q. c #B99627",
"!. c #A88B3A",
"~. c #B79937",
"^. c #B09239",
"/. c #C29E1C",
"(. c #C8B216",
"). c #C4972B",
"_. c #C9A429",
"`. c #D7AB2B",
"'. c #D6AB2F",
"]. c #DCB238",
"[. c #E5B52E",
"{. c #E3B638",
"}. c #F0DD16",
"|. c #FCF20F",
" X c #F7C93A",
".X c #93844E",
"XX c #A78E4C",
"oX c #A89546",
"OX c #B8A751",
"+X c #95876C",
"@X c #AD8E73",
"#X c #A5A36F",
"$X c #CBB44D",
"%X c #DBB742",
"&X c #E6BB41",
"*X c #C09B74",
"=X c #F0CB4B",
"-X c #F1CC5A",
";X c #F9D758",
":X c #ECD670",
">X c #FFE567",
",X c #FFE876",
"<X c #A731A4",
"1X c #954787",
"2X c #95698D",
"3X c #A56A85",
"4X c #778680",
"5X c #8C8F8E",
"6X c #85928C",
"7X c #B09293",
"8X c #BDA38F",
"9X c #9AB0AC",
"0X c #A9A9A9",
"qX c #A4B6B3",
"wX c #B4BBB9",
"eX c #C9AF8F",
"rX c #C6A896",
"tX c #D3B499",
"yX c #E3B089",
"uX c #CCB5A1",
"iX c #D6B7A2",
"pX c #E3BEA0",
"aX c #B9C2BF",
"sX c #EDDA8A",
"dX c #FCE589",
"fX c #DEC2B3",
"gX c #EAC5AA",
"hX c #F7CBAB",
"jX c #F5D0B0",
"kX c #F8D9BB",
"lX c #FDEDA3",
"zX c #B8D0CC",
"xX c #CED4D2",
"cX c #E7D6C7",
"vX c #FFDEC1",
"bX c #FFE0C2",
"nX c #F6EAD1",
"mX c #DEE4E3",
"MX c #E6E7E7",
/* pixels */
"$.F.J.J.=.J.J.$.J.H.J.J.H.H.J.J.H.J.J.J.F.J.J.*.H.H.J.H.=.J.J.$.$.H.J.J.=.J.J.$.J.F.J.J.G.J.J.J.J.J.J.J.F.J.J.*.F.J.J.F.F.J.J.$.",
"J.$.=.F.F.&.*.*.=.J.H.*.*.H.=.&.*.F.*.F.&.&.*.*.J.J.J.=.F.=.J.J.J.$.=.F.H.$.*.*.=.J.F.=.=.F.=.&.*.F.*.F.&.&.&.*.J.J.J.=.F.=.J.J.",
"J.J.F.F.&.&.&.&.H.&.H.J.H.H.&.&.&.J.F.&.&.F.J.J.J.J.J.F.$.=.J.*.J.J.=.H.*.$.*.*.F.*.G.J.F.H.&.&.*.J.F.&.&.F.J.J.J.J.J.F.$.=.J.&.",
"F.F.F.J.J.J.J.F.$.J.J.J.J.H.J.H.J.J.J.J.J.J.H.=.F.F.=.J.=.G.=.J.=.H.H.J.J.J.J.H.$.J.J.J.J.G.J.F.J.J.J.J.J.J.G.F.F.=.=.J.F.G.=.J.",
"H.&.*.H.J.J.H.F.F.H.J.J.&.J.J.J.J.J.J.J.J.J.J.*.&.&.&.H.J.J.&.J.G.&.&.F.J.J.F.H.F.G.G.G.&.J.J.J.J.J.J.J.J.J.J.*.&.&.&.G.J.J.&.J.",
"=.&.*.F.*.=.*.*.*.*.$.H.J.F.=.&.=.*.H.J.J.J.J.*.F.*.$.*.J.J.&.&.=.&.*.G.*.=.*.*.&.*.*.F.J.F.G.*.F.*.F.F.J.J.J.=.=.*.$.*.J.J.&.$.",
"=.$.J.&.*.&.&.&.$.*.&.&.*.*.J.J.J.$.*.*.J.J.J.J.J.J.=.J.J.H.&.=.F.$.J.*.&.&.*.$.R T P R W $.J.J.H.&.&.$.J.J.J.J.J.J.=.J.J.H.&.=.",
"J.&.=.&.&.&.&.&.&.&.&.*.=.J.J.J.J.J.J.J.J.J.J.J.=.F.&.&.J.J.H.J.J.$.*.*.&.*.Q c q.t.t.t.q.g b  .=.J.J.J.J.J.J.J.$.F.&.&.J.J.G.J.",
"G.&.J.J.J.=.&.H.F.F.J.J.H.J.*.J.J.J.F.J.J.J.*.=.J.F.&.&.F.H.F.J.G.&.J.J.J.W y y.s.s.s.s.a.p.t.d t b P $.*.$.J , 3  .&.&.F.G.=.J.",
"J.&.J.J.J.=.&.J.J.J.*.J.J.J.J.J.H.J.=.J.J.J.H.J.J.J.&.=.J.J.J.F.J.&.J.J.&.g p.s.s.s.a.y.e.0.9.d s p e q % q # 9 :.T &.&.J.J.G.F.",
"*.F.=.J.J.J.=.&.*.J.=.J.$.J.J.H.J.J.J.J.J.J.J.J.J.J.J.J.J.J.F.F.*.H.*.*.l p.s.s.s.y.e.w.0.9.d s a a p p e 0 u B  .G.J.J.J.J.F.F.",
"G.G.H.J.J.&.J.=.H.H.F.F.J.J.&.*.H.J.J.#.J.J.J.J.J.=.H.&.J.=.J.J.H.H.=.z y.s.s.s.y.w.w.0.9.9.d s a a p e e u V R G.=.G.$.J.=.J.J.",
"H.J.J.=.J.J.J.J.J.J.J.F.J.J.=.*.*.*.=.H.J.J.H.*.J.J.J.F.J.J.J.J.H.H.L q.s.s.s.u.w.w.w.0.s e p p p w w q c T $.=.J.J.G.F.J.J.J.J.",
"J.J.&.&.J.J.J.J.*.*.=.J.J.J.&.*.*.*.F.=.*.*.F.H.*.=.H.J.J.J.J.J.J.@.U.g.y.s.s.t.w.w.0.9.d a 0 # @ - P #.$.=.=.F.J.J.J.J.J.J.J.J.",
"=.J.&.=.*.*.=.*.&.F.*.=.J.J.J.J.J.J.J.J.J.J.J.$.t y l n ! J Q F.#.P.|.}.z.r.y.e.w.0.0.9.d d s p e Z J.J.J.J.J.J.=.J.=.J.&.&.J.J.",
"G.G.J.F.=.=.*.*.=.F.*.=.J.J.J.J.=.J.J.J.J.J.F. .s u.p.u.y.t.q.r.y Y.|.|.|.(.h.m f 9.9.9.d d s a p B *.J.J.J.F.*.F.J.&.J.=.G.=.J.",
"J.*.J.J.J.J.J.*.*.*.$.J.J.F.J.J.J.J.J.F.H.F.J.*.h t.s.s.s.s.s.s.p.r.Y.|.|.|.}._.I.f.M g g r e w w u Q F.H.F.J.J.J.J.J.J.J.J.F.J.",
"J.F.J.=.J.J.J.J.J.J.J.J.J.=.$.J.H.H.J.J.F.F.=.*.b 0.p.s.s.s.s.s.s.a.e.g.(.|.}.[.`./.U.I.h.) ) / / /  .J.F.F.=.*.F.F.F.F.J.J.J.J.",
"F.J.*.J.J.J.F.J.J.J.J.H.J.H.H.&.&.$.H.J.*.=.=.F.@.y w.a.s.s.s.s.s.s.s.u.q.d.I.U././.Y.I.I.h.h.f.( d.~ J.*.F.=.F.F.F.*.*.F.J.H.J.",
"J.H.F.F.F.*.F.=.=.H.J.J.H.$.=.F.H.J.J.J.*.&.*.*.&.R y 0.p.a.s.s.s.s.s.s.s.a.e.f m f.h.z.z.h.h.d.) d.! G.*.$.=.*.$.&.&.*.J.H.H.F.",
"F.F.J.=.*.=.H.H.=.*.J.*.J.J.J.J.J.J.H.J.*.$.&.&.Q *.W b p 0.e.y.u.a.a.s.s.s.p.w.w.q.a g l M / / x k % J $.$.$.$.&.&.&.H.J.$.J.J.",
"J.J.H.*.*.*.J.J.J.J.J.F.J.J.J.J.J.J.J.J.J.*.&.&.F.F.Q -.oXc.M m g f d q.w.t.y.e.w.0.0.9.d a p e w 0 # @ T &.%.%.F.F.=.H.*.J.J.J.",
"J.J.J.J.J.H.J.=.F.=.F.J.J.G.J.J.J.*.J.J.J.J.J.J.J.F.-.-X=XQ._.`.Q.Q.!.j.g.h f 9.s 9.0.9.9.d s p w 0 0 r B T F.J.J.J.J.J.=.J.J.J.",
"=.F.F.J.J.J.J.F.J.=.J.J.J.J.F.&.J.*.J.*.J.J.J.J.G.-.:X=XE.`. XI.~.=X-X;X{._.E.l.m r p d d s s a a p e w r :.5 #.J.J.J.*.H.H.J.$.",
"=.J.J.=.$.G.J.J.*.*.F.J.H.$.F.H.J.J.J.H.H.J.J.J. .eXsXR.&X X[.` oX~.OX,X=X{.[.'.R.z g e a s s a p e e w w u B B 1 F.J.G.J.=.*.H.",
"J.H.J.J.J.=.J.J.&.G.=.&.H.J.J.J.H.$.&.J.J.J.J.=.5.:X-.!.>X X_.| OXV.Z.lX:X=X{._.{ O.^.t 0 e a p p p w w w 9 q u :.5 Q J.G.J.J.J.",
"=.J.=.F.F.G.F.J.*.=.J.G.J.=.H.&.=.J.J.=.=.J.J.@.oXK.Y $X>X XE.Z.!.+XXXlXdX-X'.n.Z..X~.C.2.9 0 p p e w w 0 9 # # u & > G.*.*.J.J.",
"J.=.F.F.J.J.J.J.J.G.&.J.*.J.J.J.H.J.&.*.F.F.J.R  .F.Q OX>X XR.+X;.eX@X$X;X].m.C.+Xx..XgX@Xx.N # 0 w w 0 0 9 # # +   J =.*.J.J.F.",
"H.*.=.F.G.*.F.G.J.G.J.J.J.J.J.H.J.J.$.J.=.=.=.T Q J.*.#XdX=XR.@X+X*XV.^.&Xn.Z.tXO.O.D.gXtXoX%Xg.t @ # # @ + + + : R H.J.*.J.H.*.",
"J.=.Q I 1 z k 1 R *.&.J.J.F.&.*.J.*.=.J.J.J.&.&.J.J.*.+XlX>X^.@XS.D S 4.Z.rXjXZ.D >.>.C.pXV.-X].).n n [ n < J U F.J.F.H.J.J.J.H.",
"H.R ! ' ( M c c c A *.H.F.F.H.J.J.=.J.J.J.J.J.H.J.G.F.K.lX>X~.4.6.2X,.S.vXvXvX8X5X,.>.6.rXXXdX-X&X[ x.).R.@.H.F.J.F.F.J.J.J.&.J.",
"#.^ _ f.x V :.:.4 c 1 *.J.J.=.J.H.J.H.J.H.F.J.*.F.J.Q -.:X>X_.5.xX2X>.2.vXvXvXrX2X4 >.wXuX@XdX-X).x n.).W.{ #.*.F.J.$.J.&.F.*.J.",
"! ) f.) C i.i.M.:.4 t P G.G.J.J.F.J.J.J.F.J.J.=.G.J.J.Q $X;X`.+.cX6.:.A.kXkXbXiX,.:.1XmXiXXX-X_.c.{ W.W.W.E.[ @.G.G.J.H.=.J.J.&.",
"^ f.f.' C N.M.M.:.4 y ; W F.F.$.*.F.=.F.$.*.$.=.G.J.J.Q .X;X Xo.uX7X<X1XkXkXbXgX1X<X2XnX7X).{.).g.m.W.W.W.E.R.x.-.%.=.=.%.P $.J.",
"~ f.f.' v 3XA.i.:.4 l t , J J #.*.J.F.*.*.F.J.J.J.J.J.F.@.-X Xk.V.iX7XiXvXkXkXbXrX3XfXhXV.&X'.l.{ W.E.E.E.m.R.n.m.m.;.o.o.b #.*.",
"! d.f._ N v v V 3 = l l % k k H F.H.J.J.J.H.H.F.F.F.G.J.Q T.=Xb.^.V.tXvXgX@X+XrXbXkXhX*X^.{.E.N n c.E.E.E.m.m.n.j.b.E.!.b. .F.J.",
"Y / f.f.( ` N N N N c l t j l j : H #.J.J.J.J.$.*.*.Q G.G.@.].b.^ A F +XiXpXhXhXjXeX1.o.%X).' 3 2 * ] I.m.n.x.z.l.j.[ ^ @.H.%.J.",
"%.1 ) f._ d._ _ ( N l x l % x l % l k Y J.J.J.=.F.*.W W ;..X;.k.2 7 3 3 D 2.Z.1.F 2 , ~.W.` 2 6.wX4X8 } m.n.j.[ k.b.c.x. .J.$.$.",
"F.Y b ( f.f.f.f.f.x ; ' M t x M j l l ; $.J.J.J.J.J.#. .!.T.~.~ 8 >.7 7 5 * C.<.* > x.x., o 6.mXmXmX9X5.k.n.n.k.] { l.c.x.@.*.=.",
"J.&.Y b / _ _ _ / H P ! M x k M l k / M , *.J.J.=.F.&.#.Q v. Xb.0X7.>.3 O.` C.O.A > > 2 o 6.mXMXmXxXzXzX5.k.b.l.j.^ } j.c.] %.J.",
"F.$.J.=.! ! z ! Y F.H.%.! z ; k x j x ( x 1 U =.J.=.&.&.@.$X].+XmX0X>.D Z +.j.V.6.7 7 >.3.8.xXMXmXmXzXzXqX+.{ k.k.j.n } c.o.$.J.",
"J.*.J.J.J.&.Q F.J.J.*.J.J.$.@.L P H 1 ! / M z H #.G.&.&.;.].V.zXmXwX7.6.<.3.4.xX5X2.8.qX4X  8 0XmXaX5X6X9XL.] ' j.c.` b x.} $.H.",
"*.F.*.J.J.J.*.&.*.J.F.J.$.J.J.G.J.J.H.F.Q ! z l j 1 R $.T.T.B.qXxXzX4X6XqXwX5.zXzXqX9X9XE     2 L.Q.E.z.;.6.o.` { x.c.1 ` ] $.H.",
"F.G.G.J.J.&.J.*.F.F.F.F.J.J.*.&.H.J.J.$.H.J.$. .b ; t % ..o.Y..XqXzX6XE L.+X5.+XL.5.X.E 3.8 .   H R.V.v.) ^ ^ { ^ j.c.^ H H H.J.",
"G.J.J.F.J.J.J.J.J.J.J.F.J.J.=.*.*.*.F.F.J.J.G.F.G.Q J > % % ~ j.7.qX3.L.7.-.` | -.3.L.9X4X8   X   X.pXhXx.z n x.b ` l.o.W #.J.J.",
"J.J.&.*.J.J.J.J.&.&.=.J.J.J.$.*.&.*.=.F.%.*.=.H.J.J.G.#.C.1.j t , 3.2 8 6.7.c F 4X6X8.>.= O X X .   2.eX+.k z x.] J { o.*.G.J.J.",
"=.J.&.*.=.&.F.*.&.F.*.F.J.J.J.J.G.J.J.J.J.J.G.J.F.J.F.F.5.S.X.$ ; % . @ r i i i V v h @ q X o X X X   : k j ; { o.Q ! ! Q &.J.J.",
"H.G.J.F.*.F.=.*.=.F.&.F.J.J.J.J.=.G.J.J.J.J.F.*.F.J.Q J.Q T < - ; $ X @ r u q @ r r.r @ t + o X X   X . k ; * ^ ..J.W Q =.G.*.J.",
"J.&.J.J.J.H.J.&.&.&.&.J.J.F.J.J.J.J.F.F.J.F.J.J.J.J.J.J.J.J.=.J * o * & q + + r h r + % q X o o X X     $ . 2 3 H J.J.J.J.J.=.J.",
"J.G.J.F.J.J.J.J.J.J.J.J.J.=.&.J.G.F.J.J.F.F.F.*.F.F.F.F.J.J.J.W 2 o o O F S + @ @ + @ q & o o o * 2 X X     X 3 : *.F.F.J.J.J.J.",
"=.J.&.H.J.J.F.J.J.J.J.F.J.H.H.&.&.&.G.J.*.F.*.F.=.F.&.*.F.H.F.6 2 o O 2 rXgXC.c & & = c O O o o 2 4 2 o       2 4 < #.*.F.J.H.J.",
"J.H.F.H.H.*.F.=.H.F.J.J.F.&.F.F.F.J.J.J.&.&.=.&.*.&.&.=.J.F.Q 2 2 * O A 7XjXhXyX@XS F X.b $ o * 2 6 T H < < O . * O < *.J.J.J.F.",
"F.H.J.=.=.=.H.H.=.&.J.=.J.J.J.J.J.J.G.J.*.*.$.*.&.&.$.J.J.#.F.I G R G 2.+.4.7XyXB.X.S S A $ X O < W #.$.Q Q W R R R #.H.J.$.J.J.",
"J.J.H.&.&.&.J.J.J.J.J.=.J.J.J.J.J.J.J.J.J.$.*.*.H.=.F.F.$.&.Q Y R W K > , S n A , 1.6 = : % $ < Y Y I Y Y L Y Q =.F.=.F.=.J.J.J.",
"J.J.J.J.J.H.J.*.F.F.F.J.J.G.J.J.J.*.J.J.J.J.J.J.J.J.H.$.L Y Y Y Y Y K : > , , - G G : > , , - : U L Y Y Y Y Y Y Q F.J.J.=.J.J.J.",
"F.=.H.J.J.J.J.H.J.F.J.J.J.J.F.&.J.*.J.&.J.J.J.J.J.J.$.L Y U Y K I I < > > $ $ G R L L < : > - : Y L Y L Y Y Y Y W W H.*.H.H.H.$.",
"*.J.J.=.$.J.J.J.$.&.H.J.H.&.=.H.J.J.J.F.G.J.J.J.&.J.Y I Y I I I L Y < > $ $ - I L K Y I < - < G Y Y Y L Y Y Y Y K W F.F.J.F.*.G.",
"J.H.J.J.J.=.J.J.&.J.=.&.F.J.J.J.F.$.&.J.J.J.J.J.$.J.$.Y Y Y Y Y Y Y L : $ - G Y L Y L L L K Y W Y K K Y Y Y Y Y K Q *.J.G.J.J.J.",
"H.J.*.H.H.H.F.J.*.*.J.H.J.=.H.*.F.J.J.F.=.G.J.J.&.G.J.=.L I Y Y I Y I K G K L Y I L Y Y Y I Y K I Y Y I L Y Y W W G.J.G.&.*.J.J.",
"H.=.H.=.J.J.J.J.J.G.&.J.*.J.J.J.H.J.$.*.F.F.J.J.G.J.=.F.$.F.$.Y Y I I I Y Y Y Y Y I L Y L Y Y I Y Y L L U Q %.H.F.G.F.F.*.J.G.G.",
"H.*.=.H.J.J.J.J.J.H.J.J.J.J.J.H.J.J.$.J.=.F.F.H.*.J.J.J.=.J.G.&.F.Q $.Y Q Y Q Y Y Y Y Y Q Y #.Y $.$.Y F.*.=.F.F.=.J.J.J.*.J.G.*.",
"H.=.$.*.*.=.J.J.=.=.*.J.J.H.*.*.J.=.=.H.H.H.&.*.J.J.H.J.J.J.J.H.G.F.*.&.*.F.G.J.$.=.*.H.H.=.*.*.G.*.=.J.J.J.&.*.J.J.F.H.J.J.J.F.",
"H.&.=.=.*.$.*.J.J.=.H.H.H.=.H.H.J.F.J.J.J.J.H.H.G.H.H.G.G.J.&.J.H.&.*.F.*.$.*.J.G.F.H.H.F.F.F.G.J.F.J.J.J.J.J.H.J.H.F.J.J.J.*.J.",
"=.J.H.=.F.&.J.=.H.H.H.=.J.J.=.J.F.J.G.J.F.F.J.*.*.J.$.G.*.F.&.J.=.G.F.F.F.&.G.F.G.H.F.F.J.J.F.J.F.J.G.J.F.=.J.*.=.J.$.H.*.F.&.J."
};
