/* XPM */
static char *result[] = {
/* columns rows colors chars-per-pixel */
"64 64 245 2 ",
"   c #160C0D",
".  c #18110E",
"X  c #1A0D11",
"o  c #1E0E1A",
"O  c #1C1115",
"+  c #1E1A17",
"@  c #290807",
"#  c #330504",
"$  c #3C0304",
"%  c #360D0C",
"&  c #291A0A",
"*  c #37170B",
"=  c #250B16",
"-  c #261719",
";  c #3B1C13",
":  c #1E2814",
">  c #2A260E",
",  c #392208",
"<  c #272515",
"1  c #352614",
"2  c #293617",
"3  c #373719",
"4  c #2D1622",
"5  c #361628",
"6  c #360833",
"7  c #3A1536",
"8  c #382825",
"9  c #32252D",
"0  c #373725",
"q  c #4D0101",
"w  c #460808",
"e  c #540102",
"r  c #5C0101",
"t  c #56050C",
"y  c #560D0F",
"u  c #461A09",
"i  c #471A17",
"p  c #630101",
"a  c #6A0101",
"s  c #680A09",
"d  c #740101",
"f  c #7C0201",
"g  c #770B06",
"h  c #68150C",
"j  c #741307",
"k  c #770C14",
"l  c #46260A",
"z  c #55270A",
"x  c #4F300E",
"c  c #58350A",
"v  c #4A2815",
"b  c #473815",
"n  c #563812",
"m  c #69270A",
"M  c #65390A",
"N  c #7A320C",
"B  c #643715",
"V  c #500A2C",
"C  c #480936",
"Z  c #63012E",
"A  c #462725",
"S  c #43342A",
"D  c #46283B",
"F  c #4F3530",
"G  c #602724",
"H  c #2C4719",
"J  c #36461A",
"K  c #3A4B1B",
"L  c #2F501C",
"P  c #33541D",
"I  c #3A521D",
"U  c #365B1E",
"Y  c #385E1F",
"T  c #39621F",
"R  c #3B422D",
"E  c #385521",
"W  c #3B5D21",
"Q  c #3C6421",
"!  c #3E6A23",
"~  c #494A19",
"^  c #5A4616",
"/  c #574A16",
"(  c #46581E",
")  c #684809",
"_  c #754B0B",
"`  c #79530A",
"'  c #664817",
"]  c #784915",
"[  c #6C551B",
"{  c #75571A",
"}  c #7D5E1B",
"|  c #57701D",
" . c #7C7817",
".. c #554527",
"X. c #555922",
"o. c #484E33",
"O. c #594738",
"+. c #6E542A",
"@. c #426422",
"#. c #4C6627",
"$. c #426D25",
"%. c #596B2A",
"&. c #447226",
"*. c #487727",
"=. c #457628",
"-. c #477929",
";. c #4A7D29",
":. c #666428",
">. c #716932",
",. c #360948",
"<. c #520C50",
"1. c #51334B",
"2. c #781C61",
"3. c #4A4747",
"4. c #545353",
"5. c #6D584C",
"6. c #746D4F",
"7. c #5F5565",
"8. c #636164",
"9. c #6C6B6B",
"0. c #6F7872",
"q. c #840101",
"w. c #8C0101",
"e. c #860C04",
"r. c #930101",
"t. c #9B0301",
"y. c #8A110D",
"u. c #A70101",
"i. c #B80100",
"p. c #863B0B",
"a. c #96003D",
"s. c #C30100",
"d. c #CB0100",
"f. c #D30100",
"g. c #825A09",
"h. c #845C0A",
"j. c #834C13",
"k. c #885C18",
"l. c #906B0A",
"z. c #87661C",
"x. c #926B1B",
"c. c #98741A",
"v. c #856723",
"b. c #936C22",
"n. c #936729",
"m. c #8B7428",
"M. c #9A7322",
"N. c #987727",
"B. c #85693A",
"V. c #897238",
"C. c #A57B21",
"Z. c #A17E30",
"A. c #930D51",
"S. c #AE044A",
"D. c #81217C",
"F. c #96724D",
"G. c #856954",
"H. c #8B7755",
"J. c #987958",
"K. c #91756C",
"L. c #4E832A",
"P. c #4F882C",
"I. c #50872B",
"U. c #528C2D",
"Y. c #7E8239",
"T. c #7F816E",
"R. c #A88816",
"E. c #A99119",
"W. c #B79218",
"Q. c #948939",
"!. c #AA8526",
"~. c #B78924",
"^. c #B99728",
"/. c #A78C38",
"(. c #AF933A",
"). c #B49537",
"_. c #C2A616",
"`. c #C5962A",
"'. c #CFA925",
"]. c #D6AB2B",
"[. c #CBA539",
"{. c #D7A933",
"}. c #DCB43A",
"|. c #E4B837",
" X c #DACE11",
".X c #F8EF10",
"XX c #E9C529",
"oX c #F6C738",
"OX c #928852",
"+X c #B0954C",
"@X c #B9A550",
"#X c #95876F",
"$X c #AC8C6F",
"%X c #C7B04B",
"&X c #D9B542",
"*X c #E5BC42",
"=X c #C49D7B",
"-X c #D5C25C",
";X c #ECC74D",
":X c #F7CF49",
">X c #F7D658",
",X c #FFE05D",
"<X c #D8C268",
"1X c #F2D565",
"2X c #FBDF7F",
"3X c #FEE364",
"4X c #FAE579",
"5X c #9C3A99",
"6X c #96418C",
"7X c #966D93",
"8X c #7D8783",
"9X c #868786",
"0X c #85948F",
"qX c #939094",
"wX c #969898",
"eX c #B29489",
"rX c #99A396",
"tX c #B7AA89",
"yX c #B29AB0",
"uX c #92A7A3",
"iX c #AFB3B2",
"pX c #C7A588",
"aX c #C5A996",
"sX c #D8A09B",
"dX c #D1B298",
"fX c #D4B49A",
"gX c #D6B9AB",
"hX c #B1C1BE",
"jX c #D6CC9F",
"kX c #F1CD91",
"lX c #FEE98D",
"zX c #DDC2AD",
"xX c #E5C4A8",
"cX c #F6CBA8",
"vX c #EECEB4",
"bX c #F9D7B9",
"nX c #FFF2B4",
"mX c #B3CBC6",
"MX c #CCD2D0",
"NX c #FFDEC0",
"BX c #D7E0DF",
"VX c #FFE1C2",
"CX c #FFEFDA",
"ZX c #D9E4E2",
"AX c #E7E9E9",
/* pixels */
"&.L.U.U.;.U.U.=.U.L.U.U.I.P.U.U.P.U.U.U.L.U.U.-.P.P.U.P.;.U.U.&.&.L.U.U.;.U.U.&.U.L.U.U.I.U.U.U.I.U.U.U.L.U.U.-.P.P.U.L.;.U.U.&.",
"U.&.;.L.L.=.-.-.;.U.;.;.;.P.;.=.-.L.-.L.=.*.*.-.P.U.U.;.L.;.U.U.U.&.;.;.P.=.;.-.;.U.;.;.;.L.;.=.-.L.;.L.*.*.*.-.P.U.U.L.P.;.U.U.",
"U.U.L.P.=.=.=.=.L.=.P.U.L.I.=.=.-.U.L.=.=.L.P.U.U.U.U.L.&.;.I.=.U.U.L.U.=.=.=.=.I.*.I.I.I.I.=.=.-.U.;.*.*.L.U.I.U.U.I.L.&.-.P.*.",
";.L.L.U.U.U.U.L.=.U.U.U.U.I.U.I.U.U.U.U.U.U.P.L.;.L.;.U.;.I.L.U.L.L.L.P.U.U.U.L.=.U.U.U.U.I.U.L.U.U.U.U.U.U.I.L.L.L.;.U.L.P.L.U.",
"I.*.=.P.U.U.P.L.L.I.U.U.;.U.U.U.U.U.U.U.U.U.U.=.-.*.=.P.U.U.=.U.P.=.-.L.U.U.I.L.;.;.I.L.*.I.U.U.U.U.U.U.U.U.U.*.-.*.=.P.U.U.*.U.",
";.*.-.L.-.;.-.-.=.-.=.L.U.;.L.=.;.-.L.U.U.U.U.-.L.-.&.-.U.U.*.=.L.=.=.P.-.;.! b z h h m n ~ @.T ;.;.;.P.U.U.U.*.;.-.$.-.U.U.=.&.",
";.&.U.=.=.=.=.=.=.=.=.=.;.=.U.U.U.*.-.-.U.U.U.U.U.U.;.U.U.P.=.;.L.&.U.=.=.( k i.d.d.f.f.i.u.f y v 3 I Q ;.;.*.*.-.P.;.U.U.P.=.-.",
"U.*.;.*.=.=.=.=.=.=.=.=.;.U.U.U.U.U.U.U.U.U.U.U.;.L.=.=.U.U.P.U.U.&.-.*.K g d.f.f.f.s.u.r.q.f d p r e u * * % % 7 J =.*.U.U.P.U.",
"L.-.U.U.U.-.-.P.L.I.U.U.U.U.-.U.U.U.L.U.U.U.;.;.P.L.*.*.L.I.I.U.P.=.U.&.j d.f.f.d.u.r.w.f f f a a p r r q q q V <.E *.=.;.I.L.U.",
"U.-.U.U.U.;.=.U.U.U.=.U.U.U.U.U.L.U.;.U.U.U.I.U.U.U.*.-.U.U.I.L.P.*.;.z s.f.f.d.u.r.w.w.q.f d d a p r e t t 5 R &.U.*.-.U.U.I.L.",
"-.L.-.U.U.U.;.-.=.U.;.U.&.U.U.P.U.U.U.U.U.U.U.U.U.U.U.U.U.U.I.L.=.P.b u.f.f.d.u.r.r.w.f a p p r r q w i 8 W ;.U.U.U.U.U.U.U.L.L.",
"P.P.P.U.U.-.U.-.I.I.L.L.U.U.=.=.P.U.U.&.U.U.U.U.U.;.I.=.U.L.U.U.I.W g f.f.f.i.r.r.w.w.q.a q $ # - Q *.Q P.U.P.U.U.;.I.=.U.;.U.U.",
"P.U.U.;.U.U.U.U.U.U.U.L.U.U.;.=.-.*.L.L.U.U.I.-.U.U.P.P.U.U.U.U.=. .l.t.d.f.u.t.r.w.q.q.f d a a V W I.;.U.U.U.;.U.U.I.L.U.U.U.U.",
"U.U.-.-.U.U.U.U.-.-.;.U.U.U.=.=.-.-.;.;.*.*.I.I.U.U.U.U.U.U.U.U.|  X.X_.j.t.r.r.r.w.q.q.f d a a Z 3 L.;.-.-.;.U.U.U.U.U.U.U.U.U.",
";.U.=.-.;.-.-.-.-.L.=.;.U.U.U.U.U.U.U.U.U.U.U.L.*.;.$.&.W K ( b  ..X.X.X.X_.l._ m j a s a r t q t 3 L.U.U.U.U.U.L.U.;.U.=.=.U.U.",
"P.P.U.L.-.L.-.-.-.L.-.I.U.U.U.U.;.U.U.U.U.U.&.l y j g e.r.u.i.s.y.R..X.X.X.XXX'.^.R.c.h.` ` ` ) ) ) &.U.U.U.L.=.P.U.=.U.;.P.-.U.",
"U.-.U.U.U.U.U.;.=.=.=.U.U.;.U.U.U.U.P.I.P.;.%.s u.f.f.f.f.f.f.f.d.u.p.R. X.XXX].`._.W.R.R.l.l.g.` g.( L.I.L.U.U.U.U.P.U.U.U.L.U.",
"U.I.U.;.U.U.U.U.U.U.U.U.U.;.=.U.P.;.U.U.;.I.-.z r.d.f.f.f.f.f.f.f.f.d.u.q.j.h.c.R.W.R.R.c.l.h.` _ _ J L.L.I.;.-.L.L.L.L.U.U.U.U.",
";.U.;.P.U.U.;.U.U.U.U.;.U.L.L.=.;.-.P.U.;.;.;.@.s t.f.f.f.f.f.f.f.f.f.f.f.d.t.f g j m M ) ) ) c l w # 1 U ;.;.L.L.;.-.-.;.U.P.U.",
"U.P.;.I.I.;.I.;.I.I.U.U.I.;.;.I.;.U.U.U.=.=.;.=.K s t.s.f.f.f.f.f.f.f.f.d.f.s.t.r.w.q.f f a p p e w w t V 8 W $.*.*.*.-.U.P.U.L.",
";.I.U.;.;.;.P.P.;.;.U.;.U.U.U.U.U.U.U.U.=.=.=.=.-.E u g r.r.t.t.r.w.q.w.r.t.u.t.w.w.w.q.f f d p r r r e t Z C 5 H Q &.I.U.=.U.U.",
"U.U.P.;.&.=.U.U.U.U.U.;.U.U.U.U.U.U.U.U.U.=.=.=.P.! OX).] N j._ k.n.n.k.j.p.m g g a d q.q.d d a p p r r q q t V <.C 3 &.-.U.U.U.",
"U.U.U.U.P.P.U.;.I.;.I.U.U.P.U.U.U.=.U.U.U.U.U.U.-.6.4X}.!.|.|.c.%X*X1X>X|.{.'.^.k.m e p a d d a p r r e q q w $ $ V = H ;.I.U.U.",
";.I.;.U.U.U.U.L.U.;.U.U.U.U.;.=.U.;.U.=.U.U.U.U.! jX<X!.:XoX].^ %XZ.@X4X;X|.{.{.c.v.N.u q e p p a p r e e q $ $ # @ @ E I.I.U.&.",
";.U.U.;.&.P.U.U.-.-.L.P.I.;.;.I.U.U.U.L.U.U.U.I.6.kX| @X,XoX^.O.%XG.OXnX2X;X|.`.] V.[.F [ ' w q q e e q q w $ # @ @ P L.U.L.;.P.",
"U.P.U.U.U.;.U.U.-.P.;.=.;.U.U.U.P.$.=.U.U.U.U.;.OXQ.P -X,XoXR.G.(.OX#XkXlX>X{.b.K.OX/.$XF.}./.] z u % $ # # @ & 2 &.;.U.I.U.U.I.",
"I.U.;.;.P.P.L.U.;.-.U.P.U.;.I.*.L.U.U.;.;.U.U.;.:.%.$.%X,XoXC.eX6.$XaX@X>X|.c.H.pX>.OXvX$X[.|.`.~.{ N./ L @.&.P.*.U.U.U.*.*.U.U.",
"I.;.;.I.U.U.U.U.U.P.-.U.;.U.P.P.P.U.=.-.;.L.U.P.H *.&.tXlX:XZ.fXH.+.=XOX&X!.G.$X+.v $XbXaX(.*X`.`.z.`.N.$.;.U.U.P.U.;.L.*.U.U.L.",
"I.;.;.;.U.I.U.U.U.P.I.U.U.U.U.I.U.P.&.U.;.;.L.L.! P.L.tXnX3XQ.6.1.D G.dXH.$XaX5.<.1.1.=XdX+X1X*X}.k.~.!.@.I.L.L.;.U.U.U.-.U.P.-.",
"I.;.*.;.;.;.U.U.;.L.;.U.U.;.;.;.U.;.;.U.P.U.&.&.U.U.! OXlX3X+X0.9X7X1.gXbXVXbXqXwX6 7.7XaX+XlX>X{.' ~.`.X.I.*.*.U.U.P.I.P.U.U.P.",
"I.*.;.;.;.#.-.U.P.;.P.P.I.;.P.U.U.L.U.U.U.U.P.I.U.P.P.:.4X>X^.tXyX1.6 aXNXNXbXK.1.C 7XMXpX@X2X*XC.] ~.`.z.&.I.P.U.P.P.I.U.P.*.U.",
";.U.;.;.;.-.U.;.P.P.I.;.U.U.;.U.L.U.P.U.P.I.U.;.;.U.&.#.-X>X'.$XgXD.D.aXNXbXbX7X<.2.yXCX=X+X;X`.k.b.`.~.C.( U.*.;.U.=.P.-.P.=.U.",
"=.L.U.U.L.U.U.&.U.L.U.U.P.P.U.P.P.U.U.U.L.U.U.;.I.P.U.&.Q.,X|.G.zX7X6XgXbXNXVXeX5X5XMXNXJ.&X{.~.] !.~.~.~.z.&.;.I.I.U.I.;.U.U.*.",
"U.$.;.L.L.=.*.-.;.U.L.-.L.L.L.=.-.L.-.L.=.=.*.-.I.U.U.L.#.-XoXm.K.gXgXNXbXxXbXvXeXaXbXkXF.&X'.x.} ~.~.~.~.C.m.#.I.U.U.;.I.;.U.U.",
"U.U.;.P.=.=.*.-.P.-.P.U.L.P.-.*.-.U.L.=.=.L.U.U.U.L.L.;.P >.>X^.v.H.xXNXpXK.$XNXVXbXkXJ.V.*X~.n 1 z.C.C.C.C.N.N.:.*.L.;.$.;.I.*.",
"L.L.P.U.U.P.U.;.&.U.U.U.P.P.P.L.U.U.U.U.U.P.P.L.L.P X.Y.V.m./.}.^ 5 F #XsXcXvXzX=XG.8 - ).{.] =   1 M.C.C.C.v.N.~.V.:.( @.I.I.U.",
"P.*.=.P.U.U.I.P.L.P.U.I.-.P.U.P.U.U.U.U.U.U.U.-.*.Q >.(./.oXN.m.} 5 9 5 A O.5.S 4 4 o F ].z.8.9X4 . / c.} b.N.} v.N.m...-.U.-.U.",
";.*.-.L.*.$.I J K W &.P.U.L.P.*.;.-.L.U.U.U.U.-.;.;.Q X.&XoX^.+ < 4 D 9 8 3.J.S n 4 + v.{ 4.MXZX0X+ 1 N.b.{ x.c.k.~ I ! U.U.&.&.",
";.=.U.&.K 3 x i i v 3 U -.-.U.U.P.*.*.=.U.U.U.U.U.U.$.(.oX'.!.O 4.1.D 8 v.[ B.+.+.- - v 3.MXAXBXMX8X+ } c.} [ b.b.v.( U.U.P.-.;.",
"U.&.-.K ) _ v 7 <.6 A l K P.I.U.U.U.U.P.U.U.U.U.L.L.%.;X}.).!.O qX9X1.D D 6.} eX3.1.0 7.qXAXAXBXmXmX3./ b.v.' } v.M.X.=.U.U.L.U.",
"L.=.@.) h.c V A.2.<.,.i z J Y Q $.P.P.U.U.U.;.L.I.&.Q.oX^.[.!.O qXiX9.8.4.#X#XMX0.T.uXmX9.mXAXBXMXmX0X0 z.z.{ ' v.M.+.! L.P.P.U.",
"U.! ~ h.h.G a.S.S.A.,.% z u * z l J J J W L.L.U.U.&.%XoX!.}.N.o wXBX9XwXhXhXT.hXhXuX8X4.0 8XiXrXuXiXmXR ' v.b.b k.b.[ ! P.U.P.L.",
"=.@.) h.h.m A.sXA.<.6 1 z z * l z u * z v 3 ! U.U.*.&X].>.|.} o iXZXuXo.T.#X6.6.6.o.o.0.wX3.^.`.Q.>.0X8.b z.b.b ' n.X.P.U.U.L.L.",
"P.@._ h.h.) B D.G V v G v z z * c c u l m c , K ;.$.).N.:.|.+.< #XqX8.0.9.6.....T.8XuX8X3.* +.OXV. .[ 3.1 z.n.' ~ { @.*.U.L.U.P.",
"U.*.^ g.h.` ' B B B ' M x c M z ; ) M u c _ ) c b 3 / 3 X.).b 1 E.E.{ F 9.0.i A 0.8.F k % % S xXkXB.M * = [ M.X.J ( L.P.U.P.U.U.",
"U.I.K ) h.h.g._ _ ` g.j.x x M M z l c M , l ) M M c c l l l ; = > b ^ w s w % y y w s y.% w @ K.cXO.c , 4 n n.( W *.U.U.U.U.U.U.",
";.U.&.J ) h.g.g.h.g.h.` b T ~ ~ x l > K I W ! $.Y ( I I 1 v & * F A * t k k # y y e k k # w = - X., l & 4 A / *.L.P.L.I.=.=.U.U.",
"I.L.U.-.K n _ g.g.g.` ^ *.U.P.L.! =.;.U.U.U.L.-.L.U.*.U.! 3 o 4 K.H.- w t y.w w w w k y @ i % o , l , . X 7 2 &.L.U.=.U.;.P.*.U.",
"U.*.U.U.I.$.~ n n n ~ @.U.L.U.U.P.U.P.P.P.;.U.U.U.U.U.U.I.2 o o 4 - o = w s y % @ w t # % % O - & * . .   4 5 I U.U.P.U.U.U.L.U.",
"U.I.U.L.U.U.L.=.$.$.L.U.U.;.*.U.P.L.U.U.L.P.L.-.L.L.L.L.$.4 o o o o - o o @ % = ; % @ @ @ = O C 5 - : + . X 4 + P P.L.L.U.U.U.U.",
"L.U.*.P.U.I.L.U.U.U.U.L.U.P.L.*.*.=.P.U.*.;.;.L.;.L.=.=.0 4 o o o o o o o 4 5.G.aX$XF.F.+.4 - 8 E ! ;.*.P H 2 H E ;.-.-.L.U.P.U.",
"U.L.L.P.P.*.L.L.L.L.U.U.L.&.L.L.P.U.U.U.*.=.;.=.=.=.&.L 4 4 4 : 2 2 : + O 4 tX#XfXNXbXcXJ.< U L.L.U.U.P.=.=.L.=.*.=.=.-.U.P.P.L.",
"L.L.U.L.*.L.I.P.L.=.U.;.U.U.U.P.U.U.P.U.=.=.=.=.=.=.=.E 0 2 ! L.-.! ! Q H : 0 O.5.5.G.H.o.T T T ! =.-.L.&.=.-.=.*.*.=.I.U.&.U.U.",
"U.U.P.*.=.=.U.U.P.U.U.L.U.U.U.U.U.U.U.U.U.=.=.*.L.L.;.L.L.P.! ! Q Q Q L L H 0 F O.A ..b > T T T T T T T T T ! -.;.L.;.I.;.U.U.U.",
"U.U.U.U.P.P.U.*.L.L.L.U.U.P.U.U.U.-.U.U.U.U.U.U.U.U.U.I.! Q U T T T Q T T U L - < > 1 & H U T T T L T T T T T ! L.U.U.U.;.U.U.U.",
"L.L.L.U.U.I.U.P.P.L.U.P.U.U.L.*.U.-.U.=.U.U.U.U.U.U.U.! W W T L U U U T T T T < 1 ; & > U T T L T P T L T T T T Q P.U.-.P.I.U.&.",
"-.U.U.;.&.U.U.U.=.=.L.P.P.*.L.P.U.U.U.L.P.U.U.U.&.U.P.T T U U U L T T U L T U < > & & 2 U L U U T T T U Y T T T L ;.P.P.P.P.-.P.",
"U.U.U.U.U.;.U.U.*.P.L.*.L.U.U.P.P.&.&.U.U.U.U.U.&.U.;.;.T T T T T T T T T P T 2 > & & H U T T T U L L T T T T Q E P.L.U.P.U.U.I.",
"L.U.;.L.L.U.L.U.;.;.U.P.U.L.P.*.;.U.U.L.;.U.U.U.=.U.P.U.T T T T U T U U U T T U H : H T T U T L U T T U P T ! -.=.U.U.U.*.-.U.U.",
"I.;.;.L.U.U.U.U.P.P.*.P.*.U.U.P.P.U.*.-.L.L.U.U.P.U.L.L.;.U.L.&.! U U U T T T T T T P T P T T T T T P U ! =.P.U.L.P.L.L.*.U.U.P.",
"U.*.;.P.U.P.U.U.U.P.U.I.U.P.U.P.U.I.&.U.;.L.;.L.*.U.U.P.L.P.P.*.P.&.=.&.-.! =.! ! T &.! &.! &.&.*.L.! P.;.L.L.L.-.U.U.I.-.U.P.-.",
"I.;.*.*.-.L.U.U.;.P.*.I.U.L.-.-.U.;.;.I.P.P.*.*.U.U.P.U.P.U.U.P.P.L.=.=.-.L.U.U.*.L.*.P.P.L.*.*.P.-.L.U.I.U.*.*.U.U.P.U.P.U.U.P.",
"P.=.;.;.-.$.*.I.P.L.P.P.L.L.P.P.U.L.U.U.U.U.P.P.I.P.P.P.P.P.*.U.P.=.;.;.L.! ;.U.P.L.P.P.P.L.P.P.U.P.P.U.U.U.U.I.U.I.L.U.P.U.*.P.",
";.U.L.;.P.*.U.-.P.P.P.L.I.U.L.U.L.U.P.U.P.L.U.;.;.U.&.P.;.L.=.P.L.P.L.L.L.=.P.L.P.L.L.P.U.P.;.U.P.U.P.U.I.;.U.-.;.U.$.P.-.P.-.U."
};
