/* XPM */
static char *result[] = {
/* columns rows colors chars-per-pixel */
"64 64 244 2 ",
"   c #150C0E",
".  c #1A110B",
"X  c #1A0E13",
"o  c #1B0E15",
"O  c #1B1514",
"+  c #280808",
"@  c #360607",
"#  c #3A0202",
"$  c #27190B",
"%  c #391A09",
"&  c #320D13",
"*  c #261818",
"=  c #391817",
"-  c #29240B",
";  c #38270E",
":  c #2A2813",
">  c #332415",
",  c #372919",
"<  c #283816",
"1  c #393A16",
"2  c #2B1522",
"3  c #381728",
"4  c #361330",
"5  c #372927",
"6  c #353426",
"7  c #3B2133",
"8  c #342F30",
"9  c #430101",
"0  c #4C0101",
"q  c #450A0B",
"w  c #530101",
"e  c #5C0201",
"r  c #5C060C",
"t  c #481B0A",
"y  c #57180A",
"u  c #460716",
"i  c #4E0E14",
"p  c #630101",
"a  c #6B0001",
"s  c #630A08",
"d  c #740201",
"f  c #7C0201",
"g  c #760B03",
"h  c #700F0F",
"j  c #671907",
"k  c #43230B",
"l  c #462A09",
"z  c #56270A",
"x  c #4A330C",
"c  c #59370A",
"v  c #492518",
"b  c #5E221E",
"n  c #4A3814",
"m  c #563B15",
"M  c #712B0B",
"N  c #66380A",
"B  c #653B17",
"V  c #4D0D2F",
"C  c #48132A",
"Z  c #740732",
"A  c #4D2B2B",
"S  c #453626",
"D  c #533A29",
"F  c #482B3A",
"G  c #483735",
"H  c #2B4419",
"J  c #2E4C1A",
"K  c #3B4519",
"L  c #39491B",
"P  c #2F511A",
"I  c #32541C",
"U  c #3C531D",
"Y  c #365B1D",
"T  c #395D1F",
"R  c #39621F",
"E  c #384622",
"W  c #395A22",
"Q  c #3B5D21",
"!  c #3F4236",
"~  c #3C6422",
"^  c #3E6A24",
"/  c #464516",
"(  c #4D4C14",
")  c #5B4719",
"_  c #58521D",
"`  c #68450A",
"'  c #764D0B",
"]  c #795507",
"[  c #7C530C",
"{  c #664B18",
"}  c #704710",
"|  c #67541C",
" . c #775819",
".. c #7C5C1C",
"X. c #7F601B",
"o. c #5A4926",
"O. c #455D20",
"+. c #50512E",
"@. c #554235",
"#. c #6C5827",
"$. c #6F532D",
"%. c #695837",
"&. c #426322",
"*. c #426D24",
"=. c #486A26",
"-. c #586528",
";. c #447226",
":. c #497727",
">. c #457628",
",. c #477929",
"<. c #4A7D29",
"1. c #5E6F3B",
"2. c #726B31",
"3. c #4F044E",
"4. c #522B4E",
"5. c #622B5D",
"6. c #524D50",
"7. c #745A46",
"8. c #695650",
"9. c #54605C",
"0. c #77644D",
"q. c #6E7055",
"w. c #6A6668",
"e. c #73796E",
"r. c #787677",
"t. c #840101",
"y. c #8C0101",
"u. c #870D05",
"i. c #940101",
"p. c #990401",
"a. c #8D120E",
"s. c #A80201",
"d. c #B30100",
"f. c #BC0100",
"g. c #980C2B",
"h. c #C30100",
"j. c #CB0100",
"k. c #D40100",
"l. c #865709",
"z. c #855D09",
"x. c #8A5312",
"c. c #906C0C",
"v. c #84631D",
"b. c #8A691C",
"n. c #946A1D",
"m. c #9B7715",
"M. c #A57F18",
"N. c #886924",
"B. c #926C21",
"V. c #8C772E",
"C. c #967526",
"Z. c #9B7421",
"A. c #A77D23",
"S. c #991A60",
"D. c #C73F74",
"F. c #977946",
"G. c #8B7051",
"H. c #8A7359",
"J. c #824C79",
"K. c #8D776C",
"L. c #AB6368",
"P. c #4D832A",
"I. c #4F882C",
"U. c #50872B",
"Y. c #528C2D",
"T. c #798274",
"R. c #919316",
"E. c #A78519",
"W. c #B19619",
"Q. c #B7A413",
"!. c #918335",
"~. c #AB8426",
"^. c #B38625",
"/. c #BB8C24",
"(. c #B99627",
"). c #A88B3A",
"_. c #B79937",
"`. c #B09239",
"'. c #C29E1C",
"]. c #C8B216",
"[. c #C4972B",
"{. c #C9A429",
"}. c #D7AB2B",
"|. c #D6AB2F",
" X c #DCB238",
".X c #E5B52E",
"XX c #E3B638",
"oX c #F0DD16",
"OX c #FCF20F",
"+X c #F7C93A",
"@X c #91844D",
"#X c #A78E4C",
"$X c #A89546",
"%X c #B8A851",
"&X c #95876C",
"*X c #AD8E73",
"=X c #A5A46F",
"-X c #CBB44D",
";X c #DBB742",
":X c #E6BB41",
">X c #C09B74",
",X c #F0CB4B",
"<X c #F1CC5A",
"1X c #F9D758",
"2X c #ECD670",
"3X c #FFE567",
"4X c #FFE876",
"5X c #A731A4",
"6X c #954787",
"7X c #95698D",
"8X c #A56A85",
"9X c #778680",
"0X c #8C8F8E",
"qX c #85928C",
"wX c #B09293",
"eX c #BDA38F",
"rX c #9AB0AC",
"tX c #A9A9A9",
"yX c #A4B6B3",
"uX c #B4BBB9",
"iX c #C9AF8F",
"pX c #C6A896",
"aX c #D3B499",
"sX c #E3B089",
"dX c #CCB5A1",
"fX c #D6B7A2",
"gX c #E3BEA0",
"hX c #B9C2BF",
"jX c #EDDA8A",
"kX c #FCE589",
"lX c #DEC2B3",
"zX c #EAC5AA",
"xX c #F7CBAB",
"cX c #F5D0B0",
"vX c #F8D9BB",
"bX c #FDEDA3",
"nX c #B8D0CC",
"mX c #CED4D2",
"MX c #E7D6C7",
"NX c #FFDEC1",
"BX c #FFE0C2",
"VX c #F6EAD1",
"CX c #DEE4E3",
"ZX c #E6E7E7",
/* pixels */
";.P.Y.Y.<.Y.Y.;.Y.P.Y.Y.U.Y.Y.Y.U.Y.Y.Y.P.Y.Y.<.P.P.Y.P.<.Y.Y.>.>.<.Y.Y.<.Y.Y.;.Y.P.Y.Y.Y.P.Y.Y.I.Y.Y.Y.<.Y.Y.<.P.I.Y.P.P.Y.Y.>.",
"Y.;.<.P.P.>.,.<.<.Y.P.,.<.P.<.>.,.P.,.P.>.>.>.,.Y.Y.Y.P.P.<.Y.Y.Y.;.<.P.U.>.>.<.<.Y.P.<.<.P.<.>.,.<.<.P.,.,.,.,.Y.Y.Y.<.P.<.Y.Y.",
"Y.Y.P.U.>.>.>.>.P.,.Y.Y.P.U.>.>.>.Y.P.>.>.P.Y.Y.Y.Y.Y.P.;.<.Y.,.Y.Y.P.U.>.>.>.>.P.,.I.I.I.I.,.,.,.Y.P.,.>.<.Y.Y.Y.Y.Y.P.=.<.I.,.",
"P.P.P.Y.Y.Y.Y.P.;.Y.Y.Y.Y.U.Y.P.Y.Y.Y.Y.Y.Y.U.P.P.P.<.Y.P.P.<.Y.P.P.P.Y.Y.Y.Y.P.;.Y.Y.Y.Y.I.Y.P.Y.Y.Y.Y.Y.Y.Y.<.<.P.<.Y.P.I.<.Y.",
"U.>.>.U.Y.Y.P.P.P.P.Y.Y.,.Y.Y.Y.Y.Y.Y.Y.Y.Y.Y.>.,.>.>.P.Y.Y.>.Y.I.>.,.P.Y.Y.P.P.P.P.Y.I.>.I.Y.Y.Y.Y.Y.Y.Y.Y.Y.<.>.,.,.P.Y.Y.,.Y.",
"<.>.,.P.<.<.,.,.,.,.>.P.Y.P.P.>.<.,.P.Y.Y.Y.Y.,.P.,.;.,.Y.Y.>.;.<.>.,.P.<.<.,.,.>.,.>.I.Y.P.I.,.<.,.<.I.Y.Y.Y.<.<.,.;.>.Y.Y.>.>.",
"<.;.Y.>.>.>.>.>.>.>.>.>.<.,.Y.Y.Y.>.^ ~ &.O.~ ;.I.Y.P.Y.Y.I.,.P.P.>.Y.>.>.>.>.>.>.>.,.>.,.,.Y.Y.Y.>.>.>.Y.Y.Y.Y.Y.Y.<.Y.Y.Y.>.<.",
"Y.>.<.>.>.>.>.*.>.>.>.>.<.Y.P.<.&.m j u.s.s.s.u.n *.>.>.Y.Y.P.Y.Y.>.<.,.>.>.>.>.>.>.>.>.<.Y.I.Y.Y.Y.Y.Y.Y.Y.Y.Y.<.P.>.,.Y.Y.P.Y.",
"I.,.Y.Y.I.,.E A , U >.<.;.O.1 y f s.f.k.k.k.k.k.d.b Q ,.P.U.U.Y.P.>.Y.Y.Y.<.>.I.P.I.Y.Y.Y.Y.>.Y.Y.Y.<.Y.Y.Y.,.<.I.P.>.>.<.Y.P.Y.",
"I.,.Y.Y.Y.<.E 3.9 # @ q q w p d f t.y.p.d.j.k.k.k.f.j &.Y.Y.U.P.Y.>.Y.Y.Y.P.>.Y.Y.Y.,.Y.Y.Y.Y.Y.Y.Y.<.Y.Y.Y.P.Y.Y.Y.>.,.Y.Y.Y.<.",
",.P.<.I.Y.Y.,.6 V w w w e p a a d f t.y.y.p.d.k.k.k.h.z <.Y.P.P.>.P.,.Y.Y.Y.<.>.,.Y.P.Y.;.Y.Y.P.Y.Y.Y.Y.Y.Y.Y.Y.Y.Y.Y.Y.Y.Y.<.P.",
"I.I.I.Y.Y.,.Y.,.W 3 u e e p a a d f t.t.y.i.i.d.k.k.k.d.x :.Y.Y.Y.Y.P.Y.Y.>.Y.,.P.P.P.P.Y.Y.>.>.P.Y.Y.;.Y.Y.Y.Y.Y.P.Y.;.Y.P.Y.Y.",
"I.Y.Y.P.Y.Y.Y.Y.Y.,.E = q w e p p p e d t.i.i.p.f.k.k.k.y.L I.Y.I.Y.Y.P.Y.Y.Y.Y.Y.Y.Y.P.Y.Y.<.>.,.>.<.P.Y.Y.Y.<.Y.Y.Y.P.Y.Y.Y.Y.",
"Y.Y.>.,.Y.Y.Y.Y.:.,.<.P.;.&.$ @ # 0 a f y.y.i.i.s.k.k.s.l.Q.;.Y.Y.Y.,.,.Y.I.<.,.^ >.P.Y.Y.Y.,.,.>.,.<.<.>.<.<.Y.Y.Y.Y.Y.Y.Y.Y.Y.",
"<.Y.>.,.<.>.<.,.>.P.>.P.Y.I.A e p d f t.t.y.i.i.p.d.a.m.oXOXR.<.*.;./ / n z y y ~ P.,.<.Y.Y.Y.Y.Y.Y.Y.Y.Y.Y.Y.Y.<.Y.<.Y.>.>.Y.Y.",
"I.P.Y.P.,.P.,.,.,.U.>.P.Y.,.V p a d d f f t.t.f M c.].OXOXOXQ.z h p.s.d.d.j.d.d O.P.>.<.Y.Y.Y.Y.P.Y.Y.Y.Y.Y.P.,.P.Y.>.Y.<.Y.>.Y.",
"Y.,.Y.Y.Y.Y.U.,.>.>.>.Y.Y.Q u 0 w e e j j N z.E.].oXOXOXOXQ.a.h.k.k.k.k.k.k.s.s &.,.,.Y.Y.U.Y.Y.Y.Y.Y.P.Y.<.Y.Y.Y.Y.Y.Y.Y.Y.P.Y.",
"Y.I.Y.P.Y.Y.Y.Y.Y.Y.Y.Y.Y.O.` N ` ] ] c.E.W.{.].}.oXOX].l.p.k.k.k.k.k.k.k.h.y.m Y.Y.Y.Y.Y.<.>.Y.Y.<.Y.Y.P.P.<.<.P.P.P.<.Y.Y.Y.Y.",
"P.Y.,.Y.Y.Y.P.Y.Y.Y.Y.U.U._ l.] z.c.c.E.W.W.'.{.(.E.x.u.f.k.k.k.k.k.k.k.k.p.y :.Y.Y.Y.P.Y.P.P.,.>.>.Y.Y.,.<.<.P.P.<.<.>.<.Y.Y.Y.",
"Y.I.P.P.P.,.P.<.P.U.Y.Y.:./ l.' z.c.c.E.m.c.[ M g p.h.k.k.k.k.k.k.k.k.f.y.y &.<.P.P.Y.Y.<.>.P.<.P.Y.Y.Y.>.>.<.>.>.>.>.<.Y.Y.Y.<.",
"P.P.Y.<.<.<.Y.U.<.:.Y.:.J % l c N ` N z j d t.y.i.h.k.k.k.j.h.f.s.s.u.s ; &.U.Y.<.>.Y.<.Y.Y.Y.Y.Y.Y.I.Y.>.>.>.>.,.,.,.Y.Y.;.Y.Y.",
"Y.Y.Y.>.>.>.Y.Y.Y.Y.Y.L @ # 0 w e p d f t.y.i.i.s.d.s.i.t.f g j M M B.`.-.~ Y.Y.Y.Y.Y.<.Y.Y.Y.Y.Y.Y.Y.Y.Y.>.>.>.<.<.<.<.<.Y.Y.Y.",
"Y.Y.Y.Y.Y.Y.Y.,.U.:.6 V s w 0 w p d f f t.y.f f t.f M M v.A.(.(.}.{.(.,X<X1.<.<.<.<.P.Y.Y.Y.Y.Y.Y.>.Y.Y.Y.Y.Y.Y.Y.Y.Y.Y.<.Y.Y.Y.",
"P.P.<.Y.Y.Y.Y.P.*.5 3.r w e p p a d d f f p s M n.^.|..X1X2X,X_.E.+X}.~.,XjX1.<.Y.P.Y.Y.Y.Y.P.>.Y.<.Y.>.Y.Y.Y.Y.Y.Y.Y.,.Y.P.Y.;.",
",.Y.Y.P.*.Y.<.E V V r 0 w e p p a d d a w y m A.}..XXX,X4X%X_.$X{ .X+X,X!.2XeX,.>.>.P.Y.P.>.<.I.Y.Y.Y.P.Y.Y.Y.Y.>.Y.Y.I.Y.P.,.I.",
"Y.U.Y.Y.Y.~ 5 3.V 9 9 0 w w e p p a e 0 y `.$...{.XX,X2XbX@XF.%Xo.{.+X3X).2.2X@X*.U.<.>.P.Y.Y.Y.U.;.>.Y.Y.Y.Y.Y.>.Y.<.Y.I.Y.Y.Y.",
"P.U.<.P.P.< & u # 9 9 0 w w e p p w q %.H._.#XK.A.|.<XkXjX&X&X$XG./.+X1X-XR 1.$XO.<.Y.Y.Y.<.I.>.P.Y.Y.<.<.Y.Y.Y.,.Y.Y.Y.>.,.Y.Y.",
"U.<.U.<.I.E + + @ # 9 0 0 w w 0 # D N.*XzXH.N.K.G.Z.;X1X;X*XiX2.K.~.+X3X%X^ P.-.W P.>.Y.<.Y.Y.Y.Y.Y.>.>.P.<.Y.Y.1.Y.P.P.,.Y.Y.P.",
"Y.>.<.P.Y.P.Q : + + @ @ @ # @ t v. X).aXxXK.o.N.iXH.C.XX`.H.*X*X*X(.+XbX=X,.Y.I.W P.Y.Y.Y.Y.Y.P.Y.Y.*.Y.<.U.<.P.,.P.<.P.,.I.I.,.",
"Y.<.>.>.<.<.Y.P.R P < m { c B [. X<X#XaXG.A 4.4.K.cXpXH.2.D F K.*X_.3XvX&X^ Y.Y.,.P.>.I.Y.<.,.<.Y.,.<.Y.U.Y.;.U K ; x / ~ P.Y.P.",
"U.;.<.P.,.;.,.Y.U.P.O.~.[.n. .:X<XkX#XpXw.4.5.0XeXNXNXvXK.5.7Xw.q._.4XbXY.^ ^ Y.P.P.I.P.P.P.P.Y.Y.P.Y.Y.Y.<.1 v v v N ' } ( ~ Y.",
"<.Y.<.P.<.,.U.<.U.&. ./.[.Z.m [.<XkX*XdXuX5.7 J.pXNXNXNXJ.F 0XlX0._.1X2X1.,.Y.I.I.Y.P.P.Y.Y.P.Y.I.Y.P.Y.,.1 A 4 3.3.C c z.[ ( >.",
";.<.Y.Y.<.Y.Y.>.:...^./././.v.n.|.<X#XfXCX6X3.5.dXNXNXvX6X3.w.MX2.|.1X%X*.Y.Y.;.Y.P.Y.Y.Y.Y.Y.Y.I.Y.Y.Y.L k 4 3.S.g.g.b ' l.[ / ",
"Y.W U ;.<.;.&.-.B.M.^.^././.M. ./.:X[.eXVX7X5X6XzXNXNXNX7X5XwXdX#.XX3X!.,.,.,.,.<.Y.P.<.<.P.<.>.,.P.<.&.; z 4 3.S.S.D.Z } l.z.) ",
"Y.>.n 2.#.2.C.A.Z.A.^.^.^././.X.B.|.;XF.xXfX8XpXNXvXNXBXfXwXdXF.B.+X<X=.,.,.;.,.P.,.P.Y.P.U.>.,.;.Q L : t y 4 V g.D.7Xb ' z.z.( ",
"<.U.O.B.).^.C.v.Z.A.A.A.~.^.b.o.B A.XX).>XvXNXvXaXK.L.lXNXaXF.(.C.,X!.P.Y.I.Y.P.;.Y.Y.Y.Y.U.P.:.L z l % t z = C V V A B ' z.] ( ",
"U.>.;.O.)  .N.C.Z.b.Z.A.~.| O 2 C { [.;X%.G.>XcXcXxXzXfX&X8 S ) N.;XO.P.Y.Y.P.P.P.Y.Y.Y.,.R K : t z k t z l D B B B } [ z.z.` R ",
"P.>.:.O.N.n.n.b. .v.A.A...E T.uXw.* { [._., 2 G 0.H.8.F 3 7 7 2 N.X.@X2.T ;.,.<.>.:.>.P.*.l z % z c % z N x { [ [ ' l.[ z.' K ;.",
"<.*.&.N.B.n.v.{ N.Z.m.N.q.rXmXCXCXw.o , N.N., 2 G G.* 3 7 7 4.8 _ _.V.$X/ ~ >.>.>.>.>.T ; z z k N c k N N ; c z.z.l.l.z.[ n R ,.",
"Y.*.{ Z.v...) v.n.Z.v.q.nXmXmXCXZXmXw.o * , > n %.G.{ $.4 F e.tXV.+X!.W ;.>.>.>.>.:.R ; c } x z N l z ` ( O./ ` l.[ [ ` / *.U.Y.",
"P.~ ..B.X.m ..N.v...%.yXnXnXmXCXZXmXr.6.4.7 8 w.@Xv.%.D 4.G tXCX&X.X X*.Y.,.>.U.P.&.1 N ` c l c l k x / :.Y.:.T / n n L ;.Y.P.Y.",
"Y.~  .N./ { N.N. .| T.yXqX0XuXCXtXF o 9XyXr.9.0XhXT.9.4.w.e.nXCXhX@X X1.Y.P.*.*.K x N N ( 1 K U W ~ ^ Y.Y.Y.U.Y.P.P.^ ,.Y.Y.P.P.",
">.>.o.| 1 N.b...{ | w.2.R./._.T.2     ! rXrXyXnXhX@XtXyXqX9XnXmXuX@X!.!.;.T 1 k z x K ^ ^ Y.Y.P.I.Y.Y.Y.Y.Y.Y.Y.Y.Y.Y.Y.Y.Y.P.P.",
"I.I./ L _ Z.v.)  .) c ..V.F.).n   X 8 9.8 +.q.K.&X0.0Xe.8 qXnXnX@XQ.#.+.> t t 1 U ;.P.P.Y.Y.,.>.P.Y.Y.;.U.Y.Y.Y.Y.P.I.>.Y.P.Y.Y.",
"I.Y.^ W #.B.) / N.m c 2.xXzXG   X   8 qXrXT.9.q.o._ 1.e.9X9.yXq.X./ & % ; K *.P.Y.Y.Y.P.Y.Y.P.>.,.>.P.P.Y.Y.Y.<.Y.Y.P.P.Y.Y.Y.Y.",
"Y.Y.,.^  ...L | b.c ; %.iX8..   X   . = 6.r.qX9XG i e.w.8 * 6., % k 7.H.&.Y.Y.Y.,.,.<.Y.Y.Y.,.,.>.>.P.,.,.,.<.P.Y.Y.Y.Y.Y.Y.Y.Y.",
"P.I.,.^ / / *.#...; l l $ . X X X X + u @ h j u i y i s & * @ ; $ @.&Xq.*.>.<.>.,.P.>.<.Y.Y.Y.Y.Y.Y.Y.Y.Y.Y.Y.Y.P.Y.P.Y.>.>.Y.Y.",
"I.P.I.P.W ^ ;._ m * % l . X X X X X o i @ i a.r q @ u r @ X $ l - K J >.<.<.<.,.<.P.>.<.Y.Y.Y.Y.<.Y.Y.Y.Y.Y.U.>.P.Y.>.Y.<.P.>.Y.",
"Y.,.Y.Y.Y.Y.U.K 3 2 . $ . O o o X X X u @ @ j h i + + # & 2 o * L >.Y.Y.Y.I.Y.<.>.,.,.Y.Y.<.Y.Y.Y.Y.Y.P.P.P.Y.Y.Y.Y.Y.Y.Y.Y.<.Y.",
"Y.I.Y.P.Y.Y.<.: C o   X     2 * X o o + q @ @ @ @ & D D o o o 2 W U.Y.U.Y.Y.Y.Y.Y.Y.Y.Y.Y.<.>.Y.Y.<.Y.Y.P.P.P.,.P.P.P.P.Y.Y.Y.Y.",
"P.Y.,.Y.Y.<.< 3 2       X 2 C 2 X o o * 5 % + $ v G.gXpX5 o o 2 5 P.,.P.Y.Y.<.Y.Y.Y.Y.P.Y.U.U.>.>.>.P.Y.>.P.<.P.P.P.>.,.P.Y.P.Y.",
"Y.P.P.P.U.< O * X O < H H 6 5 2 2 X * n @.@.@.L.sXcXcXwX8 O * 2 2 ^ <.U.U.,.U.<.U.<.Y.Y.P.:.U.<.P.Y.Y.Y.>.>.<.>.>.>.>.,.Y.Y.Y.P.",
"P.P.Y.<.<.>.;.R ~ ^ P.^ ;.^ ~ H O O $ n D S @.G.sX>X0.%.8.< Y J W ,.Y.P.,.<.U.U.<.,.Y.<.Y.Y.Y.U.Y.Y.P.Y.,.>.>.>.>.,.>.I.Y.;.Y.Y.",
"Y.Y.Y.>.>.>.Y.Y.P.^ R Y ~ R R R < $ - : * S 7.6 S D D , , I ~ R ~ ^ ^ ^ >.>.Y.Y.Y.Y.Y.<.Y.Y.Y.Y.Y.Y.Y.Y.Y.>.>.,.<.P.<.P.<.Y.Y.Y.",
"Y.Y.Y.Y.P.P.P.Y Y Y Y R R Y R R - > ; , , : J J : ; > > : J ~ ~ R R R ~ ;.<.Y.,.U.<.P.Y.Y.Y.Y.Y.Y.>.Y.Y.Y.Y.Y.Y.Y.Y.Y.Y.<.Y.Y.Y.",
"P.P.P.Y.Y.P.R R R Y R R R R Y P < > > * < I R R J $ $ , : < R J Y Y Y R Q ;.Y.U.Y.<.Y.Y.Y.Y.U.>.Y.<.Y.>.Y.Y.Y.Y.Y.Y.Y.<.P.I.Y.;.",
",.Y.Y.P.^ P.R R P P Y R Y P Y R I < : < I R R R J - $ $ > < Y Y I R R Y I R Y.Y.>.>.P.Y.P.,.<.U.Y.Y.Y.<.Y.Y.Y.Y.>.Y.Y.U.Y.P.<.P.",
"Y.I.Y.Y.Y.,.^ R P R Y P Y R R R Y J H I R R R R J H - $ : I R R R R R R R ;.Y.Y.>.I.<.,.<.Y.Y.Y.Y.=.>.Y.Y.Y.Y.Y.;.Y.<.Y.Y.Y.Y.Y.",
"P.Y.<.P.P.I.P.,.Y Y ~ R R Y Y P Y R R Y I R R R P ~ J J J I R R I R Y R >.Y.P.Y.<.<.Y.U.Y.<.Y.>.<.Y.Y.<.<.Y.Y.Y.,.Y.Y.Y.>.<.Y.Y.",
"I.<.P.P.Y.Y.Y.Y.I.^ ~ ~ P R ~ ~ R R I I Y Y R R Y R Y Y P R R R R ^ ,.<.Y.Y.Y.Y.Y.P.>.Y.<.Y.Y.Y.Y.Y.,.,.<.U.Y.Y.P.Y.<.<.>.Y.Y.P.",
"Y.,.<.P.I.I.Y.Y.Y.I.I.I.P.P.^ ^ ^ ^ I R Y R R R Y ^ ^ ^ R ,.:.;.P.>.<.P.Y.Y.Y.Y.Y.Y.Y.Y.Y.Y.Y.<.Y.Y.;.Y.<.<.U.<.<.Y.Y.Y.<.Y.I.,.",
"P.P.>.>.,.P.Y.Y.P.P.,.I.I.P.^ P.I.<.,.I.P.I.^ ;.I.I.I.I.Y.Y.Y.I.I.P.>.>.:.P.Y.Y.<.<.>.Y.Y.<.,.<.Y.<.<.I.Y.Y.>.,.Y.Y.P.Y.I.Y.Y.P.",
"U.;.<.P.,.>.,.I.I.P.I.I.P.P.I.Y.Y.P.Y.Y.Y.Y.I.I.I.I.P.I.Y.Y.>.Y.P.,.<.P.:.*.,.Y.Y.<.U.Y.I.<.I.I.Y.P.Y.Y.Y.Y.Y.P.Y.Y.<.Y.I.Y.,.Y.",
"<.Y.P.<.P.,.I.,.I.P.P.P.Y.Y.P.Y.I.Y.I.I.P.P.I.>.P.Y.>.I.,.P.>.Y.<.Y.P.P.P.>.Y.<.P.Y.P.P.Y.Y.P.Y.P.Y.I.Y.P.<.Y.,.<.Y.;.P.<.P.,.Y."
};
