/* XPM */
static char *result[] = {
/* columns rows colors chars-per-pixel */
"64 64 241 2 ",
"   c #140D0E",
".  c #1E140B",
"X  c #1A0D14",
"o  c #1E0E1A",
"O  c #1C1514",
"+  c #270808",
"@  c #350707",
"#  c #3C0303",
"$  c #28190C",
"%  c #35170C",
"&  c #230E17",
"*  c #3C0117",
"=  c #25161A",
"-  c #391919",
";  c #1F2714",
":  c #2C240D",
">  c #3D260D",
",  c #262616",
"<  c #362815",
"1  c #2A3618",
"2  c #3B3815",
"3  c #2C1622",
"4  c #351529",
"5  c #3C0E31",
"6  c #372626",
"7  c #393529",
"8  c #3B2D36",
"9  c #440202",
"0  c #4C0202",
"q  c #450A0A",
"w  c #540102",
"e  c #5C0101",
"r  c #58090A",
"t  c #481B09",
"y  c #490118",
"u  c #541315",
"i  c #630101",
"p  c #6B0101",
"a  c #660A07",
"s  c #740101",
"d  c #7C0101",
"f  c #770A08",
"g  c #6A1808",
"h  c #74100E",
"j  c #48260A",
"k  c #56280A",
"l  c #59350A",
"z  c #492716",
"x  c #4D2F10",
"c  c #483715",
"v  c #5B3316",
"b  c #702E0B",
"n  c #64380A",
"m  c #643615",
"M  c #461A24",
"N  c #4B0832",
"B  c #540136",
"V  c #4B302E",
"C  c #46283D",
"Z  c #2C4719",
"A  c #394819",
"S  c #32541D",
"D  c #365B1D",
"F  c #3A581E",
"G  c #39621F",
"H  c #39482B",
"J  c #395721",
"K  c #3A5D21",
"L  c #3C6421",
"P  c #3F6B24",
"I  c #444818",
"U  c #594F17",
"Y  c #5B4518",
"T  c #46551E",
"R  c #6A4709",
"E  c #754C0D",
"W  c #7A5407",
"Q  c #7C540B",
"!  c #684715",
"~  c #784711",
"^  c #68521B",
"/  c #78591A",
"(  c #776C1C",
")  c #5A4425",
"_  c #4C532B",
"`  c #574636",
"'  c #765A25",
"]  c #675230",
"[  c #486624",
"{  c #426D24",
"}  c #566429",
"|  c #447227",
" . c #487726",
".. c #457628",
"X. c #477929",
"o. c #4A7D29",
"O. c #686527",
"+. c #7C6925",
"@. c #76643A",
"#. c #777631",
"$. c #380550",
"%. c #500B4E",
"&. c #760155",
"*. c #503347",
"=. c #741770",
"-. c #3E4241",
";. c #4A4848",
":. c #69564C",
">. c #76694F",
",. c #665E68",
"<. c #5D6562",
"1. c #686766",
"2. c #737769",
"3. c #7B7B76",
"4. c #840101",
"5. c #8B0101",
"6. c #8E0803",
"7. c #940101",
"8. c #9B0201",
"9. c #88110F",
"0. c #A30201",
"q. c #AA0100",
"w. c #B70100",
"e. c #883107",
"r. c #8F023A",
"t. c #C40100",
"y. c #CC0000",
"u. c #D30100",
"i. c #86440E",
"p. c #855D09",
"a. c #885F09",
"s. c #885A18",
"d. c #88640A",
"f. c #97720D",
"g. c #896617",
"h. c #84631D",
"j. c #8B691E",
"k. c #926C1D",
"l. c #987619",
"z. c #A57E18",
"x. c #8A5B21",
"c. c #836322",
"v. c #856927",
"b. c #956B23",
"n. c #987525",
"m. c #8B7233",
"M. c #987D33",
"N. c #A57C22",
"B. c #990046",
"V. c #AA1055",
"C. c #913174",
"Z. c #C23067",
"A. c #906F4E",
"S. c #887657",
"D. c #A27D5A",
"F. c #997E66",
"G. c #4E832B",
"H. c #4F882C",
"J. c #50872B",
"K. c #528C2D",
"L. c #75827A",
"P. c #988518",
"I. c #A88816",
"U. c #B39719",
"Y. c #BAA712",
"T. c #908534",
"R. c #A88426",
"E. c #B78924",
"W. c #B99329",
"Q. c #A28535",
"!. c #BB9935",
"~. c #B09139",
"^. c #BDA427",
"/. c #CAA51F",
"(. c #C5962A",
"). c #CC9E31",
"_. c #CEA32D",
"`. c #D6AC29",
"'. c #D8AD38",
"]. c #D7B034",
"[. c #E3B738",
"{. c #E4D511",
"}. c #FAF110",
"|. c #E3C124",
" X c #F4C637",
".X c #928C50",
"XX c #AC914E",
"oX c #B9A451",
"OX c #8A886F",
"+X c #9E8765",
"@X c #A38C79",
"#X c #B18F71",
"$X c #CFB34B",
"%X c #E4BB44",
"&X c #C49B78",
"*X c #D3B072",
"=X c #ECC446",
"-X c #F3CF4F",
";X c #FAD755",
":X c #FEE15F",
">X c #DBCA64",
",X c #F6D96E",
"<X c #FDE161",
"1X c #FBE376",
"2X c #A635A2",
"3X c #96508D",
"4X c #937A92",
"5X c #798784",
"6X c #898D8C",
"7X c #929692",
"8X c #A8928B",
"9X c #B69984",
"0X c #89A099",
"qX c #BCA38C",
"wX c #B4B197",
"eX c #A493A5",
"rX c #95A9A6",
"tX c #ABB3B3",
"yX c #C79093",
"uX c #C4A486",
"iX c #CDAF97",
"pX c #D9B799",
"aX c #F4BD91",
"sX c #D0B6A8",
"dX c #AFC2BE",
"fX c #D0C590",
"gX c #EAD889",
"hX c #FFE98C",
"jX c #DBC2AE",
"kX c #EBCCAE",
"lX c #F6CDAC",
"zX c #F8D6B9",
"xX c #FFF2B0",
"cX c #BACFCB",
"vX c #C5D5D2",
"bX c #D6DADA",
"nX c #E4D7C9",
"mX c #FFDEC1",
"MX c #FFE3C6",
"NX c #DAE4E3",
"BX c #E6E9E8",
/* pixels */
"| G.K.K.G.K.K...K.G.K.K.K.K.K.K.J.J.K.K.J.J.K.X.J.J.K.J.o.K.K.| ..o.K.K.o.K.K.| K.G.K.K.J.K.K.K.J.K.K.K.o.K.K.o.G.K.K.G.G.K.K...",
"K.| o.G.G.....X.X.K.G.o.X.G.o...X.J.X.J.......X.J.K.K.G.G.o.K.K.K.| o.G.G.....o.o.K.G.o.X.G.o...X.G.o.G.......X.K.K.K.o.G.o.K.K.",
"K.K.G.H.......X.G.X.G.K.G.K.....X.K.J.X...G.J.K.K.K.K.G.| o.H.X.K.K.G.J.X.....X.G...K.K.J.J.....X.K.G.....G.K.K.K.K.K.G.| o.G.X.",
"o.G.G.K.K.K.K.G...K.K.K.K.G.K.G.K.K.J.K.K.K.J.G.G.H.X.K.G.G.G.K.G.G.G.K.K.K.K.G.| K.K.K.K.J.K.G.K.K.K.K.K.K.K.G.G.o.o.K.G.G.G.K.",
"J...X.J.K.K.G.G.G.H.K.K.X.K.K.K.H.K.K.K.G.G.X.{ ......H.H.K...K.K...X.G.K.K.G.G.G.G.K.K...K.K.K.K.K.K.K.K.K.K.X.......G.K.K.X.K.",
"o...X.G.o.o.X.X...X...H.K.G.G.P [ F c k g 9.f g k A P G.K.K...| o...X.G.X.o.X.X...X...G.K.G.G...G.X.G.G.K.K.K.o.o.X...X.K.K...| ",
"o.| K.......{ J S S K K F H 2 t r s 8.w.t.u.u.u.y.8.c H.K.H.X.G.G.| K.......X...........X.X.K.K.J.......K.K.K.K.K.K.o.K.K.K...o.",
"K. .o.......Z N y # # 9 9 w i p s d d 5.8.w.y.u.u.u.0.c K.H.H.K.K...o...................o.K.K.K.K.K.K.K.K.K.K.K.o.G.....K.K.G.K.",
"H...K.K.H.o.P 8 N y 0 w w e i p s s d 4.4.5.8.t.u.u.u.8.I J.J.J.G...K.K.K.X.X.K.G.G.K.K.K.K...K.K.K.G.K.K.K.X.o.K.G.....G.H.G.K.",
"H.o.K.K.K.G...K.[ 7 M y w e i i p s d d 4.5.7.8.t.u.u.u.f { J.G.K...K.K.K.G...K.K.K...K.K.K.K.K.H.K.o.K.K.K.K.K.K.K.X.X.K.K.H.G.",
"..H.o.H.K.K.G.P X.K.{ H < > t 0 0 e e e d 5.5.7.8.t.u.u.t.k  .G.X.G.X.K.K.K.o...X.K.G.K.| K.K.G.K.K.K.K.K.K.K.K.K.K.K.K.K.K.o.G.",
"H.H.H.K.K...K.X.H.G.o.G.K.G.L , # # w i d 5.5.7.7.q.u.u.u.8.I K.K.G.K.K.K...K.X.G.G.G.G.K.K.X...G.K.K.| H.K.K.K.K.G.G...K.G.K.K.",
"H.K.K.G.K.K.K.K.K.H.K.G.K.K.| N p p s d 4.4.5.7.7.8.u.y.0.i.P. .G.K.K.G.K.K.K.K.K.K.K.G.K.K.o...X...G.o.K.K.K.X.K.K.K.G.K.K.K.K.",
"K.K.....K.H.K.K.....G.H.K.K.J B i p s d d 4.5.5.5.5.8.e.I.}.}.J.G.K...X.K.K.K.H...X.G.K.K.K.X.X...X.G.o.X.o.o.H.K.K.K.K.K.K.K.K.",
"X.K...X.o...X.....G...G.K.H.A t t w r e i a g b b f.Y.}.}.}.}.I.c T A K { | ..| ..o...o.K.K.K.K.K.K.K.K.K.K.K.K.G.K.o.K...X.K.K.",
"H.H.K.H.X.G.o.o.o.G...G.K.G.! i.W W Q p.f.P.U.Y.`.[.}.}.}.}.Y.e.q.w.0.6.f g g z z L ..o.K.K.K.K.o.K.K.K.K.K.G...G.K...K.o.G...K.",
"K...K.K.K.J.K.X.X.....K.H.{ Q W p.p.f.f.I.U.U./.`.|.{.{.U.W 8.y.u.u.u.u.u.u.u.w.d I X.K.K.o.K.K.K.K.H.G.K.G.K.K.K.K.K.K.K.K.G.K.",
"K.H.K.G.K.K.K.K.K.K.K.K.X.1 n R W p.d.f.I.I.z.z.k.s.e.6.0.t.u.u.u.u.u.u.u.u.u.0.h  .K.K.K.o...K.K.G.K.K.o.G.o.X.G.G.G.o.K.K.K.K.",
"G.K.X.J.K.K.G.K.K.K.o.F - @ 9 t k k l n n g g d d 7.t.u.u.u.u.u.u.u.u.u.u.u.q.d I K.K.J.K.K.J...X...H.K.X.G.o.G.G.o.X.X.o.K.K.K.",
"K.J.G.G.J.X.J.X.| H M B e 0 9 w e p s d d 5.5.8.8.w.u.u.u.y.u.u.u.u.u.u.u.q.s x ..G.K.K.o...G.o.G.K.K.K.....o.......X.X.K.K.K.o.",
"G.J.K.o.X...J 6 N B B w w e e i i s d d 4.5.5.5.5.8.7.5.5.5.5.5.8.8.0.0.d r I G.o...K.o.K.K.K.K.K.K.H.K...........X...K.K.| K.K.",
"K.K.J...D $ %.B y 9 0 0 w e i i p s s 4.d s p p f e.i.s.x.m.b.c.~ i.b m Q..X .K.K.K.K.o.K.K.K.K.K.K.K.K.K.......o.o.o.G.o.K.K.K.",
"K.K.K.K.Z + y # # 9 9 w w e i i p s s i e r m s.W._.`.[.-X<X[.%Xk.`.[.E._.1XOXL G.o.G.K.K.K.K.K.K...K.K.K.K.K.K.K.K.K.K.o.K.K.K.",
"G.G.G.K.X.$ + + # 9 0 0 w e e i i e 0 r @ n.M.g.`.`.[.=X1X*X+.>XY _. X-XQ.$XkX} K.G.K.K.K.K.G...K.o.K...K.K.K.K.K.K.K.X.J.J.K.| ",
"X.K.K.G.| ..1 + + @ # 9 9 9 0 9 # t x.' ` W.Q.) E.[.=X1XxX#X@.$X] I. X:X$X} ,X.X{ ..G.K.G.X.o.J.K.K.K.J.K.K.K.K...K.K.K.K.o.o.J.",
"K.J.K.K.K.o.K.{ 2 : $ + @ t t ! j.W.=XA.8XN.XX@Xc.).-XhXgX+X@XQ.S.n. X;X>XT T..XK K.o.X.o.K.K.K.K.| | K.K.K.K.K.| K.o.K.J.K.K.K.",
"G.J.X.G.G.K.G.K.X...G.| ^ W.h.E.(.'.'.+XzX+X] uXF.j.'.;X$X9X9X@.qXm. X;X>X[ | @.| X.K.K.K.o.K...o.K.K.o.o.K.K.K.o.K.K.K.X.o.K.K.",
"J.o.G.G.K.K.K.K.K.J. .o.v.).j.(.(.=X!.9XzX#XV ] D.S.M.$X.XuX' >.sXM. XhXfX| X.Z o.J...K.o.K.K.K.K.K.X.X.o.J.K.K.J.K.o.o.X.K.K.o.",
"J.X.X.J.J.J.K.K.K.J.K.{ R.W./ '.=X,XoXqXiXV %.*.` uX9XA.iXF.$.C 1.M.<XxXwX| G...K.J.K.K.K.K.K.o.K.K.| K.o.o.o.o.o.K.K.J.X.K.K...",
"J.G.....X.G.K.K.X.J.| } (.E.! (.-XhX$XuX8X,.5 6X8XzXmXmXkX*.4XeX3.Q.<XhXXX..K.K.o.o...K.K.o.X.X.K.X.o.K.K.K.X.X.K.K.o.K.K.K.K.G.",
"J...o.G.X.{  .K.J.G.{ c.(.(.s.j.'.,X&X&XnXeXN $.,.zXmXmXsX%.*.eXiX~.-X1X#.P ..K.J.o.J.K.J.o.K.K.K.o.K.K.K.K.K.J.K.K.G.K.K.K.X.K.",
"o.K.o.G.G...K.o.J.J.T I.E.E.N.Q (.%X).#XMXcX=.=.3XzXmXmXiX=.=.sX9X_.;X>X[ ..K.o.K.K.o.J.K.K.o.K.J.K.J.K.J.o.K.X.o.K.| K.X.G...K.",
"| G.K.K.o.K.H.| K.[ h.E.E.E.E./ z.'.$XXXzXnX3X2X8XmXmXmXkX3X3XjXA.[.:XQ.P K.K.X.K.J.K.K.J.K.K.K.J.K.K.K.G.K.K.X.J.J.K.H.X.K.K.| ",
"K.| X.G.G.....| } m.N.E.I.E.E./ s.).[.A.aXmXsX9XlXkXjXkXmXkXsX+X(  X>X} H.P P G.X.K.G.X.o.J.X...X.J.X.J.......o.J.K.J.G.H.G.K.K.",
"K.K.G.G...| [ O.R.n.b.N.N.N.h.< j E.[.m.A.&XlXMXzX9XF.yXzXsXA.c.W.;X#.S ..P P X.G.X.J.J.J.J.....X.K.G...X.G.H.K.K.K.K.G.{ o.J.X.",
"G.G.G.| I O.n.~.n.h.N.l.N.n.,   X ^ ).!.& M >.#XpXkXlXpX@XV 6 ) [.~.T.m.T.} J G...K.K.K.K.J.J.G.K.K.K.K.K.K.J.G.G.G.G.J.G.H.G.K.",
"J.....o.T v.n.h.' n.k./ n.!   = 6X3.+._.) o o O 6 ` ` 6 4 4 6 O.#.k. X~.XX#. .J.J.J.K.J.X.J.K.K.K.K.J.K.K.K.K.X.X.X...J.K.K.X.K.",
"G...X.G...[ I ' l.b.^ j.l.2 O 5XNXbX1.^ v.= 3 ) V F.:.6 8 4 3 < . R. X=X} G X.X...X...J.K.H.J. .G.X.G.J.K.K.H...X.X.{ X.K.K...| ",
"o.| K.....K +.b.k./ / l./ O 2.vXbXBXbX,., = 3 ' ] v.^ c.8 8 *.;.o R._. X$XL X...........X.X.K.K.J..... .K.{ A c 2 A F K.K.J...o.",
"K...o...| T b.j.h.Y j.b.T -.dXvXbXBXBXeX1.*.C ;.8X+.S.C *.C F.6XX n.W._.=X#.| ........X.X.K.J.K.K.K.K.| 2 z M M u l x A H.J.H.K.",
"G...K.K.K.U n.v.! ^ c.h.2 5XcXcXbXBXbX1.dXrX6X5XjXL.OX,.1.2.tX6XX n.].R. X!.L H.G.G.K.K.J.K. .J.J.K.[ j z 5 %.%.%.z E E A J.G.K.",
"K...K.K.H.U b.h.c c.j./ 7 tXdX7X7XwX6XH ;.3.0XtXdXL.dXdX7X6XbX7XX c.[.Q. X$X[ K.K.K...X.P  .F 2 2 1 > t 4 $.&.B.B.B l p.R P J.G.",
"X.G...K.K.[ b.^ 2 b.g.Y ;.7X@.l.U.^._ 0X5X;._ ] >.>.OX2.` rXNX7XX / [.m._.$X[ ..X.X.A > j : j k k % t k - $.B.V.Z.r.n p.W I X.G.",
"J.K.J.K.K.L ^ U I b.h.c -.} / m.XX@.- V L.rX0XL.Y I >.2.3.<.7X2.o U [.#.+.). ...J < k l j % k l % j k j - 5 B C.yXr.n d.d.R  .K.",
"H.K.K.G.K.K.[ 2 T b./ 4 = R ^ aXlX:.@ # g V :.,.M M 1.1.V ( W.P.O 2 W.O.A ^ A c k n R l % n n j j b k x m v V v V v E p.d.R ..H.",
"K.K...X.K.K.H.{ J c.v 4 . l c pX@X- q # 9.u e a u # r f q Y c : $ - x x j x l n R R x j n n j j n n x n E ~ m m b ~ p.a.W I H.H.",
"o.K...X.o...o...| I 4 3 . x > Y = @ * @ h h y a u # h h r % z z % % > < c A A A A A 1 c x > j n l Y 2 l p.p.~ p.p.p.p.Q c L K.K.",
"K.G.K.G.X.G.X.o.X.1 M .   : > j & + q * r h q q @ y 9.a q 6 8X:.X o < P o.G.X.X.o.J.| | P F A T D ..G.I Q p.p.p.p.p.W I L G.o.K.",
"K.X.K.K.K.K.J...Z 4 3       $ $ 3 X % @ @ u y + @ u r q & o 3 3 o o , G.K.J.K.X...X...K.K.J.K.K.K.K.J.{ Y R E W E n I ..J.K.G.K.",
"K.G.K.G.J.K.K.D & &   O ; , , 4 N & & @ + + % - + @ + & o o o o o o 3 G K.K.K.K.K.K.K.K.K.o...K.K.G.K.K.{ A c I I G X.G.K.K.K.K.",
"G.K.X.J.K.K.G.| K J K P G.G.o.K 1 3 - A.A.D.uXqX>.S.6 X o o o X o o 3 7 J.K.G.K.K.K.K.G.K.J.J... . .J.K...G.|  .o.G.X.X.H.J.H.J.",
"K.G.G.J.J...G.o.G.G.K.K.G...G.G.o.{ 1 &XlXlXzXqX@XiX6 X ; ; 1 1 , = 4 4 H X.G.o.G.G.K.K.G.| o.G.G.K.K.K.....o.X.......X.K.J.K.G.",
"G.G.K.o.X.o.J.K.G...H.X.G.X.P P P P S _ A.A.:.>.V ;.; Z G D G.G.| J 1 1 Z X.J.J.G...K.o.K.K.K.K.H.K.H.K.X.X...........J.K.| K.K.",
"K.K.K.......K.K.H.H.P G L L L L G G S : z ) < ` V V Z G D G G G P X.o.....| K.K.K.K.K.o.K.K.K.K.K.K.H.K.K...X.X.G.G.o.H.o.K.K.K.",
"K.K.K.K.K.J.K.{ G G S G G G G G G S G 1 $ = , = O Z G G S G G G L L L ..J.J.K.X.G.X.G.K.K.J.K.K.K...K.K.K.K.K.K.K.K.K.K.o.K.J.K.",
"G.G.G.K.K.K.H.L G D G G G G G S G S G Z $ $ : < ; G G D G G G Z S J J L | K.K.J.K.G.K.K.K.K.J...K.o.K...K.K.H.K.K.K.K.o.J.J.K.| ",
"X.K.K.G.| H.G.G S S G G D S D D G G G S : : : : 1 G G G G D D D S G G D S H.H.H...| J.K.J...G.J.K.K.K.G.K.K.K.K.| K.K.G.K.G.o.G.",
"K.J.K.K.J.G.J.| S D D S D G G G D S S G Z . : : 1 G S G D G G G G G G G G.G.K.K...K.o...G.K.K.K.J.| ..K.K.K.K.K.| K.o.K.K.K.K.K.",
"G.K.X.G.G.J.H.J.P G G G G S G S S G G S S Z 1 Z S G G G S D G G D G L ..G.K.G.K.o.X.K.J.K.o.K.| o.K.K.o.o.K.K.K. .K.K.K...X.K.K.",
"H.G.G.G.K.K.K.K.H.G.P P G G G G G G S S D D G G D G S D S G P G P X.G.G.K.K.K.K.K.G...K.X.K.K.K.K.K.....G.G.K.K.G.K.o.G.X.K.K.G.",
"J...X.J.K.J.K.K.K.H.K.K.H.H.G...X.| D | G G G G G P X.X.| H.G.X.J...o.G.K.H.H.K.K.K.K.K.K.K.K.G.K.K.| K.o.G.G.G.o.K.K.K.X.K.K...",
"J.G.....X.G.K.K.X.G.X.H.K.G...o.K.X.X.K.K.K. ...H.K.H.K.J.K.J.H.J.G.....o.G.K.K.X.G...K.K.G.X.o.K.X.o.K.K.K.| ..K.K.G.J.K.K.K.G.",
"J...o.G.X.{ X.K.J.H.H.H.G.G.H.H.K.H.K.K.K.K.K.G.K.H.G.K.H.K.X.K.J.X.X.G.X.| o.H.K.o.J.K.G.o.J.G.K.G.K.K.K.K.K.J.K.J.G.K.K.K...K.",
"o.J.G.o.H...J.X.H.H.H.G.H.H.G.H.H.K.H.H.H.H.K.X. .K.| H.X.H...K.o.J.H.X.H...H.G.G.J.G.G.K.K.G.K.G.K.J.K.G.o.K.X.o.K.| J.X.G.X.K."
};
