/* XPM */
static char *result[] = {
/* columns rows colors chars-per-pixel */
"64 64 238 2 ",
"   c #140D0D",
".  c #1B0B0B",
"X  c #17120E",
"o  c #160E12",
"O  c #1A0C14",
"+  c #1D0D19",
"@  c #1C1214",
"#  c #1E1119",
"$  c #280607",
"%  c #340707",
"&  c #3B0202",
"*  c #29190B",
"=  c #39190C",
"-  c #250E15",
";  c #261617",
":  c #371714",
">  c #1D2814",
",  c #1F3113",
"<  c #2A290F",
"1  c #3C240A",
"2  c #2C2213",
"3  c #262915",
"4  c #362615",
"5  c #283616",
"6  c #393815",
"7  c #2A1621",
"8  c #39162A",
"9  c #341133",
"0  c #392528",
"q  c #342A2C",
"w  c #450706",
"e  c #4D0102",
"r  c #540101",
"t  c #5B0001",
"y  c #59050C",
"u  c #471E0A",
"i  c #550417",
"p  c #471A17",
"a  c #511110",
"s  c #630101",
"d  c #6C0101",
"f  c #670A03",
"g  c #740101",
"h  c #7B0201",
"j  c #7C0B04",
"k  c #671706",
"l  c #741406",
"z  c #6F1218",
"x  c #44240C",
"c  c #4A2609",
"v  c #53250A",
"b  c #592809",
"n  c #59350A",
"m  c #462816",
"M  c #483716",
"N  c #543211",
"B  c #6D280B",
"V  c #663A09",
"C  c #653A15",
"Z  c #4E092F",
"A  c #441B24",
"S  c #661B26",
"D  c #4D2F2A",
"F  c #463629",
"G  c #483734",
"H  c #2B4419",
"J  c #2D4C1A",
"K  c #39471A",
"L  c #2F501A",
"P  c #32541C",
"I  c #3C541D",
"U  c #365B1D",
"Y  c #3A5D1F",
"T  c #39621F",
"R  c #364721",
"E  c #3A5722",
"W  c #3A5B21",
"Q  c #3B6421",
"!  c #3E6A23",
"~  c #464918",
"^  c #55451A",
"/  c #505219",
"(  c #67460A",
")  c #734C09",
"_  c #785608",
"`  c #7A510C",
"'  c #684A16",
"]  c #754516",
"[  c #6C531C",
"{  c #78591B",
"}  c #596A1B",
"|  c #7F611B",
" . c #584528",
".. c #485C24",
"X. c #5B5A24",
"o. c #575038",
"O. c #6F5726",
"+. c #685928",
"@. c #624837",
"#. c #6B543B",
"$. c #456523",
"%. c #426D24",
"&. c #586928",
"*. c #447227",
"=. c #487626",
"-. c #457628",
";. c #477929",
":. c #4A7D29",
">. c #517126",
",. c #6C6C2B",
"<. c #786625",
"1. c #380657",
"2. c #4F054E",
"3. c #7C0949",
"4. c #4F2F4A",
"5. c #733747",
"6. c #6E386D",
"7. c #4F4C4E",
"8. c #59565A",
"9. c #67544A",
"0. c #7B6449",
"q. c #6E6952",
"w. c #676667",
"e. c #757878",
"r. c #840101",
"t. c #8C0101",
"y. c #860C04",
"u. c #930101",
"i. c #9B0201",
"p. c #A20301",
"a. c #AC0100",
"s. c #B90100",
"d. c #882906",
"f. c #C30100",
"g. c #CD0100",
"h. c #D40100",
"j. c #855C09",
"k. c #845C0A",
"l. c #8B4C10",
"z. c #8F6E0D",
"x. c #89671B",
"c. c #946C1F",
"v. c #987618",
"b. c #A47B17",
"n. c #895821",
"m. c #866623",
"M. c #987525",
"N. c #91752E",
"B. c #856A3A",
"V. c #A37C23",
"C. c #A77D25",
"Z. c #8C004C",
"A. c #A9064B",
"S. c #B5255F",
"D. c #855E49",
"F. c #967947",
"G. c #836B56",
"H. c #8E7150",
"J. c #887864",
"K. c #936A78",
"L. c #4E832A",
"P. c #4F892C",
"I. c #50872B",
"U. c #528C2D",
"Y. c #7E8776",
"T. c #A78718",
"R. c #AE9712",
"E. c #B59719",
"W. c #928737",
"Q. c #AA8527",
"!. c #B18523",
"~. c #B78B26",
"^. c #B89726",
"/. c #AD8F34",
"(. c #CBAB1E",
"). c #C49829",
"_. c #C69931",
"`. c #CDA329",
"'. c #D5A92E",
"]. c #D7AB35",
"[. c #D3AD34",
"{. c #E4B52D",
"}. c #E7B935",
"|. c #E9D619",
" X c #FFF60E",
".X c #EEE411",
"XX c #FCF310",
"oX c #F2C538",
"OX c #92824F",
"+X c #AD904C",
"@X c #B8A44D",
"#X c #8F846A",
"$X c #AC8F6E",
"%X c #A68875",
"&X c #B4AA6C",
"*X c #CBAD47",
"=X c #D6B547",
"-X c #E5BA43",
";X c #CB9A74",
":X c #DAB374",
">X c #E9C347",
",X c #F2CA46",
"<X c #FBD349",
"1X c #F0CC5C",
"2X c #FBDA58",
"3X c #D6C167",
"4X c #F6DA67",
"5X c #FCE477",
"6X c #9F329A",
"7X c #8B5289",
"8X c #90738B",
"9X c #A77A94",
"0X c #7A8C87",
"qX c #8F948F",
"wX c #B2958B",
"eX c #A99895",
"rX c #9DB2AE",
"tX c #AEB2B0",
"yX c #CAAB92",
"uX c #D7B69A",
"iX c #EAA79D",
"pX c #DABBA3",
"aX c #B4C2BE",
"sX c #D6CA93",
"dX c #FBE88F",
"fX c #E9C6A9",
"gX c #F6C8A5",
"hX c #EFD1B2",
"jX c #FCD6B4",
"kX c #FCDBBD",
"lX c #FDEFA4",
"zX c #B9CAC7",
"xX c #BAD1CD",
"cX c #CAD8D5",
"vX c #FFDEC1",
"bX c #FEE9D4",
"nX c #DBE3E2",
"mX c #EAE8E3",
/* pixels */
"*.L.U.U.:.U.U.*.U.L.U.U.I.I.U.U.L.U.U.P.L.U.U.L.L.P.U.I.:.U.U.*.*.L.U.I.:.U.U.*.U.L.U.U.P.P.U.U.P.U.U.U.L.U.U.:.L.P.U.L.L.U.U.*.",
"U.*.:.L.L.-.;.:.:.U.L.;.:.L.:.-.:.L.:.L.-.-.-.:.P.P.P.L.L.:.U.U.U.*.:.L.P.=.-.;.:.U.L.:.:.L.:.-.;.:.:.L.-.-.-.;.U.U.U.:.L.:.U.U.",
"U.U.L.P.-.-.-.-.L.;.U.U.L.U.-.-.:.P.L.-.-.L.P.P.U.P.P.L.*.:.P.-.U.U.L.I.-.=.-.-.L.-.P.U.P.P.-.-.;.U.L.;.-.L.P.U.U.U.P.L.*.:.P.;.",
":.L.L.U.U.U.U.L.*.U.U.U.U.I.U.L.U.U.U.U.U.U.P.L.L.L.L.U.L.L.L.U.L.L.L.U.U.U.U.P.*.U.U.U.U.P.P.L.U.U.U.U.U.U.P.L.L.L.:.U.L.L.L.U.",
"I.-.;.I.U.U.I.L.L.L.U.U.:.U.U.U.P.U.U.P.U.U.U.-.;.-.:.P.P.U.-.U.P.-.-.L.U.P.P.L.L.P.U.U.=.P.U.P.U.U.U.U.U.U.U.;.-.-.-.L.U.U.-.U.",
":.-.;.L.;.:.;.;.-.;.-.L.U.:.L.-.L.:.L.P.U.U.U.:.L.:.! :.U.U.-.*.:.-.;.L.;.L.*.! Q ! ! ;.P.L.P.=.:.:.L.L.U.U.U.:.:.;.*.:.U.U.-.-.",
":.*.U.-.-.-.-.-.-.-.-.-.:.-.U.U.P.;.-.;.U.U.U.U.P.P.L.P.U.P.-.L.L.*.U.%.I M k l y.j l k x 6 ..*.:.;.-.-.U.U.U.U.U.U.:.U.U.I.-.;.",
"U.=.:.-.-.-.-.-.-.-.-.-.:.U.U.U.U.U.U.U.U.U.U.P.:.L.-.-.U.U.P.U.U.-.%.N i.s.g.h.g.s.u.r.g s t w x 6 ..! L.U.U.U.;.P.-.-.U.U.P.U.",
"P.-.U.U.U.;.-.U.L.L.U.U.P.U.;.U.U.U.L.U.U.U.:.L.P.L.=.*.L.I.L.U.L.*.N s.h.h.h.s.i.r.h h g d s s t e w % = I ! :.U.L.-.-.L.P.:.U.",
"U.-.U.U.U.:.-.U.U.U.-.U.U.U.U.U.P.U.L.P.U.U.P.U.U.P.=.L.U.U.I.L.U.K i.h.h.h.s.u.t.r.h g d d s s t r r e w 2.q U.U.U.-.;.U.U.P.L.",
"-.L.;.U.U.U.:.-.:.U.L.U.*.U.U.P.U.U.U.U.U.U.U.U.U.U.U.U.U.U.L.L.Q l h.h.h.s.i.t.r.h h g d s r e i : A 0 q G ..U.U.U.U.U.U.U.L.L.",
"P.U.P.U.U.;.U.;.P.L.L.L.U.U.-.-.P.U.U.T P.U.P.U.U.L.L.=.U.L.U.U.M s.h.h.s.i.u.t.r.d r w & % 5 U $.-.:.%.L.U.U.U.U.:.U.-.U.:.U.U.",
"P.U.U.:.U.U.U.U.U.U.U.L.U.U.:.;.;.-.I.L.U.P.I.L.U.U.P.L.U.P.U.%.j h.h.h.a.u.t.t.r.h g s t y D *.-.-.L.:.U.U.P.:.U.U.P.L.U.U.U.U.",
"U.U.-.;.U.U.U.U.-.;.:.U.U.U.-.-.-.-.L.L.-.=.L.P.U.U.U.U.P.P.U.K a.h.h.g.i.u.u.t.r.r.h g d d Z E -.-.L.:.;.:.:.I.U.U.U.U.U.U.U.U.",
":.U.-.;.:.-.;.-.-.L.-.L.U.U.U.U.U.U.U.U.U.U.U.U.L.U.L.P.! L.=.| l.i.s.f.i.i.u.t.r.h g g t r a K U.U.U.U.U.U.U.U.I.U.:.U.-.-.U.U.",
"P.P.U.L.:.:.:.:.:.L.-.L.U.U.U.U.L.U.U.U.U.U.L.-.L.U.=.P.L.P.} .X.X(.z.l.l l l k k k b b V ( ( ( Q U.U.U.U.U.L.;.:.U.-.U.:.P.;.U.",
"U.;.U.U.U.U.U.;.;.;.-.U.U.:.U.U.U.U.I.L.U.:.U.U.U.U.U.U.L.Q W. X X X X.X(.(.^.T.T.b.v.z.z._ ) k...U.U.L.P.P.U.U.U.U.I.U.U.U.L.U.",
"U.L.U.L.U.U.U.U.U.U.U.U.U.:.-.U.U.:.U.U.:.I.:.:.L.L.*.E b y.d.R.|.XX X X|.(.`.(.R.T.T.z.j.j.) ) 4 6 $.*.*.;.=.*.L.L.L.P.U.U.U.U.",
"L.U.;.I.U.U.I.U.U.U.U.L.U.I.L.;.;.-.I.U.;.L.:.-...M l p.g.h.g.p.d.j.T.R.E.^.E.T.b.v.z._ ) n v w & w Z Z Z 9 A 8 q H %.=.L.U.I.U.",
"U.P.:.I.L.:.:.:.L.L.U.U.L.;.:.L.L.U.U.U.*.K m z u.s.h.h.h.h.h.h.h.f.s.p.y.l l l k k k f s f t e r t r r i i Z Z 2.$ 5 :.U.I.U.L.",
"L.L.U.:.:.:.P.P.:.;.U.:.U.U.U.U.U.U.P.U.! v t.g.h.h.h.h.h.h.h.h.h.h.h.h.h.p.u.u.t.r.r.h h d s s s t r e e w & & $ $ J U.U.*.U.U.",
"U.U.U.;.-.-.U.U.U.U.U.L.U.U.U.U.U.U.U.U.U.~ h a.h.h.h.h.h.h.h.h.h.g.f.f.s.a.u.t.t.t.r.h g g d d t t r r e w & % $ < =.L.=.U.U.U.",
"U.U.U.U.U.I.U.;.:.:.L.U.U.I.U.U.U.;.U.U.U.L.M h i.f.h.h.h.g.f.a.u.h h j j h h g d f g h g g d s s t r e e & & $ < =.U.U.L.I.I.U.",
":.L.:.U.U.U.U.L.U.L.U.U.U.U.L.;.U.;.U.-.U.U.L./ k h i.a.i.r.g b n.V.@X/.!.C.M.n.B k r r t t t t r e e & % $ * K L.I.U.;.L.P.U.=.",
":.U.U.:.*.U.U.U.;.;.L.U.L.;.:.I.U.U.U.L.I.U.U.U...F.] B l.c.x.<.>X/.5X2XoX{.'.).n./.[ C ] v v a c n c < 6 W L.U.*.U.U.P.U.L.;.P.",
"U.I.U.U.U.:.U.U.-.I.:.-.L.U.U.U.L.*.;.U.U.U.U.L.e.dXW.3X,XoXx.<.=X .sXdX4X>X{.~.M [.c.+.=X_.~.C.V.M.| :.U.U.U.U.*.U.;.U.I.U.U.U.",
"L.I.:.I.L.U.L.U.:.:.U.I.U.:.L.-.:.U.U.L.:.U.U.=.&X&X[ 4X<XoXm.0.@XJ.$XlXdX1X_.m.J.+XW.#X/.-X_.).!.V.<.;.L.P.U.U.-.U.U.U.-.;.U.U.",
"I.:.I.:.U.U.U.U.U.I.;.U.:.U.U.U.L.U.-.-.L.L.U.-.+XW...4X<X}.<.$XB.&X$X&X2X>Xv.#XuXN.F.fXF.-X'.).C.V.<.! L.L.U.P.P.U.:.L.;.U.U.L.",
"U.;.:.L.U.I.U.U.U.L.U.U.U.U.U.L.U.U.*.U.:.L.L.:.,.,.&.dX1X{.H.pX#.H.hX$X+X`.O.F.H.G $XkXF.=X=X].!.C.<.L.L.L.L.L.:.U.U.I.;.U.I.;.",
"I.:.=.;.:.:.U.U.:.:.;.U.U.:.;.:.U.:.:.U.I.U.-.;.-.E Q hXdXoXB.9.D G fXkXyXH.9.D 4.Z K.kXK.=X1X-X_.C.<.;.P.U.*.=.U.U.P.U.U.U.U.I.",
"I.;.:.:.;.*.;.U.I.L.I.I.L.L.I.U.U.L.U.U.U.U.U.L.P.U E sXlX4X+.w.8X4.wXkXvXkXwX8X4.4.w.gX;X3X5X-XV.V.W.=.I.U.I.P.U.P.P.I.P.U.=.U.",
":.U.:.:.:.;.I.:.I.I.I.:.U.U.:.U.L.U.P.U.L.L.U.;.;.U.W &X5X<XOXtX8X9 K.vXvXvXeX8X9 6.aXgX+X3X4X'.x.V.~.$.P.L.U.=.:.U.*.I.;.P.-.U.",
"*.L.U.U.L.U.U.-.U.L.U.U.U.U.U.U.P.U.U.U.L.P.P.L.I.I.U.,.5XoX^.tX6.2.7XvXvXvXwX2.2.7XmXjX+X*X-X).] C.).[ =.U.U.:.U.I.U.I.:.U.U.*.",
"U.*.;.L.L.-.-.;.:.U.L.;.:.L.;.-.-.L.;.P.-.-.-.*.I.U.U.$.3X2X'.wX9X6X9XvXvXvXpX6X6X9XbXgXF.=X].b.k.~.~.x.W -.-.;.I.U.U.L.I.:.U.U.",
"U.U.L.L.-.-.;.;.L.;.I.U.L.I.-.-.-.U.L.*.-.L.P.Y %.U.L.P W.2X,XF.pXeXhXvXkXkXkXwX8XhXgXgXF.=X_.n.c.~.!.C./ :.U.U.U.U.U.:.%.:.I.;.",
"L.I.L.U.U.U.U.L.-.U.U.U.U.I.U.L.U.U.U.U.U.U.L.U X.&.} N.Q.@X2X^.q.fXvXpX%XK.pXvXkXjX:XD.@.-X).] V.!.!.!.N.>.U.L.L.L.:.U.:.I.I.U.",
"I.-.;.I.U.U.L.L.L.I.U.U.;.U.U.U.U.U.U.U.U.U.U.T N.*XOX}.}.Q./.,Xm.G %XpXgXgXhXfXyXD.4 O  .].N.@ N v.T.C.M.N.&.! ;.-.-.L.U.U.:.U.",
":.-.;.L.:.:.;.;.-.;.;.L.U.L.L.-.L.;.P.I.U.U.U.L.Q +.=XoXoX].~ <.^. .8 G 0.J.0.G 7 # # + X._.M o o ' V.V.m.V.C.,.$.-.*.;.U.U.-.*.",
":.*.U.-.-.-.-.-.-.-.-.-.;.-.U.U.P.-.=.*.U.U.U.U.>.@XoX}.}.'.M O q F 7 q 8 J.G ; ; 7 # + ' F.w.+   4 { x.M.n.M./.N.&.*.U.U.I.-.:.",
"U.*.:.-.-.-.-.-.-.-.-.-.L.U.U.U.U.U.U.P.U.U.U.:.W.,X'.^.}.`.0 + q 4.8 <.' F.#.m.0 # 7 o F tXaX>   X { { c.c.{ [ <.^ E -.U.U.L.U.",
"I.-.U.U.U.;.-.U.P.L.P.U.P.U.;.U.U.U.L.U.U.U.;.&.=X}./.].{.^.; + 7.4.G G 0.x.B.9.q q q w.aXnXxXR     ^ x.{ c.c.O.Q =.-.-.L.P.P.U.",
"U.-.U.U.U.L.=.U.U.U.;.U.U.U.U.U.P.U.L.U.U.U.! W.,X`.^.}.^.M.# + 7.w.8.7.rX$X#Xw.7.8.8XmXnXcXxX7.    M c.^ x.c.c...U.-.;.U.U.L.L.",
"-.L.-.U.U.U.:.*.;.P.L.U.*.U.U.L.U.U.U.U.U.U.=.*X}.W.[.`.Q.+.O + # 8.eXaXcXtX#XtXrX0Xe.zXcXcXxX7.    4 m.' { x.M.[ P.U.U.U.U.L.L.",
"I.U.L.U.U.-.U.;.L.P.L.L.U.U.;.-.P.I.U.*.P.P.&.[.m.,.}./.V.m + + + 4.qXw.rXrXq.#Xq.~ Q./.0XxXxX7.    * { { ^ m.M.X.;.P.*.U.L.I.U.",
"U.U.U.L.U.U.U.U.P.U.U.L.U.U.:.-.;.;.L.L.U.L.~ } W /.].M.m.; + + + q e.8.#.,. . .q.q.F.T.N.rXzXq   O - [ n.6 x.c...U.P.P.U.I.U.U.",
"U.U.-.;.U.U.U.U.-.-.L.U.U.U.-.-.-.;.:.:.;.! $.:.=./._.^ 0 + + + + + 0 w.0X0XF : w.eXgXB.z.Y.qXX   . : ^ m.6 x.[ =.U.I.U.U.U.U.U.",
":.U.-.;.:.-.L.;.-.L.=.:.U.U.U.U.U.U.U.U.U.U.U.U.%.M.,.5 @ # + + + + w i S : a a 4 yXgXH.) w.7..   o 9 m { K [ ..:.U.P.I.*.=.U.U.",
"I.L.U.L.;.L.;.;.W I 6 K ..%.P.U.:.:.:.P.;.I I E P / E 3 + # + + O O % y.y % a a p G.B.M ( 6 = .   . 7 8 6 K K *.:.U.*.P.L.P.;.U.",
"U.;.U.U.U.I.:.K x p 0 A m m 6 ..Y M 1 6 2 c c x 1 6 5 - ; : 1 u u * $ y % w w % = c 1 n 1 $ % O o . @ Z 7 5 ;.U.U.U.U.U.U.U.:.U.",
"U.L.U.L.U.I.K n N Z 2.1.9 p u u = c n v u = b V V V V n n c 1 * ; G.D % $ a % % = 1 1 x % $ m M o o X ; A + > Q L.P.L.:.U.U.U.U.",
"L.U.;.I.U.%.( ) A Z.Z.Z.2.9 v v c = c n V v 1 n ( n n 4 ; @ @ o 7.fXuXD.m : - . $ = $ $ : @.;XH.o o o X @ 5 P ;.:.:.;.;.L.U.I.U.",
"U.I.L.L.I.~ _ ) Z A.A.A.2.7 m c b v c 1 n V V x 3 H 5 3 5 3 3 q 9.G.pXgX;X0 O @ O o $ @.$XfXgXH.5 W Q Q Q *.:.;.;.-.;.;.U.I.U.L.",
"L.L.U.:.! ^ j.` i S.iX3.Z D C N N V V n c 1 4 I %.-.*.L.P.! L.K D F @.0.o.> 3 > > , 6 yXvXyX0.D 6 J %.;.T -.-.-.-.;.;.L.U.-.U.U.",
"U.U.U.-.T ( j.j.C S 5.D N V ] C 1 ( n n M H ! -.L.L.L.L.-.*.T 5 4 4 M 1 , L T T Y Q T 7.J.@.G  .2 > L T T P T T :.L.:.L.:.U.U.U.",
"U.U.U.U.%.( j.j.] ' C C ] ` j.) K T *.=.:.I.U.U.U.U.U.*.U T P 3 4 4 * > L T T L U P U J 9.@.2 2 * * 5 T T T T T %.:.U.U.:.P.I.U.",
"L.L.L.U.I.~ _ j.j.j.` ` k.l.j.( $.-.U.-.U.U.U.U.U.U.*.P T T H 2 4 4 * J T T T T T T T P R 5 2 4 < * * H T T T T Q Q L.:.P.P.U.-.",
"-.U.U.L.*.=.~ ) k.j.k._ k.k.` ^ L.U.U.L.P.U.U.U.*.P.! U T Y H < 2 ; > P P Y T T P L T Q T J > 2 2 * * 5 T T T Y J Q :.L.U.L.;.L.",
"U.P.U.U.P.:.;.I M ( ) ` ` ' M $.L.%.-.U.U.U.U.U.*.U.! T Y T T L 5 5 J T T U T T P T U J U T P 5 3 < > P T T T Q J %.:.U.U.U.U.U.",
"L.I.:.L.L.P.P.U.%.I ~ ~ ~ I *.=.:.U.U.:.:.P.U.U.-.U.P.L.U P T T Y T U Y U T U T P P T T T P T L L P T U U Y Q Q Q U.U.U.-.-.U.U.",
"P.L.L.L.U.U.U.U.U.I.;.U.=.U.U.P.U.U.;.-.L.L.U.U.P.U.L.P.! L.-.T T P U P T T T T T Y P T P T T T Y T P P T Q :.I.L.U.:.L.-.U.U.P.",
"I.-.L.L.U.P.U.U.U.I.U.U.U.U.U.L.U.U.%.U.:.L.L.P.;.U.U.P.:.U.P.-.L.! *.T %.T T %.T T T T ! T %.T *.=.T L.:.:.:.:.:.U.U.P.:.U.P.-.",
"I.L.=.*.-.L.U.U.L.L.-.U.U.L.-.;.U.:.:.U.I.I.=.-.U.U.P.U.U.U.U.P.P.L.-.=.-.L.U.P.=.:.=.P.P.:.=.-.U.-.:.P.P.U.;.;.U.U.I.U.U.U.U.P.",
"P.=.:.L.-.*.=.U.P.L.L.L.L.L.P.P.U.L.U.U.U.U.I.P.I.P.P.U.P.U.-.U.L.-.:.:.-.*.;.U.L.:.I.I.P.:.P.P.U.P.U.U.U.U.P.I.U.I.:.U.U.U.-.U.",
":.P.L.:.P.=.U.;.P.L.P.L.I.U.L.U.L.U.P.U.L.P.U.;.;.U.*.P.;.L.-.P.L.U.L.L.L.=.P.L.P.P.P.L.U.U.L.U.L.U.P.U.I.:.U.;.:.U.*.P.;.L.-.U."
};
