/* XPM */
static char *result[] = {
/* columns rows colors chars-per-pixel */
"64 64 243 2 ",
"   c #140D0E",
".  c #1E140B",
"X  c #1A0D14",
"o  c #1E0E1A",
"O  c #1C1514",
"+  c #270808",
"@  c #350707",
"#  c #3C0303",
"$  c #28190C",
"%  c #36170C",
"&  c #230E17",
"*  c #3C0117",
"=  c #25171A",
"-  c #391919",
";  c #1F2714",
":  c #2C240D",
">  c #3D260D",
",  c #282616",
"<  c #362814",
"1  c #293518",
"2  c #393816",
"3  c #2D1622",
"4  c #361629",
"5  c #3B0E34",
"6  c #372626",
"7  c #383428",
"8  c #3B2D36",
"9  c #440202",
"0  c #4C0202",
"q  c #450A09",
"w  c #540102",
"e  c #5C0101",
"r  c #58090A",
"t  c #481B09",
"y  c #490118",
"u  c #541315",
"i  c #630101",
"p  c #6B0101",
"a  c #660A07",
"s  c #740101",
"d  c #7C0101",
"f  c #760A09",
"g  c #6C1607",
"h  c #7A1206",
"j  c #710D13",
"k  c #48260A",
"l  c #552709",
"z  c #59350A",
"x  c #4D2F10",
"c  c #492816",
"v  c #483615",
"b  c #5B3316",
"n  c #66260A",
"m  c #64380A",
"M  c #77350E",
"N  c #643615",
"B  c #451924",
"V  c #4B0832",
"C  c #540136",
"Z  c #6D0B31",
"A  c #4C312E",
"S  c #46283D",
"D  c #2C4819",
"F  c #37481A",
"G  c #2F501C",
"H  c #32541D",
"J  c #365B1D",
"K  c #395A1E",
"L  c #39621F",
"P  c #385721",
"I  c #3B5C21",
"U  c #3A403C",
"Y  c #3B6421",
"T  c #3E6A23",
"R  c #454818",
"E  c #5A4417",
"W  c #584E17",
"Q  c #45541C",
"!  c #6A4709",
"~  c #754C0D",
"^  c #7A5407",
"/  c #7C540B",
"(  c #684715",
")  c #784711",
"_  c #68511B",
"`  c #78591A",
"'  c #776C1C",
"]  c #5A4425",
"[  c #4D512C",
"{  c #574736",
"}  c #755926",
"|  c #675230",
" . c #426422",
".. c #496726",
"X. c #416D24",
"o. c #546826",
"O. c #447227",
"+. c #487726",
"@. c #457628",
"#. c #477929",
"$. c #4A7D29",
"%. c #546933",
"&. c #7B6724",
"*. c #726B31",
"=. c #380550",
"-. c #500B4E",
";. c #760155",
":. c #503347",
">. c #741770",
",. c #3E4241",
"<. c #4A4848",
"1. c #69564C",
"2. c #76694F",
"3. c #665E68",
"4. c #5D6562",
"5. c #686766",
"6. c #737769",
"7. c #7B7B76",
"8. c #840101",
"9. c #8B0101",
"0. c #940101",
"q. c #9B0201",
"w. c #88110F",
"e. c #A30201",
"r. c #AA0100",
"t. c #B70100",
"y. c #883107",
"u. c #8F023A",
"i. c #C40100",
"p. c #CC0000",
"a. c #D30100",
"s. c #86440E",
"d. c #855D09",
"f. c #885A18",
"g. c #88640A",
"h. c #97720D",
"j. c #896617",
"k. c #84631D",
"l. c #8B691E",
"z. c #926C1D",
"x. c #987619",
"c. c #A57E18",
"v. c #8A5B21",
"b. c #836322",
"n. c #856927",
"m. c #956B23",
"M. c #987524",
"N. c #8B7233",
"B. c #987D33",
"V. c #A57C22",
"C. c #990046",
"Z. c #AA1055",
"A. c #913174",
"S. c #C23067",
"D. c #906F4E",
"F. c #887657",
"G. c #956A68",
"H. c #997E66",
"J. c #4E832B",
"K. c #4F882C",
"L. c #50872B",
"P. c #528C2D",
"I. c #75827A",
"U. c #988518",
"Y. c #A88816",
"T. c #B39719",
"R. c #BAA712",
"E. c #908534",
"W. c #A88426",
"Q. c #B78924",
"!. c #B99329",
"~. c #A28535",
"^. c #B69537",
"/. c #BDA427",
"(. c #CAA51F",
"). c #C5962A",
"_. c #CC9E31",
"`. c #CEA32D",
"'. c #D6AC29",
"]. c #D8AD38",
"[. c #D7B034",
"{. c #E3B738",
"}. c #E4D511",
"|. c #FAF110",
" X c #E3C124",
".X c #F4C637",
"XX c #928B50",
"oX c #AC914E",
"OX c #B9A451",
"+X c #8A886F",
"@X c #9E8765",
"#X c #A38C79",
"$X c #B18F71",
"%X c #BDA660",
"&X c #CFB34B",
"*X c #E4BB44",
"=X c #C49B78",
"-X c #D3B072",
";X c #ECC446",
":X c #F3CF4F",
">X c #FAD755",
",X c #FEE15F",
"<X c #DBCA64",
"1X c #F6D96E",
"2X c #FDE161",
"3X c #FBE376",
"4X c #A635A2",
"5X c #96508D",
"6X c #937A92",
"7X c #798784",
"8X c #898D8C",
"9X c #929692",
"0X c #A8928B",
"qX c #B69984",
"wX c #89A099",
"eX c #BCA38C",
"rX c #B4B197",
"tX c #A493A5",
"yX c #95A9A6",
"uX c #ABB3B3",
"iX c #C79093",
"pX c #C4A486",
"aX c #CDAF97",
"sX c #D9B799",
"dX c #F4BD91",
"fX c #D0B6A8",
"gX c #AFC2BE",
"hX c #D0C590",
"jX c #EAD889",
"kX c #FFE98C",
"lX c #DBC2AE",
"zX c #EBCCAE",
"xX c #F6CDAC",
"cX c #F8D6B9",
"vX c #FFF2B0",
"bX c #BACFCB",
"nX c #C5D5D2",
"mX c #D6DADA",
"MX c #E4D7C9",
"NX c #FFDEC1",
"BX c #FFE3C6",
"VX c #DAE4E3",
"CX c #E6E9E8",
/* pixels */
"O.J.P.P.$.P.P.O.P.J.P.P.J.P.P.P.L.P.P.P.J.P.P.#.L.L.P.L.$.P.P.@.O.J.P.P.$.P.P.O.P.J.P.P.J.P.P.P.L.P.P.P.J.P.P.#.K.K.P.J.J.P.P.@.",
"P.O.$.J.J.@.#.$.$.P.J.$.$.J.$.@.#.$.$.J.@.@.#.#.P.P.P.$.J.$.P.P.P.O.$.L.L.O.@.$.$.P.J.$.#.J.$.@.#.J.#.J.@.#.@.#.K.P.P.$.J.$.P.P.",
"P.P.J.J.@.@.@.@.J.#.L.P.J.P.@.@.#.P.J.@.@.J.P.P.P.P.P.J.O.$.P.#.P.P.$.L.@.@.@.@.J.#.P.P.L.L.@.@.#.P.J.@.#.J.K.K.P.P.P.J.O.$.J.#.",
"J.J.J.P.P.P.P.J.O.P.P.P.P.L.P.J.P.P.P.P.P.P.L.$.J.J.$.P.$.K.$.P.$.L.L.P.P.P.P.J.O.P.P.P.P.P.P.J.P.P.P.P.P.P.K.J.J.J.$.P.J.J.J.P.",
"L.@.@.L.P.P.J.L.J.J.P.P.#.P.P.P.P.P.P.P.P.P.P.#.@.@.@.L.P.P.@.P.K.@.@.J.P.P.J.$.#.@.$.J.+.P.P.P.P.P.K.P.P.P.P.#.#.#.@.J.P.P.#.P.",
"$.@.#.J.$.$.#.#.@.#.@.J.P.J.J.@.$.#.L.L.P.P.P.#.J.#.O.#.P.P.@.@.$.@.#.K.$.$.Q c g h h g n v Q K @.#.J.K.P.P.K.#.$.#.O.#.P.P.@.O.",
"$.O.P.@.@.@.@.@.@.@.@.@.#.@.P.P.P.#.#.#.P.P.P.P.P.P.$.P.P.L.@.$.J.O.P.@.X.v q.i.a.a.a.i.t.q.s r t < F I O.X. .Y X.J.$.P.P.L.@.#.",
"P.@.$.@.@.@.@.@.@.@.@.@.J.P.L.P.P.P.P.P.P.P.P.P.$.J.@.@.P.P.L.P.P.@.#.@.v r.a.a.a.a.t.q.9.d s s p i w 0 q # # y V G @.#.P.P.K.P.",
"K.@.P.P.P.$.@.P.J.L.P.P.P.P.#.P.P.P.L.P.P.P.#.$.P.J.@.@.J.L.J.P.K.@.P.Q q.a.a.a.i.e.9.8.8.d s s p i e e w 9 y -.8 O.@.@.J.K.J.P.",
"P.#.P.P.P.$.@.P.P.P.@.P.P.P.P.P.L.P.$.P.P.P.L.P.P.P.@.$.P.P.P.J.P.@.X.f a.a.a.t.q.0.9.8.d d s p p e e r y y 7  .J.P.#.#.P.P.P.$.",
"@.J.#.P.P.P.$.@.#.P.J.P.O.P.P.L.P.P.P.P.P.P.P.P.P.P.P.P.P.P.J.J.@.$.l i.a.a.i.q.0.0.9.s i e w w 9 t > 2 P +.P.P.P.P.P.P.P.P.$.J.",
"K.P.L.P.P.@.P.#.L.J.J.J.P.P.@.@.L.P.P.O.L.P.P.P.P.$.J.@.P.J.P.P.L.F q.a.a.a.r.0.0.9.8.8.i w # # , #.J.O.L.P.P.P.P.J.K.O.P.J.P.P.",
"K.P.P.J.P.P.P.P.P.P.P.J.P.P.$.@.#.@.L.$.P.P.L.#.P.P.P.J.P.P.P.P...U./ e.p.p.q.0.0.9.8.8.d s p i V X.J.$.P.P.P.$.P.P.L.L.P.P.P.P.",
"P.P.@.@.P.P.P.P.@.@.$.P.P.P.@.@.@.$.$.$.#.$.$.L.P.P.P.P.P.P.P.P.' |.|.Y.y.0.9.0.9.9.8.d d s p i C K J.$.#.#.$.L.P.P.P.P.P.P.P.P.",
"#.P.@.@.$.@.$.@.@.K.@.J.P.P.P.P.P.P.P.P.P.P.P.L.#.J.O.@.Y F Q v T.|.|.|.}.R.h.) n g a a e r r t t F L.P.P.P.P.P.J.P.$.P.@.@.P.P.",
"L.K.P.L.#.J.#.$.#.J.@.K.P.P.P.P.$.P.P.P.P.P. .k c n g h 0.e.t.t.M R.|.|.|.|. X'.).T.U.g.g./ ^ ^ ^ ( $.P.P.P.L.@.J.P.@.P.$.L.@.P.",
"P.@.P.P.P.P.L.#.#.@.@.P.P.$.P.P.P.P.L.L.L.$.[ d t.a.p.a.a.a.a.a.i.q.s.T.}.}. X'.(.T.Y.Y.h.h.g.^ ^ s.O.J.L.J.P.P.P.P.P.P.P.P.J.P.",
"P.L.P.J.P.P.P.P.P.P.P.P.P.$.@.P.P.$.P.P.$.L. .g r.a.a.a.a.a.a.a.a.a.i.e.w.y.d.z.Y.Y.Y.c.h.g.d.^ ! m 1 $.J.J.$.#.J.J.$.J.P.P.P.P.",
"J.P.@.L.P.P.J.P.P.P.P.L.P.L.$.@.#.@.L.P.#.J.$.R s r.a.a.a.a.a.a.a.a.a.a.p.i.q.d d g n n m m z l t 9 @ % P @.#.J.J.J.#.#.J.P.L.P.",
"P.P.J.L.J.$.J.$.$.L.P.P.L.$.$.L.L.P.P.P.@.@.$.X.x d r.p.a.a.a.a.a.a.a.a.p.a.t.q.q.9.8.8.d s p e w 9 0 a C 4 F Y O.@.@.#.P.L.P.J.",
"$.J.P.$.#.$.P.L.$.$.P.$.P.P.P.P.P.P.P.P.@.@.@.@.T F r 8.e.e.q.q.q.8.8.9.q.q.q.0.8.9.9.8.d d s i e e e w w C C V 4 F T J.P.O.P.P.",
"P.P.P.@.@.@.P.P.P.P.P.$.P.P.P.P.P.P.P.P.P.@.@.@.K.T XXW.m M ) ) v.m.m.f.f.s.M h s i s d 8.s s p i i e w w 0 9 y C -., T #.P.P.P.",
"P.P.P.P.P.L.P.#.$.$.$.P.P.P.P.P.P.@.P.P.P.P.P.P.T XX3X[.W.{.{.j.*X*X1X:X{.'.`.!.f.n r e p s s p i i e w 0 0 9 # # * + F $.L.P.P.",
"J.J.J.P.P.P.P.L.P.L.P.P.P.P.$.@.P.#.P.@.P.P.P.P.%.zX&XW.>X.X).E <Xn.-X3X;X{.[.'.j.B.M.% 0 0 e i p e e w 0 0 9 # + + , X.L.L.P.O.",
"$.P.P.$.O.P.P.P.@.@.$.P.L.@.$.P.P.P.P.J.P.P.P.$.XXjXo.&X>X.XY.| &X*.$XvX3X:X].!.] B.).{ &.` t 0 9 0 0 q 9 # # + + 1 +.J.P.J.$.J.",
"P.K.P.P.P.$.P.P.@.P.$.#.$.P.P.P.J.O.@.P.P.P.P.@.XXE.P <X>X.XM.F.oX@X@XjX3X:X_.b.#XoXB.qXD.*X!.j.( t t @ @ $ : F K L.$.P.L.P.P.P.",
"L.P.$.J.K.P.$.P.$.$.P.P.P.$.L.@.J.P.P.J.$.P.P.#.*.%...<X>X.XN.pX*.qXqX&X>X{.b.@XpX} H.NX@X&X].).Q.k.!.W T J.L.P.+.P.P.P.+.#.P.P.",
"L.$.$.J.P.P.P.P.P.L.@.P.$.P.P.P.J.P.@.@.J.J.P.J.D @...hXkX;XB.fX2.| pXXX&XW.D.H.] 6 $XNXqX_.*X).).j.`.&.@.J.P.P.J.P.$.J.#.P.P.J.",
"L.@.$.J.P.K.P.P.P.L.P.P.P.P.P.L.P.P.O.P.$.J.J.J.K J.#.rXvX2XB.2.:.S G.sXF.qXpX<.-.:.:.aXpXoX1X*X].` ).V. .$.$.J.$.P.P.L.#.P.P.+.",
"L.J.@.O.$.$.P.P.$.$.@.P.P.$.@.$.P.$.$.P.L.P.@.@.P.P.T oXvX2X~.I.9X6X:.zXcXNXcX0X8X5 3.0XpX%XkX>X).( Q.^.o.P.+.@.P.P.K.L.K.P.P.K.",
"K.@.$.L.#.O.@.P.L.$.P.L.L.$.P.P.P.J.P.P.P.P.P.J.P.K.J.*.3X.X/.rXtX:.=.aXNXNXzXG.=.5 tXMX=X-X1X].z.f.).).&.O.K.J.P.K.J.P.P.K.#.P.",
"$.P.$.$.$.#.P.$.K.L.L.$.P.P.$.P.J.P.J.P.J.J.P.$.$.P.O...<X>X`.eXuX>.A.aXNXcXMX5X;.A.gXBX$X_.*X)./ V.).V.Y.Q P.+.J.P.@.K.#.J.#.P.",
"O.L.P.P.$.P.P.O.P.J.P.P.K.K.P.P.K.P.P.P.J.P.P.#.L.L.P.X.E.,X{.F.lX4X5XzXNXNXNX0X4X5XMXcXH.].[.c.` Q.Q.Q.Q.k.o.J.L.L.P.K.J.K.K.@.",
"P.X.$.J.L.@.#.#.$.P.J.$.J.J.$.@.#.J.#.K.T J.T J.L.P.P.$.$.<X.X&.H.lXlXNXzXfXzXxXqXfXcXdXB.{._.` f.Q.Q.W.W.V.n...J.P.K.J.J.J.P.P.",
"P.P.$.L.@.@.@.@.J.#.P.J.J.J.@.@.#.K.K.#.T K.P.P.P.+.J.@.F N.:X^.k.F.lXcXiXH.qXNXBXcX-XD.B.{.Q.c : f.c.V.V.V.M.~.*.O.J.J.T J.K.#.",
"$.L.L.P.P.P.P.J.@.P.P.P.P.P.K.J.P.P.P.P.P.P.P.P.J.G o.E.N.E.^.{.( 6 A H.sXxXzXsX$X1.4 O oX`.) O   < z.V.M.V.b.M.Q.B.} F T K.J.K.",
"L.@.@.L.P.P.L.J.J.J.P.P.#.P.P.P.P.P.P.P.P.P.P.T #. .*.^.^..Xn.n.&.4 4 4 6 { { 6 3 o o ] `.k.I.8X3   _ x.` m.x.` b.m.b.Q J.P.+.P.",
"J.@.@.L.$.$.#.@.O.#.@.K.P.J.J.@.J.#.J.K.P.P.P.#.$.#.H *.;X.XW.O , 3 8 8 B 1.H.A b 3 = &._ 5.mXVX7XO < z.l._ z.M.b.R I @.P.P.#.@.",
"$.O.P.@.O.P 2 > 2 F I X.$.@.P.P.K.#.#.#.P.P.P.P.P.P. .&X.X`.M.O <.:.8 6 b.} n.| } = = < 5.mXCXmXbX5.; &.x.` ` l.m.&.X.P.P.K.@.#.",
"P.O.$.X.F x z c B B c 2 T P.P.P.K.P.K.K.P.P.P.K.J.J.*.;X'.).B.X 8X7.:.:.A 2.&.0X<.S <.5.tXCXVXmXnXbX,.E m.l.E k.b.m.Q +.P.K.K.K.",
"L.@.K.Q ! ^ c -.-.=.5 c c Y #.J.K.P.J.P.P.P.$.J.P.O.OX.X!.[.m.X 9XuX5.3.1.8X+XbX7.8XyXbX5.mXVXmXbXbX7X2 l.l._ _ l.M.W @.J.L.J.P.",
"P.@. .! g.z Z C.C.;.=.- k k 2 2 2 Y T  .#.P.J.P.P.+.&X{.~.{.&.X 9XmX8XtXgXuXXXgXuXwXI.<.U 9XrX9XwXuXgX7 ` k.v.v k.m.W +.P.P.L.J.",
"@.$.R / d.N u.S.Z.C.-.- l t % l l k $ k c F #.P.P.o.].`.n..X_ o wXVXyX{ I.+X2.2.2.[ [ 7XwX{ ).T.U.*.wX,.E k.m.2 ` b. .P.P.P.J.$.",
"L.O.! d.d.N Z iXA.C 3 4 k l l % z l t k z l < I K.O._.' *.{.W = 6.8X4.7.6.2.R ] I.7XwX7XA @ *.@XN.k.| 8 v k.m.R _ _ O.O.P.J.P.P.",
"L.@.! g.d.) N A u A N N x z n k k ! z > z ! m k 2 F _ F *.^.v = U./.' A 5.5.B c 4.1.S j # @ 1.xXdX| ! = 4 ` M.Q 2  .L.L.P.P.P.P.",
"P.J.F ^ d.d.) M ( N ) ~ m k ! z k k m m k x ! ! m z l k k c % $ > x E q j r # r u w j w.# q - #XsXv z $ 4 b b.K X.L.P.P.P.P.P.P.",
"$.P.Y v / d.d./ / / d.d.z 2 E m z k > x > 2 F Q R Q F R > > $ % c c - r f j # u a 0 j w.@ q % , b > x . 3 6 R L.J.P.$.P.@.@.P.P.",
"L.L.P.X.v ~ d.d.d.d.d./ R J.+. .F R J T J.P.J.J.$.P.O.L. .1 o o 1.0X6 q r w.9 * q q j r + y + o > > :   O V 1 O.$.P.#.P.#.K.@.P.",
"P.@.P.P.#.R z ~ / / ! R +.J.P.P.P.P.J.J.P.J.P.P.P.P.P.P.K., o o 3 3 o & y r r + + q r @ @ % X 4 $ $       3 4 G P.P.P.P.P.P.$.P.",
"P.L.P.J.P.J.X.R v R R +.P.$.+.P.K.J.P.P.J.J.J.#.J.J.J.J. .3 o o o o = o X + @ + - - + # + + o B 4 , 1 , O   = O G J.J.J.P.P.P.P.",
"J.P.+.L.P.P.J.L.J.J.K.J.P.L.L.@.@.@.K.P.#.J.#.J.J.J.@.@.7 & o o o o o o o 6 F.D.eXpXH.D.D.3 - 1 L T J.J.Y H G J  .$.#.#.J.P.K.P.",
"P.J.J.K.J.#.J.J.K.J.P.P.$.+.L.$.J.P.P.P.@.@.$.@.@.@.@.F 4 4 = ; 1 1 ; O X 6 rX#XeXxXxXxX=X1 L $.J.P.P.P.#.T J.J.@.@.@.#.P.L.P.J.",
"J.J.P.J.+.J.L.K.J.@.P.$.P.P.P.L.P.P.K.P.@.@.@.#.@.@.O.G 7 1 I #.T T T Y D ; { { 1.1.2.D.[ J T T T @.#.J.T J.J.T @.O.O.L.P.O.P.P.",
"P.P.L.@.@.@.P.P.P.P.P.$.P.P.P.P.P.P.P.P.P.@.@.#.J.$.J.J.#.$.#.T T Y Y J G D 7 A { c { c : H L L L L L L L L T T J.L.$.L.$.P.P.P.",
"P.P.P.P.J.J.P.$.J.$.J.P.P.L.P.P.P.#.P.P.P.P.P.P.K.P.P.K.T Y L L L L Y L L J D O < = < $ 1 L L L L G L L L L L T J.P.P.P.$.P.P.P.",
"J.J.J.P.P.P.P.L.P.J.P.P.P.P.L.#.P.#.P.#.P.P.P.P.P.P.P.T I J L G H J J L L L J , < : $ $ G L L G L H L H L L L L T K.P.#.K.L.P.O.",
"#.P.P.$.O.P.P.P.@.@.J.P.L.@.J.L.P.P.P.J.K.P.P.P.@.P.K.T L J J J H L L J G L L 1 , $ $ ; L G J J L L L J L Y Y Y G $.P.K.P.J.#.J.",
"P.P.P.P.P.J.P.P.@.P.J.@.J.L.P.P.J.O.@.P.P.P.P.P.O.K.J.#.L L L L L L L L L J L D : : $ 1 J L L L L G G Y L J Y Y P P.$.P.P.P.P.P.",
"J.P.$.J.J.J.J.P.#.$.P.L.P.$.J.#.J.P.P.$.$.K.P.P.@.P.K.K.T L L L J L H J J L J L D ; D L L J L G H L L H H L T #.@.P.P.P.@.#.P.P.",
"L.$.J.J.P.P.P.P.P.J.@.P.#.P.P.P.J.P.#.#.J.J.P.P.J.P.J.J.+.P.J.O.T L L H L L L L L L G L H L L L L L H J T @.L.P.J.P.$.J.@.P.P.J.",
"P.#.$.L.P.J.P.P.P.L.P.P.P.P.P.L.P.L.O.P.$.J.J.J.#.P.P.K.$.P.K.+.K.T #.#.T T T #.L O.T T O.T O.O.J.J.T K.$.J.J.J.$.P.P.L.#.P.P.@.",
"L.$.@.@.#.J.P.P.$.J.@.P.P.J.#.#.P.J.$.P.L.L.@.+.P.P.K.P.P.P.P.K.K.J.#.T J.J.P.P.+.J.+.K.P.J.+.#.K.#.J.P.P.P.O.#.P.P.L.P.P.P.P.K.",
"L.@.$.$.#.O.#.P.K.J.L.L.J.J.L.L.P.J.P.P.P.P.K.K.P.J.J.P.K.K.+.P.K.#.#.J.J.T #.P.K.J.K.K.J.J.K.K.P.J.P.P.P.P.L.L.P.L.$.P.P.P.@.P.",
"$.L.L.$.J.@.P.$.J.L.J.J.P.P.$.P.J.P.K.P.J.J.P.#.$.P.@.K.#.K.#.K.J.K.J.J.J.#.K.J.K.K.J.J.P.P.J.P.J.P.J.P.L.$.P.#.$.P.O.L.@.K.@.P."
};
