/* XPM */
static char *result[] = {
/* columns rows colors chars-per-pixel */
"64 64 142 2 ",
"   c #37271A",
".  c #3D2B1B",
"X  c #33361D",
"o  c #3B331C",
"O  c #343B1F",
"+  c #3C3E1F",
"@  c #333D20",
"#  c #432E1B",
"$  c #44321B",
"%  c #4C341B",
"&  c #433B1C",
"*  c #51371C",
"=  c #543A1C",
"-  c #5B3E1D",
";  c #3E401F",
":  c #334926",
">  c #375127",
",  c #385327",
"<  c #3F5C26",
"1  c #395428",
"2  c #3D5C29",
"3  c #3F6229",
"4  c #43411D",
"5  c #48461D",
"6  c #434B1F",
"7  c #4A4A1D",
"8  c #5E401D",
"9  c #554C1C",
"0  c #4C521F",
"q  c #64431E",
"w  c #69471E",
"e  c #6C491F",
"r  c #734E1F",
"t  c #64631E",
"y  c #6D6F1F",
"u  c #454520",
"i  c #424E20",
"p  c #484B22",
"a  c #445422",
"s  c #495721",
"d  c #455B24",
"f  c #4A5C24",
"g  c #505D21",
"h  c #664621",
"j  c #694721",
"k  c #6C4A21",
"l  c #734E22",
"z  c #765021",
"x  c #7C5423",
"c  c #7B5528",
"v  c #7E5828",
"b  c #456127",
"n  c #4A6425",
"m  c #4E6A26",
"M  c #40642A",
"N  c #4A6728",
"B  c #446B2B",
"V  c #4C6D29",
"C  c #546322",
"Z  c #5B6621",
"A  c #516C26",
"S  c #5D6821",
"D  c #506F28",
"F  c #47742C",
"G  c #48762C",
"H  c #4B7C2D",
"J  c #5F7926",
"K  c #537429",
"L  c #537B2B",
"P  c #5A7E2A",
"I  c #617525",
"U  c #677A24",
"Y  c #757F21",
"T  c #845C25",
"R  c #885F27",
"E  c #825729",
"W  c #845B29",
"Q  c #895F29",
"!  c #8A6027",
"~  c #8C622A",
"^  c #92652E",
"/  c #98662F",
"(  c #94682F",
")  c #9B6B2F",
"_  c #966A31",
"`  c #996C33",
"'  c #9F7034",
"]  c #A06D2F",
"[  c #A26E30",
"{  c #A57234",
"}  c #AA7534",
"|  c #AE7935",
" . c #B07733",
".. c #B57C36",
"X. c #BA7F36",
"o. c #B67B39",
"O. c #B97E3A",
"+. c #4E812E",
"@. c #50852F",
"#. c #5D832B",
"$. c #52882F",
"%. c #5F892D",
"&. c #4F8530",
"*. c #518730",
"=. c #538C31",
"-. c #63872A",
";. c #628C2D",
":. c #698D2A",
">. c #798421",
",. c #798A23",
"<. c #65942E",
"1. c #6A912C",
"2. c #67982F",
"3. c #689A2F",
"4. c #729229",
"5. c #799B2A",
"6. c #74A32F",
"7. c #7FA129",
"8. c #79A92F",
"9. c #839323",
"0. c #BC8036",
"q. c #BE8239",
"w. c #86A327",
"e. c #8DA525",
"r. c #84A429",
"t. c #88AB29",
"y. c #90AF27",
"u. c #88B62D",
"i. c #8FBC2C",
"p. c #95B327",
"a. c #9BBC27",
"s. c #95B428",
"d. c #93BE2B",
"f. c #9BBC28",
"g. c #C3853B",
"h. c #C7883D",
"j. c #C9893E",
"k. c #95C12B",
"l. c #9CC329",
"z. c #A5C727",
"x. c #CD8C41",
"c. c #D08D42",
/* pixels */
"F +.=.=.+.=.=.F =.+.=.=.&.=.=.=.@.=.=.=.+.=.=.+.+.@.=.@.H =.=.F B &.=.=.H =.=.F =.+.=.=.$.=.=.=.&.=.=.=.+.=.=.H +.$.=.+.+.=.=.3 ",
"=.B H +.+.F G H H $.+.H H +.H F H +.H +.F F F G $.=.+.F G V L L *.B H H *.G G G H =.+.+.G +.H G G +.H +.F F F H *.=.=.+.+.H =.=.",
"=.$.+.$.G F F G +.F *.=.&.$.F F F =.+.F F +.=.=.=.@ T [ [ { { { / # L *.F G G G +.G &.=.&.@.G G G =.+.G F +.=.=.=.=.=.+.3 +.=.H ",
"+.+.+.=.=.=.=.+.F =.=.=.=.$.=.+.=.=.=.=.=.=.@.+.+.d c 0.q.g.| q.O.# &.=.=.=.=.&.B =.=.=.=.$.=.+.=.=.=.=.=.=.*.+.+.+.H =.&.&.+.=.",
"$.G F +.=.=.+.+.+.&.=.=.G =.=.=.=.=.=.=.=.=.=.F G G # - 8 # $ # # # F &.=.=.+.*.H &.=.=.G =.=.$.=.=.=.=.=.=.=.F F F F &.=.=.H =.",
"H G G +.H +.H G F G F &.=.+.+.F +.H +.&.=.=.=.H H H # ( q.0.0.0.~ & G &.G H G G G G G &.=.+.+.H +.H +.$.=.=.=.H +.H F F =.=.F F ",
"H F =.G G F F F F G F F H F =.=.$.F F H =.=.=.=.=.=.$ R R ~ ! ! l & =.F G G G G G G F G H H $.$.&.G F G =.=.=.=.=.=.+.=.=.&.F H ",
"=.G H G F G F G F F F F +.=.*.=.=.=.=.$.=.=.=.=.H +.# q = = * * * $ 4 4 4 a a a a p a a s G G $.=.=.=.*.=.=.=.=.H +.F F =.=.&.=.",
"$.G =.$.=.G G $.&.$.$.=.$.=.G =.=.=.+.$.$.=.6 $ o & 7 g J -.-.;.;.-.#.5.l.f.p.p.p.:.r.s.y.y.e.t # =.+.=.=.=.G H &.&.F F +.&.+.=.",
"=.G =.=.=.+.G $.=.+.B H f # $ 7 0 U >.>.>.J a.i.d.k.z.z.i.u.u.u.u.6.3.3.3.3.3.3.3.3.3.3.3.3.3.3.-.# H =.=.=.*.=.=.=.F H =.=.&.+.",
"F +.H =.=.=.H F o y ,.I 5.8.u.k.k.u.3.3.3.3.3.<.<.3.3.3.3.3.3.3.3.2.3.3.3.3.3.;.;.%.#.#.#.#.<.3.3.5 N =.=.=.=.=.=.=.=.=.=.=.+.+.",
"*.*.$.=.=.G $.# A 3.3.3.3.3.3.3.3.3.<.3.3.;.#.K K K K K K K D D A m m N n n N A G m N n n n n n n n $ F @.=.=.=.=.+.&.F =.+.=.=.",
"=.=.=.+.=.=.=.$ m K L K K K K K K K n n n D n n 0 4 4 6 0 0 3 0 d n m A n n s a $ # $ $ $ # & 4 u + # 6 =.=.$.H =.=.+.+.=.$.=.=.",
"=.=.F F $.$.=.$ 0 n n n f 4 & $ $ & n n n 0 $ & Y w.4.C o # $ o K K #.L K <.3.K A n a 6 n <.t.d # # k - $ H H $.=.=.=.=.=.=.=.=.",
"H =.F G H F H $ # $ $ # $ n <.l.<.<.6.u.l.z.u.<.#.K K K #.z.8.#.K K 3.l.z.z.K n 4 # = q # 6 z.& - R  .h./ $ =.=.+.=.+.=.F F =.=.",
"$.$.=.+.H H H G o d n n n n n ;.3.8.%.#.K D n b b n n n n K D n f n K K K n n # * T ^ ! x # m 0 = ~ 0.0.j.g.o F +.=.F =.+.&.F =.",
"=.F =.=.=.$.*.H # $ a d d n n n n m m n n d 0 o # # 4 a n n B n o $ f n n d # 8 T ^ ` ` ! = 6 d # l ^ ..q.x.x.$ N =.=.=.=.=.*.=.",
"=.&.=.+.=.=.=.=.# x * % $ # 6 d m n n n d o % T R x - # ; d 0 & q r $ a i $ k ! ! ` k ^ ( z # 4 # $ % x [ q.c.c.% &.H &.=.=.=.=.",
"+.=.F *.=.=.+.=.# ( ` ( ! x % & d d 0 6 $ r T q ` ` ~ l * $ $ * R ~ = $ * x ! _  .0.X.0.` ! l q x ~ ^ % * ~ X.g.l H H G L =.*.=.",
"=.$.+.$.+.F +.+.# R ` l _ ` x - # # o = R ! ` ` { ` ` ^ x z r x ` ` Q T R _ ` ~ [  .} 0.0.` ^ Q ( ` ` ` j $ ^ ~ # G G G =.*.=.H ",
"+.+.=.+.H +.*.&.# ! ~ 0.{ ` W k k v z ! ^ _ ^ W Q T E Q ` ~ ^ ` ` ` ` ` } ) | 0.h.c.c.q.^ E l c c ~ ` _ ` k $ # G G G *.=.F =.=.",
"=.=.$.F F F =.=.# T ` | [ { q.q.| ` ` ` _ ..0.0.X.X.X.X.X.X.X.` } ..0.X.0.0.X.x.c.c.x.x.c.g.g.X.0.0.X.` ` ~ % d +.+.H *.H =.=.=.",
"=.=.=.=.=.&.=.H # T ` 0.0.g.x.x.0.} 0.0.{ X.0.0.c.c.X.X.X.| [ q.0.0.0.0.0.0.c.c.c.c.j.c.x.x.c.O.{ } } ~ ! k # =.=.=.=.=.H *.*.=.",
"+.+.+.=.=.=.=.+.# E ` ` ` X.g.x.j.g.0.o.g.x.x.h.c.c.c.j.g.x.X.g.j.h.c.c.g.j.c.c.c.c.c.c.c.g.x.X.X.` ~ ! z $ u =.=.=.=.G *.&.=.F ",
"H =.=.+.3 =.=.=.+ z ~ ` X.X.j.h.` l q v E q c o.x.c.c.c.c.c.c.c.c.c.x.x.x.x.x.x.x.x.x.o.E h h j k c ! x $ =.b =.F =.=.=.=.+.G &.",
"=.+.=.=.*.+.=.=.$ z ( ` 0.q.0.x.c.c.c.c.c.c.c.c.c.c.c.c.o.} ` o.j.c.c.c.x.c.c.x.c.c.x.j.c.g.X.` ` ! T % L =.f =.B =.H =.@.=.=.=.",
"+.*.H +.+.=.+.=.# T R ` ` q.0.q.x.x.c.c.c.c.c.c.c.c.c.c.c.c.c.c.c.c.c.c.c.c.c.c.c.c.c.x.q.X.` ` ~ T - u H =.u =.G =.=.=.G G =.=.",
"$.H +.+.=.=.=.=.# T ( l ~ ` X.q.X.X.j.c.c.c.c.c.c.j.c.c.x.O.g.q.O.| ^ ^ { o.{ ^ v T W E z Q ` ^ ~ w # G +.+.=.=.&.=.H +.G =.=.&.",
"*.F H +.=.+.=.=.# x ~ ~ ! ` ` | 0.0.0.0.0.0.X.X.X.0.0.j.c.c.q.X.g.j.j.g.O.o.X.X.0.X.| 0.` ` ~ Q e # # =.+.+.+.+.H =.=.$.G =.$.G ",
"*.+.F F F +.=.=.# r ! ( ( ~ v z x E Q } 0.0.X.| Q x c c E c E ~ ]  . .) / X.o. .` ` } ` ` R R r $ F # @.$.=.F F =.=.+.$.=.=.=.$.",
"*.F H +.H 3 +.*.# r R ! R R ( _ ` ` { | ) Q E ^ { { { {  .0.0.0.0.X.X.| } ` ` { } ` / ~ ~ R r $ @.+.# =.=.=.=.+.=.$.+.=.$.=.G =.",
"+.*.+.+.+.F =.+.# r z x R R R ! ^ ` ` ` ` ` ` ` ` / ` ` ` ` ` ` ` _ ` ` ~ ~ Q R ~ ~ ( ~ T r $ L @.=.# =.+.+.=.G H =.F $.H +.F =.",
"F +.=.$.+.=.=.F   e r r z x T ! R ! R ! ~ ^ ^ ` / ( ^ ^ ! ! ~ ~ ~ ~ R w ^ k k h l R R z r % # =.@.=.# =.+.=.=.+.+.$.=.+.+.=.=.F ",
"$.F +.+.+.F F H + r r r r r r x z r r r r e e e w e e r z z e w w T R R R T T z r r r e $ N # G G +.H +.F G F G $.=.=.+.+.+.=.=.",
"=.=.+.$.F F G G a # $ # $ $ $ % = q q r r r r r r r r r r z r r r r r r r r r q = $ # # @.@.# G G =.+.G G H =.=.=.=.$.H F H +.G ",
"+.+.+.=.=.$.=.+.F # n 9 d $.$.+.$.F d ; o   # # $ $ # # $ $ $ o $ $ % # # 7 # a M s 9.# =.@.V b =.=.=.=.=.=.=.+.+.+.+.=.+.$.+.=.",
"+.G G $.$.$.$.+.+.H $ K $ +.$.$.=.=.=.=.=.=.=.# 7.$ # l r r r z z z z w # d 1.$ # & Z # G =.=.# =.=.=.=.=.=.=.G H F G +.=.=.G =.",
"+.F F +.H H H G F H $ 4 K $ B G H H +.$.$.@.$ s.6 $ # r l ! ! ! ! ! x w b # 4 f K a # # =.&.+.# +.G +.&.=.=.=.G H G F G =.=.G F ",
"H F =.F F F F F F F F 6 & m 0 $ # & & # $ S P 6 # =.# e ! ~ ! ! ! ! v w d F d & # & F # G G =.&.+.G G G =.=.=.=.=.=.H =.=.*.G G ",
"=.F +.F H F F F G F F G H # 6 N I -.P K m p & f H +.# r ! ! ` _ ` ( T w a G G G F F G $ H =.*.=.=.=.=.=.=.=.=.=.+.+.G G =.=.+.=.",
"+.F =.=.=.G F *.+.+.=.=.$.=.M $ $ & $ $ $ f G &.*.+.$ e ! ` ' ' X.` _ r f G G *.+.&.=.# $.=.G =.=.=.=.=.=.=.H +.$.+.F F +.$.+.=.",
"=.F =.=.=.+.G =.=.=.G =.=.=.=.=.&.=.H =.=.=.&.=.=.=.  z ^ ` ' 0.0.{ ' x u +.G =.=.=.G # =.=.=.=.+.=.+.=.=.=.&.=.=.=.F H =.=.&.+.",
"F +.G =.=.=.H F H =.+.=.F =.=.&.=.=.=.=.=.=.=.=.=.=.  T _ ' 0.h.x.0._ ! # =.G G G =.H $ F =.=.@.=.=.=.=.=.=.=.=.=.=.=.=.=.=.+.+.",
"&.=.*.=.=.F =.G +.$.+.+.=.=.F F &.=.=.B *.=.=.=.=.H o z ` | q.c.x.q.` ! $ G =.G +.+.+.# =.=.G G &.=.=.3 &.=.*.=.=.+.&.F =.+.=.=.",
"=.=.=.+.=.=.=.=.=.=.=.+.=.=.H G G G +.&.=.=.*.H =.=.; r ` ` h.c.j.0.' z $ =.=.=.=.=.=.# =.=.H G F F +.+.=.=.*.+.=.=.&.+.=.$.=.=.",
"=.=.F F =.=.=.=.G G H =.=.=.G G G G H H G G H +.=.=.d k ` ` g.c.x.0.{ z $ =.=.=.G G H # =.=.G G F H +.H F H +.+.=.=.=.=.=.=.=.=.",
"H =.F H H F +.F G +.G H =.=.=.=.=.=.=.=.=.=.=.=.+.=.a q ` ` g.x.x.x.} x # G H G G +.G # =.=.=.=.=.=.=.=.=.=.=.=.+.=.+.$.F F =.=.",
"$.+.=.&.F +.H +.G &.G &.=.=.=.=.H =.=.=.=.=.&.G H $.M 8 ` ` g.c.c.c.| x $ H H H H +.G o =.=.=.=.+.&.=.=.=.=.+.G +.=.F =.+.+.F =.",
"=.F =.=.=.*.*.F F F G =.=.+.=.=.=.=.+.+.$.+.=.=.=.=.=.= ` | j.c.c.j.} c # =.&.H F F F $ =.+.=.=.=.=.*.+.&.+.=.=.=.=.=.=.=.=.+.=.",
"=.&.=.+.=.=.=.=.=.=.=.=.=.+.F =.&.+.=.=.+.+.+.G +.+.+.$ ` 0.j.c.c.g.' Q # =.=.=.=.=.=.6 =.+.F =.&.+.=.=.+.&.+.H +.+.+.+.=.=.=.=.",
"+.=.F $.=.=.+.=.=.=.=.+.=.$.&.F G F *.=.H +.H +.+.+.G o ` X.h.c.j.g.' Q $ H &.=.$.=.=.+.=.$.+.F F F &.=.F +.H +.+.+.F F +.=.&.=.",
"=.+.+.$.$.F +.+.&.&.=.=.+.F +.+.&.=.=.=.G G H G F G F # R X.0.0.0.0._ Q % M B B +.+.=.=.+.F +.+.&.=.=.=.F F H H F F F H =.*.*.+.",
"+.&.=.+.H H $.&.+.F =.H =.=.=.$.=.=.*.=.G F G F F B 3 $ T ` ` } X.` ~ ! $ 2 d F B F =.H =.=.=.$.=.=.$.=.F F F F F F F *.=.F =.=.",
"=.=.$.F F F =.=.=.=.=.+.=.=.=.=.=.=.*.=.=.G F G B 3 2 # r Q ` ` ` ( R T $ : 3 3 G G =.H =.=.=.=.=.=.*.=.=.F F F +.+.+.+.H =.=.=.",
"=.=.=.=.$.+.=.G +.+.+.=.=.&.=.=.=.G =.=.=.=.=.G F 1 1 . r ~ R R R ~ R r $ > 1 1 F 3 +.=.=.$.=.=.=.F =.=.=.=.=.=.=.=.=.=.+.*.$.=.",
"+.+.+.=.=.=.=.$.&.+.=.=.=.=.+.F =.G =.G =.=.*.F M 1 1 . r x R T R R R r . 1 1 3 B B =.=.=.=.$.F =.H =.F =.=.=.=.=.=.=.H +.$.*.F ",
"H =.=.+.F =.=.=.F F &.=.+.F +.$.=.=.=.+.=.=.+.G 1 1 1 X % l l l r r w $ X 1 1 M 3 3 $.=.+.F +.+.=.=.=.+.=.=.=.=.F =.=.+.=.+.H &.",
"=.+.=.=.$.+.=.=.F =.+.F +.=.=.=.+.F G =.=.=.&.G 1 3 > 1 @ o # # # o O > , > M M 3 F +.F +.=.=.=.=.3 F =.*.=.=.=.F =.+.=.*.=.=.=.",
"+.=.H +.+.&.+.=.H H =.&.=.H &.F H =.=.H G =.$.G M M 3 M , 1 2 2 > , > < 2 M M F 3 F =.&.=.+.&.F +.=.=.+.+.&.=.=.F =.=.=.F G =.=.",
"+.+.+.+.=.=.=.=.=.+.F =.H =.=.=.$.=.G G +.+.=.G B G B M , 3 M 2 M 2 M M F F G F H &.F =.H =.=.$.=.=.F F +.+.=.=.+.=.H +.G =.*.+.",
"$.F +.+.=.&.=.=.=.$.=.=.=.=.=.+.=.=.F =.H +.+.H B G G F M G F M G 3 B B G F G *.=.$.=.=.=.=.*.+.=.*.3 =.+.+.+.+.+.=.=.*.H =.*.F ",
"$.+.F F F +.=.=.+.+.F =.=.+.F H =.G G =.=.=.G G =.=.B F F F G B F B 3 3 M H =.=.H +.F $.=.+.F +.=.H +.=.$.=.F F =.=.+.$.=.=.=.*.",
"&.F H +.H F F =.+.+.+.&.+.+.$.$.=.+.=.=.=.=.=.*.*.*.&.=.=.=.G =.&.G H &.H B F =.&.+.&.$.&.+.&.&.=.+.=.=.=.=.=.+.=.+.+.$.=.=.F =.",
"+.$.+.H +.F =.H &.$.+.+.=.=.+.=.*.=.*.=.*.H =.G G =.F *.G &.G =.H *.L H *.F =.H $.&.+.+.=.=.+.=.&.=.=.=.+.+.=.H H =.F &.H &.F =."
};
