/* XPM */
static char *result[] = {
/* columns rows colors chars-per-pixel */
"64 64 74 1 ",
"  c #272F1D",
". c #27341E",
"X c #2E371E",
"o c #2F381E",
"O c #323D1F",
"+ c #35401F",
"@ c #2F4220",
"# c #364320",
"$ c #394620",
"% c #354C23",
"& c #3C4B21",
"* c #355124",
"= c #3D5223",
"- c #3D5B26",
"; c #3A5928",
": c #3E6127",
"> c #425523",
", c #455B23",
"< c #485E24",
"1 c #436227",
"2 c #4A6325",
"3 c #4E6A27",
"4 c #436628",
"5 c #446C2A",
"6 c #4F6D28",
"7 c #516624",
"8 c #526D26",
"9 c #596D25",
"0 c #516F28",
"q c #47742C",
"w c #48762C",
"e c #4B7C2D",
"r c #577226",
"t c #5A7426",
"y c #537429",
"u c #567A2A",
"i c #597D2A",
"p c #627A26",
"a c #4E812E",
"s c #50852F",
"d c #5C832B",
"f c #52882F",
"g c #5F892D",
"h c #4F8530",
"j c #518730",
"k c #538C31",
"l c #638128",
"z c #618D2D",
"x c #6F8F29",
"c c #708B27",
"v c #728F28",
"b c #64932E",
"n c #6A972E",
"m c #67982F",
"M c #689A2F",
"N c #73942A",
"B c #729B2D",
"V c #789C2A",
"C c #74A42F",
"Z c #7AA32C",
"A c #7DAB2F",
"S c #86A729",
"D c #80AF2E",
"F c #8BAD2A",
"G c #85B32E",
"H c #8AB42C",
"J c #8DBA2C",
"K c #91B72A",
"L c #93BC2B",
"P c #98BC29",
"I c #96C12A",
"U c #9CC329",
"Y c #A5C727",
"T c #A2C628",
/* pixels */
"qakkekkqkekkfkkkfkkkskkefakaekkqqekkekkqkakkfkkkkkkkakkeakkaakkq",
"k5eaaqeeekeeeaeqeeeewqqefkkaaekkkqeefqweekaeeaeqeeeaqqqwjkkaaekk",
"kkafqqqqaefjafqqekeqqefkkkkaqekwkkafwqqqawhkakqqekaqqakkkkkaqahw",
"aaakkkkhqkkkkfkhkkkkkkfaaaekahekaaakkkkaqkkkkakakkkkkkkaaaefeaak",
"fqqakkaaahkkekkkkkkkkkkqqwqakkwkjqwakkaahakkqkkkkkkkkkkwwwwakkwk",
"eqeaeeeeqeqjkeaqeesjkkkeeeqekkqqaweaeeeewwqhkahqeeaakkkeawqwkkqq",
"eqkqwwqqqqqqeqkkfqwwkkkkkkakkhqeaqkqqqqqqqq+&wkkjqqqkkkkkkekkjqe",
"kwewqqqqqqqqekkkkkkkkkkkeaqqkkjkjqewwqqqqqq##kkkkkkkkkkkeawwkkak",
"fqkkkeqkhakkjkwkkkakkke*4aqqaffkaqkkkeqjah@S7kqkkkakkkqahaqqahak",
"kqkkkeqkkkqkkkkkhkekkkf5#eqekffakwkkkaqkkk+Yl-kkakakkkhkkkqekkja",
"qhekkkeqekek5kkjkkkkkkkk+$jkkkfaqjwkkkaqw-NYV#kfkkkkkkkkkkkkkjaa",
"jjjkkqkwhfaskkqwakkqkkfkOc$5kakkjjjkkqkwa+YUZ#qqakkqjkjkkajqkakk",
"kkkekkkkkkkakkeeeqeakkje##Y$ffkkjkkakkkk5rYCJ+eqwqaakkkekkaakkkk",
"kfqwkkk%$*ekkkqqqeeaweefOprU+fkkkkwwkkkk+YYOL>wwqwaaqeahkkkkkkkk",
"ekweeqeO#9#ekkkkkkkkkkkkOU#LF*kkekwwewew=YH,Y,kkkkkkkkkkakakwwkk",
"kakaeee:##K,$kkkekkkkkaw1V>gYp5kjakjwae+CY23Y3fkahkkkkawakqjahqk",
"kqkkkkke+y+Ln+4kkkfsjhkkf+U=MY+kkekkkff+YY>,Y0efkkhajakkkkkkkkak",
"kffakkkkk+g$LU,#kakkuheea+Y+bIH4kakufk4yYU+2Yd,fhakkaaawaaaakkkk",
"akqkkfekfk+M+GYN#*fkwaeeaOA,0AY>ekwfkk+dYC+6Yb*wwqjkwaeaaawwakhk",
"kjaaaeaesf*+u+CYU>Okqqewqoip,gUU%fs+*w+uYC+uUM*ahkkkqqewqqwwkhka",
"aakeeekjewk+v,1GYL6+eqqq5-2y+yCY25a>++2lYM>dYm=jkkakwwqwwqwjk5kk",
"kkkqqwkkkkkw+U+dYYM2#qq$7++6+8bYY+OD++3bM+<bUd=k%kkkkwqwaaaaekkk",
"kkkkkakeaaff+2L+CYTg>+k+G>+2+2yAY7+3>=yMb+2gmy=f+qfkkkkkkkkkakkk",
"aaakkkkafaffs+tp3YYA2$a+zY+1>>ybYI+>+<yMy+,uy3,+x5kwkkkkkkkwjhk5",
"ekkeqfkkqqaka+>zOCYYy2++yY+>2+yzIU#=$2bi+,2y32+p05kafkkk:kkhkaea",
"kfkkkekkqkeqa;+6z+Mml2+>2b=>2+2iCJ,#>2y3+,2y2,+A1+qkkkkkwkekhkkk",
"ekeaakakeekkke+,u>ymMy2+2yy=>=>yMMy#>22,+,222,33,=kaafkkekkkqekk",
"keaakkkkkfqkek>>2d+MMu2+<2b+>123mMr$>22#>2222+32,=qqaaffjkaawkka",
"kqeakskkkakkkkf+2y62Mu62+2g+>>22gmy#>22#>222<+2,,=qfeaaaakkkwkka",
"kewqeekkeawkwewO,2yOMy8>+,r+,>>2ymi+>,<$>222,+,,=++++++++.%+++kh",
"fqeswqwkfejf++=>=282by32=+8+>>,22Mb+>,$>,>2,>+++>iMAGIYUUxy1++wk",
"ekeee:5qjffe%&N>+22yyy22>+2+>>>,2gM$>>#>>>>,++3MUYYYYUJnr-+++*wk",
"5s##&97>$#1fa+,l#,22yy22>+,+>>>>26g>->O>>>>$$MIYYTGbi2,$#&>>+kkq",
"kqO$imHUYJNt>=$&#>222y22>+>$>>,>23r,=>&>>>#,GYYJmi3,&#&,>,>+sekk",
"kk1&$=ybMATYYYUM0#<22222>&>$>,>>,233&$>>>#7ITCmy,$#$<,>>>>Oe5esw",
"ese+>>+2wgMMUYYAb#>2,222>>$$>>>>>223$+>>#yCbd&##=222>,>>&+ekussk",
"jqww#>,&+8rbMMUMM#>2>222,>+$>>>>><<2#$>$>by03222<,>>>>>##wqhkkek",
"sqws*$,>2+OyybmMM3#,><<2<>+$>>>>>>23O&>$3322,>>>>>>>>$#4ewqwkkqq",
"eqkqq1O>><2$#yuMMb$>>>><<>+$>>>>>>,2O>O<>>>>>,<,>&$##5kkkkekkjqe",
"kqeqqq5+>>,2y$$ydM2&>>>>>>$+>>,>>>>2$#>>,,>>&++#=ekjkkkkehwqkjhk",
"sqkkkeqj$#>>,33+>yM#>>>>>,=+>>&&<,22n>O+>&#Oqkwkkkhkkkeajaqwajak",
"kqkkkewkkj+$>><2,#dd#>>>>>&O+2ZzlydCPTV>+#wkkkkkhkekkkhkkkwwkkaa",
"qswkkkwwwke4#$>>22#>>&>>$+yAYYYzuyCYK>Yl>>+kqkkhkkkkkkkkkkkkkkaa",
"jjskkwkwhjhjkq#$=>,=#+>#3bTUCbu3+&3ZYV>Y<>$5kkqqakjqjkjkkajqkafk",
"kkkakkkkkkkjO+++++#&>#+yMYC#ry2=&&#2BP>tY2>Okkuqwwaakkkakfjakkkk",
"kkqwkkkkwwekk+$9VULy#$ydJm#622<#FY&#,u2#Tr>$fkwwqwaeweeakkkkkkkk",
"efqweweeqewekk+&>>yy#>yMb#2222&$CA>O#,32#i,>+kkkkkkkkkkkakajwwkk",
"jskheeeeehwekkk&$><<#<iM&&22,>#&dd>X;#22&,<>+kkkejkkkkawakqkeawk",
"kwkkkjjwwwqkkakk4+++,3g6+22,,&&#>0>Xw-$23+2>+akkkkjaaakkkkkkkkak",
"kskekkkkkkkkkeqkfaq+,2u+,2<,>#5;#2>Xqw=&2+=,+awfjakkahawahaakkkk",
"ekefkkskkkkakjjqqqf+23>+22>>$1qw#>> wqeO=2+,=fjwqqjkqheaaawwakhk",
"kfeshwuehhkkaqaafkk+<3+,2,>=#qw5qO> jwseO,+,+qaahkkkqqawqqqwkjja",
"sskeeefjaqkekkkjkkj=21+2>>>+kqkke&$#eefj5++<+kkkkkjkwqqqqqwjkqkk",
"kkjwwwkkkkkakkkkkkj=<+>>>>+fekkkkk+;qqkkf+,++fkkkkjkkqqqaaaaekkk",
"kkkkffkwaeakkjkkkwb+,O=,>+fkefjkkk4kkffeee+++kkfkqkkkkkkkkkkafjk",
"esekkkksjakkkkawkek+>+,,Offeffk5aaakkfkffs+++fjwkekqkkkkkkkwjjjq",
"ekkaqjkkqqakawaakkk+=+>+:kkakaaaekkaqjkkqqs@aqaskkkakkkkqkkakaea",
"kakkkakkwkaqakkkh5w+=++kwkakjkkkkakkjakkqhaqafkkkw:kkkkkqkekkkkk",
"akeaasakeekjkajwekkaafkkwkkkqekkajeaakakeeksfajwakkaejkkqkkkwwkk",
"aaaakkkkkawkekkjhkqwaakkhkaawkkajaaakkkkkhwkekfjhkwwaakkakeawkka",
"jwaakskkkjkkkkkakkqkeaaaakkhekjwjweakjkkkjkkkkkakk:kaaaaekkjekkw",
"saqqwakkeawkkawekewkskwwkkakjkkjjaqqwakkeaqjkawekeakjkwwkkjjjkka",
"hwaewqwkhajhaaajkakkkkhhkaakjkqkjweawqwfjajjaahhkakkkkkakaajkkwk",
"ajaeaqkejjaakkakakkkaakwekqkeaqkajaaawfajhaakkakhkkkaafwakqjeaqk"
};
