/* XPM */
static char *result[] = {
/* columns rows colors chars-per-pixel */
"64 64 82 1 ",
"  c #222B16",
". c #2B3618",
"X c #2E3C19",
"o c #323E19",
"O c #2B401A",
"+ c #34431A",
"@ c #38471A",
"# c #354C1D",
"$ c #3A4C1B",
"% c #34511F",
"& c #3E521C",
"* c #3F591F",
"= c #365520",
"- c #3A5520",
"; c #3C5C21",
": c #3C6223",
"> c #41551E",
", c #455C1F",
"< c #46601F",
"1 c #54691F",
"2 c #586D1F",
"3 c #425F21",
"4 c #446422",
"5 c #496420",
"6 c #436B25",
"7 c #4D6C22",
"8 c #446E28",
"9 c #576D20",
"0 c #437127",
"q c #4C7225",
"w c #457628",
"e c #48742A",
"r c #467929",
"t c #4A7D2A",
"y c #527524",
"u c #5B7622",
"i c #547A25",
"p c #5E7C23",
"a c #4E7E31",
"s c #4E832B",
"d c #4F882C",
"f c #5C8226",
"g c #50872B",
"h c #5C8628",
"j c #528C2D",
"k c #5E8828",
"l c #4E8232",
"z c #518335",
"x c #558936",
"c c #558A3B",
"v c #598F3F",
"b c #5A903F",
"n c #638223",
"m c #668F26",
"M c #608D29",
"N c #64922A",
"B c #67982B",
"V c #699B2B",
"C c #759524",
"Z c #729927",
"A c #76A42A",
"S c #7AA328",
"D c #77A82B",
"F c #7CAB2B",
"G c #5F9746",
"H c #5F9847",
"J c #619B4A",
"K c #65A04E",
"L c #6AA755",
"P c #6AA855",
"I c #75B662",
"U c #7BBE69",
"Y c #7DC16C",
"T c #81A023",
"R c #8CAF25",
"E c #89B729",
"W c #90B224",
"Q c #92BB26",
"! c #99BD24",
"~ c #9CC424",
"^ c #A2C623",
"/ c #A7C822",
/* pixels */
"0sjjtjj0jsjjdgjjddjdsdjssgjdsdjw0sjgtjj0jsjjgjjjdjjjsjjrggjssjj0",
"j0tsdwrrtjstrgtwrssswwrrdjdssrjjd0sssrrrtjsttstwrstswwwrdjdsstjj",
"jjsgwwwwgrgjdgwwrjswwsjdjdds0sdrjjsgrwwwsrdjsgrwrjswwsjjjjjs6sdr",
"sssjjjjs0jjjjgjdjjjjjjgssssjsdsjsssjjdjg0jjjjgjsjjjjjjjssssgsssj",
"gwrdjjgssgjjwjjjjjjjjjjwrrrddjrjd0rdjjssssjdrdjjjjjjjjjrrrrsdjrj",
"twrsrtrrwr0gjstwsrsdjjjwsr0rjjr:srwsrsrrwrrsjsdwsrssjjjrtr0rjjww",
"t0jwwwwwwwwwrwjjdrwrjjjxddsdjgrss0jrr0wwwwq+%wjjgwwwjjjjjjsdjdwr",
"jwtwwwwwwwwwsjjjjjjjjjjjss0rjjgjj0rr0rrwwwwO+jdjjjjjjjjjrsrrjddj",
"dwjjjrwdsdjjjjwjjjsjjjw=4swwtttsswssswwsrs*Mqs0sssrsssrrsrrwrsrs",
"jwjjjswjjjwjjjjjdjsdjjswetzvJJJJHHKHKHHKHKKHKHHHHJJJHJJJJJJJJJJH",
"wsrjjjtwrjtj0jjgjjjjdslKIYYYYYYYYYYYYYYYYYYYYYYYYYYYYYYYYYYYYYYY",
"djjjjwjrgdssjjwwdjj:lPYYYYYYYYYYYYYYYYYYYYYYYYYYYYYYYYYYYYYYYYYY",
"djjtjjjjjjjgjjswwwtGUYYYYYYYYYYYYYYYYYYYYYYYYYYYYYYYYYYYYYYYYYYY",
"jjwwjjj#+#tjjjwwwrcYYYYYYYYYYYYYYYYYYYYYYYYYYYYYYYYYYYYYYYYYYYYY",
"rjwrtwroo9orjjjjdaUYYYYYYYYYYYYYYYYYYYYYYYYYYYYYYYYYYYYYYYYYYYYY",
"jgjgrsr:o+Q,@jjjtLYYYYYYYYYYYYYYYYYYYYYYYYYYYYYYYYYYYYYYYYYYYYYY",
"jwjjjgjrO1+!V@6glUYYYYYYYYYYYYYYYYYYYYYYYYYYYYYYYYYYYYYYYYYYYYYY",
"jgjsjjjjjoM+Q~,4KYYYYYYYYYYYYYYYYYYYYYYYYYYYYYYYYYYYYYYYYYYYYYYY",
"sjrjjjsjjjoBoF/tIYYYYYYYYYYYYYYYYYYYYYYYYYYYYYYYYYYYYYYYYYYYYYYY",
"jgsssrstss#$y@VsYYYYYYYYYYYYYYYYYYYYYYYYYYYYYYYYYYYYYYYYYYYYYYYY",
"ssjtrtjjswjoC,<xYYYYYYYYYYYYYYYYYYYYYYYYYYYYYYYYYYYYYYYYYYYYYYYY",
"jjjwwwjjjjjw+~*bYYYYYYYYYYYYYYYYYYYYYYYYYYYYYYYYYYYYYYYYYYYYYYYY",
"jjjjjgjwstsjO,ZGYYYYYYYYYYYYYYYYYYYYYYYYYYYYYYYYYYYYYYYYYYYYYYYY",
"stsjjjjggsjjt@tJYYYYYYYYYYYYYYYYYYYYYYYYYYYYYYYYYYYYYYYYYYYYYYYY",
"rjjs0djjrrsjso4JYYYYYYYYYYYYYYYYYYYYYYYYYYYYYYYYYYYYYYYYYYYYYYYY",
"jgjjdsjjwdswd%*HYYYYYYYYYYYYYYYYYYYYYYYYYYYYYYYYYYYYYYYYYYYYYYYY",
"sjtsddsjsrddjt&vYYYYYYYYYYYYYYYYYYYYYYYYYYYYYYYYYYYYYYYYYYYYYYYY",
"gttsjjjjddrjtj4zYYYYYYYYYYYYYYYYYYYYYYYYYYYYYYYYYYYYYYYYYYYYYYYY",
"jwtsjdjjjgjjjjsrYYYYYYYYYYYYYYYYYYYYYYYYYYYYYYYYYYYYYYYYYYYYYYYY",
"jtwqrsjjtswjwsrwIYYYYYYYYYYYYYYYYYYYYYYYYYYYYYYYYYYYYYYYYYYYYYYY",
"gwtsr0wjssdgoo$0KYYYYYYYYYYYYYYYYYYYYYYYYYYYYYYYYYYYYYYYYYYYYYYY",
"tjttt*:sdgss#$C*aYYYYYYYYYYYYYYYYYYYYYYYYYYYYYYYYYYYYYYYYYYYYYYY",
"0s+o$21&+X4ddo,neLYYYYYYYYYYYYYYYYYYYYYYYYYYYYYYYYYYYYYYYYYYYYYY",
"j6o+iBE~/QZu&$+$$eUYYYYYYYYYYYYYYYYYYYYYYYYYYYYYYYYYYYYYYYYYYYYY",
"jj4$+&yNVA^///~Vy4cYYYYYYYYYYYYYYYYYYYYYYYYYYYYYYYYYYYYYYYYYYYYY",
"sds+>$o5ikVV~//FNoecUYYYYYYYYYYYYYYYYYYYYYYYYYYYYYYYYYYYYYYYYYYY",
"dwww+&>$o7yNVV~VB@-eePYUYYYYYYYYYYYYYYYYYYYYYYYYYYYYYYYYYYYYYYYY",
"swrs%@,><@oqyNVVB7@>3eaLIYYYYYYYYYYYYYYYYYYYYYYYYYYUYYYYYYYYYYYY",
"t0jww*o>>,<+oyiVVNo3>>38rrzGGJJJJJJJJJHJJJHJJJJJJJJJJJJHJJHJJHHK",
"jwtwww8o>>,<y+#ynV3+>>>>3>&#44644446;;6464444;;*:rssssssrtwwlsrs",
"swjjjrwj+o>>,<7+3yBo3>>>>>&o&>$@3>55m>o+>$oowjwjjjdjjjttxswwsddj",
"jwjjjtwjjjo@>>,53ofno3>>>>$oo5SNhyfS!^C>o+rjjjjjdjtjjjgjjjrrjjds",
"rswjjjrwrjs:o@>>35o>>+>>@oyD^//NiyD/W>/p>$oj0jjgjjjjjjjjjjjdjjts",
"gjdjjwjrsdsdjwo+>>,$oo>.5B^~DNy5o@7S/T>/<>@6jjwwsjj6jjjjjsdwjsjj",
"jjjsjjjjjjjdXooooo+$>+oyV/S+yy5$@$+3Z~>u^<>ojjtwwwdtjjjtjjssjjjj",
"jjwrjjjjwwtjjo+9S~Q9+oynQVO955,oR/$o3i7o^u>+djwrwrsrrrtsjjjjjjjj",
"tjwrtwsrwswsjjo$$$uyo3iVM+,555$$AD3oo375+p,>ojjjjjjjjjjjsjsjwwjj",
"ggjsrsrtrswsjjj@@,33o5iV@>5<3>o$hh$.;o,5$,,>ojjjtjjjjjgwsjwjrdwj",
"jwjjjjgrwwwjjsjj<O$@><fq+<<,,>#o>y>.w:+<<o<>+sjjjjgsgsjjjjjjjjtj",
"jgjsjjjjjjjjjtwjgs6O,1qo><<,>O6=+<>.0w&$<@>>+swjjsjjtdtttdssjjjj",
"tjwgjjgjjjjsjjdwwws+,7*@<<>>$;0wo&& wwro><+>$sswwwgjrsrssswrsjgj",
"jgsggwstdsjjswtssjj$,1o,<>>>+0w00o& drsso>O>@qsssjjjwwtrwwwrjgjs",
"sgjtttggtwjtjjjgjjg$,,+<,>>oj8jjs#@Xrsgg0++>+jjgjjgjwwwwww0gj8jj",
"jjgwwwjjjjjtjjjjjjg&<+>>>>ogtjjjjjO*rqjjjo$@+jjjjjjjjwwwtssgtjjj",
"jjjjjgjwsssjjgjjjwg$>+>>>ojjtjjjjd4jjsjrttooogjjjwjjjjjjjjjjrjjj",
"sssjjjjgjsjjjjdwjrj+>+>>ogjrggj6dssjjjjsjsoo+jsrjrjwjjjjjjjtgjj0",
"rjds0jjjwwsjswssjjj+>+&o0jjsjstsrjjs0jjjwwsoswssjjjtjjjj0jjgjtts",
"jgjjjsjj0jswsjjjs0wO$o@j0jsjjjjjjdjjjtjjwjtwsjjjj8wjjjjj0jtjjjjj",
"sjtssgsjrtjgjsgrtjjstgjjwjjjwtjjsjtssjsjttjsjtgrtjjstjjjrjjjwwjj",
"ssssjjjjjsrjrjgjgjwrssjjsjtswjjsdtstjjjjjswjrjjgjjwrtsjjgjtswjjd",
"dwssjsjjjjjjjjjsjj0jtssstjjjrjgrjwssjsjjjjjjjjjsjj6jstsstjjjrjjw",
"gs0wrsjjtsrjjsrtjttggjwrjjsjjjjgsswwrsjjrtwjjswrjrtjgjwrjjsjjjjg",
"srstr0tjsssssssjjsjjjjgsjssjjjwjsrrtt6rjdssgssddjdjjjjjgjgsjjjwj",
"sgstsrgrggssjjtjsjdjssjrtj0jrswjtjssswjsgggsjjsjsjdjstjrtj6gwdwj"
};
