/* XPM */
static char *result[] = {
/* columns rows colors chars-per-pixel */
"64 64 76 1 ",
"  c #222B16",
". c #223118",
"X c #2B3618",
"o c #2E3C19",
"O c #323E19",
"+ c #2D441B",
"@ c #35431A",
"# c #38471B",
"$ c #354C1D",
"% c #3A4C1B",
"& c #3D521D",
"* c #375A23",
"= c #3C5B21",
"- c #3E6323",
"; c #41551E",
": c #445C1F",
"> c #47601F",
", c #50661F",
"< c #425F21",
"1 c #446422",
"2 c #496420",
"3 c #446C24",
"4 c #4D6B22",
"5 c #426D28",
"6 c #437127",
"7 c #4C7325",
"8 c #457628",
"9 c #497529",
"0 c #467929",
"q c #4A7D2A",
"w c #527524",
"e c #5C7721",
"r c #557B25",
"t c #5E7C23",
"y c #507C28",
"u c #4E7F31",
"i c #4E832B",
"p c #4F882C",
"a c #5C8226",
"s c #50872B",
"d c #5C8628",
"f c #528C2D",
"g c #5E8C2A",
"h c #4E8031",
"j c #518536",
"k c #578C3B",
"l c #598E3C",
"z c #668A25",
"x c #6F9024",
"c c #63922A",
"v c #67982B",
"b c #699B2B",
"n c #769B27",
"m c #719928",
"M c #76A42A",
"N c #7BA529",
"B c #7CAB2B",
"V c #5B9342",
"C c #5F9847",
"Z c #619B4A",
"A c #65A04E",
"S c #6AA755",
"D c #75B662",
"F c #7BBE69",
"G c #7DC16C",
"H c #81A023",
"J c #8CAF25",
"K c #8AB024",
"L c #87B329",
"P c #8DBB29",
"I c #90B224",
"U c #92BC26",
"Y c #97C225",
"T c #9CC424",
"R c #A3C623",
"E c #A7C822",
/* pixels */
"6iffiff8fiffifffppfpipfiipfpipf--fppiffififfsfffffffiffqiffiqff8",
"f6qii880qfiqqiq80iii808qpppiiifff-iii--0qfiq0iq80i0i8880pffiiqff",
"ffis8880i8ffif880fi08ippfppp-ififfppi-i0p8sfss880fi88ifffffq6ii0",
"iiiffffi6ffffififfffffpiiiipipifffpffffp5ffffsfiffffffpiiiqfiiif",
"i88iffiiipff8fffpffffff088ippf-ffq0qffpiisff8ffffffffff0888iff8f",
"i80iqi08888ifii8h0ipfff0ii-qffi-p-0p0pi-808ifis8i0iifffqiq68ff86",
"q6f88888888808ffp000ffffppipfp8iq-f00000888O$0ffs888ffffffqfff80",
"f8q888888888ifffffffffffqi88ffpff0pq-0q-888O@fsfffffffff0i88ffpf",
"h0iii08iqqiiqi8iii0iii0--088qiihp0qpp00ppp+B2f8fffifff0ipi88ipif",
"CCCZCZCZZZZZCZCCZZZZCCZZAACACCCCZZCVj00hpf+Tz=ffififffpfff00ffii",
"GGGGGGGGGGGGGGGGGGGGGGGGGGGGGGGGGGGGGGDAi9zEnOfpfffffffffffffpii",
"GGGGGGGGGGGGGGGGGGGGGGGGGGGGGGGGGGGGGGGGFSsbN@88iff6pfpffip8fiff",
"GGGGGGGGGGGGGGGGGGGGGGGGGGGGGGGGGGGGGGGGGGFlg#q808iifffqffiiffff",
"GGGGGGGGGGGGGGGGGGGGGGGGGGGGGGGGGGGGGGGGGGGGl18880i00qiiffffffff",
"GGGGGGGGGGGGGGGGGGGGGGGGGGGGGGGGGGGGGGGGGGGGFqhfffffffffifqf88ff",
"GGGGGGGGGGGGGGGGGGGGGGGGGGGGGGGGGGGGGGGGGGGGGSififffffi8if8fip8f",
"GGGGGGGGGGGGGGGGGGGGGGGGGGGGGGGGGGGGGGGGGGGGGGhppfpipiffffffffif",
"GGGGGGGGGGGGGGGGGGGGGGGGGGGGGGGGGGGGGGGGGGGGGGAhpiffqiq0iiiiffff",
"GGGGGGGGGGGGGGGGGGGGGGGGGGGGGGGGGGGGGGGGGGGGGGD008pf0iqiii80ifpf",
"GGGGGGGGGGGGGGGGGGGGGGGGGGGGGGGGGGGGGGGGGGGGGGG0ifff88q88888fifi",
"GGGGGGGGGGGGGGGGGGGGGGGGGGGGGGGGGGGGGGGGGGGGGGGjpfif0088888sf6ff",
"GGGGGGGGGGGGGGGGGGGGGGGGGGGGGGGGGGGGGGGGGGGGGGGV=fpff880qiisqfff",
"GGGGGGGGGGGGGGGGGGGGGGGGGGGGGGGGGGGGGGGGGGGGGGGC&8pfffffffffqfff",
"GGGGGGGGGGGGGGGGGGGGGGGGGGGGGGGGGGGGGGGGGGGGGGGZd3f0fffffff8fif6",
"GGGGGGGGGGGGGGGGGGGGGGGGGGGGGGGGGGGGGGGGGGGGGGGC7-fiffff6ffifi0i",
"GGGGGGGGGGGGGGGGGGGGGGGGGGGGGGGGGGGGGGGGGGGGGGGC3#8fffff6fqfffff",
"GGGGGGGGGGGGGGGGGGGGGGGGGGGGGGGGGGGGGGGGGGGGGGGV1&fqqfffqfff00ff",
"GGGGGGGGGGGGGGGGGGGGGGGGGGGGGGGGGGGGGGGGGGGGGGGh1$88iifpifqi8ffi",
"GGGGGGGGGGGGGGGGGGGGGGGGGGGGGGGGGGGGGGGGGGGGGGGu:$6fiiiiqfff0ppq",
"GGGGGGGGGGGGGGGGGGGGGGGGGGGGGGGGGGGGGGGGGGGGGGD0&@@OOOOO#.++##fp",
"GGGGGGGGGGGGGGGGGGGGGGGGGGGGGGGGGGGGGGGGGGGGGGZ1&abNKYRTTx4:@@8f",
"GGGGGGGGGGGGGGGGGGGGGGGGGGGGGGGGGGGGGGGGGGGGGGhvYEEEETPm7;o@#$8f",
"GGGGGGGGGGGGGGGGGGGGGGGGGGGGGGGGGGGGGGGGGGGGGSdEEELcr4:@O%;;Off6",
"GGGGGGGGGGGGGGGGGGGGGGGGGGGGGGGGGGGGGGGGGGGGFjKPvy4<%O%:;;;Oiqff",
"GGGGGGGGGGGGGGGGGGGGGGGGGGGGGGGGGGGGGGGGGGGFlgcw<@O#<:;;;&Oq6qsq",
"GGGGGGGGGGGGGGGGGGGGGGGGGGGGGGGGGGGGGGGGGGFky%O@%222;;;;%Oqfisqf",
"GGGGGGGGGGGGGGGGGGGGGGGGGGGGGGGGGGGFGGGGGSq9>>>>>;;;;;&@@88iffqf",
"GGGGGGGGGGGGGGGGGGGGGGGGGGGGGGGGGGGFGGDAu042:;:;;;;;;#@-q868ff83",
"ZZZZZZZZZZZZZZZZZZZZZZZZZZZZZZZCZZZVj989<;;;::::;%@OO3ffffiffp8q",
"i808888=11137=-7qd3-131113==11311113$O;<;:;;%OO@&0ffffffqi88ffif",
"i8fff08f@@;&:,4@;rvO;;;;;;&O;&##<<<<x;OO;%OO9f8fffifffqqfi88ifif",
"f8fffi8fffO#:&:1:Oad@;;;;;%O@>NczwznURn;O@9fffffififffifff88ffii",
"8i0fff080fq3O#&;24O&%#;;#OwBREEcryMEI;Et;%Of8ffifffffffffffffpii",
"ifsff8f9iiisp8@@%;<%@O;O2vRTNcr2O#4NEH;E2;#3ff88iff6fffffip8fiff",
"pfpifffffffioOO@OO@%:@OrbRM@wr>%##O<nU;eR2;Offq908iifffqffiiffff",
"ff00ffff88qffO@,HTU7@OwaPb@4,>:OJE;O<e4ORw;#ff8880qqq8qiffffffff",
"qf00q8i08i8qffO%;%ww#;wvc@:222%%MB<OO<42Ot:;Offfffffffffsfif88ff",
"fifi0iq0qi8ifff#@:::@2rb%%22:&O%dd; =O<2%;:;Offfipffffi8if8fqi8f",
"f8fffppq888ffiff-@%@&>a,+>,::%$O;w;X8=#>>@:;@iffffpipiffffffffqf",
"fififffffffffi8fsi3o>,w@;>:>;O5*@>;X88&#>#&;#q8fpiffiii8iiiiffff",
"if8fffiffffifss888s#>4&#>>&:#-68@&& 880O&>@;#ps888if0i0iii80ifif",
"fiisi8iiiiffi8iiiff#:,+>>:&&@6856O& p8ii@;O;#7iiifff88q88880fffi",
"iifqqqsii8pqfffsffs%:>#>;;&Of6ffi$#+0iss3@#&@fppffff8888888if3ff",
"fff888fffffiffffffs%>#&;;;@iqffffp+&88fff@%#@fffffpff888iiiiqfff",
"ffffsifqiiiffsfff0f#;@;;;@pfqfffff>fpsf0iqOOOpfff0ffffffffffqfff",
"iiiffffpsiffpfs8f0f#&O&&@ifqiff5iiiffffipiOOOfs8f0f0fffffffqiff6",
"0ffi6pff88pps8isfff@%#&@8ffsfiisqpfi6pff88soi8isfffiffff6ffifi0i",
"fpfpfiff8pi8ipffi88@%@@f6pifpfppfpppfiff8pi8ipffi66fffff6fqfffff",
"ifqiipifqqpspis8ippiqspf8ppp8iffipqiififqqfifqp8iffiqfff8fff80ff",
"piiifffffp8fqffppf88iiffsfii0ppspiiifffffi8fqffpff88qiffifii0ffi",
"p8qifpffppfffffpfp8fiiiiqffpqfs0s8iififffpfffffiff5fqiiiqffs0ff8",
"pi888iffiiqpfi8qfqqssp80ffspfffssi88qiffqi8ffi8qf0qfff88ffiffffi",
"i8qiq60ppissiipsfiffpfsspspppf8fs8qq868fiifiiiiffifffffifsifff0f",
"isiqi8pqpiiifpipsfpfiip0if8p8s8pipiii8fipiiiffififpfiif0qf6s0i8f"
};
